G04*
G04 #@! TF.GenerationSoftware,Altium Limited,Altium Designer,25.1.2 (22)*
G04*
G04 Layer_Color=8421504*
%FSLAX44Y44*%
%MOMM*%
G71*
G04*
G04 #@! TF.SameCoordinates,D9A04D4C-9399-4711-9A5C-C25994485AB8*
G04*
G04*
G04 #@! TF.FilePolarity,Positive*
G04*
G01*
G75*
%ADD12R,0.9000X1.0500*%
%ADD13R,0.6100X0.6350*%
%ADD14R,0.6350X0.6100*%
%ADD15R,2.7062X0.9542*%
%ADD16R,0.9542X2.7062*%
D12*
X358000Y265000D02*
D03*
X342000D02*
D03*
X733000Y400000D02*
D03*
X717000D02*
D03*
X737000Y265000D02*
D03*
X753000D02*
D03*
X537000D02*
D03*
X553000D02*
D03*
D13*
X325000Y339030D02*
D03*
Y350970D02*
D03*
X525000Y339030D02*
D03*
Y350970D02*
D03*
X461000Y492470D02*
D03*
Y480530D02*
D03*
X362250Y451530D02*
D03*
Y463470D02*
D03*
X721005Y349925D02*
D03*
Y337985D02*
D03*
X230000Y350970D02*
D03*
Y339030D02*
D03*
X425000Y350970D02*
D03*
Y339030D02*
D03*
X553250Y365720D02*
D03*
Y353780D02*
D03*
X618000Y342970D02*
D03*
Y331030D02*
D03*
X426250Y445030D02*
D03*
Y456970D02*
D03*
X414750Y557280D02*
D03*
Y569220D02*
D03*
X414800Y461070D02*
D03*
Y449130D02*
D03*
X394750Y463970D02*
D03*
Y452030D02*
D03*
X374750Y463720D02*
D03*
Y451780D02*
D03*
X350250Y463720D02*
D03*
Y451780D02*
D03*
X338250Y561280D02*
D03*
Y573220D02*
D03*
X318050Y581130D02*
D03*
Y593070D02*
D03*
X403750Y557280D02*
D03*
Y569220D02*
D03*
X366250Y561780D02*
D03*
Y573720D02*
D03*
D14*
X459280Y470250D02*
D03*
X471220D02*
D03*
X304830Y439100D02*
D03*
X316770D02*
D03*
X327030Y614000D02*
D03*
X338970D02*
D03*
X330530Y515750D02*
D03*
X342470D02*
D03*
X330530Y537750D02*
D03*
X342470D02*
D03*
X643030Y348000D02*
D03*
X654970D02*
D03*
X459780Y507500D02*
D03*
X471720D02*
D03*
X418030Y535750D02*
D03*
X429970D02*
D03*
X426310Y491465D02*
D03*
X438250D02*
D03*
X448270Y480100D02*
D03*
X436330D02*
D03*
X418030Y524750D02*
D03*
X429970D02*
D03*
X427280Y513750D02*
D03*
X439220D02*
D03*
X432280Y502750D02*
D03*
X444220D02*
D03*
X433530Y560750D02*
D03*
X445470D02*
D03*
X433530Y549750D02*
D03*
X445470D02*
D03*
X465970Y459250D02*
D03*
X454030D02*
D03*
X342470Y487750D02*
D03*
X330530D02*
D03*
X342470Y467750D02*
D03*
X330530D02*
D03*
X342470Y504750D02*
D03*
X330530D02*
D03*
X342470Y526750D02*
D03*
X330530D02*
D03*
X335770Y550100D02*
D03*
X323830D02*
D03*
D15*
X304800Y498850D02*
D03*
Y466350D02*
D03*
D16*
X485050Y528100D02*
D03*
X452550D02*
D03*
X373800Y596350D02*
D03*
X406300D02*
D03*
M02*
