G04*
G04 #@! TF.GenerationSoftware,Altium Limited,Altium Designer,25.3.3 (18)*
G04*
G04 Layer_Physical_Order=1*
G04 Layer_Color=255*
%FSLAX44Y44*%
%MOMM*%
G71*
G04*
G04 #@! TF.SameCoordinates,45B9CB35-E31E-4E84-A485-BBC3545AB0C6*
G04*
G04*
G04 #@! TF.FilePolarity,Positive*
G04*
G01*
G75*
%ADD10C,0.1500*%
%ADD11C,0.2000*%
%ADD12R,0.9000X1.0500*%
%ADD13R,0.6100X0.6350*%
%ADD14R,0.6350X0.6100*%
%ADD15R,2.7062X0.9542*%
%ADD16R,0.9542X2.7062*%
%ADD29C,0.2500*%
%ADD30C,0.3000*%
%ADD31C,0.4000*%
%ADD32C,1.4460*%
%ADD33C,1.5450*%
%ADD34C,2.3550*%
%ADD35C,1.5000*%
%ADD36R,1.5000X1.5000*%
%ADD37C,0.6000*%
%ADD38C,0.8000*%
G36*
X800000Y0D02*
X0D01*
Y665000D01*
X800000D01*
Y0D01*
D02*
G37*
%LPC*%
G36*
X331705Y618550D02*
X330030D01*
Y616776D01*
X324030D01*
Y618550D01*
X322355D01*
Y609450D01*
X324030D01*
Y611224D01*
X330030D01*
Y609450D01*
X331705D01*
Y618550D01*
D02*
G37*
G36*
X390000Y656624D02*
X270000D01*
X268852Y656148D01*
X209328Y596624D01*
X180000D01*
X178852Y596148D01*
X178376Y595000D01*
X178376Y565000D01*
X178852Y563852D01*
X180000Y563376D01*
X212500D01*
X213648Y563852D01*
X283172Y633376D01*
X369328D01*
X378376Y624328D01*
Y611381D01*
X376800D01*
Y609607D01*
X370800D01*
Y611381D01*
X367529D01*
Y599350D01*
X369303D01*
Y593350D01*
X367529D01*
Y581319D01*
X375473D01*
X375856Y580395D01*
X371984Y576524D01*
X371968D01*
X371812Y576593D01*
X371387Y576604D01*
X371073Y576632D01*
X370835Y576671D01*
X370800Y576681D01*
Y578395D01*
X361700D01*
Y578078D01*
X360700Y577664D01*
X360549Y577815D01*
X358895Y578500D01*
X357105D01*
X355451Y577815D01*
X354185Y576549D01*
X353500Y574895D01*
Y573105D01*
X354185Y571451D01*
X355451Y570185D01*
X357105Y569500D01*
X358895D01*
X360549Y570185D01*
X360700Y570336D01*
X360816Y570330D01*
X361455Y569985D01*
X361633Y569834D01*
X361673Y569787D01*
X361697Y569750D01*
X361700Y569743D01*
Y569045D01*
X370800D01*
X370876Y568077D01*
Y567423D01*
X370800Y566455D01*
X369876Y566455D01*
X361700D01*
Y564780D01*
X363474D01*
Y558780D01*
X361700D01*
Y557105D01*
X370800Y557105D01*
X370876Y556137D01*
Y551172D01*
X366328Y546624D01*
X357500D01*
X356352Y546148D01*
X353852Y543648D01*
X353376Y542500D01*
Y540133D01*
X352985Y539741D01*
X352300Y538087D01*
Y536297D01*
X352985Y534643D01*
X353376Y534252D01*
Y522641D01*
X352872Y522136D01*
X352187Y520482D01*
Y518692D01*
X352872Y517038D01*
X353376Y516534D01*
Y512190D01*
X352860Y511674D01*
X352175Y510020D01*
Y508230D01*
X352860Y506576D01*
X353376Y506060D01*
Y490940D01*
X352985Y490549D01*
X352300Y488895D01*
Y487105D01*
X352985Y485451D01*
X353376Y485060D01*
Y475000D01*
X353852Y473852D01*
X355000Y473376D01*
X399328D01*
X402126Y470578D01*
X402126Y445297D01*
X402132Y445285D01*
X402127Y445272D01*
X402369Y444712D01*
X402602Y444149D01*
X402614Y444144D01*
X402620Y444132D01*
X405069Y441756D01*
X405089Y441748D01*
X405098Y441728D01*
X405664Y441520D01*
X406224Y441298D01*
X406244Y441306D01*
X406265Y441299D01*
X406468Y441307D01*
X406605Y441250D01*
X408395D01*
X410049Y441935D01*
X411315Y443201D01*
X411834Y444455D01*
X419350D01*
Y453805D01*
X411874D01*
X411874Y453805D01*
Y456395D01*
X419350D01*
Y458070D01*
X417576D01*
Y464070D01*
X419350D01*
Y465745D01*
X411624D01*
X411624Y471577D01*
X413423Y473376D01*
X422500D01*
X423648Y473852D01*
X428648Y478852D01*
X429124Y480000D01*
Y486500D01*
X430034Y486914D01*
X430985D01*
Y496015D01*
X429051D01*
X428644Y496928D01*
X428812Y497114D01*
X429006Y497663D01*
X429229Y498200D01*
X436955D01*
Y507300D01*
X427996D01*
X427096Y508200D01*
X427510Y509200D01*
X431955D01*
Y518300D01*
X425160D01*
X424224Y518423D01*
X423969Y518927D01*
X423753Y519448D01*
X423692Y519473D01*
X423663Y519532D01*
X422705Y520354D01*
Y529300D01*
X414979D01*
X414978Y529300D01*
Y531200D01*
X414979Y531200D01*
X422705D01*
Y539916D01*
X422705Y540300D01*
X423102Y541136D01*
X424043Y541525D01*
X425309Y542791D01*
X425994Y544445D01*
Y546235D01*
X425309Y547889D01*
X424043Y549155D01*
X422389Y549840D01*
X420599D01*
X418945Y549155D01*
X417679Y547889D01*
X416994Y546235D01*
Y544445D01*
X417679Y542791D01*
X418945Y541525D01*
X419489Y541300D01*
X419290Y540300D01*
X414854D01*
X414503Y541148D01*
X413355Y541624D01*
X411922D01*
X401865Y551681D01*
X402248Y552605D01*
X408300D01*
Y554280D01*
X406526D01*
Y560280D01*
X408300D01*
Y561955D01*
X399200D01*
X399124Y562923D01*
Y563577D01*
X399200Y564545D01*
X400124Y564545D01*
X408300D01*
Y571303D01*
X408324Y571356D01*
X408450Y571595D01*
X408461Y571614D01*
X408464Y571617D01*
X408465Y571619D01*
X408468Y571624D01*
X408506Y571678D01*
X408511Y571697D01*
X409188Y572374D01*
X410000Y572134D01*
X410200Y571972D01*
Y564545D01*
X419300D01*
Y564744D01*
X420131Y565300D01*
X420855Y565000D01*
X422645D01*
X424299Y565685D01*
X425565Y566951D01*
X426250Y568605D01*
Y570395D01*
X425565Y572049D01*
X424299Y573315D01*
X422645Y574000D01*
X420855D01*
X419798Y573562D01*
X419300Y573895D01*
Y573895D01*
X418075D01*
X418056Y573905D01*
X418031Y573965D01*
X417973Y574180D01*
X417922Y574490D01*
X417887Y574887D01*
X417873Y575407D01*
X417809Y575551D01*
Y579140D01*
X417576Y580310D01*
X416913Y581303D01*
X416913Y581303D01*
X414395Y583820D01*
X414339Y583968D01*
X413967Y584359D01*
X413667Y584712D01*
X413411Y585053D01*
X413198Y585381D01*
X413025Y585696D01*
X412889Y585998D01*
X412788Y586285D01*
X412719Y586562D01*
X412679Y586829D01*
X412662Y587173D01*
X412571Y587365D01*
Y601028D01*
X413402Y601584D01*
X413605Y601500D01*
X415395D01*
X417049Y602185D01*
X418315Y603451D01*
X419000Y605105D01*
Y606895D01*
X418315Y608549D01*
X417049Y609815D01*
X415395Y610500D01*
X413605D01*
X413402Y610416D01*
X412571Y610972D01*
Y611381D01*
X411624D01*
X411624Y635000D01*
X411148Y636148D01*
X391148Y656148D01*
X390000Y656624D01*
D02*
G37*
G36*
X770000Y661582D02*
X765842Y661255D01*
X761786Y660281D01*
X757932Y658685D01*
X754376Y656505D01*
X751204Y653796D01*
X748495Y650624D01*
X746315Y647068D01*
X744719Y643214D01*
X743745Y639158D01*
X743418Y635000D01*
X743745Y630842D01*
X744719Y626786D01*
X746315Y622932D01*
X748495Y619375D01*
X751204Y616204D01*
X754376Y613495D01*
X757932Y611315D01*
X761786Y609719D01*
X765842Y608745D01*
X770000Y608418D01*
X774158Y608745D01*
X778214Y609719D01*
X782068Y611315D01*
X785624Y613495D01*
X788796Y616204D01*
X791505Y619375D01*
X793685Y622932D01*
X795281Y626786D01*
X796255Y630842D01*
X796582Y635000D01*
X796255Y639158D01*
X795281Y643214D01*
X793685Y647068D01*
X791505Y650624D01*
X788796Y653796D01*
X785624Y656505D01*
X782068Y658685D01*
X778214Y660281D01*
X774158Y661255D01*
X770000Y661582D01*
D02*
G37*
G36*
X190000D02*
X185842Y661255D01*
X181786Y660281D01*
X177932Y658685D01*
X174375Y656505D01*
X171204Y653796D01*
X168495Y650624D01*
X166315Y647068D01*
X164719Y643214D01*
X163745Y639158D01*
X163418Y635000D01*
X163745Y630842D01*
X164719Y626786D01*
X166315Y622932D01*
X168495Y619375D01*
X171204Y616204D01*
X174375Y613495D01*
X177932Y611315D01*
X181786Y609719D01*
X185842Y608745D01*
X190000Y608418D01*
X194158Y608745D01*
X198214Y609719D01*
X202068Y611315D01*
X205625Y613495D01*
X208796Y616204D01*
X211505Y619375D01*
X213685Y622932D01*
X215281Y626786D01*
X216255Y630842D01*
X216582Y635000D01*
X216255Y639158D01*
X215281Y643214D01*
X213685Y647068D01*
X211505Y650624D01*
X208796Y653796D01*
X205625Y656505D01*
X202068Y658685D01*
X198214Y660281D01*
X194158Y661255D01*
X190000Y661582D01*
D02*
G37*
G36*
X343645Y618550D02*
X334295D01*
Y609450D01*
X334672D01*
X334971Y608925D01*
X335144Y608450D01*
X334500Y606895D01*
Y605105D01*
X335185Y603451D01*
X336451Y602185D01*
X338105Y601500D01*
X339895D01*
X341549Y602185D01*
X342815Y603451D01*
X343500Y605105D01*
Y606895D01*
X342856Y608450D01*
X343029Y608925D01*
X343328Y609450D01*
X343645D01*
Y618550D01*
D02*
G37*
G36*
X319156Y605704D02*
X317366D01*
X315712Y605019D01*
X314446Y603753D01*
X313761Y602099D01*
Y600309D01*
X314409Y598745D01*
X314248Y598298D01*
X313942Y597745D01*
X313500D01*
Y588395D01*
X322600D01*
Y595848D01*
X322675Y595972D01*
X322644Y596096D01*
X322693Y596214D01*
X322600Y596439D01*
Y597745D01*
X322600D01*
X322527Y597800D01*
X322294Y598243D01*
X322113Y598745D01*
X322761Y600309D01*
Y602099D01*
X322076Y603753D01*
X320810Y605019D01*
X319156Y605704D01*
D02*
G37*
G36*
X722198Y595975D02*
X718702D01*
X715326Y595070D01*
X712299Y593323D01*
X709827Y590851D01*
X708080Y587824D01*
X707175Y584448D01*
Y580952D01*
X708080Y577576D01*
X709827Y574549D01*
X712299Y572077D01*
X715326Y570330D01*
X718702Y569425D01*
X722198D01*
X725574Y570330D01*
X728601Y572077D01*
X731073Y574549D01*
X732820Y577576D01*
X733725Y580952D01*
Y584448D01*
X732820Y587824D01*
X731073Y590851D01*
X728601Y593323D01*
X725574Y595070D01*
X722198Y595975D01*
D02*
G37*
G36*
X560898D02*
X557402D01*
X554026Y595070D01*
X550999Y593323D01*
X548527Y590851D01*
X546780Y587824D01*
X545875Y584448D01*
Y580952D01*
X546780Y577576D01*
X548527Y574549D01*
X550999Y572077D01*
X554026Y570330D01*
X557402Y569425D01*
X560898D01*
X564274Y570330D01*
X567301Y572077D01*
X569773Y574549D01*
X571520Y577576D01*
X572425Y580952D01*
Y584448D01*
X571520Y587824D01*
X569773Y590851D01*
X567301Y593323D01*
X564274Y595070D01*
X560898Y595975D01*
D02*
G37*
G36*
X438205Y565300D02*
X436530D01*
Y563526D01*
X430530D01*
Y565300D01*
X428855D01*
Y556200D01*
X430530D01*
Y557974D01*
X436530D01*
Y556200D01*
X438205D01*
Y565300D01*
D02*
G37*
G36*
X342800Y565955D02*
X333700D01*
Y564280D01*
X335474D01*
Y558280D01*
X333700D01*
Y556605D01*
X342800D01*
Y558280D01*
X341026D01*
Y564280D01*
X342800D01*
Y565955D01*
D02*
G37*
G36*
X340445Y554650D02*
X338770D01*
Y552876D01*
X332770D01*
Y554650D01*
X331095D01*
Y545550D01*
X332770D01*
Y547324D01*
X338770D01*
Y545550D01*
X340445D01*
Y554650D01*
D02*
G37*
G36*
X419300Y561955D02*
X410200D01*
Y560280D01*
X411974D01*
Y554280D01*
X410200D01*
Y552605D01*
X419300D01*
Y554280D01*
X417526D01*
Y560280D01*
X419300D01*
Y561955D01*
D02*
G37*
G36*
X438205Y554300D02*
X436530D01*
Y552526D01*
X430530D01*
Y554300D01*
X428855D01*
Y545200D01*
X430530D01*
Y546974D01*
X436530D01*
Y545200D01*
X438205D01*
Y554300D01*
D02*
G37*
G36*
X541395Y556000D02*
X539605D01*
X537951Y555315D01*
X536685Y554049D01*
X536000Y552395D01*
Y550605D01*
X536685Y548951D01*
X537951Y547685D01*
X539605Y547000D01*
X541395D01*
X543049Y547685D01*
X544315Y548951D01*
X545000Y550605D01*
Y552395D01*
X544315Y554049D01*
X543049Y555315D01*
X541395Y556000D01*
D02*
G37*
G36*
X450145Y565300D02*
X440795D01*
Y556200D01*
X448390D01*
X448615Y556107D01*
X448622Y556110D01*
X448630Y556107D01*
X449381Y556114D01*
X449401Y556094D01*
X449408Y554897D01*
X448809Y554300D01*
X440795D01*
Y545200D01*
X450145D01*
Y546479D01*
X451145Y547148D01*
X452105Y546750D01*
X453895D01*
X455549Y547435D01*
X456815Y548701D01*
X457500Y550355D01*
Y552145D01*
X456815Y553799D01*
X456088Y554526D01*
X455549Y555065D01*
X456088Y555833D01*
X456690Y556435D01*
X457375Y558089D01*
Y559879D01*
X456690Y561533D01*
X455424Y562799D01*
X453770Y563484D01*
X451980D01*
X451145Y563138D01*
X450145Y563806D01*
Y565300D01*
D02*
G37*
G36*
X458821Y543131D02*
X455550D01*
Y541357D01*
X449550D01*
Y543131D01*
X446279D01*
Y531100D01*
X448053D01*
Y525100D01*
X446279D01*
Y513069D01*
X449550D01*
Y514843D01*
X455550D01*
Y513069D01*
X458821D01*
Y525100D01*
X457047D01*
Y531100D01*
X458821D01*
Y543131D01*
D02*
G37*
G36*
X347145Y542300D02*
X345470D01*
Y540526D01*
X339470D01*
Y542300D01*
X337795D01*
Y533200D01*
X339470D01*
Y534974D01*
X345470D01*
Y533200D01*
X347145D01*
Y542300D01*
D02*
G37*
G36*
X143145Y589750D02*
X141355D01*
X139701Y589065D01*
X138435Y587799D01*
X137750Y586145D01*
Y585565D01*
X137653Y585364D01*
X137645Y585353D01*
X137644Y585346D01*
X137629Y585316D01*
X137626Y585257D01*
X137622Y585246D01*
X137600Y585192D01*
X137555Y585108D01*
X137485Y584997D01*
X137400Y584879D01*
X137098Y584522D01*
X136910Y584327D01*
X136851Y584177D01*
X91733Y539059D01*
X44099D01*
X43960Y539122D01*
X43392Y539144D01*
X43212Y539164D01*
X43048Y539190D01*
X42920Y539220D01*
X42829Y539248D01*
X42775Y539269D01*
X42765Y539275D01*
X42720Y539314D01*
X42689Y539325D01*
X42684Y539329D01*
X42671Y539331D01*
X42460Y539404D01*
X42049Y539815D01*
X40395Y540500D01*
X38605D01*
X36951Y539815D01*
X35685Y538549D01*
X35000Y536895D01*
Y535105D01*
X35685Y533451D01*
X36951Y532185D01*
X38605Y531500D01*
X40395D01*
X42049Y532185D01*
X42459Y532595D01*
X42671Y532669D01*
X42684Y532671D01*
X42689Y532675D01*
X42720Y532686D01*
X42765Y532725D01*
X42775Y532731D01*
X42829Y532752D01*
X42920Y532780D01*
X43048Y532810D01*
X43192Y532833D01*
X43657Y532872D01*
X43928Y532877D01*
X44076Y532941D01*
X93000D01*
X93000Y532941D01*
X94171Y533174D01*
X95163Y533837D01*
X141161Y579835D01*
X141304Y579888D01*
X141721Y580275D01*
X141862Y580388D01*
X141997Y580485D01*
X142108Y580555D01*
X142192Y580600D01*
X142246Y580622D01*
X142257Y580626D01*
X142316Y580629D01*
X142346Y580644D01*
X142353Y580645D01*
X142364Y580653D01*
X142565Y580750D01*
X143145D01*
X144799Y581435D01*
X146065Y582701D01*
X146750Y584355D01*
Y586145D01*
X146065Y587799D01*
X144799Y589065D01*
X143145Y589750D01*
D02*
G37*
G36*
X759895Y543000D02*
X758105D01*
X756451Y542315D01*
X755185Y541049D01*
X754500Y539395D01*
Y537605D01*
X755185Y535951D01*
X756451Y534685D01*
X758105Y534000D01*
X759895D01*
X761549Y534685D01*
X762815Y535951D01*
X763500Y537605D01*
Y539395D01*
X762815Y541049D01*
X761549Y542315D01*
X759895Y543000D01*
D02*
G37*
G36*
X705024Y568400D02*
X701576D01*
X698195Y567728D01*
X695011Y566408D01*
X692144Y564493D01*
X689707Y562056D01*
X687792Y559189D01*
X686472Y556005D01*
X685800Y552624D01*
Y549176D01*
X686472Y545795D01*
X687792Y542611D01*
X689707Y539744D01*
X692144Y537307D01*
X695011Y535392D01*
X698195Y534072D01*
X701576Y533400D01*
X705024D01*
X708405Y534072D01*
X711589Y535392D01*
X714456Y537307D01*
X716893Y539744D01*
X718808Y542611D01*
X720127Y545795D01*
X720800Y549176D01*
Y552624D01*
X720127Y556005D01*
X718808Y559189D01*
X716893Y562056D01*
X714456Y564493D01*
X711589Y566408D01*
X708405Y567728D01*
X705024Y568400D01*
D02*
G37*
G36*
X578024D02*
X574576D01*
X571195Y567728D01*
X568011Y566408D01*
X565144Y564493D01*
X562707Y562056D01*
X560792Y559189D01*
X559473Y556005D01*
X558800Y552624D01*
Y549176D01*
X559473Y545795D01*
X560792Y542611D01*
X562707Y539744D01*
X565144Y537307D01*
X568011Y535392D01*
X571195Y534072D01*
X574576Y533400D01*
X578024D01*
X581405Y534072D01*
X584589Y535392D01*
X587456Y537307D01*
X589893Y539744D01*
X591808Y542611D01*
X593128Y545795D01*
X593800Y549176D01*
Y552624D01*
X593128Y556005D01*
X591808Y559189D01*
X589893Y562056D01*
X587456Y564493D01*
X584589Y566408D01*
X581405Y567728D01*
X578024Y568400D01*
D02*
G37*
G36*
X347145Y531300D02*
X345470D01*
Y529526D01*
X339470D01*
Y531300D01*
X337795D01*
Y522200D01*
X339470D01*
Y523974D01*
X345470D01*
Y522200D01*
X347145D01*
Y531300D01*
D02*
G37*
G36*
Y520300D02*
X345470D01*
Y518526D01*
X339470D01*
Y520300D01*
X337795D01*
Y511200D01*
X339470D01*
Y512974D01*
X345470D01*
Y511200D01*
X347145D01*
Y520300D01*
D02*
G37*
G36*
X322600Y585805D02*
X313500D01*
Y584130D01*
X315274D01*
Y578130D01*
X313500D01*
Y576455D01*
X319309D01*
X319801Y575455D01*
X297964Y547087D01*
X297827Y546581D01*
X297626Y546096D01*
Y539422D01*
X279827Y521624D01*
X272500Y521624D01*
X271352Y521148D01*
X238852Y488648D01*
X238376Y487500D01*
Y475672D01*
X210828Y448124D01*
X164000D01*
X162852Y447648D01*
X162376Y446500D01*
Y416000D01*
X162852Y414852D01*
X164000Y414376D01*
X266000D01*
X270827Y414376D01*
X277852Y407352D01*
X279000Y406876D01*
X333500D01*
X334648Y407352D01*
X341673Y414376D01*
X487250D01*
X488398Y414852D01*
X507648Y434102D01*
X508124Y435250D01*
Y500961D01*
X508060Y501115D01*
X508092Y501278D01*
X507829Y501672D01*
X507648Y502109D01*
X507494Y502173D01*
X507402Y502311D01*
X506155Y503145D01*
X505992Y503177D01*
X505874Y503295D01*
X505401Y503295D01*
X505276Y503319D01*
X505145Y503374D01*
X505004D01*
X504936Y503387D01*
X504916Y503374D01*
X503678D01*
X502621Y503811D01*
X501811Y504621D01*
X501374Y505678D01*
Y506822D01*
X501811Y507879D01*
X502621Y508689D01*
X503678Y509126D01*
X504916D01*
X504936Y509113D01*
X505004Y509126D01*
X505145D01*
X505276Y509181D01*
X505401Y509205D01*
X505874Y509205D01*
X505992Y509323D01*
X506155Y509355D01*
X507402Y510189D01*
X507494Y510327D01*
X507648Y510391D01*
X507829Y510828D01*
X508092Y511222D01*
X508060Y511385D01*
X508124Y511539D01*
Y523677D01*
X509124Y524092D01*
X509861Y523354D01*
X511515Y522669D01*
X513306D01*
X514959Y523354D01*
X516225Y524620D01*
X516911Y526274D01*
Y526669D01*
X517834Y527052D01*
X517951Y526935D01*
X519605Y526250D01*
X521395D01*
X523049Y526935D01*
X524201Y528087D01*
X525276Y528106D01*
X525340Y527951D01*
X526606Y526685D01*
X528260Y526000D01*
X530050D01*
X530305Y526106D01*
X533706Y522705D01*
Y512158D01*
X532706Y511959D01*
X532565Y512299D01*
X531299Y513565D01*
X529645Y514250D01*
X527855D01*
X526201Y513565D01*
X524935Y512299D01*
X524250Y510645D01*
Y508855D01*
X524935Y507201D01*
X526201Y505935D01*
X527855Y505250D01*
X529645D01*
X530206Y504400D01*
Y498595D01*
X529282Y498212D01*
X527394Y500100D01*
X527500Y500355D01*
Y502145D01*
X526815Y503799D01*
X525549Y505065D01*
X523895Y505750D01*
X522105D01*
X520451Y505065D01*
X519185Y503799D01*
X518500Y502145D01*
Y500355D01*
X519185Y498701D01*
X520451Y497435D01*
X522105Y496750D01*
X523895D01*
X524150Y496856D01*
X526456Y494550D01*
Y473700D01*
X515378Y462622D01*
X514881Y461878D01*
X514706Y461000D01*
Y426193D01*
X480224Y391711D01*
X268447D01*
X267569Y391536D01*
X266825Y391039D01*
X232274Y356488D01*
X232139Y356450D01*
X232100Y356380D01*
X232025Y356352D01*
X231845Y356180D01*
X231702Y356058D01*
X231570Y355958D01*
X231450Y355878D01*
X231342Y355817D01*
X231247Y355773D01*
X231165Y355743D01*
X231094Y355724D01*
X231033Y355713D01*
X230898Y355703D01*
X230784Y355645D01*
X225450D01*
Y346295D01*
X234550D01*
Y351629D01*
X234608Y351743D01*
X234618Y351878D01*
X234629Y351940D01*
X234648Y352010D01*
X234678Y352092D01*
X234722Y352187D01*
X234783Y352295D01*
X234863Y352415D01*
X234963Y352547D01*
X235085Y352690D01*
X235257Y352870D01*
X235326Y353052D01*
X269397Y387123D01*
X356602D01*
X356985Y386199D01*
X327273Y356488D01*
X327139Y356450D01*
X327100Y356380D01*
X327025Y356352D01*
X326845Y356180D01*
X326702Y356058D01*
X326570Y355958D01*
X326450Y355878D01*
X326342Y355817D01*
X326247Y355773D01*
X326165Y355743D01*
X326095Y355724D01*
X326033Y355713D01*
X325898Y355703D01*
X325784Y355645D01*
X320450D01*
Y346295D01*
X329550D01*
Y351629D01*
X329608Y351743D01*
X329618Y351878D01*
X329629Y351940D01*
X329648Y352010D01*
X329678Y352092D01*
X329723Y352187D01*
X329783Y352295D01*
X329863Y352415D01*
X329963Y352547D01*
X330085Y352690D01*
X330257Y352870D01*
X330326Y353052D01*
X361230Y383956D01*
X482250D01*
X483128Y384131D01*
X483872Y384628D01*
X521500Y422256D01*
X522706Y421050D01*
Y355835D01*
X522627Y355657D01*
X522627Y355645D01*
X520450D01*
Y346636D01*
X520140Y346574D01*
X519396Y346077D01*
X512613Y339294D01*
X439920D01*
X430326Y348888D01*
X430256Y349070D01*
X430085Y349250D01*
X429963Y349393D01*
X429863Y349525D01*
X429783Y349645D01*
X429723Y349753D01*
X429678Y349848D01*
X429648Y349930D01*
X429629Y350000D01*
X429618Y350062D01*
X429608Y350197D01*
X429550Y350311D01*
Y355645D01*
X427373D01*
X427373Y355657D01*
X427294Y355835D01*
Y360000D01*
X427119Y360878D01*
X426622Y361622D01*
X418940Y369304D01*
X418881Y369472D01*
X418772Y369594D01*
X418722Y369663D01*
X418672Y369751D01*
X418621Y369862D01*
X418572Y370000D01*
X418527Y370168D01*
X418493Y370342D01*
X418443Y370875D01*
X418439Y371178D01*
X418315Y371464D01*
Y372080D01*
X417630Y373734D01*
X416364Y375000D01*
X414710Y375685D01*
X412920D01*
X411266Y375000D01*
X410000Y373734D01*
X409315Y372080D01*
Y370290D01*
X410000Y368636D01*
X411266Y367370D01*
X412920Y366685D01*
X413536D01*
X413822Y366561D01*
X414148Y366557D01*
X414406Y366540D01*
X414634Y366511D01*
X414832Y366473D01*
X415000Y366428D01*
X415138Y366379D01*
X415250Y366328D01*
X415337Y366278D01*
X415406Y366228D01*
X415528Y366119D01*
X415696Y366060D01*
X422706Y359050D01*
Y355835D01*
X422627Y355657D01*
X422627Y355645D01*
X420450D01*
Y346295D01*
X425784D01*
X425898Y346237D01*
X426033Y346227D01*
X426095Y346216D01*
X426165Y346197D01*
X426247Y346167D01*
X426342Y346122D01*
X426450Y346062D01*
X426570Y345982D01*
X426702Y345882D01*
X426845Y345760D01*
X427025Y345588D01*
X427100Y345560D01*
X427139Y345490D01*
X427273Y345452D01*
X428097Y344629D01*
X427714Y343705D01*
X420450D01*
Y334355D01*
X423200D01*
X423456Y333843D01*
Y327511D01*
X423385Y327379D01*
X423354Y327078D01*
X423279Y326798D01*
X423117Y326386D01*
X422860Y325866D01*
X422530Y325292D01*
X420136Y321978D01*
X419329Y320997D01*
X419329Y320997D01*
X419328Y320997D01*
X419275Y320821D01*
X419118Y320664D01*
X417904Y318561D01*
X417275Y316215D01*
Y313785D01*
X417904Y311439D01*
X419118Y309336D01*
X420836Y307618D01*
X422939Y306404D01*
X425285Y305775D01*
X427715D01*
X430061Y306404D01*
X432164Y307618D01*
X433882Y309336D01*
X435096Y311439D01*
X435725Y313785D01*
Y316215D01*
X435096Y318561D01*
X433882Y320664D01*
X432499Y322048D01*
X432385Y322264D01*
X431499Y323001D01*
X430024Y324375D01*
X429468Y324973D01*
X429005Y325538D01*
X428646Y326047D01*
X428390Y326493D01*
X428230Y326864D01*
X428151Y327151D01*
X428116Y327516D01*
X428116Y327517D01*
X428116Y327518D01*
X428044Y327653D01*
Y333843D01*
X428300Y334355D01*
X429550D01*
Y341869D01*
X430474Y342252D01*
X437348Y335378D01*
X438092Y334881D01*
X438970Y334706D01*
X513563D01*
X514441Y334881D01*
X515185Y335378D01*
X519526Y339719D01*
X520450Y339336D01*
Y336063D01*
X520376Y335886D01*
X520450Y335708D01*
Y334355D01*
X520950D01*
X521206Y333843D01*
Y327617D01*
X521134Y327483D01*
X521101Y327145D01*
X521023Y326857D01*
X520861Y326463D01*
X520602Y325978D01*
X520244Y325416D01*
X519804Y324812D01*
X517790Y322515D01*
X516941Y321662D01*
X516820Y321366D01*
X516118Y320664D01*
X514904Y318561D01*
X514275Y316215D01*
Y313785D01*
X514904Y311439D01*
X516118Y309336D01*
X517836Y307618D01*
X519939Y306404D01*
X522285Y305775D01*
X524715D01*
X527061Y306404D01*
X529164Y307618D01*
X530882Y309336D01*
X532096Y311439D01*
X532725Y313785D01*
Y316215D01*
X532096Y318561D01*
X530882Y320664D01*
X530180Y321366D01*
X530059Y321662D01*
X529190Y322535D01*
X528444Y323330D01*
X527205Y324799D01*
X526757Y325416D01*
X526398Y325979D01*
X526139Y326463D01*
X525977Y326857D01*
X525899Y327145D01*
X525866Y327483D01*
X525794Y327617D01*
Y333843D01*
X526050Y334355D01*
X529550D01*
Y339336D01*
X530474Y339719D01*
X534815Y335378D01*
X535559Y334881D01*
X536437Y334706D01*
X613450D01*
Y326355D01*
X615450D01*
X615706Y325843D01*
Y323107D01*
X615881Y322229D01*
X616137Y321846D01*
X616261Y321493D01*
X616450Y321281D01*
X616532Y321164D01*
X616574Y321081D01*
X616592Y321025D01*
X616599Y320980D01*
X616598Y320926D01*
X616582Y320844D01*
X616541Y320722D01*
X616461Y320556D01*
X616291Y320285D01*
X616245Y320019D01*
X616141Y319838D01*
X616072Y319734D01*
X616075Y319723D01*
X615404Y318561D01*
X614775Y316215D01*
Y313785D01*
X615404Y311439D01*
X616618Y309336D01*
X618336Y307618D01*
X620439Y306404D01*
X622785Y305775D01*
X625215D01*
X627561Y306404D01*
X629664Y307618D01*
X631382Y309336D01*
X632596Y311439D01*
X633225Y313785D01*
Y316215D01*
X632596Y318561D01*
X631382Y320664D01*
X629664Y322382D01*
X627561Y323596D01*
X625215Y324225D01*
X622785D01*
X622255Y324083D01*
X622018Y324135D01*
X621661Y324071D01*
X621398Y324048D01*
X621157Y324052D01*
X620935Y324078D01*
X620725Y324127D01*
X620521Y324199D01*
X620317Y324297D01*
X620294Y324311D01*
Y325843D01*
X620550Y326355D01*
X622550D01*
Y334706D01*
X632030D01*
X632908Y334881D01*
X633652Y335378D01*
X640948Y342673D01*
X641130Y342743D01*
X641310Y342915D01*
X641453Y343037D01*
X641585Y343137D01*
X641705Y343217D01*
X641813Y343278D01*
X641908Y343322D01*
X641990Y343352D01*
X642060Y343371D01*
X642122Y343382D01*
X642257Y343392D01*
X642371Y343450D01*
X647705D01*
Y352550D01*
X638355D01*
Y347216D01*
X638297Y347102D01*
X638287Y346967D01*
X638276Y346906D01*
X638257Y346835D01*
X638227Y346753D01*
X638182Y346658D01*
X638122Y346550D01*
X638042Y346430D01*
X637942Y346298D01*
X637820Y346155D01*
X637649Y345975D01*
X637620Y345900D01*
X637550Y345861D01*
X637512Y345726D01*
X631080Y339294D01*
X622550D01*
Y347645D01*
X620373D01*
X620373Y347657D01*
X620294Y347835D01*
Y351451D01*
X620119Y352328D01*
X619622Y353073D01*
X619622Y353073D01*
X609360Y363335D01*
X608615Y363833D01*
X607737Y364007D01*
X602916D01*
X602418Y364916D01*
X602443Y365007D01*
X604360Y366114D01*
X605986Y367740D01*
X607135Y369730D01*
X607730Y371951D01*
Y374249D01*
X607135Y376470D01*
X605986Y378460D01*
X604360Y380086D01*
X602370Y381235D01*
X600149Y381830D01*
X597851D01*
X595630Y381235D01*
X593640Y380086D01*
X592014Y378460D01*
X590865Y376470D01*
X590270Y374249D01*
Y371951D01*
X590865Y369730D01*
X592014Y367740D01*
X593640Y366114D01*
X595557Y365007D01*
X595582Y364916D01*
X595084Y364007D01*
X582516D01*
X582018Y364916D01*
X582043Y365007D01*
X583960Y366114D01*
X585586Y367740D01*
X586735Y369730D01*
X587330Y371951D01*
Y374249D01*
X586735Y376470D01*
X585586Y378460D01*
X583960Y380086D01*
X581970Y381235D01*
X579749Y381830D01*
X577451D01*
X575230Y381235D01*
X573240Y380086D01*
X571614Y378460D01*
X570465Y376470D01*
X569870Y374249D01*
Y371951D01*
X570465Y369730D01*
X571614Y367740D01*
X573240Y366114D01*
X575157Y365007D01*
X575182Y364916D01*
X574684Y364007D01*
X572237D01*
X543294Y392950D01*
Y449046D01*
X543371Y449207D01*
X543380Y449370D01*
X543394Y449454D01*
X543420Y449552D01*
X543463Y449666D01*
X543526Y449799D01*
X543613Y449949D01*
X543712Y450096D01*
X544053Y450509D01*
X544264Y450726D01*
X544379Y451015D01*
X544725Y451362D01*
X545285Y451381D01*
X545834Y451298D01*
X546185Y450451D01*
X546621Y450015D01*
X546736Y449726D01*
X546963Y449492D01*
X547133Y449298D01*
X547274Y449116D01*
X547387Y448950D01*
X547474Y448800D01*
X547537Y448666D01*
X547580Y448552D01*
X547606Y448454D01*
X547620Y448370D01*
X547629Y448207D01*
X547706Y448046D01*
Y413000D01*
X547881Y412122D01*
X548378Y411378D01*
X575378Y384378D01*
X576122Y383881D01*
X577000Y383706D01*
X577000Y383706D01*
X629050D01*
X635706Y377050D01*
Y369000D01*
X635881Y368122D01*
X636378Y367378D01*
X646134Y357622D01*
X646378Y357257D01*
X647256Y356378D01*
X648001Y355881D01*
X648879Y355706D01*
X668430D01*
X669098Y354706D01*
X668938Y354259D01*
X668065Y353390D01*
X667270Y352644D01*
X665801Y351405D01*
X665184Y350956D01*
X664622Y350598D01*
X664137Y350339D01*
X663743Y350177D01*
X663455Y350099D01*
X663117Y350066D01*
X662983Y349994D01*
X659835D01*
X659657Y350073D01*
X659645Y350073D01*
Y352550D01*
X650295D01*
Y343450D01*
X659645D01*
Y345327D01*
X659657Y345327D01*
X659835Y345406D01*
X662983D01*
X663117Y345334D01*
X663455Y345301D01*
X663743Y345223D01*
X664137Y345061D01*
X664622Y344802D01*
X665184Y344444D01*
X665788Y344004D01*
X668085Y341990D01*
X668938Y341141D01*
X669234Y341020D01*
X669936Y340318D01*
X672039Y339104D01*
X674386Y338475D01*
X676814D01*
X679161Y339104D01*
X681264Y340318D01*
X682982Y342036D01*
X684196Y344139D01*
X684825Y346485D01*
Y348914D01*
X684196Y351261D01*
X682982Y353364D01*
X681640Y354706D01*
X682054Y355706D01*
X689750D01*
X690456Y355000D01*
X690500Y354854D01*
X690716Y354592D01*
X690864Y354333D01*
X691028Y353939D01*
X691188Y353414D01*
X691332Y352762D01*
X691448Y352025D01*
X691648Y348977D01*
X691652Y347773D01*
X691775Y347478D01*
Y346485D01*
X692404Y344139D01*
X693618Y342036D01*
X695336Y340318D01*
X697439Y339104D01*
X699786Y338475D01*
X702215D01*
X704561Y339104D01*
X706664Y340318D01*
X708382Y342036D01*
X709456Y343896D01*
X710456Y343628D01*
Y333100D01*
X702899Y325544D01*
X702754Y325500D01*
X702492Y325284D01*
X702233Y325136D01*
X701839Y324972D01*
X701314Y324812D01*
X700662Y324668D01*
X699925Y324552D01*
X696877Y324352D01*
X695673Y324348D01*
X695378Y324225D01*
X694386D01*
X692039Y323596D01*
X689936Y322382D01*
X688218Y320664D01*
X687004Y318561D01*
X686375Y316215D01*
Y313785D01*
X687004Y311439D01*
X688218Y309336D01*
X689936Y307618D01*
X692039Y306404D01*
X694386Y305775D01*
X696814D01*
X699161Y306404D01*
X701264Y307618D01*
X702982Y309336D01*
X704196Y311439D01*
X704825Y313785D01*
Y314778D01*
X704948Y315073D01*
X704952Y316305D01*
X704986Y317394D01*
X705149Y319309D01*
X705268Y320062D01*
X705412Y320714D01*
X705572Y321239D01*
X705736Y321633D01*
X705884Y321892D01*
X706100Y322154D01*
X706144Y322299D01*
X714372Y330528D01*
X714869Y331272D01*
X715044Y332150D01*
X715044Y332150D01*
Y381868D01*
X725372Y392196D01*
X725869Y392940D01*
X726000Y393596D01*
X727000Y393498D01*
Y393250D01*
X732250D01*
Y394912D01*
X733750D01*
Y393250D01*
X739000D01*
Y399250D01*
X737338D01*
Y400750D01*
X739000D01*
Y406750D01*
X733750D01*
Y405088D01*
X732250D01*
Y406750D01*
X727044D01*
X727000Y406750D01*
X726044Y406856D01*
Y408682D01*
X725869Y409560D01*
X725372Y410304D01*
X677510Y458167D01*
X676765Y458664D01*
X675887Y458839D01*
X563535D01*
X563373Y458916D01*
X563211Y458924D01*
X563127Y458938D01*
X563029Y458964D01*
X562914Y459007D01*
X562781Y459070D01*
X562631Y459157D01*
X562485Y459256D01*
X562072Y459598D01*
X561855Y459809D01*
X561565Y459924D01*
X561130Y460359D01*
X560827Y460485D01*
X560576Y461479D01*
X560630Y461649D01*
X560831Y461729D01*
X561064Y461956D01*
X561259Y462126D01*
X561441Y462268D01*
X561607Y462380D01*
X561757Y462467D01*
X561890Y462531D01*
X562005Y462573D01*
X562103Y462599D01*
X562187Y462613D01*
X562350Y462622D01*
X562511Y462699D01*
X689307D01*
X745451Y406555D01*
Y392056D01*
X719203Y365807D01*
X718650Y364981D01*
X718456Y364005D01*
Y355279D01*
X718382Y355112D01*
X718373Y354782D01*
X718357Y354600D01*
X716455D01*
Y345250D01*
X725555D01*
Y354600D01*
X723653D01*
X723637Y354782D01*
X723628Y355112D01*
X723554Y355279D01*
Y362949D01*
X749802Y389198D01*
X750355Y390025D01*
X750549Y391000D01*
Y407250D01*
X750355Y408225D01*
X749802Y409052D01*
X748975Y409605D01*
X748868Y409626D01*
X691879Y466615D01*
X691135Y467113D01*
X690257Y467287D01*
X562511D01*
X562350Y467364D01*
X562187Y467373D01*
X562103Y467387D01*
X562005Y467413D01*
X561890Y467456D01*
X561757Y467519D01*
X561607Y467606D01*
X561461Y467705D01*
X561048Y468046D01*
X560831Y468257D01*
X560541Y468372D01*
X560106Y468808D01*
X558452Y469493D01*
X556662D01*
X555008Y468808D01*
X553742Y467542D01*
X553057Y465888D01*
Y464098D01*
X553742Y462444D01*
X555008Y461178D01*
X555311Y461053D01*
X555545Y459873D01*
X554766Y459094D01*
X554081Y457440D01*
Y456697D01*
X553081Y456283D01*
X552549Y456815D01*
X550895Y457500D01*
X549105D01*
X547451Y456815D01*
X546274Y455639D01*
X545715Y455620D01*
X545166Y455702D01*
X544815Y456549D01*
X543549Y457815D01*
X541895Y458500D01*
X541099D01*
X540279Y459500D01*
X540294Y459575D01*
X540294Y459576D01*
Y461046D01*
X540371Y461207D01*
X540380Y461370D01*
X540394Y461454D01*
X540420Y461552D01*
X540463Y461666D01*
X540526Y461800D01*
X540612Y461950D01*
X540712Y462096D01*
X541053Y462509D01*
X541264Y462726D01*
X541379Y463015D01*
X541815Y463451D01*
X542500Y465105D01*
Y466895D01*
X541815Y468549D01*
X540549Y469815D01*
X538895Y470500D01*
X538291Y471500D01*
X538294Y471515D01*
Y523655D01*
X538294Y523655D01*
X538119Y524533D01*
X537622Y525277D01*
X537622Y525277D01*
X533549Y529350D01*
X533655Y529605D01*
Y531395D01*
X532970Y533049D01*
X531704Y534315D01*
X530050Y535000D01*
X528260D01*
X526606Y534315D01*
X525454Y533163D01*
X524379Y533144D01*
X524315Y533299D01*
X523049Y534565D01*
X521395Y535250D01*
X519605D01*
X517951Y534565D01*
X516685Y533299D01*
X516000Y531645D01*
Y531250D01*
X515076Y530867D01*
X514959Y530984D01*
X513306Y531669D01*
X511515D01*
X509861Y530984D01*
X509124Y530246D01*
X508124Y530660D01*
Y557500D01*
X507648Y558648D01*
X482648Y583648D01*
X481500Y584124D01*
X437999D01*
X436851Y583648D01*
X432602Y579399D01*
X432126Y578251D01*
X432126Y575250D01*
X432602Y574102D01*
X435852Y570852D01*
X437000Y570376D01*
X462327Y570377D01*
X478376Y554328D01*
Y543131D01*
X478779Y542158D01*
Y513069D01*
X479649D01*
X480236Y512069D01*
X479750Y510895D01*
Y509105D01*
X480346Y507665D01*
X479379Y507265D01*
X479150Y507036D01*
X478852Y506913D01*
X478728Y506614D01*
X478500Y506386D01*
Y506063D01*
X478376Y505765D01*
Y495187D01*
X478450Y495009D01*
X478418Y494820D01*
X478680Y494454D01*
X478852Y494039D01*
X479029Y493965D01*
X479141Y493809D01*
X480641Y492874D01*
X480779Y492851D01*
X480879Y492751D01*
X481376D01*
X481867Y492670D01*
X481981Y492751D01*
X482121D01*
X482665Y492976D01*
X483809D01*
X484866Y492538D01*
X485676Y491729D01*
X486114Y490672D01*
Y489528D01*
X485676Y488471D01*
X484866Y487662D01*
X483809Y487224D01*
X482665D01*
X482121Y487449D01*
X481981D01*
X481867Y487530D01*
X481376Y487449D01*
X480879D01*
X480779Y487349D01*
X480641Y487326D01*
X479141Y486391D01*
X479029Y486235D01*
X478852Y486161D01*
X478680Y485746D01*
X478418Y485380D01*
X478450Y485191D01*
X478376Y485013D01*
Y445672D01*
X471828Y439124D01*
X438017D01*
X437626Y440124D01*
X438615Y441113D01*
X439300Y442767D01*
Y444557D01*
X438615Y446211D01*
X437349Y447477D01*
X435695Y448162D01*
X433905D01*
X432594Y447619D01*
X432355Y447585D01*
X432210Y447500D01*
X432105Y447447D01*
X431986Y447398D01*
X431852Y447352D01*
X431800Y447338D01*
X431593Y447381D01*
X431088Y447706D01*
X430985Y447804D01*
X430800Y448073D01*
Y449705D01*
X421700D01*
Y440355D01*
X423446D01*
Y439124D01*
X397554D01*
Y442353D01*
X398565Y443364D01*
X399250Y445018D01*
Y446808D01*
X399129Y447100D01*
X399300Y447355D01*
X399300D01*
Y456705D01*
X390200D01*
Y447355D01*
X390200D01*
X390371Y447100D01*
X390250Y446808D01*
Y445018D01*
X390935Y443364D01*
X391946Y442353D01*
Y439124D01*
X377804D01*
Y441940D01*
X378565Y442701D01*
X379250Y444355D01*
Y446145D01*
X379024Y446692D01*
X379300Y447105D01*
X379300D01*
Y456455D01*
X370200D01*
Y447105D01*
X370200D01*
X370476Y446692D01*
X370250Y446145D01*
Y444355D01*
X370935Y442701D01*
X372196Y441440D01*
Y439124D01*
X346054D01*
Y442190D01*
X347065Y443201D01*
X347594Y444479D01*
X347747Y444680D01*
X347790Y444843D01*
X347828Y444954D01*
X347878Y445073D01*
X347941Y445201D01*
X348019Y445337D01*
X348113Y445481D01*
X348212Y445617D01*
X348480Y445935D01*
X348546Y445997D01*
X348829Y446238D01*
X349101Y446444D01*
X349361Y446614D01*
X349609Y446752D01*
X349843Y446860D01*
X350064Y446940D01*
X350273Y446995D01*
X350474Y447028D01*
X350748Y447046D01*
X350868Y447105D01*
X354800D01*
Y456455D01*
X345700D01*
Y452548D01*
X345644Y452440D01*
X345621Y452183D01*
X345579Y451996D01*
X345497Y451759D01*
X345368Y451474D01*
X345185Y451148D01*
X344947Y450784D01*
X344664Y450402D01*
X344555Y450275D01*
X344518Y450259D01*
X344469Y450243D01*
X344436Y450237D01*
X344411Y450236D01*
X344385Y450237D01*
X344258Y450260D01*
X344167Y450241D01*
X344145Y450250D01*
X342355D01*
X340701Y449565D01*
X339435Y448299D01*
X338750Y446645D01*
Y444855D01*
X339435Y443201D01*
X340446Y442190D01*
Y439124D01*
X335000D01*
X333852Y438648D01*
X329328Y434124D01*
X322268D01*
X321445Y434550D01*
X321445Y435124D01*
Y443650D01*
X319770D01*
Y441876D01*
X313770D01*
Y443650D01*
X312095D01*
X312095Y434550D01*
X311272Y434124D01*
X310328D01*
X309505Y434550D01*
X309505Y435124D01*
Y443650D01*
X305300D01*
Y443995D01*
X304615Y445649D01*
X303349Y446915D01*
X301695Y447600D01*
X299905D01*
X298251Y446915D01*
X296985Y445649D01*
X296300Y443995D01*
Y442205D01*
X296985Y440551D01*
X298251Y439285D01*
X299905Y438600D01*
X300155Y438350D01*
X300155Y434550D01*
X299332Y434124D01*
X298172D01*
X277874Y454422D01*
Y481828D01*
X287547Y491501D01*
X289769D01*
X290917Y491977D01*
X291166Y492579D01*
X319831D01*
Y495692D01*
X319916Y495793D01*
X320831Y496278D01*
X322105Y495750D01*
X323895D01*
X325549Y496435D01*
X326815Y497701D01*
X327500Y499355D01*
Y500200D01*
X335205D01*
Y509300D01*
X328971D01*
X328700Y509354D01*
X328000D01*
Y509645D01*
X327700Y510369D01*
X328256Y511200D01*
X335205D01*
Y520300D01*
X327610D01*
X327385Y520393D01*
X327188Y520311D01*
X326977Y520341D01*
X326820Y520300D01*
X326090D01*
X326086Y520304D01*
X324432Y520989D01*
X323340D01*
X322403Y521873D01*
X322392Y521913D01*
X322405Y522147D01*
X322605Y522250D01*
X324395D01*
X325250Y522604D01*
X325855Y522200D01*
Y522200D01*
X335205D01*
Y531300D01*
X325855D01*
Y531300D01*
X325250Y530896D01*
X324395Y531250D01*
X322605D01*
X321944Y531589D01*
X321922Y532250D01*
X322827Y532869D01*
X322945Y532820D01*
X324735D01*
X325777Y533252D01*
X325855Y533200D01*
Y533200D01*
X335205D01*
Y542300D01*
X325855D01*
Y542256D01*
X325023Y541701D01*
X324735Y541820D01*
X322945D01*
X322455Y541617D01*
X321624Y542173D01*
Y545550D01*
X328505D01*
Y554650D01*
X328505D01*
X328194Y555116D01*
X328500Y555855D01*
Y557645D01*
X327815Y559299D01*
X327589Y559524D01*
X332387Y567406D01*
X332455Y567842D01*
X332624Y568250D01*
Y570040D01*
X332700Y570082D01*
X333700Y569485D01*
Y568545D01*
X342800D01*
Y577895D01*
X335445D01*
X335214Y577988D01*
X335194Y577980D01*
X335174Y577987D01*
X334799Y577974D01*
X334692Y577988D01*
X334577Y578012D01*
X334495Y578037D01*
X334443Y578058D01*
X334417Y578072D01*
X334414Y578073D01*
X334358Y578138D01*
X334291Y578171D01*
X334261Y578240D01*
X334035Y578329D01*
X333299Y579065D01*
X331645Y579750D01*
X329855D01*
X328201Y579065D01*
X326935Y577799D01*
X326448Y576624D01*
X322600Y576624D01*
Y578130D01*
X320826D01*
Y584130D01*
X322600D01*
Y585805D01*
D02*
G37*
G36*
X476395Y512050D02*
X472470D01*
Y510388D01*
X470970D01*
Y512050D01*
X467045D01*
Y508250D01*
X468707D01*
Y506750D01*
X467045D01*
Y502950D01*
X470970D01*
Y504612D01*
X472470D01*
Y502950D01*
X476395D01*
Y506750D01*
X474733D01*
Y508250D01*
X476395D01*
Y512050D01*
D02*
G37*
G36*
X464455D02*
X455105D01*
Y511021D01*
X454105Y510352D01*
X453145Y510750D01*
X451355D01*
X449701Y510065D01*
X448435Y508799D01*
X447814Y507300D01*
X439545D01*
Y498200D01*
X445874D01*
X446145Y498146D01*
X447250D01*
Y497855D01*
X447935Y496201D01*
X448615Y495521D01*
X448542Y494748D01*
X447913Y494548D01*
X446886Y495575D01*
X445232Y496260D01*
X443442D01*
X442849Y496015D01*
X433575D01*
Y486914D01*
X442925D01*
Y486914D01*
X443442Y487260D01*
X445232D01*
X446886Y487945D01*
X447854Y488913D01*
X448983Y488802D01*
X449028Y488694D01*
X450294Y487428D01*
X451947Y486743D01*
X453738D01*
X455392Y487428D01*
X455504Y487541D01*
X456450Y487795D01*
Y487795D01*
X456450Y487795D01*
X457861D01*
X458011Y487733D01*
X458113Y487775D01*
X458220Y487746D01*
X458304Y487795D01*
X465550D01*
Y497145D01*
X457038D01*
X456306Y497804D01*
X456250Y498062D01*
Y499645D01*
X455565Y501299D01*
X455244Y501619D01*
X455239Y502036D01*
X456103Y502950D01*
X456411D01*
X456636Y502857D01*
X456860Y502950D01*
X464455D01*
Y512050D01*
D02*
G37*
G36*
X434645Y540300D02*
X425295D01*
Y531200D01*
X430642D01*
X431198Y530369D01*
X430928Y529717D01*
Y529407D01*
X430911Y529400D01*
X430838Y529375D01*
X430796Y529366D01*
X430680Y529356D01*
X430574Y529300D01*
X425295D01*
Y520200D01*
X434645D01*
X434645Y520200D01*
Y520200D01*
X435379Y519633D01*
X435585Y519142D01*
X435043Y518300D01*
X434545D01*
Y509200D01*
X443895D01*
Y518300D01*
X443895Y518300D01*
X443709Y519300D01*
X444250Y520605D01*
Y522395D01*
X443565Y524049D01*
X442299Y525315D01*
X440645Y526000D01*
X440212D01*
X439544Y527000D01*
X439928Y527927D01*
Y529717D01*
X439428Y530925D01*
X439645Y531250D01*
X441299Y531935D01*
X442565Y533201D01*
X443250Y534855D01*
Y536645D01*
X442565Y538299D01*
X441299Y539565D01*
X439645Y540250D01*
X437855D01*
X436201Y539565D01*
X435770Y539134D01*
X435645Y539086D01*
X435027Y539341D01*
X434645Y539604D01*
Y540300D01*
D02*
G37*
G36*
X347145Y509300D02*
X345470D01*
Y507526D01*
X339470D01*
Y509300D01*
X337795D01*
Y500200D01*
X339470D01*
Y501974D01*
X345470D01*
Y500200D01*
X347145D01*
Y509300D01*
D02*
G37*
G36*
X325855Y492300D02*
X325250Y491896D01*
X324395Y492250D01*
X322605D01*
X320951Y491565D01*
X319685Y490299D01*
X319000Y488645D01*
Y486855D01*
X319685Y485201D01*
X320951Y483935D01*
X322605Y483250D01*
X324395D01*
X325250Y483604D01*
X325855Y483200D01*
Y483200D01*
X335205D01*
Y492300D01*
X325855D01*
Y492300D01*
D02*
G37*
G36*
X347145Y492300D02*
X345470D01*
Y490526D01*
X339470D01*
Y492300D01*
X337795D01*
Y483200D01*
X339470D01*
Y484974D01*
X345470D01*
Y483200D01*
X347145D01*
Y492300D01*
D02*
G37*
G36*
X465550Y485205D02*
X456450D01*
Y485071D01*
X455745Y484600D01*
X453955D01*
X453378Y484361D01*
X452945Y484650D01*
Y484650D01*
X451639D01*
X451414Y484743D01*
X451277Y484686D01*
X451131Y484718D01*
X451024Y484650D01*
X443595D01*
Y475550D01*
X451024D01*
X451131Y475482D01*
X451277Y475514D01*
X451414Y475457D01*
X451639Y475550D01*
X452945D01*
Y475550D01*
X453172Y475702D01*
X454220Y475437D01*
X454605Y474800D01*
X454605Y474600D01*
Y472373D01*
X454593Y472373D01*
X454416Y472294D01*
X453126D01*
X452964Y472371D01*
X452803Y472380D01*
X452711Y472394D01*
X452599Y472422D01*
X452466Y472468D01*
X452311Y472535D01*
X452137Y472626D01*
X451962Y472731D01*
X451494Y473066D01*
X451245Y473272D01*
X451024Y473340D01*
X450799Y473565D01*
X449145Y474250D01*
X447355D01*
X445701Y473565D01*
X444435Y472299D01*
X443750Y470645D01*
Y468855D01*
X444435Y467201D01*
X445701Y465935D01*
X447355Y465250D01*
X449145D01*
X450799Y465935D01*
X451482Y466618D01*
X451781Y466766D01*
X451985Y466998D01*
X452150Y467165D01*
X452304Y467301D01*
X452444Y467408D01*
X452570Y467488D01*
X452679Y467545D01*
X452775Y467584D01*
X452858Y467607D01*
X452934Y467620D01*
X453098Y467629D01*
X453122Y467640D01*
X453148Y467632D01*
X453289Y467706D01*
X454416D01*
X454593Y467627D01*
X454605Y467627D01*
Y465700D01*
X463955D01*
Y474800D01*
X457658D01*
X457191Y475800D01*
X457237Y475855D01*
X457820D01*
X458011Y475776D01*
X458166Y475840D01*
X458331Y475808D01*
X458401Y475855D01*
X465550D01*
Y477569D01*
X465585Y477579D01*
X465823Y477618D01*
X466137Y477646D01*
X466562Y477657D01*
X466717Y477726D01*
X467559D01*
X468416Y476869D01*
Y475967D01*
X468347Y475812D01*
X468336Y475387D01*
X468308Y475073D01*
X468269Y474835D01*
X468259Y474800D01*
X466545D01*
Y465700D01*
X475895D01*
Y474800D01*
X474181D01*
X474171Y474835D01*
X474132Y475073D01*
X474104Y475387D01*
X474093Y475812D01*
X474024Y475967D01*
Y478030D01*
X473810Y479103D01*
X473203Y480013D01*
X470703Y482513D01*
X469793Y483120D01*
X468720Y483334D01*
X466717D01*
X466562Y483403D01*
X466137Y483414D01*
X465823Y483442D01*
X465585Y483481D01*
X465550Y483491D01*
Y485205D01*
D02*
G37*
G36*
X441005Y484650D02*
X439330D01*
Y482876D01*
X433330D01*
Y484650D01*
X431655D01*
Y475550D01*
X433330D01*
Y477324D01*
X439330D01*
Y475550D01*
X441005D01*
Y484650D01*
D02*
G37*
G36*
X324895Y474500D02*
X323105D01*
X321451Y473815D01*
X320663Y473027D01*
X319831Y472621D01*
X307800D01*
Y470847D01*
X301800D01*
Y472621D01*
X289769D01*
Y469350D01*
X291543D01*
Y463350D01*
X289769D01*
Y460079D01*
X301800D01*
Y461853D01*
X307800D01*
Y460079D01*
X319831D01*
Y466391D01*
X320831Y466805D01*
X321451Y466185D01*
X323105Y465500D01*
X324895D01*
X325023Y465553D01*
X325855Y464998D01*
Y463200D01*
X335205D01*
Y472300D01*
X328831D01*
X328811Y472308D01*
X328736Y472307D01*
X328509Y472419D01*
X328269Y472435D01*
X328097Y472455D01*
X327960Y472478D01*
X327862Y472502D01*
X327835Y472511D01*
X327816Y472562D01*
X327790Y472574D01*
X326549Y473815D01*
X324895Y474500D01*
D02*
G37*
G36*
X347145Y472300D02*
X345470D01*
Y470526D01*
X339470D01*
Y472300D01*
X337795D01*
Y463200D01*
X339470D01*
Y464974D01*
X345470D01*
Y463200D01*
X345700D01*
Y459045D01*
X354800D01*
Y460720D01*
X353026D01*
Y466720D01*
X354800D01*
Y468395D01*
X347145D01*
Y472300D01*
D02*
G37*
G36*
X470645Y463800D02*
X468970D01*
Y462026D01*
X462970D01*
Y463800D01*
X461295D01*
Y454700D01*
X462970D01*
Y456474D01*
X468970D01*
Y454700D01*
X470645D01*
Y463800D01*
D02*
G37*
G36*
X399300Y468645D02*
X390200D01*
Y466970D01*
X391974D01*
Y460970D01*
X390200D01*
Y459295D01*
X399300D01*
Y460970D01*
X397526D01*
Y466970D01*
X399300D01*
Y468645D01*
D02*
G37*
G36*
X379300Y468395D02*
X370200D01*
Y466720D01*
X371974D01*
Y460720D01*
X370200D01*
Y459045D01*
X379300D01*
Y460720D01*
X377526D01*
Y466720D01*
X379300D01*
Y468395D01*
D02*
G37*
G36*
X366800Y468145D02*
X357700D01*
Y466470D01*
X359474D01*
Y460470D01*
X357700D01*
Y458795D01*
X366800D01*
Y460470D01*
X365026D01*
Y466470D01*
X366800D01*
Y468145D01*
D02*
G37*
G36*
X430800Y461645D02*
X421700D01*
Y459970D01*
X423474D01*
Y453970D01*
X421700D01*
Y452295D01*
X430800D01*
Y453970D01*
X429026D01*
Y459970D01*
X430800D01*
Y461645D01*
D02*
G37*
G36*
X458705Y463800D02*
X449355D01*
Y454700D01*
X449355D01*
X449869Y453931D01*
X449750Y453645D01*
Y451855D01*
X450435Y450201D01*
X451701Y448935D01*
X453355Y448250D01*
X455145D01*
X456799Y448935D01*
X458065Y450201D01*
X458750Y451855D01*
Y453645D01*
X458463Y454338D01*
X458705Y454700D01*
X458705D01*
Y463800D01*
D02*
G37*
G36*
X366800Y456205D02*
X357700D01*
Y446855D01*
X357998D01*
X358553Y446023D01*
X358500Y445895D01*
Y444105D01*
X359185Y442451D01*
X360451Y441185D01*
X362105Y440500D01*
X363895D01*
X365549Y441185D01*
X366815Y442451D01*
X367500Y444105D01*
Y445895D01*
X366815Y447549D01*
X366800Y447564D01*
Y456205D01*
D02*
G37*
G36*
X620549Y381830D02*
X618251D01*
X616030Y381235D01*
X614040Y380086D01*
X612414Y378460D01*
X611265Y376470D01*
X610670Y374249D01*
Y371951D01*
X611265Y369730D01*
X612414Y367740D01*
X614040Y366114D01*
X616030Y364965D01*
X618251Y364370D01*
X620549D01*
X622770Y364965D01*
X624760Y366114D01*
X626386Y367740D01*
X627535Y369730D01*
X628130Y371951D01*
Y374249D01*
X627535Y376470D01*
X626386Y378460D01*
X624760Y380086D01*
X622770Y381235D01*
X620549Y381830D01*
D02*
G37*
G36*
X127645Y434250D02*
X125855D01*
X124201Y433565D01*
X122935Y432299D01*
X122250Y430645D01*
Y430065D01*
X122153Y429864D01*
X122145Y429852D01*
X122144Y429846D01*
X122129Y429816D01*
X122126Y429757D01*
X122122Y429746D01*
X122100Y429692D01*
X122055Y429608D01*
X121985Y429497D01*
X121900Y429379D01*
X121598Y429022D01*
X121410Y428827D01*
X121351Y428677D01*
X46087Y353413D01*
X45424Y352421D01*
X45191Y351250D01*
X45191Y351250D01*
Y350354D01*
X44765Y349928D01*
X44080Y348274D01*
Y346484D01*
X44765Y344830D01*
X46031Y343564D01*
X47685Y342879D01*
X49475D01*
X51129Y343564D01*
X52395Y344830D01*
X53080Y346484D01*
Y348274D01*
X52395Y349928D01*
X51825Y350499D01*
X125661Y424335D01*
X125804Y424388D01*
X126221Y424775D01*
X126362Y424888D01*
X126497Y424985D01*
X126608Y425055D01*
X126692Y425100D01*
X126746Y425122D01*
X126757Y425126D01*
X126816Y425129D01*
X126846Y425144D01*
X126853Y425145D01*
X126864Y425153D01*
X127065Y425250D01*
X127645D01*
X129299Y425935D01*
X130565Y427201D01*
X131250Y428855D01*
Y430645D01*
X130565Y432299D01*
X129299Y433565D01*
X127645Y434250D01*
D02*
G37*
G36*
X599814Y324225D02*
X597385D01*
X595039Y323596D01*
X594537Y323306D01*
X595881Y321962D01*
X591638Y317719D01*
X590294Y319063D01*
X590004Y318561D01*
X589375Y316215D01*
Y313785D01*
X590004Y311439D01*
X590294Y310937D01*
X591638Y312281D01*
X595881Y308039D01*
X594537Y306694D01*
X595039Y306404D01*
X597385Y305775D01*
X599814D01*
X602161Y306404D01*
X602663Y306694D01*
X601319Y308039D01*
X605561Y312281D01*
X606906Y310937D01*
X607196Y311439D01*
X607825Y313785D01*
Y316215D01*
X607196Y318561D01*
X606906Y319063D01*
X605561Y317719D01*
X601319Y321962D01*
X602663Y323306D01*
X602161Y323596D01*
X599814Y324225D01*
D02*
G37*
G36*
X204814D02*
X202386D01*
X200039Y323596D01*
X199537Y323306D01*
X200881Y321962D01*
X196639Y317719D01*
X195294Y319063D01*
X195004Y318561D01*
X194375Y316215D01*
Y313785D01*
X195004Y311439D01*
X195294Y310937D01*
X196639Y312281D01*
X200881Y308039D01*
X199537Y306694D01*
X200039Y306404D01*
X202386Y305775D01*
X204814D01*
X207161Y306404D01*
X207663Y306694D01*
X206319Y308039D01*
X210562Y312281D01*
X211906Y310937D01*
X212196Y311439D01*
X212825Y313785D01*
Y316215D01*
X212196Y318561D01*
X211906Y319063D01*
X210562Y317719D01*
X206319Y321962D01*
X207663Y323306D01*
X207161Y323596D01*
X204814Y324225D01*
D02*
G37*
G36*
X725555Y342660D02*
X716455D01*
Y333310D01*
X718450D01*
X718706Y332798D01*
Y327617D01*
X718634Y327483D01*
X718601Y327145D01*
X718523Y326857D01*
X718361Y326463D01*
X718102Y325978D01*
X717744Y325416D01*
X717304Y324812D01*
X715290Y322515D01*
X714441Y321662D01*
X714320Y321366D01*
X713618Y320664D01*
X712404Y318561D01*
X711775Y316215D01*
Y313785D01*
X712404Y311439D01*
X713618Y309336D01*
X715336Y307618D01*
X717439Y306404D01*
X719786Y305775D01*
X722215D01*
X724561Y306404D01*
X726664Y307618D01*
X728382Y309336D01*
X729596Y311439D01*
X730225Y313785D01*
Y316215D01*
X729596Y318561D01*
X728382Y320664D01*
X727680Y321366D01*
X727559Y321662D01*
X726690Y322535D01*
X725944Y323330D01*
X724705Y324799D01*
X724256Y325416D01*
X723898Y325979D01*
X723639Y326463D01*
X723477Y326857D01*
X723399Y327145D01*
X723366Y327483D01*
X723294Y327617D01*
Y332798D01*
X723550Y333310D01*
X725555D01*
Y342660D01*
D02*
G37*
G36*
X499314Y324225D02*
X496885D01*
X494539Y323596D01*
X492436Y322382D01*
X490718Y320664D01*
X489504Y318561D01*
X488875Y316215D01*
Y313785D01*
X489504Y311439D01*
X490718Y309336D01*
X492436Y307618D01*
X494539Y306404D01*
X496885Y305775D01*
X499314D01*
X501661Y306404D01*
X503764Y307618D01*
X505482Y309336D01*
X506696Y311439D01*
X507325Y313785D01*
Y316215D01*
X506696Y318561D01*
X505482Y320664D01*
X503764Y322382D01*
X501661Y323596D01*
X499314Y324225D01*
D02*
G37*
G36*
X402314D02*
X399885D01*
X397539Y323596D01*
X395436Y322382D01*
X393718Y320664D01*
X392504Y318561D01*
X391875Y316215D01*
Y313785D01*
X392504Y311439D01*
X393718Y309336D01*
X395436Y307618D01*
X397539Y306404D01*
X399885Y305775D01*
X402314D01*
X404661Y306404D01*
X406764Y307618D01*
X408482Y309336D01*
X409696Y311439D01*
X410325Y313785D01*
Y316215D01*
X409696Y318561D01*
X408482Y320664D01*
X406764Y322382D01*
X404661Y323596D01*
X402314Y324225D01*
D02*
G37*
G36*
X329550Y343705D02*
X320450D01*
Y334355D01*
X323450D01*
X323706Y333843D01*
Y327617D01*
X323634Y327483D01*
X323601Y327145D01*
X323523Y326857D01*
X323361Y326463D01*
X323102Y325978D01*
X322744Y325416D01*
X322304Y324812D01*
X320290Y322515D01*
X319441Y321662D01*
X319320Y321366D01*
X318618Y320664D01*
X317404Y318561D01*
X316775Y316215D01*
Y313785D01*
X317404Y311439D01*
X318618Y309336D01*
X320336Y307618D01*
X322439Y306404D01*
X324785Y305775D01*
X327215D01*
X329561Y306404D01*
X331664Y307618D01*
X333382Y309336D01*
X334596Y311439D01*
X335225Y313785D01*
Y316215D01*
X334596Y318561D01*
X333382Y320664D01*
X332680Y321366D01*
X332559Y321662D01*
X331690Y322535D01*
X330944Y323330D01*
X329705Y324799D01*
X329256Y325416D01*
X328898Y325979D01*
X328639Y326463D01*
X328477Y326857D01*
X328399Y327145D01*
X328366Y327483D01*
X328294Y327617D01*
Y333843D01*
X328550Y334355D01*
X329550D01*
Y343705D01*
D02*
G37*
G36*
X301814Y324225D02*
X299386D01*
X297039Y323596D01*
X294936Y322382D01*
X293218Y320664D01*
X292004Y318561D01*
X291375Y316215D01*
Y313785D01*
X292004Y311439D01*
X293218Y309336D01*
X294936Y307618D01*
X297039Y306404D01*
X299386Y305775D01*
X301814D01*
X304161Y306404D01*
X306264Y307618D01*
X307982Y309336D01*
X309196Y311439D01*
X309825Y313785D01*
Y316215D01*
X309196Y318561D01*
X307982Y320664D01*
X306264Y322382D01*
X304161Y323596D01*
X301814Y324225D01*
D02*
G37*
G36*
X234550Y343705D02*
X225450D01*
Y334355D01*
X226450D01*
X226706Y333843D01*
Y327617D01*
X226634Y327483D01*
X226601Y327145D01*
X226523Y326857D01*
X226361Y326463D01*
X226102Y325978D01*
X225744Y325416D01*
X225304Y324812D01*
X223290Y322515D01*
X222441Y321662D01*
X222320Y321366D01*
X221618Y320664D01*
X220404Y318561D01*
X219775Y316215D01*
Y313785D01*
X220404Y311439D01*
X221618Y309336D01*
X223336Y307618D01*
X225439Y306404D01*
X227785Y305775D01*
X230215D01*
X232561Y306404D01*
X234664Y307618D01*
X236382Y309336D01*
X237596Y311439D01*
X238225Y313785D01*
Y316215D01*
X237596Y318561D01*
X236382Y320664D01*
X235680Y321366D01*
X235559Y321662D01*
X234690Y322535D01*
X233944Y323330D01*
X232705Y324799D01*
X232256Y325416D01*
X231898Y325979D01*
X231639Y326463D01*
X231477Y326857D01*
X231399Y327145D01*
X231366Y327483D01*
X231294Y327617D01*
Y333843D01*
X231550Y334355D01*
X234550D01*
Y343705D01*
D02*
G37*
G36*
X722149Y298330D02*
X719851D01*
X717630Y297735D01*
X715640Y296586D01*
X714014Y294960D01*
X712865Y292970D01*
X712270Y290749D01*
Y288451D01*
X712865Y286230D01*
X714014Y284240D01*
X715640Y282614D01*
X717630Y281465D01*
X719851Y280870D01*
X722149D01*
X724370Y281465D01*
X726360Y282614D01*
X727986Y284240D01*
X729135Y286230D01*
X729730Y288451D01*
Y290749D01*
X729135Y292970D01*
X727986Y294960D01*
X726360Y296586D01*
X724370Y297735D01*
X722149Y298330D01*
D02*
G37*
G36*
X701749D02*
X699451D01*
X697230Y297735D01*
X695240Y296586D01*
X693614Y294960D01*
X692465Y292970D01*
X691870Y290749D01*
Y288451D01*
X692465Y286230D01*
X693614Y284240D01*
X695240Y282614D01*
X697230Y281465D01*
X699451Y280870D01*
X701749D01*
X703970Y281465D01*
X705960Y282614D01*
X707586Y284240D01*
X708735Y286230D01*
X709330Y288451D01*
Y290749D01*
X708735Y292970D01*
X707586Y294960D01*
X705960Y296586D01*
X703970Y297735D01*
X701749Y298330D01*
D02*
G37*
G36*
X681349D02*
X679051D01*
X676830Y297735D01*
X674840Y296586D01*
X673214Y294960D01*
X672065Y292970D01*
X671470Y290749D01*
Y288451D01*
X672065Y286230D01*
X673214Y284240D01*
X674840Y282614D01*
X676830Y281465D01*
X679051Y280870D01*
X681349D01*
X683570Y281465D01*
X685560Y282614D01*
X687186Y284240D01*
X688335Y286230D01*
X688930Y288451D01*
Y290749D01*
X688335Y292970D01*
X687186Y294960D01*
X685560Y296586D01*
X683570Y297735D01*
X681349Y298330D01*
D02*
G37*
G36*
X640549D02*
X638251D01*
X636030Y297735D01*
X634040Y296586D01*
X632414Y294960D01*
X631265Y292970D01*
X630670Y290749D01*
Y288451D01*
X631265Y286230D01*
X632414Y284240D01*
X634040Y282614D01*
X636030Y281465D01*
X638251Y280870D01*
X640549D01*
X642770Y281465D01*
X644760Y282614D01*
X646386Y284240D01*
X647535Y286230D01*
X648130Y288451D01*
Y290749D01*
X647535Y292970D01*
X646386Y294960D01*
X644760Y296586D01*
X642770Y297735D01*
X640549Y298330D01*
D02*
G37*
G36*
X620149D02*
X617851D01*
X615630Y297735D01*
X613640Y296586D01*
X612014Y294960D01*
X610865Y292970D01*
X610270Y290749D01*
Y288451D01*
X610865Y286230D01*
X612014Y284240D01*
X613640Y282614D01*
X615630Y281465D01*
X617851Y280870D01*
X620149D01*
X622370Y281465D01*
X624360Y282614D01*
X625986Y284240D01*
X627135Y286230D01*
X627730Y288451D01*
Y290749D01*
X627135Y292970D01*
X625986Y294960D01*
X624360Y296586D01*
X622370Y297735D01*
X620149Y298330D01*
D02*
G37*
G36*
X599749D02*
X597451D01*
X595230Y297735D01*
X593240Y296586D01*
X591614Y294960D01*
X590465Y292970D01*
X589870Y290749D01*
Y288451D01*
X590465Y286230D01*
X591614Y284240D01*
X593240Y282614D01*
X595230Y281465D01*
X597451Y280870D01*
X599749D01*
X601970Y281465D01*
X603960Y282614D01*
X605586Y284240D01*
X606735Y286230D01*
X607330Y288451D01*
Y290749D01*
X606735Y292970D01*
X605586Y294960D01*
X603960Y296586D01*
X601970Y297735D01*
X599749Y298330D01*
D02*
G37*
G36*
X524649D02*
X522351D01*
X520130Y297735D01*
X518140Y296586D01*
X516514Y294960D01*
X515365Y292970D01*
X514770Y290749D01*
Y288451D01*
X515365Y286230D01*
X516514Y284240D01*
X518140Y282614D01*
X520130Y281465D01*
X522351Y280870D01*
X524649D01*
X526870Y281465D01*
X528860Y282614D01*
X530486Y284240D01*
X531635Y286230D01*
X532230Y288451D01*
Y290749D01*
X531635Y292970D01*
X530486Y294960D01*
X528860Y296586D01*
X526870Y297735D01*
X524649Y298330D01*
D02*
G37*
G36*
X504249D02*
X501951D01*
X499730Y297735D01*
X497740Y296586D01*
X496114Y294960D01*
X494965Y292970D01*
X494370Y290749D01*
Y288451D01*
X494965Y286230D01*
X496114Y284240D01*
X497740Y282614D01*
X499730Y281465D01*
X501951Y280870D01*
X504249D01*
X506470Y281465D01*
X508460Y282614D01*
X510086Y284240D01*
X511235Y286230D01*
X511830Y288451D01*
Y290749D01*
X511235Y292970D01*
X510086Y294960D01*
X508460Y296586D01*
X506470Y297735D01*
X504249Y298330D01*
D02*
G37*
G36*
X483849D02*
X481551D01*
X479330Y297735D01*
X477340Y296586D01*
X475714Y294960D01*
X474565Y292970D01*
X473970Y290749D01*
Y288451D01*
X474565Y286230D01*
X475714Y284240D01*
X477340Y282614D01*
X479330Y281465D01*
X481551Y280870D01*
X483849D01*
X486070Y281465D01*
X488060Y282614D01*
X489686Y284240D01*
X490835Y286230D01*
X491430Y288451D01*
Y290749D01*
X490835Y292970D01*
X489686Y294960D01*
X488060Y296586D01*
X486070Y297735D01*
X483849Y298330D01*
D02*
G37*
G36*
X443049D02*
X440751D01*
X438530Y297735D01*
X436540Y296586D01*
X434914Y294960D01*
X433765Y292970D01*
X433170Y290749D01*
Y288451D01*
X433765Y286230D01*
X434914Y284240D01*
X436540Y282614D01*
X438530Y281465D01*
X440751Y280870D01*
X443049D01*
X445270Y281465D01*
X447260Y282614D01*
X448886Y284240D01*
X450035Y286230D01*
X450630Y288451D01*
Y290749D01*
X450035Y292970D01*
X448886Y294960D01*
X447260Y296586D01*
X445270Y297735D01*
X443049Y298330D01*
D02*
G37*
G36*
X422649D02*
X420351D01*
X418130Y297735D01*
X416140Y296586D01*
X414514Y294960D01*
X413365Y292970D01*
X412770Y290749D01*
Y288451D01*
X413365Y286230D01*
X414514Y284240D01*
X416140Y282614D01*
X418130Y281465D01*
X420351Y280870D01*
X422649D01*
X424870Y281465D01*
X426860Y282614D01*
X428486Y284240D01*
X429635Y286230D01*
X430230Y288451D01*
Y290749D01*
X429635Y292970D01*
X428486Y294960D01*
X426860Y296586D01*
X424870Y297735D01*
X422649Y298330D01*
D02*
G37*
G36*
X402249D02*
X399951D01*
X397730Y297735D01*
X395740Y296586D01*
X394114Y294960D01*
X392965Y292970D01*
X392370Y290749D01*
Y288451D01*
X392965Y286230D01*
X394114Y284240D01*
X395740Y282614D01*
X397730Y281465D01*
X399951Y280870D01*
X402249D01*
X404470Y281465D01*
X406460Y282614D01*
X408086Y284240D01*
X409235Y286230D01*
X409830Y288451D01*
Y290749D01*
X409235Y292970D01*
X408086Y294960D01*
X406460Y296586D01*
X404470Y297735D01*
X402249Y298330D01*
D02*
G37*
G36*
X327149D02*
X324851D01*
X322630Y297735D01*
X320640Y296586D01*
X319014Y294960D01*
X317865Y292970D01*
X317270Y290749D01*
Y288451D01*
X317865Y286230D01*
X319014Y284240D01*
X320640Y282614D01*
X322630Y281465D01*
X324851Y280870D01*
X327149D01*
X329370Y281465D01*
X331360Y282614D01*
X332986Y284240D01*
X334135Y286230D01*
X334730Y288451D01*
Y290749D01*
X334135Y292970D01*
X332986Y294960D01*
X331360Y296586D01*
X329370Y297735D01*
X327149Y298330D01*
D02*
G37*
G36*
X306749D02*
X304451D01*
X302230Y297735D01*
X300240Y296586D01*
X298614Y294960D01*
X297465Y292970D01*
X296870Y290749D01*
Y288451D01*
X297465Y286230D01*
X298614Y284240D01*
X300240Y282614D01*
X302230Y281465D01*
X304451Y280870D01*
X306749D01*
X308970Y281465D01*
X310960Y282614D01*
X312586Y284240D01*
X313735Y286230D01*
X314330Y288451D01*
Y290749D01*
X313735Y292970D01*
X312586Y294960D01*
X310960Y296586D01*
X308970Y297735D01*
X306749Y298330D01*
D02*
G37*
G36*
X286349D02*
X284051D01*
X281830Y297735D01*
X279840Y296586D01*
X278214Y294960D01*
X277065Y292970D01*
X276470Y290749D01*
Y288451D01*
X277065Y286230D01*
X278214Y284240D01*
X279840Y282614D01*
X281830Y281465D01*
X284051Y280870D01*
X286349D01*
X288570Y281465D01*
X290560Y282614D01*
X292186Y284240D01*
X293335Y286230D01*
X293930Y288451D01*
Y290749D01*
X293335Y292970D01*
X292186Y294960D01*
X290560Y296586D01*
X288570Y297735D01*
X286349Y298330D01*
D02*
G37*
G36*
X245549D02*
X243251D01*
X241030Y297735D01*
X239040Y296586D01*
X237414Y294960D01*
X236265Y292970D01*
X235670Y290749D01*
Y288451D01*
X236265Y286230D01*
X237414Y284240D01*
X239040Y282614D01*
X241030Y281465D01*
X243251Y280870D01*
X245549D01*
X247770Y281465D01*
X249760Y282614D01*
X251386Y284240D01*
X252535Y286230D01*
X253130Y288451D01*
Y290749D01*
X252535Y292970D01*
X251386Y294960D01*
X249760Y296586D01*
X247770Y297735D01*
X245549Y298330D01*
D02*
G37*
G36*
X225149D02*
X222851D01*
X220630Y297735D01*
X218640Y296586D01*
X217014Y294960D01*
X215865Y292970D01*
X215270Y290749D01*
Y288451D01*
X215865Y286230D01*
X217014Y284240D01*
X218640Y282614D01*
X220630Y281465D01*
X222851Y280870D01*
X225149D01*
X227370Y281465D01*
X229360Y282614D01*
X230986Y284240D01*
X232135Y286230D01*
X232730Y288451D01*
Y290749D01*
X232135Y292970D01*
X230986Y294960D01*
X229360Y296586D01*
X227370Y297735D01*
X225149Y298330D01*
D02*
G37*
G36*
X204749D02*
X202451D01*
X200230Y297735D01*
X198240Y296586D01*
X196614Y294960D01*
X195465Y292970D01*
X194870Y290749D01*
Y288451D01*
X195465Y286230D01*
X196614Y284240D01*
X198240Y282614D01*
X200230Y281465D01*
X202451Y280870D01*
X204749D01*
X206970Y281465D01*
X208960Y282614D01*
X210586Y284240D01*
X211735Y286230D01*
X212330Y288451D01*
Y290749D01*
X211735Y292970D01*
X210586Y294960D01*
X208960Y296586D01*
X206970Y297735D01*
X204749Y298330D01*
D02*
G37*
G36*
X759000Y271750D02*
X753750D01*
Y270088D01*
X752250D01*
Y271750D01*
X747000D01*
Y265750D01*
X748662D01*
Y264250D01*
X747000D01*
Y258250D01*
X752250D01*
Y259912D01*
X753750D01*
Y258250D01*
X759000D01*
Y264250D01*
X757338D01*
Y265750D01*
X759000D01*
Y271750D01*
D02*
G37*
G36*
X559000D02*
X553750D01*
Y270088D01*
X552250D01*
Y271750D01*
X547000D01*
Y265750D01*
X548662D01*
Y264250D01*
X547000D01*
Y258250D01*
X552250D01*
Y259912D01*
X553750D01*
Y258250D01*
X559000D01*
Y264250D01*
X557338D01*
Y265750D01*
X559000D01*
Y271750D01*
D02*
G37*
G36*
X364000D02*
X358750D01*
Y270088D01*
X357250D01*
Y271750D01*
X352000D01*
Y265750D01*
X353662D01*
Y264250D01*
X352000D01*
Y258250D01*
X357250D01*
Y259912D01*
X358750D01*
Y258250D01*
X364000D01*
Y264250D01*
X362338D01*
Y265750D01*
X364000D01*
Y271750D01*
D02*
G37*
G36*
X711949Y272930D02*
X709651D01*
X707430Y272335D01*
X705440Y271186D01*
X703814Y269560D01*
X702665Y267570D01*
X702070Y265349D01*
Y263051D01*
X702665Y260830D01*
X703814Y258840D01*
X705440Y257214D01*
X707430Y256065D01*
X709651Y255470D01*
X711949D01*
X714170Y256065D01*
X716160Y257214D01*
X716799Y257853D01*
X717080Y257961D01*
X718489Y259296D01*
X719103Y259806D01*
X719694Y260246D01*
X720244Y260606D01*
X720751Y260887D01*
X721208Y261093D01*
X721612Y261228D01*
X721961Y261301D01*
X722377Y261331D01*
X722507Y261396D01*
X729833D01*
X729988Y261327D01*
X730413Y261316D01*
X730727Y261288D01*
X730965Y261249D01*
X731000Y261239D01*
Y258250D01*
X743000D01*
Y271750D01*
X731000D01*
Y267161D01*
X730965Y267151D01*
X730727Y267112D01*
X730413Y267084D01*
X729988Y267073D01*
X729833Y267004D01*
X722507D01*
X722377Y267069D01*
X721961Y267099D01*
X721612Y267172D01*
X721208Y267307D01*
X720751Y267513D01*
X720244Y267794D01*
X719694Y268154D01*
X719119Y268582D01*
X717802Y269729D01*
X717103Y270418D01*
X716809Y270536D01*
X716160Y271186D01*
X714170Y272335D01*
X711949Y272930D01*
D02*
G37*
G36*
X514449D02*
X512151D01*
X509930Y272335D01*
X507940Y271186D01*
X506314Y269560D01*
X505165Y267570D01*
X504570Y265349D01*
Y263051D01*
X505165Y260830D01*
X506314Y258840D01*
X507940Y257214D01*
X509930Y256065D01*
X512151Y255470D01*
X514449D01*
X516670Y256065D01*
X518660Y257214D01*
X519299Y257853D01*
X519580Y257961D01*
X520989Y259296D01*
X521603Y259806D01*
X522193Y260246D01*
X522744Y260606D01*
X523251Y260887D01*
X523708Y261093D01*
X524112Y261228D01*
X524461Y261301D01*
X524877Y261331D01*
X525007Y261396D01*
X529832D01*
X529988Y261327D01*
X530413Y261316D01*
X530727Y261288D01*
X530965Y261249D01*
X531000Y261239D01*
Y258250D01*
X543000D01*
Y271750D01*
X531000D01*
Y267161D01*
X530965Y267151D01*
X530727Y267112D01*
X530413Y267084D01*
X529988Y267073D01*
X529832Y267004D01*
X525007D01*
X524877Y267069D01*
X524461Y267099D01*
X524112Y267172D01*
X523708Y267307D01*
X523251Y267513D01*
X522744Y267794D01*
X522194Y268154D01*
X521619Y268582D01*
X520302Y269729D01*
X519603Y270418D01*
X519310Y270536D01*
X518660Y271186D01*
X516670Y272335D01*
X514449Y272930D01*
D02*
G37*
G36*
X316949D02*
X314651D01*
X312430Y272335D01*
X310440Y271186D01*
X308814Y269560D01*
X307665Y267570D01*
X307070Y265349D01*
Y263051D01*
X307665Y260830D01*
X308814Y258840D01*
X310440Y257214D01*
X312430Y256065D01*
X314651Y255470D01*
X316949D01*
X319170Y256065D01*
X321160Y257214D01*
X321799Y257853D01*
X322080Y257961D01*
X323489Y259296D01*
X324103Y259806D01*
X324693Y260246D01*
X325244Y260606D01*
X325751Y260887D01*
X326208Y261093D01*
X326612Y261228D01*
X326961Y261301D01*
X327377Y261331D01*
X327507Y261396D01*
X334832D01*
X334988Y261327D01*
X335413Y261316D01*
X335727Y261288D01*
X335965Y261249D01*
X336000Y261239D01*
Y258250D01*
X348000D01*
Y271750D01*
X336000D01*
Y267161D01*
X335965Y267151D01*
X335727Y267112D01*
X335413Y267084D01*
X334988Y267073D01*
X334832Y267004D01*
X327507D01*
X327377Y267069D01*
X326961Y267099D01*
X326612Y267172D01*
X326208Y267307D01*
X325751Y267513D01*
X325244Y267794D01*
X324694Y268154D01*
X324119Y268582D01*
X322802Y269729D01*
X322103Y270418D01*
X321810Y270536D01*
X321160Y271186D01*
X319170Y272335D01*
X316949Y272930D01*
D02*
G37*
G36*
X691549D02*
X689251D01*
X687030Y272335D01*
X685040Y271186D01*
X683414Y269560D01*
X682265Y267570D01*
X681670Y265349D01*
Y263051D01*
X682265Y260830D01*
X683414Y258840D01*
X685040Y257214D01*
X687030Y256065D01*
X689251Y255470D01*
X691549D01*
X693770Y256065D01*
X695760Y257214D01*
X697386Y258840D01*
X698535Y260830D01*
X699130Y263051D01*
Y265349D01*
X698535Y267570D01*
X697386Y269560D01*
X695760Y271186D01*
X693770Y272335D01*
X691549Y272930D01*
D02*
G37*
G36*
X671149D02*
X668851D01*
X666630Y272335D01*
X664640Y271186D01*
X663014Y269560D01*
X661865Y267570D01*
X661270Y265349D01*
Y263051D01*
X661865Y260830D01*
X663014Y258840D01*
X664640Y257214D01*
X666630Y256065D01*
X668851Y255470D01*
X671149D01*
X673370Y256065D01*
X675360Y257214D01*
X676986Y258840D01*
X678135Y260830D01*
X678730Y263051D01*
Y265349D01*
X678135Y267570D01*
X676986Y269560D01*
X675360Y271186D01*
X673370Y272335D01*
X671149Y272930D01*
D02*
G37*
G36*
X650749D02*
X648451D01*
X646230Y272335D01*
X644240Y271186D01*
X642614Y269560D01*
X641465Y267570D01*
X640870Y265349D01*
Y263051D01*
X641465Y260830D01*
X642614Y258840D01*
X644240Y257214D01*
X646230Y256065D01*
X648451Y255470D01*
X650749D01*
X652970Y256065D01*
X654960Y257214D01*
X656586Y258840D01*
X657735Y260830D01*
X658330Y263051D01*
Y265349D01*
X657735Y267570D01*
X656586Y269560D01*
X654960Y271186D01*
X652970Y272335D01*
X650749Y272930D01*
D02*
G37*
G36*
X630349D02*
X628051D01*
X625830Y272335D01*
X623840Y271186D01*
X622214Y269560D01*
X621065Y267570D01*
X620470Y265349D01*
Y263051D01*
X621065Y260830D01*
X622214Y258840D01*
X623840Y257214D01*
X625830Y256065D01*
X628051Y255470D01*
X630349D01*
X632570Y256065D01*
X634560Y257214D01*
X636186Y258840D01*
X637335Y260830D01*
X637930Y263051D01*
Y265349D01*
X637335Y267570D01*
X636186Y269560D01*
X634560Y271186D01*
X632570Y272335D01*
X630349Y272930D01*
D02*
G37*
G36*
X609949D02*
X607651D01*
X605430Y272335D01*
X603440Y271186D01*
X601814Y269560D01*
X600665Y267570D01*
X600070Y265349D01*
Y263051D01*
X600665Y260830D01*
X601814Y258840D01*
X603440Y257214D01*
X605430Y256065D01*
X607651Y255470D01*
X609949D01*
X612170Y256065D01*
X614160Y257214D01*
X615786Y258840D01*
X616935Y260830D01*
X617530Y263051D01*
Y265349D01*
X616935Y267570D01*
X615786Y269560D01*
X614160Y271186D01*
X612170Y272335D01*
X609949Y272930D01*
D02*
G37*
G36*
X494049D02*
X491751D01*
X489530Y272335D01*
X487540Y271186D01*
X485914Y269560D01*
X484765Y267570D01*
X484170Y265349D01*
Y263051D01*
X484765Y260830D01*
X485914Y258840D01*
X487540Y257214D01*
X489530Y256065D01*
X491751Y255470D01*
X494049D01*
X496270Y256065D01*
X498260Y257214D01*
X499886Y258840D01*
X501035Y260830D01*
X501630Y263051D01*
Y265349D01*
X501035Y267570D01*
X499886Y269560D01*
X498260Y271186D01*
X496270Y272335D01*
X494049Y272930D01*
D02*
G37*
G36*
X473649D02*
X471351D01*
X469130Y272335D01*
X467140Y271186D01*
X465514Y269560D01*
X464365Y267570D01*
X463770Y265349D01*
Y263051D01*
X464365Y260830D01*
X465514Y258840D01*
X467140Y257214D01*
X469130Y256065D01*
X471351Y255470D01*
X473649D01*
X475870Y256065D01*
X477860Y257214D01*
X479486Y258840D01*
X480635Y260830D01*
X481230Y263051D01*
Y265349D01*
X480635Y267570D01*
X479486Y269560D01*
X477860Y271186D01*
X475870Y272335D01*
X473649Y272930D01*
D02*
G37*
G36*
X453249D02*
X450951D01*
X448730Y272335D01*
X446740Y271186D01*
X445114Y269560D01*
X443965Y267570D01*
X443370Y265349D01*
Y263051D01*
X443965Y260830D01*
X445114Y258840D01*
X446740Y257214D01*
X448730Y256065D01*
X450951Y255470D01*
X453249D01*
X455470Y256065D01*
X457460Y257214D01*
X459086Y258840D01*
X460235Y260830D01*
X460830Y263051D01*
Y265349D01*
X460235Y267570D01*
X459086Y269560D01*
X457460Y271186D01*
X455470Y272335D01*
X453249Y272930D01*
D02*
G37*
G36*
X432849D02*
X430551D01*
X428330Y272335D01*
X426340Y271186D01*
X424714Y269560D01*
X423565Y267570D01*
X422970Y265349D01*
Y263051D01*
X423565Y260830D01*
X424714Y258840D01*
X426340Y257214D01*
X428330Y256065D01*
X430551Y255470D01*
X432849D01*
X435070Y256065D01*
X437060Y257214D01*
X438686Y258840D01*
X439835Y260830D01*
X440430Y263051D01*
Y265349D01*
X439835Y267570D01*
X438686Y269560D01*
X437060Y271186D01*
X435070Y272335D01*
X432849Y272930D01*
D02*
G37*
G36*
X412449D02*
X410151D01*
X407930Y272335D01*
X405940Y271186D01*
X404314Y269560D01*
X403165Y267570D01*
X402570Y265349D01*
Y263051D01*
X403165Y260830D01*
X404314Y258840D01*
X405940Y257214D01*
X407930Y256065D01*
X410151Y255470D01*
X412449D01*
X414670Y256065D01*
X416660Y257214D01*
X418286Y258840D01*
X419435Y260830D01*
X420030Y263051D01*
Y265349D01*
X419435Y267570D01*
X418286Y269560D01*
X416660Y271186D01*
X414670Y272335D01*
X412449Y272930D01*
D02*
G37*
G36*
X296549D02*
X294251D01*
X292030Y272335D01*
X290040Y271186D01*
X288414Y269560D01*
X287265Y267570D01*
X286670Y265349D01*
Y263051D01*
X287265Y260830D01*
X288414Y258840D01*
X290040Y257214D01*
X292030Y256065D01*
X294251Y255470D01*
X296549D01*
X298770Y256065D01*
X300760Y257214D01*
X302386Y258840D01*
X303535Y260830D01*
X304130Y263051D01*
Y265349D01*
X303535Y267570D01*
X302386Y269560D01*
X300760Y271186D01*
X298770Y272335D01*
X296549Y272930D01*
D02*
G37*
G36*
X276149D02*
X273851D01*
X271630Y272335D01*
X269640Y271186D01*
X268014Y269560D01*
X266865Y267570D01*
X266270Y265349D01*
Y263051D01*
X266865Y260830D01*
X268014Y258840D01*
X269640Y257214D01*
X271630Y256065D01*
X273851Y255470D01*
X276149D01*
X278370Y256065D01*
X280360Y257214D01*
X281986Y258840D01*
X283135Y260830D01*
X283730Y263051D01*
Y265349D01*
X283135Y267570D01*
X281986Y269560D01*
X280360Y271186D01*
X278370Y272335D01*
X276149Y272930D01*
D02*
G37*
G36*
X255749D02*
X253451D01*
X251230Y272335D01*
X249240Y271186D01*
X247614Y269560D01*
X246465Y267570D01*
X245870Y265349D01*
Y263051D01*
X246465Y260830D01*
X247614Y258840D01*
X249240Y257214D01*
X251230Y256065D01*
X253451Y255470D01*
X255749D01*
X257970Y256065D01*
X259960Y257214D01*
X261586Y258840D01*
X262735Y260830D01*
X263330Y263051D01*
Y265349D01*
X262735Y267570D01*
X261586Y269560D01*
X259960Y271186D01*
X257970Y272335D01*
X255749Y272930D01*
D02*
G37*
G36*
X235349D02*
X233051D01*
X230830Y272335D01*
X228840Y271186D01*
X227214Y269560D01*
X226065Y267570D01*
X225470Y265349D01*
Y263051D01*
X226065Y260830D01*
X227214Y258840D01*
X228840Y257214D01*
X230830Y256065D01*
X233051Y255470D01*
X235349D01*
X237570Y256065D01*
X239560Y257214D01*
X241186Y258840D01*
X242335Y260830D01*
X242930Y263051D01*
Y265349D01*
X242335Y267570D01*
X241186Y269560D01*
X239560Y271186D01*
X237570Y272335D01*
X235349Y272930D01*
D02*
G37*
G36*
X214949D02*
X212651D01*
X210430Y272335D01*
X208440Y271186D01*
X206814Y269560D01*
X205665Y267570D01*
X205070Y265349D01*
Y263051D01*
X205665Y260830D01*
X206814Y258840D01*
X208440Y257214D01*
X210430Y256065D01*
X212651Y255470D01*
X214949D01*
X217170Y256065D01*
X219160Y257214D01*
X220786Y258840D01*
X221935Y260830D01*
X222530Y263051D01*
Y265349D01*
X221935Y267570D01*
X220786Y269560D01*
X219160Y271186D01*
X217170Y272335D01*
X214949Y272930D01*
D02*
G37*
G36*
X106185Y129000D02*
X103815D01*
X101526Y128387D01*
X101101Y128141D01*
X102454Y126789D01*
X98211Y122546D01*
X96859Y123899D01*
X96613Y123474D01*
X96000Y121185D01*
Y118815D01*
X96613Y116526D01*
X96859Y116101D01*
X98211Y117454D01*
X102454Y113212D01*
X101101Y111859D01*
X101526Y111613D01*
X103815Y111000D01*
X106185D01*
X108474Y111613D01*
X108899Y111859D01*
X107546Y113212D01*
X111788Y117454D01*
X113141Y116101D01*
X113387Y116526D01*
X114000Y118815D01*
Y121185D01*
X113387Y123474D01*
X113141Y123899D01*
X111788Y122546D01*
X107546Y126789D01*
X108899Y128141D01*
X108474Y128387D01*
X106185Y129000D01*
D02*
G37*
G36*
X770000Y171582D02*
X765842Y171255D01*
X761786Y170281D01*
X757932Y168685D01*
X754376Y166505D01*
X751204Y163796D01*
X748495Y160625D01*
X746315Y157068D01*
X744719Y153214D01*
X743745Y149158D01*
X743418Y145000D01*
X743745Y140842D01*
X744719Y136786D01*
X746315Y132932D01*
X748495Y129375D01*
X751204Y126204D01*
X754376Y123495D01*
X757932Y121315D01*
X761786Y119719D01*
X765842Y118745D01*
X770000Y118418D01*
X774158Y118745D01*
X778214Y119719D01*
X782068Y121315D01*
X785624Y123495D01*
X788796Y126204D01*
X791505Y129375D01*
X793685Y132932D01*
X795281Y136786D01*
X796255Y140842D01*
X796582Y145000D01*
X796255Y149158D01*
X795281Y153214D01*
X793685Y157068D01*
X791505Y160625D01*
X788796Y163796D01*
X785624Y166505D01*
X782068Y168685D01*
X778214Y170281D01*
X774158Y171255D01*
X770000Y171582D01*
D02*
G37*
G36*
X725024Y129300D02*
X721576D01*
X718195Y128628D01*
X715011Y127308D01*
X712144Y125393D01*
X709707Y122956D01*
X707792Y120089D01*
X706472Y116905D01*
X705800Y113524D01*
Y110076D01*
X706472Y106695D01*
X707792Y103511D01*
X709707Y100644D01*
X712144Y98207D01*
X715011Y96292D01*
X718195Y94972D01*
X721576Y94300D01*
X725024D01*
X728405Y94972D01*
X731589Y96292D01*
X734456Y98207D01*
X736893Y100644D01*
X738808Y103511D01*
X740127Y106695D01*
X740800Y110076D01*
Y113524D01*
X740127Y116905D01*
X738808Y120089D01*
X736893Y122956D01*
X734456Y125393D01*
X731589Y127308D01*
X728405Y128628D01*
X725024Y129300D01*
D02*
G37*
G36*
X598024D02*
X594576D01*
X591195Y128628D01*
X588011Y127308D01*
X585144Y125393D01*
X582707Y122956D01*
X580792Y120089D01*
X579473Y116905D01*
X578800Y113524D01*
Y110076D01*
X579473Y106695D01*
X580792Y103511D01*
X582707Y100644D01*
X585144Y98207D01*
X588011Y96292D01*
X591195Y94972D01*
X594576Y94300D01*
X598024D01*
X601405Y94972D01*
X604589Y96292D01*
X607456Y98207D01*
X609893Y100644D01*
X611808Y103511D01*
X613128Y106695D01*
X613800Y110076D01*
Y113524D01*
X613128Y116905D01*
X611808Y120089D01*
X609893Y122956D01*
X607456Y125393D01*
X604589Y127308D01*
X601405Y128628D01*
X598024Y129300D01*
D02*
G37*
G36*
X527524D02*
X524076D01*
X520695Y128628D01*
X517511Y127308D01*
X514644Y125393D01*
X512207Y122956D01*
X510292Y120089D01*
X508973Y116905D01*
X508300Y113524D01*
Y110076D01*
X508973Y106695D01*
X510292Y103511D01*
X512207Y100644D01*
X514644Y98207D01*
X517511Y96292D01*
X520695Y94972D01*
X524076Y94300D01*
X527524D01*
X530905Y94972D01*
X534089Y96292D01*
X536956Y98207D01*
X539393Y100644D01*
X541308Y103511D01*
X542627Y106695D01*
X543300Y110076D01*
Y113524D01*
X542627Y116905D01*
X541308Y120089D01*
X539393Y122956D01*
X536956Y125393D01*
X534089Y127308D01*
X530905Y128628D01*
X527524Y129300D01*
D02*
G37*
G36*
X400524D02*
X397076D01*
X393695Y128628D01*
X390511Y127308D01*
X387644Y125393D01*
X385207Y122956D01*
X383292Y120089D01*
X381973Y116905D01*
X381300Y113524D01*
Y110076D01*
X381973Y106695D01*
X383292Y103511D01*
X385207Y100644D01*
X387644Y98207D01*
X390511Y96292D01*
X393695Y94972D01*
X397076Y94300D01*
X400524D01*
X403905Y94972D01*
X407089Y96292D01*
X409956Y98207D01*
X412393Y100644D01*
X414308Y103511D01*
X415628Y106695D01*
X416300Y110076D01*
Y113524D01*
X415628Y116905D01*
X414308Y120089D01*
X412393Y122956D01*
X409956Y125393D01*
X407089Y127308D01*
X403905Y128628D01*
X400524Y129300D01*
D02*
G37*
G36*
X330024D02*
X326576D01*
X323195Y128628D01*
X320011Y127308D01*
X317144Y125393D01*
X314707Y122956D01*
X312792Y120089D01*
X311472Y116905D01*
X310800Y113524D01*
Y110076D01*
X311472Y106695D01*
X312792Y103511D01*
X314707Y100644D01*
X317144Y98207D01*
X320011Y96292D01*
X323195Y94972D01*
X326576Y94300D01*
X330024D01*
X333405Y94972D01*
X336589Y96292D01*
X339456Y98207D01*
X341893Y100644D01*
X343808Y103511D01*
X345127Y106695D01*
X345800Y110076D01*
Y113524D01*
X345127Y116905D01*
X343808Y120089D01*
X341893Y122956D01*
X339456Y125393D01*
X336589Y127308D01*
X333405Y128628D01*
X330024Y129300D01*
D02*
G37*
G36*
X203024D02*
X199576D01*
X196195Y128628D01*
X193011Y127308D01*
X190144Y125393D01*
X187707Y122956D01*
X185792Y120089D01*
X184473Y116905D01*
X183800Y113524D01*
Y110076D01*
X184473Y106695D01*
X185792Y103511D01*
X187707Y100644D01*
X190144Y98207D01*
X193011Y96292D01*
X196195Y94972D01*
X199576Y94300D01*
X203024D01*
X206405Y94972D01*
X209589Y96292D01*
X212456Y98207D01*
X214893Y100644D01*
X216808Y103511D01*
X218127Y106695D01*
X218800Y110076D01*
Y113524D01*
X218127Y116905D01*
X216808Y120089D01*
X214893Y122956D01*
X212456Y125393D01*
X209589Y127308D01*
X206405Y128628D01*
X203024Y129300D01*
D02*
G37*
G36*
X114000Y99000D02*
X96000D01*
Y81000D01*
X114000D01*
Y99000D01*
D02*
G37*
G36*
X742198Y93275D02*
X738702D01*
X735326Y92370D01*
X732299Y90623D01*
X729827Y88151D01*
X728080Y85124D01*
X727175Y81748D01*
Y78252D01*
X728080Y74876D01*
X729827Y71849D01*
X732299Y69377D01*
X735326Y67630D01*
X738702Y66725D01*
X742198D01*
X745574Y67630D01*
X748601Y69377D01*
X751073Y71849D01*
X752820Y74876D01*
X753725Y78252D01*
Y81748D01*
X752820Y85124D01*
X751073Y88151D01*
X748601Y90623D01*
X745574Y92370D01*
X742198Y93275D01*
D02*
G37*
G36*
X580898D02*
X577402D01*
X574026Y92370D01*
X570999Y90623D01*
X568527Y88151D01*
X566780Y85124D01*
X565875Y81748D01*
Y78252D01*
X566780Y74876D01*
X568527Y71849D01*
X570999Y69377D01*
X574026Y67630D01*
X577402Y66725D01*
X580898D01*
X584274Y67630D01*
X587301Y69377D01*
X589773Y71849D01*
X591520Y74876D01*
X592425Y78252D01*
Y81748D01*
X591520Y85124D01*
X589773Y88151D01*
X587301Y90623D01*
X584274Y92370D01*
X580898Y93275D01*
D02*
G37*
G36*
X544698D02*
X541202D01*
X537826Y92370D01*
X534799Y90623D01*
X532327Y88151D01*
X530580Y85124D01*
X529675Y81748D01*
Y78252D01*
X530580Y74876D01*
X532327Y71849D01*
X534799Y69377D01*
X537826Y67630D01*
X541202Y66725D01*
X544698D01*
X548074Y67630D01*
X551101Y69377D01*
X553573Y71849D01*
X555320Y74876D01*
X556225Y78252D01*
Y81748D01*
X555320Y85124D01*
X553573Y88151D01*
X551101Y90623D01*
X548074Y92370D01*
X544698Y93275D01*
D02*
G37*
G36*
X383398D02*
X379902D01*
X376526Y92370D01*
X373499Y90623D01*
X371027Y88151D01*
X369280Y85124D01*
X368375Y81748D01*
Y78252D01*
X369280Y74876D01*
X371027Y71849D01*
X373499Y69377D01*
X376526Y67630D01*
X379902Y66725D01*
X383398D01*
X386774Y67630D01*
X389801Y69377D01*
X392273Y71849D01*
X394020Y74876D01*
X394925Y78252D01*
Y81748D01*
X394020Y85124D01*
X392273Y88151D01*
X389801Y90623D01*
X386774Y92370D01*
X383398Y93275D01*
D02*
G37*
G36*
X347198D02*
X343702D01*
X340326Y92370D01*
X337299Y90623D01*
X334827Y88151D01*
X333080Y85124D01*
X332175Y81748D01*
Y78252D01*
X333080Y74876D01*
X334827Y71849D01*
X337299Y69377D01*
X340326Y67630D01*
X343702Y66725D01*
X347198D01*
X350574Y67630D01*
X353601Y69377D01*
X356073Y71849D01*
X357820Y74876D01*
X358725Y78252D01*
Y81748D01*
X357820Y85124D01*
X356073Y88151D01*
X353601Y90623D01*
X350574Y92370D01*
X347198Y93275D01*
D02*
G37*
G36*
X185898D02*
X182402D01*
X179026Y92370D01*
X175999Y90623D01*
X173527Y88151D01*
X171780Y85124D01*
X170875Y81748D01*
Y78252D01*
X171780Y74876D01*
X173527Y71849D01*
X175999Y69377D01*
X179026Y67630D01*
X182402Y66725D01*
X185898D01*
X189274Y67630D01*
X192301Y69377D01*
X194773Y71849D01*
X196520Y74876D01*
X197425Y78252D01*
Y81748D01*
X196520Y85124D01*
X194773Y88151D01*
X192301Y90623D01*
X189274Y92370D01*
X185898Y93275D01*
D02*
G37*
G36*
X106625Y63300D02*
X103375D01*
X100187Y62666D01*
X97184Y61422D01*
X94482Y59616D01*
X92184Y57318D01*
X90378Y54616D01*
X89134Y51613D01*
X88500Y48425D01*
Y45175D01*
X89134Y41987D01*
X90378Y38984D01*
X92184Y36282D01*
X94482Y33984D01*
X97184Y32178D01*
X100187Y30934D01*
X103375Y30300D01*
X106625D01*
X109813Y30934D01*
X112816Y32178D01*
X115518Y33984D01*
X117816Y36282D01*
X119622Y38984D01*
X120866Y41987D01*
X121500Y45175D01*
Y48425D01*
X120866Y51613D01*
X119622Y54616D01*
X117816Y57318D01*
X115518Y59616D01*
X112816Y61422D01*
X109813Y62666D01*
X106625Y63300D01*
D02*
G37*
%LPD*%
G36*
X410000Y635000D02*
X410000Y611381D01*
X409300D01*
Y609607D01*
X403300D01*
Y611381D01*
X400029D01*
Y599350D01*
X401803D01*
Y593350D01*
X400029D01*
Y581319D01*
X400029Y581319D01*
X400029D01*
X398349Y579099D01*
X397500Y578250D01*
Y553750D01*
X411250Y540000D01*
X413355D01*
Y536500D01*
X415017D01*
Y535000D01*
X413355D01*
Y531200D01*
X413355D01*
Y529300D01*
X413355D01*
Y525500D01*
X415017D01*
Y524000D01*
X413355D01*
Y520200D01*
X417280D01*
Y521862D01*
X418780D01*
Y520200D01*
X420392D01*
X422605Y518300D01*
X422605Y517241D01*
Y514500D01*
X424267D01*
Y513000D01*
X422605D01*
Y509200D01*
X423824D01*
X425250Y507750D01*
X427605Y505395D01*
Y503500D01*
X429267D01*
Y502000D01*
X427605D01*
Y498200D01*
X425639Y496015D01*
X421635D01*
Y492215D01*
X423297D01*
Y490714D01*
X421635D01*
Y486914D01*
X425560D01*
Y488576D01*
X427060D01*
Y486914D01*
X427328D01*
X427500Y486500D01*
Y480000D01*
X422500Y475000D01*
X412750D01*
X410000Y472250D01*
X410000Y459291D01*
X410000Y458250D01*
X410250Y456395D01*
Y453805D01*
X410250D01*
Y452130D01*
X412024D01*
Y446130D01*
X410250D01*
Y445750D01*
X408147Y442999D01*
X406199Y442921D01*
X403750Y445297D01*
X403750Y471250D01*
X400000Y475000D01*
X355000D01*
Y542500D01*
X357500Y545000D01*
X367000D01*
X372500Y550500D01*
Y574743D01*
X379076Y581319D01*
X380071D01*
Y611381D01*
X380000D01*
Y625000D01*
X370000Y635000D01*
X282500D01*
X212500Y565000D01*
X180000D01*
X180000Y595000D01*
X210000D01*
X270000Y655000D01*
X390000D01*
X410000Y635000D01*
D02*
G37*
G36*
X411041Y608262D02*
X411121Y608050D01*
X411250Y607863D01*
X411429Y607700D01*
X411658Y607562D01*
X411678Y607555D01*
X411768Y607598D01*
X411942Y607704D01*
X412095Y607824D01*
X412228Y607959D01*
Y607372D01*
X412262Y607363D01*
X412639Y607300D01*
X413065Y607262D01*
X413540Y607250D01*
Y604750D01*
X413065Y604738D01*
X412639Y604700D01*
X412262Y604637D01*
X412228Y604628D01*
Y604041D01*
X412095Y604176D01*
X411942Y604296D01*
X411768Y604403D01*
X411678Y604445D01*
X411658Y604437D01*
X411429Y604300D01*
X411250Y604137D01*
X411121Y603950D01*
X411041Y603737D01*
X411010Y603500D01*
Y604658D01*
X410866Y604686D01*
X410589Y604722D01*
X410291Y604743D01*
X409973Y604750D01*
Y607250D01*
X410291Y607257D01*
X410866Y607314D01*
X411010Y607342D01*
Y608500D01*
X411041Y608262D01*
D02*
G37*
G36*
X411062Y586668D02*
X411125Y586244D01*
X411231Y585819D01*
X411380Y585395D01*
X411571Y584971D01*
X411804Y584547D01*
X412080Y584122D01*
X412398Y583698D01*
X412758Y583274D01*
X413162Y582850D01*
X411040Y580728D01*
X410616Y581131D01*
X410192Y581492D01*
X409767Y581810D01*
X409343Y582086D01*
X408919Y582319D01*
X408495Y582510D01*
X408070Y582659D01*
X407646Y582765D01*
X407222Y582828D01*
X406798Y582850D01*
X411040Y587092D01*
X411062Y586668D01*
D02*
G37*
G36*
X363261Y571220D02*
X363230Y571457D01*
X363150Y571670D01*
X363020Y571857D01*
X362841Y572020D01*
X362613Y572158D01*
X362335Y572270D01*
X362008Y572357D01*
X361638Y572419D01*
X361512Y572402D01*
X361249Y572348D01*
X360998Y572280D01*
X360760Y572196D01*
X360535Y572097D01*
X360323Y571983D01*
X360123Y571854D01*
X359937Y571709D01*
X360329Y575891D01*
X360487Y575716D01*
X360661Y575559D01*
X360851Y575421D01*
X361058Y575302D01*
X361280Y575200D01*
X361519Y575117D01*
X361775Y575053D01*
X361802Y575048D01*
X362008Y575083D01*
X362335Y575170D01*
X362613Y575283D01*
X362841Y575420D01*
X363020Y575583D01*
X363150Y575770D01*
X363230Y575983D01*
X363261Y576220D01*
Y571220D01*
D02*
G37*
G36*
X406829Y572782D02*
X407312Y572745D01*
X407253Y572698D01*
X407188Y572625D01*
X407116Y572526D01*
X407039Y572400D01*
X406865Y572070D01*
X406668Y571636D01*
X406446Y571096D01*
X403778Y571301D01*
X403902Y571533D01*
X403999Y571752D01*
X404071Y571958D01*
X404116Y572149D01*
X404136Y572327D01*
X404134Y572365D01*
X403798D01*
X403895Y572382D01*
X403986Y572433D01*
X404072Y572519D01*
X404111Y572578D01*
X404097Y572642D01*
X404039Y572778D01*
X403955Y572901D01*
X403845Y573011D01*
X404293Y572976D01*
X404296Y572984D01*
X404359Y573208D01*
X404417Y573466D01*
X404515Y574086D01*
X407015D01*
X406829Y572782D01*
D02*
G37*
G36*
X416265Y574795D02*
X416310Y574285D01*
X416385Y573834D01*
X416490Y573445D01*
X416625Y573115D01*
X416790Y572845D01*
X416985Y572635D01*
X417210Y572485D01*
X417465Y572394D01*
X417750Y572365D01*
X411750D01*
X412035Y572394D01*
X412290Y572485D01*
X412515Y572635D01*
X412710Y572845D01*
X412875Y573115D01*
X413010Y573445D01*
X413115Y573834D01*
X413190Y574285D01*
X413235Y574795D01*
X413250Y575364D01*
X416250D01*
X416265Y574795D01*
D02*
G37*
G36*
X369270Y575983D02*
X369350Y575770D01*
X369480Y575583D01*
X369659Y575420D01*
X369887Y575283D01*
X370165Y575170D01*
X370492Y575083D01*
X370868Y575020D01*
X371294Y574982D01*
X371769Y574970D01*
Y572470D01*
X371294Y572458D01*
X370868Y572420D01*
X370492Y572357D01*
X370165Y572270D01*
X369887Y572158D01*
X369659Y572020D01*
X369480Y571857D01*
X369350Y571670D01*
X369270Y571457D01*
X369239Y571220D01*
Y576220D01*
X369270Y575983D01*
D02*
G37*
G36*
X417770Y571623D02*
X417850Y571410D01*
X417980Y571222D01*
X418158Y571060D01*
X418387Y570923D01*
X418568Y570849D01*
X418756Y570930D01*
X418968Y571045D01*
X419164Y571178D01*
X419346Y571329D01*
X419512Y571498D01*
X419552Y570644D01*
X419794Y570622D01*
X420270Y570610D01*
Y568110D01*
X419794Y568097D01*
X419671Y568087D01*
X419708Y567302D01*
X419527Y567456D01*
X419333Y567593D01*
X419125Y567714D01*
X418904Y567819D01*
X418669Y567908D01*
X418664Y567910D01*
X418387Y567798D01*
X418158Y567660D01*
X417980Y567497D01*
X417850Y567310D01*
X417770Y567098D01*
X417739Y566860D01*
Y568090D01*
X417594Y568102D01*
X417291Y568110D01*
X417163Y570610D01*
X417467Y570619D01*
X417739Y570644D01*
Y571860D01*
X417770Y571623D01*
D02*
G37*
%LPC*%
G36*
X405895Y532000D02*
X404105D01*
X402451Y531315D01*
X401185Y530049D01*
X400500Y528395D01*
Y526605D01*
X401185Y524951D01*
X402451Y523685D01*
X404105Y523000D01*
X405895D01*
X407549Y523685D01*
X408815Y524951D01*
X409500Y526605D01*
Y528395D01*
X408815Y530049D01*
X407549Y531315D01*
X405895Y532000D01*
D02*
G37*
G36*
X389695D02*
X387905D01*
X386251Y531315D01*
X384985Y530049D01*
X384300Y528395D01*
Y526605D01*
X384985Y524951D01*
X386251Y523685D01*
X387905Y523000D01*
X389695D01*
X391349Y523685D01*
X392615Y524951D01*
X393300Y526605D01*
Y528395D01*
X392615Y530049D01*
X391349Y531315D01*
X389695Y532000D01*
D02*
G37*
G36*
X373395D02*
X371605D01*
X369951Y531315D01*
X368685Y530049D01*
X368000Y528395D01*
Y526605D01*
X368685Y524951D01*
X369951Y523685D01*
X371605Y523000D01*
X373395D01*
X375049Y523685D01*
X376315Y524951D01*
X377000Y526605D01*
Y528395D01*
X376315Y530049D01*
X375049Y531315D01*
X373395Y532000D01*
D02*
G37*
G36*
X389695Y514600D02*
X387905D01*
X386251Y513915D01*
X384985Y512649D01*
X384300Y510995D01*
Y509205D01*
X384985Y507551D01*
X386251Y506285D01*
X387905Y505600D01*
X389695D01*
X391349Y506285D01*
X392615Y507551D01*
X393300Y509205D01*
Y510995D01*
X392615Y512649D01*
X391349Y513915D01*
X389695Y514600D01*
D02*
G37*
G36*
X405895Y514500D02*
X404105D01*
X402451Y513815D01*
X401185Y512549D01*
X400500Y510895D01*
Y509105D01*
X401185Y507451D01*
X402451Y506185D01*
X404105Y505500D01*
X405895D01*
X407549Y506185D01*
X408815Y507451D01*
X409500Y509105D01*
Y510895D01*
X408815Y512549D01*
X407549Y513815D01*
X405895Y514500D01*
D02*
G37*
G36*
X373395D02*
X371605D01*
X369951Y513815D01*
X368685Y512549D01*
X368000Y510895D01*
Y509105D01*
X368685Y507451D01*
X369951Y506185D01*
X371605Y505500D01*
X373395D01*
X375049Y506185D01*
X376315Y507451D01*
X377000Y509105D01*
Y510895D01*
X376315Y512549D01*
X375049Y513815D01*
X373395Y514500D01*
D02*
G37*
G36*
X405895Y497000D02*
X404105D01*
X402451Y496315D01*
X401185Y495049D01*
X400500Y493395D01*
Y491605D01*
X401185Y489951D01*
X402451Y488685D01*
X404105Y488000D01*
X405895D01*
X407549Y488685D01*
X408815Y489951D01*
X409500Y491605D01*
Y493395D01*
X408815Y495049D01*
X407549Y496315D01*
X405895Y497000D01*
D02*
G37*
G36*
X389695D02*
X387905D01*
X386251Y496315D01*
X384985Y495049D01*
X384300Y493395D01*
Y491605D01*
X384985Y489951D01*
X386251Y488685D01*
X387905Y488000D01*
X389695D01*
X391349Y488685D01*
X392615Y489951D01*
X393300Y491605D01*
Y493395D01*
X392615Y495049D01*
X391349Y496315D01*
X389695Y497000D01*
D02*
G37*
G36*
X373395D02*
X371605D01*
X369951Y496315D01*
X368685Y495049D01*
X368000Y493395D01*
Y491605D01*
X368685Y489951D01*
X369951Y488685D01*
X371605Y488000D01*
X373395D01*
X375049Y488685D01*
X376315Y489951D01*
X377000Y491605D01*
Y493395D01*
X376315Y495049D01*
X375049Y496315D01*
X373395Y497000D01*
D02*
G37*
%LPD*%
G36*
X341247Y610980D02*
X341035Y610900D01*
X340848Y610770D01*
X340685Y610592D01*
X340547Y610363D01*
X340435Y610085D01*
X340348Y609758D01*
X340324Y609616D01*
X340372Y609408D01*
X340449Y609163D01*
X340542Y608932D01*
X340654Y608715D01*
X340782Y608513D01*
X340927Y608326D01*
X341089Y608153D01*
X336889Y608132D01*
X337050Y608307D01*
X337194Y608495D01*
X337321Y608699D01*
X337430Y608916D01*
X337524Y609148D01*
X337600Y609394D01*
X337648Y609605D01*
X337622Y609758D01*
X337535Y610085D01*
X337422Y610363D01*
X337285Y610592D01*
X337122Y610770D01*
X336935Y610900D01*
X336722Y610980D01*
X336485Y611011D01*
X341485D01*
X341247Y610980D01*
D02*
G37*
G36*
X320443Y599123D02*
X320355Y598970D01*
X320278Y598796D01*
X320211Y598601D01*
X320154Y598383D01*
X320108Y598145D01*
X320090Y598018D01*
X320119Y597685D01*
X320192Y597295D01*
X320286Y596964D01*
X320401Y596694D01*
X320537Y596484D01*
X320694Y596334D01*
X320871Y596245D01*
X321069Y596214D01*
X315525D01*
X315810Y596245D01*
X316065Y596334D01*
X316290Y596484D01*
X316485Y596694D01*
X316650Y596964D01*
X316785Y597295D01*
X316890Y597685D01*
X316915Y597836D01*
X316858Y598058D01*
X316785Y598268D01*
X316698Y598456D01*
X316598Y598621D01*
X316484Y598764D01*
X316358Y598885D01*
X317018Y598943D01*
X317025Y599215D01*
X320025D01*
X320025Y599209D01*
X320541Y599255D01*
X320443Y599123D01*
D02*
G37*
G36*
X448639Y561297D02*
X448714Y561083D01*
X448839Y560894D01*
X449015Y560730D01*
X449240Y560589D01*
X449515Y560474D01*
X449839Y560382D01*
X450214Y560315D01*
X450639Y560273D01*
X451114Y560255D01*
Y557755D01*
X448615Y557730D01*
Y561534D01*
X448639Y561297D01*
D02*
G37*
G36*
X142220Y582250D02*
X142049Y582240D01*
X141870Y582206D01*
X141685Y582148D01*
X141494Y582067D01*
X141295Y581962D01*
X141090Y581833D01*
X140878Y581680D01*
X140659Y581504D01*
X140201Y581079D01*
X138080Y583201D01*
X138303Y583433D01*
X138680Y583878D01*
X138833Y584090D01*
X138962Y584295D01*
X139067Y584494D01*
X139148Y584685D01*
X139206Y584870D01*
X139240Y585049D01*
X139250Y585220D01*
X142220Y582250D01*
D02*
G37*
G36*
X41771Y537986D02*
X41921Y537884D01*
X42092Y537794D01*
X42286Y537716D01*
X42500Y537650D01*
X42737Y537596D01*
X42995Y537554D01*
X43274Y537524D01*
X43898Y537500D01*
Y534500D01*
X43575Y534494D01*
X42995Y534446D01*
X42737Y534404D01*
X42500Y534350D01*
X42286Y534284D01*
X42092Y534206D01*
X41921Y534116D01*
X41771Y534014D01*
X41642Y533900D01*
Y538100D01*
X41771Y537986D01*
D02*
G37*
G36*
X333260Y576926D02*
X333406Y576796D01*
X333571Y576683D01*
X333755Y576585D01*
X333957Y576503D01*
X334179Y576437D01*
X334420Y576386D01*
X334679Y576352D01*
X334748Y576348D01*
X335230Y576365D01*
X335231Y576332D01*
X335255Y576331D01*
X335291Y574332D01*
X335251Y574330D01*
X335261Y573331D01*
X335235Y573520D01*
X335170Y573689D01*
X335065Y573837D01*
X334921Y573965D01*
X334738Y574072D01*
X334515Y574158D01*
X334307Y574210D01*
X334220Y574188D01*
X334001Y574114D01*
X333801Y574025D01*
X333621Y573920D01*
X333460Y573801D01*
X333319Y573666D01*
X333198Y573516D01*
X333134Y577071D01*
X333260Y576926D01*
D02*
G37*
G36*
X506500Y557500D02*
Y511539D01*
X505253Y510705D01*
X505145Y510750D01*
X503355D01*
X501701Y510065D01*
X500435Y508799D01*
X499750Y507145D01*
Y505355D01*
X500435Y503701D01*
X501701Y502435D01*
X503355Y501750D01*
X505145D01*
X505253Y501795D01*
X506500Y500961D01*
Y435250D01*
X487250Y416000D01*
X341000D01*
X333500Y408500D01*
X279000D01*
X271500Y416000D01*
X266000Y416000D01*
X164000D01*
Y446500D01*
X211500D01*
X240000Y475000D01*
Y487500D01*
X272500Y520000D01*
X280500Y520000D01*
X299250Y538750D01*
Y546096D01*
X321500Y575000D01*
X331000Y575000D01*
Y568250D01*
X324000Y556750D01*
X323261Y555620D01*
X325165D01*
X325177Y555144D01*
X325215Y554718D01*
X325239Y554572D01*
X326039Y554549D01*
X325872Y554380D01*
X325724Y554196D01*
X325593Y553997D01*
X325480Y553783D01*
X325469Y553758D01*
X325477Y553737D01*
X325615Y553508D01*
X325778Y553330D01*
X325965Y553200D01*
X326177Y553120D01*
X326415Y553089D01*
X325253D01*
X325244Y553051D01*
X325200Y552777D01*
X325174Y552489D01*
X325165Y552186D01*
X322665Y552263D01*
X322657Y552566D01*
X322632Y552855D01*
X322597Y553089D01*
X321415D01*
X321652Y553120D01*
X321865Y553200D01*
X322052Y553330D01*
X322215Y553508D01*
X322352Y553737D01*
X322387Y553823D01*
X322368Y553872D01*
X322261Y554092D01*
X322137Y554298D01*
X321997Y554490D01*
X321856Y554650D01*
X319155D01*
Y553100D01*
X320929D01*
Y547100D01*
X319155D01*
Y545550D01*
X320000D01*
Y539809D01*
X319340Y538215D01*
Y536425D01*
X320000Y534831D01*
Y529500D01*
X322500D01*
Y524000D01*
X320000D01*
Y519316D01*
X319722Y519038D01*
X319037Y517384D01*
Y515594D01*
X319722Y513940D01*
X320000Y513662D01*
Y511614D01*
X319685Y511299D01*
X319000Y509645D01*
Y507855D01*
X319511Y506621D01*
X318960Y505448D01*
X318644Y505121D01*
X307800D01*
Y503347D01*
X301800D01*
Y505121D01*
X289769D01*
Y501850D01*
X291543D01*
Y495850D01*
X289769D01*
Y493125D01*
X286875D01*
X276250Y482500D01*
Y453750D01*
X297500Y432500D01*
X330000D01*
X335000Y437500D01*
X472500D01*
X480000Y445000D01*
Y485013D01*
X481500Y485949D01*
X482342Y485600D01*
X484132D01*
X485786Y486285D01*
X487052Y487551D01*
X487737Y489205D01*
Y490995D01*
X487052Y492649D01*
X485786Y493915D01*
X484132Y494600D01*
X482342D01*
X481500Y494251D01*
X480000Y495187D01*
Y505765D01*
X481500Y506386D01*
X481701Y506185D01*
X483355Y505500D01*
X483397Y504000D01*
X483250Y503645D01*
Y501855D01*
X483935Y500201D01*
X485201Y498935D01*
X486855Y498250D01*
X488645D01*
X490299Y498935D01*
X491565Y500201D01*
X492250Y501855D01*
Y503645D01*
X491565Y505299D01*
X490299Y506565D01*
X488645Y507250D01*
X488603Y508750D01*
X488750Y509105D01*
Y510895D01*
X488471Y511569D01*
X489473Y513069D01*
X491321D01*
Y525100D01*
X489547D01*
Y531100D01*
X491321D01*
Y543131D01*
X488050D01*
Y541357D01*
X482050D01*
Y543131D01*
X480000D01*
Y555000D01*
X463000Y572000D01*
X437000Y572000D01*
X433750Y575250D01*
X433750Y578251D01*
X437999Y582500D01*
X481500D01*
X506500Y557500D01*
D02*
G37*
G36*
X327385Y539047D02*
X327534Y539028D01*
X327823Y539007D01*
X328125Y539000D01*
X328526Y536500D01*
X328221Y536491D01*
X327933Y536462D01*
X327663Y536414D01*
X327410Y536348D01*
X327385Y536339D01*
Y535250D01*
X326415Y535735D01*
X326409Y535729D01*
X326261Y535549D01*
X326220Y535833D01*
X324885Y536500D01*
Y539000D01*
X325702Y539408D01*
X325659Y539706D01*
X325850Y539571D01*
X325932Y539523D01*
X327385Y540250D01*
Y539047D01*
D02*
G37*
G36*
Y528042D02*
X327435Y528034D01*
X327724Y528008D01*
X328027Y528000D01*
Y525500D01*
X327724Y525491D01*
X327435Y525466D01*
X327385Y525458D01*
Y524250D01*
X325992Y524947D01*
X325816Y524812D01*
X325642Y524650D01*
Y525122D01*
X324885Y525500D01*
Y528000D01*
X325642Y528378D01*
Y528850D01*
X325816Y528689D01*
X325992Y528553D01*
X327385Y529250D01*
Y528042D01*
D02*
G37*
G36*
Y518010D02*
X327935Y517989D01*
Y514989D01*
X327612Y514983D01*
X327385Y514964D01*
Y513489D01*
X324385Y514989D01*
Y517989D01*
X325680Y518326D01*
Y518589D01*
X325808Y518475D01*
X325931Y518391D01*
X327385Y518769D01*
Y518010D01*
D02*
G37*
G36*
X325627Y514336D02*
X325465Y514163D01*
X325319Y513976D01*
X325191Y513774D01*
X325079Y513558D01*
X324984Y513327D01*
X324907Y513081D01*
X324846Y512822D01*
X324813Y512613D01*
X324844Y512405D01*
X324902Y512144D01*
X324978Y511898D01*
X325070Y511666D01*
X325179Y511449D01*
X325306Y511246D01*
X325450Y511057D01*
X325610Y510882D01*
X321410Y510902D01*
X321573Y511076D01*
X321718Y511263D01*
X321847Y511465D01*
X321958Y511681D01*
X322053Y511912D01*
X322130Y512158D01*
X322191Y512417D01*
X322224Y512626D01*
X322193Y512834D01*
X322135Y513095D01*
X322060Y513341D01*
X321967Y513573D01*
X321858Y513790D01*
X321731Y513993D01*
X321587Y514182D01*
X321427Y514357D01*
X325627Y514336D01*
D02*
G37*
G36*
X318326Y502513D02*
X318400Y502300D01*
X318526Y502113D01*
X318701Y501950D01*
X318925Y501813D01*
X319200Y501700D01*
X319512Y501616D01*
X319599Y501636D01*
X319845Y501712D01*
X320076Y501806D01*
X320293Y501917D01*
X320496Y502044D01*
X320684Y502188D01*
X320858Y502350D01*
Y498150D01*
X320684Y498312D01*
X320496Y498456D01*
X320293Y498583D01*
X320076Y498694D01*
X319845Y498787D01*
X319599Y498864D01*
X319512Y498884D01*
X319200Y498800D01*
X318925Y498688D01*
X318701Y498550D01*
X318526Y498387D01*
X318400Y498200D01*
X318326Y497988D01*
X318300Y497750D01*
Y502750D01*
X318326Y502513D01*
D02*
G37*
G36*
X559963Y466837D02*
X560486Y466405D01*
X560744Y466229D01*
X561002Y466081D01*
X561257Y465959D01*
X561511Y465865D01*
X561763Y465797D01*
X562013Y465757D01*
X562262Y465743D01*
Y464243D01*
X562013Y464230D01*
X561763Y464189D01*
X561511Y464122D01*
X561257Y464027D01*
X561002Y463906D01*
X560744Y463757D01*
X560486Y463582D01*
X560225Y463379D01*
X559963Y463150D01*
X559699Y462893D01*
Y467093D01*
X559963Y466837D01*
D02*
G37*
G36*
X539843Y463594D02*
X539412Y463071D01*
X539236Y462812D01*
X539087Y462555D01*
X538966Y462300D01*
X538871Y462046D01*
X538804Y461794D01*
X538764Y461544D01*
X538750Y461295D01*
X537250D01*
X537237Y461544D01*
X537196Y461794D01*
X537128Y462046D01*
X537034Y462300D01*
X536912Y462555D01*
X536764Y462812D01*
X536589Y463071D01*
X536386Y463332D01*
X536157Y463594D01*
X535900Y463858D01*
X540100D01*
X539843Y463594D01*
D02*
G37*
G36*
X560987Y458388D02*
X561510Y457956D01*
X561768Y457780D01*
X562025Y457632D01*
X562281Y457510D01*
X562534Y457416D01*
X562786Y457349D01*
X563037Y457308D01*
X563285Y457295D01*
Y455794D01*
X563037Y455781D01*
X562786Y455741D01*
X562534Y455673D01*
X562281Y455578D01*
X562025Y455457D01*
X561768Y455308D01*
X561510Y455133D01*
X561249Y454930D01*
X560987Y454701D01*
X560723Y454445D01*
Y458644D01*
X560987Y458388D01*
D02*
G37*
G36*
X542844Y451594D02*
X542411Y451071D01*
X542236Y450812D01*
X542088Y450555D01*
X541966Y450300D01*
X541871Y450046D01*
X541804Y449794D01*
X541763Y449544D01*
X541750Y449295D01*
X540250D01*
X540237Y449544D01*
X540196Y449794D01*
X540129Y450046D01*
X540034Y450300D01*
X539912Y450555D01*
X539764Y450812D01*
X539589Y451071D01*
X539386Y451332D01*
X539156Y451594D01*
X538900Y451858D01*
X543100D01*
X542844Y451594D01*
D02*
G37*
G36*
X530844D02*
X530411Y451071D01*
X530236Y450812D01*
X530088Y450555D01*
X529966Y450300D01*
X529871Y450046D01*
X529804Y449794D01*
X529763Y449544D01*
X529750Y449295D01*
X528250D01*
X528237Y449544D01*
X528196Y449794D01*
X528129Y450046D01*
X528034Y450300D01*
X527912Y450555D01*
X527764Y450812D01*
X527589Y451071D01*
X527386Y451332D01*
X527156Y451594D01*
X526900Y451858D01*
X531100D01*
X530844Y451594D01*
D02*
G37*
G36*
X350641Y448666D02*
X350288Y448643D01*
X349934Y448584D01*
X349580Y448491D01*
X349227Y448364D01*
X348873Y448201D01*
X348520Y448004D01*
X348166Y447772D01*
X347813Y447505D01*
X347459Y447204D01*
X347297Y447050D01*
X346934Y446620D01*
X346775Y446402D01*
X346633Y446184D01*
X346508Y445966D01*
X346400Y445748D01*
X346309Y445530D01*
X346235Y445312D01*
X346177Y445093D01*
X343965Y448663D01*
X344190Y448622D01*
X344415Y448609D01*
X344639Y448623D01*
X344864Y448666D01*
X345088Y448736D01*
X345312Y448834D01*
X345536Y448960D01*
X345609Y449010D01*
X345934Y449388D01*
X346281Y449856D01*
X346575Y450307D01*
X346817Y450740D01*
X347007Y451156D01*
X347144Y451554D01*
X347229Y451934D01*
X347261Y452296D01*
X350641Y448666D01*
D02*
G37*
G36*
X551843Y450594D02*
X551412Y450071D01*
X551236Y449813D01*
X551087Y449555D01*
X550966Y449300D01*
X550872Y449046D01*
X550804Y448794D01*
X550764Y448544D01*
X550750Y448295D01*
X549250D01*
X549236Y448544D01*
X549196Y448794D01*
X549128Y449046D01*
X549034Y449300D01*
X548913Y449555D01*
X548764Y449813D01*
X548588Y450071D01*
X548386Y450332D01*
X548157Y450594D01*
X547900Y450858D01*
X552100D01*
X551843Y450594D01*
D02*
G37*
G36*
X395761Y450263D02*
X395794Y449992D01*
X395849Y449727D01*
X395926Y449468D01*
X396025Y449216D01*
X396146Y448971D01*
X396197Y448885D01*
X396750D01*
X396519Y448422D01*
X396641Y448275D01*
X396850Y448056D01*
X396335D01*
X395750Y446885D01*
X393750D01*
X393165Y448056D01*
X392650D01*
X392859Y448275D01*
X392982Y448422D01*
X392750Y448885D01*
X393303D01*
X393354Y448971D01*
X393475Y449216D01*
X393574Y449468D01*
X393651Y449727D01*
X393706Y449992D01*
X393739Y450263D01*
X393750Y450542D01*
X395750D01*
X395761Y450263D01*
D02*
G37*
G36*
X375761Y449600D02*
X375794Y449328D01*
X375849Y449063D01*
X375926Y448805D01*
X375993Y448635D01*
X376750D01*
X376393Y447922D01*
X376454Y447837D01*
X376641Y447611D01*
X376850Y447392D01*
X376129D01*
X375750Y446636D01*
X373750D01*
X373372Y447392D01*
X372650D01*
X372859Y447611D01*
X373046Y447837D01*
X373107Y447922D01*
X372750Y448635D01*
X373507D01*
X373574Y448805D01*
X373651Y449063D01*
X373706Y449328D01*
X373739Y449600D01*
X373750Y449878D01*
X375750D01*
X375761Y449600D01*
D02*
G37*
G36*
X429270Y446594D02*
X429350Y446382D01*
X429480Y446194D01*
X429659Y446032D01*
X429887Y445894D01*
X430165Y445782D01*
X430492Y445694D01*
X430868Y445632D01*
X431185Y445604D01*
X431566Y445636D01*
X431832Y445678D01*
X432087Y445733D01*
X432329Y445800D01*
X432560Y445878D01*
X432779Y445969D01*
X432986Y446072D01*
X433180Y446187D01*
X432243Y442093D01*
X432112Y442281D01*
X431961Y442449D01*
X431791Y442597D01*
X431602Y442726D01*
X431393Y442835D01*
X431165Y442924D01*
X430917Y442993D01*
X430776Y443019D01*
X430494Y442974D01*
X430169Y442890D01*
X429894Y442783D01*
X429669Y442651D01*
X429495Y442495D01*
X429370Y442316D01*
X429295Y442113D01*
X429269Y441885D01*
X429239Y446832D01*
X429270Y446594D01*
D02*
G37*
G36*
X303172Y442404D02*
X303798Y443003D01*
X303802Y442766D01*
X303829Y442531D01*
X303878Y442297D01*
X303950Y442066D01*
X304044Y441836D01*
X304162Y441608D01*
X304302Y441382D01*
X304465Y441157D01*
X304650Y440935D01*
X304859Y440714D01*
X303047Y438990D01*
X302827Y439198D01*
X302605Y439385D01*
X302382Y439550D01*
X302156Y439693D01*
X301928Y439815D01*
X301699Y439916D01*
X301468Y439994D01*
X301235Y440051D01*
X301000Y440087D01*
X300763Y440100D01*
X301362Y440673D01*
X299918Y442119D01*
X301686Y443887D01*
X303172Y442404D01*
D02*
G37*
G36*
X712561Y396000D02*
X712530Y396237D01*
X712450Y396450D01*
X712320Y396637D01*
X712141Y396800D01*
X711913Y396937D01*
X711635Y397050D01*
X711308Y397137D01*
X710932Y397200D01*
X710506Y397238D01*
X710031Y397250D01*
Y399750D01*
X710506Y399762D01*
X710932Y399800D01*
X711308Y399863D01*
X711635Y399950D01*
X711913Y400062D01*
X712141Y400200D01*
X712320Y400363D01*
X712450Y400550D01*
X712530Y400762D01*
X712561Y401000D01*
Y396000D01*
D02*
G37*
G36*
X696699Y402837D02*
X698099Y401617D01*
X698764Y401122D01*
X699405Y400703D01*
X700023Y400360D01*
X700617Y400093D01*
X701188Y399902D01*
X701735Y399788D01*
X702259Y399750D01*
Y397250D01*
X701735Y397212D01*
X701188Y397098D01*
X700617Y396907D01*
X700023Y396640D01*
X699405Y396297D01*
X698764Y395878D01*
X698099Y395383D01*
X697410Y394811D01*
X695963Y393439D01*
Y403561D01*
X696699Y402837D01*
D02*
G37*
G36*
X416820Y370787D02*
X416884Y370112D01*
X416943Y369805D01*
X417020Y369518D01*
X417115Y369252D01*
X417227Y369005D01*
X417358Y368779D01*
X417506Y368574D01*
X417672Y368388D01*
X416612Y367328D01*
X416426Y367494D01*
X416221Y367642D01*
X415995Y367773D01*
X415748Y367885D01*
X415482Y367980D01*
X415195Y368057D01*
X414888Y368116D01*
X414561Y368157D01*
X414213Y368180D01*
X413845Y368185D01*
X416815Y371155D01*
X416820Y370787D01*
D02*
G37*
G36*
X550443Y369723D02*
X550655Y369542D01*
X550867Y369381D01*
X551079Y369241D01*
X551291Y369122D01*
X551503Y369023D01*
X551715Y368945D01*
X551927Y368887D01*
X552140Y368850D01*
X552352Y368834D01*
X550261Y366743D01*
X550245Y366955D01*
X550208Y367168D01*
X550150Y367380D01*
X550072Y367592D01*
X549973Y367804D01*
X549854Y368016D01*
X549714Y368228D01*
X549553Y368440D01*
X549372Y368652D01*
X549170Y368865D01*
X550230Y369925D01*
X550443Y369723D01*
D02*
G37*
G36*
X525757Y355329D02*
X525780Y355073D01*
X525817Y354847D01*
X525870Y354650D01*
X525938Y354482D01*
X526020Y354343D01*
X526118Y354235D01*
X526230Y354155D01*
X526357Y354105D01*
X526500Y354084D01*
X523500D01*
X523643Y354105D01*
X523770Y354155D01*
X523882Y354235D01*
X523980Y354343D01*
X524062Y354482D01*
X524130Y354650D01*
X524183Y354847D01*
X524220Y355073D01*
X524243Y355329D01*
X524250Y355615D01*
X525750D01*
X525757Y355329D01*
D02*
G37*
G36*
X425757D02*
X425780Y355073D01*
X425817Y354847D01*
X425870Y354650D01*
X425938Y354482D01*
X426020Y354343D01*
X426118Y354235D01*
X426230Y354155D01*
X426357Y354105D01*
X426500Y354084D01*
X423500D01*
X423643Y354105D01*
X423770Y354155D01*
X423882Y354235D01*
X423980Y354343D01*
X424062Y354482D01*
X424130Y354650D01*
X424183Y354847D01*
X424220Y355073D01*
X424243Y355329D01*
X424250Y355615D01*
X425750D01*
X425757Y355329D01*
D02*
G37*
G36*
X722015Y354689D02*
X722045Y354348D01*
X722095Y354047D01*
X722165Y353785D01*
X722255Y353562D01*
X722365Y353378D01*
X722495Y353235D01*
X722645Y353130D01*
X722815Y353065D01*
X723005Y353039D01*
X719005D01*
X719195Y353065D01*
X719365Y353130D01*
X719515Y353235D01*
X719645Y353378D01*
X719755Y353562D01*
X719845Y353785D01*
X719915Y354047D01*
X719965Y354348D01*
X719995Y354689D01*
X720005Y355070D01*
X722005D01*
X722015Y354689D01*
D02*
G37*
G36*
X329080Y353989D02*
X328878Y353777D01*
X328697Y353565D01*
X328536Y353353D01*
X328396Y353141D01*
X328277Y352929D01*
X328178Y352717D01*
X328100Y352505D01*
X328042Y352292D01*
X328005Y352080D01*
X327989Y351868D01*
X326023Y354084D01*
X326235Y354100D01*
X326447Y354137D01*
X326660Y354195D01*
X326872Y354273D01*
X327084Y354372D01*
X327296Y354492D01*
X327508Y354632D01*
X327720Y354792D01*
X327932Y354973D01*
X328144Y355175D01*
X329080Y353989D01*
D02*
G37*
G36*
X234080D02*
X233878Y353777D01*
X233697Y353565D01*
X233536Y353353D01*
X233396Y353141D01*
X233277Y352929D01*
X233178Y352717D01*
X233100Y352505D01*
X233042Y352292D01*
X233005Y352080D01*
X232989Y351868D01*
X231023Y354084D01*
X231235Y354100D01*
X231448Y354137D01*
X231660Y354195D01*
X231872Y354273D01*
X232084Y354372D01*
X232296Y354492D01*
X232508Y354632D01*
X232720Y354792D01*
X232932Y354973D01*
X233144Y355175D01*
X234080Y353989D01*
D02*
G37*
G36*
X556255Y352670D02*
X556292Y352458D01*
X556350Y352245D01*
X556428Y352033D01*
X556527Y351821D01*
X556646Y351609D01*
X556786Y351397D01*
X556947Y351185D01*
X557128Y350973D01*
X557330Y350760D01*
X556395Y349575D01*
X556182Y349777D01*
X555970Y349958D01*
X555758Y350118D01*
X555546Y350258D01*
X555334Y350378D01*
X555122Y350477D01*
X554910Y350555D01*
X554697Y350613D01*
X554485Y350650D01*
X554273Y350666D01*
X556239Y352882D01*
X556255Y352670D01*
D02*
G37*
G36*
X693183Y356644D02*
X693648Y356376D01*
X694212Y356142D01*
X694874Y355940D01*
X695635Y355772D01*
X696495Y355636D01*
X698512Y355465D01*
X699668Y355428D01*
X700923Y355425D01*
X693275Y347777D01*
X693272Y349032D01*
X693064Y352205D01*
X692928Y353065D01*
X692760Y353826D01*
X692558Y354488D01*
X692324Y355052D01*
X692056Y355517D01*
X691756Y355884D01*
X692816Y356944D01*
X693183Y356644D01*
D02*
G37*
G36*
X428005Y349860D02*
X428042Y349647D01*
X428100Y349435D01*
X428178Y349223D01*
X428277Y349011D01*
X428396Y348799D01*
X428536Y348587D01*
X428697Y348375D01*
X428878Y348163D01*
X429080Y347951D01*
X428144Y346765D01*
X427932Y346967D01*
X427720Y347148D01*
X427508Y347309D01*
X427296Y347449D01*
X427084Y347568D01*
X426872Y347667D01*
X426660Y347745D01*
X426447Y347803D01*
X426235Y347840D01*
X426023Y347856D01*
X427989Y350072D01*
X428005Y349860D01*
D02*
G37*
G36*
X658130Y349058D02*
X658175Y348930D01*
X658250Y348817D01*
X658354Y348720D01*
X658490Y348638D01*
X658654Y348570D01*
X658849Y348517D01*
X659074Y348480D01*
X659330Y348457D01*
X659614Y348450D01*
Y346950D01*
X659330Y346942D01*
X659074Y346920D01*
X658849Y346883D01*
X658654Y346830D01*
X658490Y346763D01*
X658354Y346680D01*
X658250Y346582D01*
X658175Y346470D01*
X658130Y346343D01*
X658114Y346200D01*
Y349200D01*
X658130Y349058D01*
D02*
G37*
G36*
X618758Y347329D02*
X618780Y347073D01*
X618817Y346847D01*
X618870Y346650D01*
X618937Y346482D01*
X619020Y346344D01*
X619118Y346235D01*
X619230Y346155D01*
X619357Y346105D01*
X619500Y346084D01*
X616500D01*
X616642Y346105D01*
X616770Y346155D01*
X616883Y346235D01*
X616980Y346344D01*
X617062Y346482D01*
X617130Y346650D01*
X617183Y346847D01*
X617220Y347073D01*
X617243Y347329D01*
X617250Y347615D01*
X618750D01*
X618758Y347329D01*
D02*
G37*
G36*
X642132Y345011D02*
X641920Y344995D01*
X641708Y344958D01*
X641495Y344900D01*
X641283Y344822D01*
X641071Y344723D01*
X640859Y344604D01*
X640647Y344464D01*
X640435Y344303D01*
X640223Y344122D01*
X640011Y343920D01*
X638825Y344855D01*
X639027Y345068D01*
X639208Y345280D01*
X639369Y345492D01*
X639509Y345704D01*
X639628Y345916D01*
X639727Y346128D01*
X639805Y346340D01*
X639863Y346553D01*
X639900Y346765D01*
X639916Y346977D01*
X642132Y345011D01*
D02*
G37*
G36*
X597493Y343537D02*
X597052Y344185D01*
X596603Y344766D01*
X596145Y345278D01*
X595679Y345721D01*
X595205Y346097D01*
X594722Y346404D01*
X594231Y346643D01*
X593731Y346814D01*
X593223Y346916D01*
X592707Y346950D01*
Y348450D01*
X593223Y348484D01*
X593731Y348587D01*
X594231Y348757D01*
X594722Y348996D01*
X595205Y349303D01*
X595679Y349679D01*
X596145Y350122D01*
X596603Y350634D01*
X597052Y351214D01*
X597493Y351863D01*
Y343537D01*
D02*
G37*
G36*
X670083Y342293D02*
X669193Y343177D01*
X666803Y345273D01*
X666099Y345786D01*
X665442Y346205D01*
X664830Y346531D01*
X664266Y346764D01*
X663748Y346903D01*
X663277Y346950D01*
Y348450D01*
X663748Y348497D01*
X664266Y348636D01*
X664830Y348869D01*
X665442Y349195D01*
X666099Y349614D01*
X666803Y350127D01*
X668350Y351431D01*
X669193Y352223D01*
X670083Y353107D01*
Y342293D01*
D02*
G37*
G36*
X573083D02*
X572193Y343177D01*
X569803Y345273D01*
X569099Y345786D01*
X568442Y346205D01*
X567831Y346531D01*
X567266Y346764D01*
X566748Y346903D01*
X566277Y346950D01*
Y348450D01*
X566748Y348497D01*
X567266Y348636D01*
X567831Y348869D01*
X568442Y349195D01*
X569099Y349614D01*
X569803Y350127D01*
X571350Y351431D01*
X572193Y352223D01*
X573083Y353107D01*
Y342293D01*
D02*
G37*
G36*
X524250Y334385D02*
X522750D01*
X522000Y335886D01*
X525000D01*
X524250Y334385D01*
D02*
G37*
G36*
X426500D02*
X425000D01*
X424250Y335886D01*
X427250D01*
X426500Y334385D01*
D02*
G37*
G36*
X618750Y326385D02*
X617250D01*
X616500Y327886D01*
X619500D01*
X618750Y326385D01*
D02*
G37*
G36*
X524297Y326852D02*
X524436Y326334D01*
X524669Y325770D01*
X524995Y325159D01*
X525414Y324501D01*
X525927Y323797D01*
X527231Y322250D01*
X528023Y321407D01*
X528908Y320517D01*
X518092D01*
X518977Y321407D01*
X521073Y323797D01*
X521586Y324501D01*
X522005Y325159D01*
X522331Y325770D01*
X522564Y326334D01*
X522704Y326852D01*
X522750Y327323D01*
X524250D01*
X524297Y326852D01*
D02*
G37*
G36*
X426549Y326857D02*
X426694Y326325D01*
X426936Y325764D01*
X427275Y325174D01*
X427712Y324554D01*
X428245Y323905D01*
X428875Y323227D01*
X430426Y321782D01*
X431346Y321016D01*
X420582Y319966D01*
X421422Y320986D01*
X423896Y324410D01*
X424293Y325102D01*
X424602Y325728D01*
X424823Y326289D01*
X424956Y326784D01*
X425000Y327213D01*
X426500Y327360D01*
X426549Y326857D01*
D02*
G37*
G36*
X618854Y323340D02*
X619191Y323084D01*
X619538Y322870D01*
X619898Y322697D01*
X620270Y322566D01*
X620653Y322477D01*
X621048Y322430D01*
X621455Y322424D01*
X621874Y322459D01*
X622305Y322537D01*
X617665Y319421D01*
X617882Y319767D01*
X618047Y320105D01*
X618159Y320437D01*
X618218Y320763D01*
X618225Y321082D01*
X618179Y321394D01*
X618080Y321699D01*
X617929Y321998D01*
X617726Y322291D01*
X617470Y322576D01*
X618530Y323637D01*
X618854Y323340D01*
D02*
G37*
G36*
X704844Y323184D02*
X704544Y322817D01*
X704276Y322352D01*
X704042Y321788D01*
X703840Y321126D01*
X703672Y320365D01*
X703537Y319505D01*
X703364Y317488D01*
X703328Y316332D01*
X703325Y315077D01*
X695677Y322725D01*
X696932Y322728D01*
X700105Y322937D01*
X700965Y323072D01*
X701726Y323240D01*
X702388Y323442D01*
X702952Y323676D01*
X703417Y323944D01*
X703784Y324244D01*
X704844Y323184D01*
D02*
G37*
%LPC*%
G36*
X322604Y554650D02*
X322474D01*
X322603Y554646D01*
X322604Y554650D01*
D02*
G37*
%LPD*%
G36*
X454611Y508141D02*
X454837Y507954D01*
X455069Y507789D01*
X455308Y507646D01*
X455368Y507616D01*
X456636Y508250D01*
Y507260D01*
X456878Y507250D01*
Y505250D01*
X456636Y505240D01*
Y504481D01*
X455464Y504931D01*
X455308Y504854D01*
X455069Y504711D01*
X454837Y504546D01*
X454611Y504359D01*
X454392Y504150D01*
Y508350D01*
X454611Y508141D01*
D02*
G37*
G36*
X458011Y489357D02*
X457980Y489594D01*
X457900Y489807D01*
X457770Y489994D01*
X457592Y490157D01*
X457363Y490294D01*
X457085Y490407D01*
X456758Y490494D01*
X456675Y490508D01*
X456464Y490450D01*
X456234Y490361D01*
X456023Y490253D01*
X455831Y490126D01*
X455658Y489979D01*
X455504Y489812D01*
X455369Y489626D01*
X454510Y493737D01*
X454705Y493617D01*
X454911Y493510D01*
X455130Y493415D01*
X455360Y493334D01*
X455602Y493264D01*
X455857Y493207D01*
X456123Y493163D01*
X456290Y493148D01*
X456382Y493157D01*
X456758Y493219D01*
X457085Y493307D01*
X457363Y493419D01*
X457592Y493557D01*
X457770Y493719D01*
X457900Y493907D01*
X457980Y494119D01*
X458011Y494356D01*
Y489357D01*
D02*
G37*
G36*
X441395Y493875D02*
X441475Y493662D01*
X441605Y493475D01*
X441783Y493312D01*
X442012Y493175D01*
X442290Y493062D01*
X442617Y492975D01*
X442993Y492912D01*
X443419Y492875D01*
X443895Y492862D01*
Y490362D01*
X443419Y490350D01*
X442993Y490312D01*
X442617Y490250D01*
X442290Y490162D01*
X442012Y490050D01*
X441783Y489912D01*
X441605Y489750D01*
X441475Y489562D01*
X441395Y489350D01*
X441364Y489112D01*
Y490334D01*
X440948Y490354D01*
X440175Y490362D01*
Y492862D01*
X440436Y492864D01*
X441364Y492918D01*
Y494112D01*
X441395Y493875D01*
D02*
G37*
G36*
X436608Y533650D02*
X436389Y533859D01*
X436163Y534046D01*
X435931Y534211D01*
X435692Y534354D01*
X435447Y534475D01*
X435195Y534574D01*
X434937Y534651D01*
X434672Y534706D01*
X434536Y534723D01*
X434393Y534710D01*
X434092Y534660D01*
X433830Y534590D01*
X433607Y534500D01*
X433424Y534390D01*
X433280Y534260D01*
X433175Y534110D01*
X433110Y533940D01*
X433084Y533750D01*
Y537750D01*
X433110Y537560D01*
X433175Y537390D01*
X433280Y537240D01*
X433424Y537110D01*
X433607Y537000D01*
X433830Y536910D01*
X434092Y536840D01*
X434393Y536790D01*
X434536Y536777D01*
X434672Y536794D01*
X434937Y536849D01*
X435195Y536926D01*
X435447Y537025D01*
X435692Y537146D01*
X435931Y537289D01*
X436163Y537454D01*
X436389Y537641D01*
X436608Y537850D01*
Y533650D01*
D02*
G37*
G36*
X434529Y527591D02*
X434260Y527312D01*
X433805Y526776D01*
X433619Y526518D01*
X433460Y526268D01*
X433330Y526026D01*
X433227Y525791D01*
X433152Y525563D01*
X433104Y525342D01*
X433084Y525129D01*
X430831Y527739D01*
X431044Y527759D01*
X431265Y527807D01*
X431493Y527882D01*
X431728Y527985D01*
X431970Y528115D01*
X432220Y528274D01*
X432477Y528460D01*
X432742Y528673D01*
X433293Y529184D01*
X434529Y527591D01*
D02*
G37*
G36*
X441641Y519139D02*
X441454Y518913D01*
X441289Y518681D01*
X441146Y518442D01*
X441025Y518197D01*
X440926Y517945D01*
X440853Y517699D01*
X440910Y517485D01*
X441000Y517262D01*
X441110Y517079D01*
X441240Y516935D01*
X441390Y516830D01*
X441560Y516765D01*
X441750Y516739D01*
X437750D01*
X437940Y516765D01*
X438110Y516830D01*
X438260Y516935D01*
X438390Y517079D01*
X438500Y517262D01*
X438590Y517485D01*
X438647Y517699D01*
X438574Y517945D01*
X438475Y518197D01*
X438354Y518442D01*
X438211Y518681D01*
X438046Y518913D01*
X437859Y519139D01*
X437650Y519358D01*
X441850D01*
X441641Y519139D01*
D02*
G37*
G36*
X327385Y489042D02*
X327435Y489034D01*
X327724Y489008D01*
X328027Y489000D01*
Y486500D01*
X327724Y486492D01*
X327435Y486466D01*
X327385Y486458D01*
Y485250D01*
X325992Y485947D01*
X325816Y485812D01*
X325642Y485650D01*
Y486121D01*
X324885Y486500D01*
Y489000D01*
X325642Y489379D01*
Y489850D01*
X325816Y489688D01*
X325992Y489553D01*
X327385Y490250D01*
Y489042D01*
D02*
G37*
G36*
X464020Y482793D02*
X464100Y482580D01*
X464230Y482393D01*
X464408Y482230D01*
X464637Y482093D01*
X464915Y481980D01*
X465242Y481893D01*
X465618Y481830D01*
X466044Y481792D01*
X466520Y481780D01*
Y479280D01*
X466044Y479268D01*
X465618Y479230D01*
X465242Y479168D01*
X464915Y479080D01*
X464637Y478968D01*
X464408Y478830D01*
X464230Y478667D01*
X464100Y478480D01*
X464020Y478268D01*
X463989Y478030D01*
Y483030D01*
X464020Y482793D01*
D02*
G37*
G36*
X458011Y482319D02*
X458673Y482315D01*
X459061Y478315D01*
X458719Y478313D01*
X458011Y478266D01*
Y477399D01*
X457976Y477573D01*
X457883Y477729D01*
X457733Y477866D01*
X457525Y477985D01*
X457259Y478086D01*
X456936Y478168D01*
X456555Y478233D01*
X456116Y478278D01*
X455065Y478315D01*
Y482315D01*
X455619Y482324D01*
X456555Y482397D01*
X456936Y482462D01*
X457259Y482544D01*
X457525Y482645D01*
X457733Y482764D01*
X457883Y482901D01*
X457976Y483057D01*
X458011Y483231D01*
Y482319D01*
D02*
G37*
G36*
X451449Y482926D02*
X451552Y482752D01*
X451724Y482600D01*
X451964Y482467D01*
X452273Y482355D01*
X452651Y482263D01*
X453098Y482192D01*
X453613Y482141D01*
X454850Y482100D01*
Y478100D01*
X454197Y478090D01*
X453098Y478008D01*
X452651Y477937D01*
X452273Y477845D01*
X451964Y477733D01*
X451724Y477600D01*
X451552Y477448D01*
X451449Y477274D01*
X451414Y477080D01*
Y478093D01*
X451156Y478099D01*
X450814Y478100D01*
Y482100D01*
X451414Y482132D01*
Y483120D01*
X451449Y482926D01*
D02*
G37*
G36*
X472482Y475294D02*
X472520Y474868D01*
X472583Y474492D01*
X472670Y474165D01*
X472783Y473887D01*
X472920Y473658D01*
X473083Y473480D01*
X473270Y473350D01*
X473483Y473270D01*
X473720Y473239D01*
X468720D01*
X468957Y473270D01*
X469170Y473350D01*
X469357Y473480D01*
X469520Y473658D01*
X469658Y473887D01*
X469770Y474165D01*
X469857Y474492D01*
X469920Y474868D01*
X469958Y475294D01*
X469970Y475770D01*
X472470D01*
X472482Y475294D01*
D02*
G37*
G36*
X456166Y468500D02*
X456145Y468643D01*
X456095Y468770D01*
X456015Y468882D01*
X455906Y468980D01*
X455768Y469062D01*
X455600Y469130D01*
X455403Y469183D01*
X455177Y469220D01*
X454921Y469243D01*
X454636Y469250D01*
Y470750D01*
X454921Y470757D01*
X455177Y470780D01*
X455403Y470817D01*
X455600Y470870D01*
X455768Y470938D01*
X455906Y471020D01*
X456015Y471118D01*
X456095Y471230D01*
X456145Y471357D01*
X456166Y471500D01*
Y468500D01*
D02*
G37*
G36*
X450502Y471780D02*
X451069Y471373D01*
X451344Y471208D01*
X451614Y471068D01*
X451878Y470953D01*
X452136Y470864D01*
X452389Y470801D01*
X452637Y470763D01*
X452878Y470750D01*
X453008Y469250D01*
X452754Y469236D01*
X452502Y469193D01*
X452252Y469123D01*
X452004Y469024D01*
X451758Y468896D01*
X451514Y468741D01*
X451273Y468557D01*
X451033Y468345D01*
X450795Y468105D01*
X450560Y467836D01*
X450210Y472021D01*
X450502Y471780D01*
D02*
G37*
G36*
X326695Y471353D02*
X326796Y471248D01*
X326919Y471155D01*
X327064Y471072D01*
X327231Y470999D01*
X327421Y470938D01*
X327633Y470887D01*
X327867Y470847D01*
X328123Y470818D01*
X328401Y470799D01*
X328309Y468801D01*
X328030Y468808D01*
X327536Y468784D01*
X327385Y468762D01*
Y467842D01*
X326496Y468329D01*
X326471Y468299D01*
X326473Y468342D01*
X325388Y468935D01*
X325434Y470935D01*
X326587Y470837D01*
X326617Y471468D01*
X326695Y471353D01*
D02*
G37*
G36*
X455399Y457021D02*
X455425Y456733D01*
X455469Y456460D01*
X455517Y456261D01*
X456640D01*
X456403Y456230D01*
X456190Y456150D01*
X456003Y456020D01*
X455840Y455841D01*
X455738Y455672D01*
X455821Y455517D01*
X455953Y455319D01*
X456103Y455136D01*
X456270Y454968D01*
X455491Y454939D01*
X455440Y454632D01*
X455402Y454206D01*
X455390Y453731D01*
X452890D01*
X452878Y454206D01*
X452840Y454632D01*
X452805Y454841D01*
X452073Y454814D01*
X452228Y454993D01*
X452367Y455186D01*
X452490Y455393D01*
X452586Y455593D01*
X452578Y455613D01*
X452440Y455841D01*
X452277Y456020D01*
X452090Y456150D01*
X451878Y456230D01*
X451640Y456261D01*
X452795D01*
X452816Y456357D01*
X452857Y456632D01*
X452882Y456921D01*
X452890Y457224D01*
X455390Y457325D01*
X455399Y457021D01*
D02*
G37*
G36*
X363884Y449365D02*
X363913Y449077D01*
X363960Y448806D01*
X364025Y448553D01*
X364085Y448386D01*
X365125D01*
X364683Y447501D01*
X364816Y447388D01*
X364614Y447363D01*
X363875Y445886D01*
X361375D01*
X360872Y446891D01*
X360649Y446863D01*
X360787Y447053D01*
X360789Y447057D01*
X360125Y448386D01*
X361297D01*
X361310Y448453D01*
X361346Y448730D01*
X361368Y449020D01*
X361375Y449322D01*
X363875Y449670D01*
X363884Y449365D01*
D02*
G37*
G36*
X126720Y426750D02*
X126549Y426740D01*
X126370Y426706D01*
X126185Y426648D01*
X125994Y426567D01*
X125795Y426462D01*
X125590Y426333D01*
X125378Y426180D01*
X125159Y426004D01*
X124701Y425579D01*
X122579Y427701D01*
X122803Y427933D01*
X123180Y428378D01*
X123333Y428590D01*
X123462Y428795D01*
X123567Y428994D01*
X123648Y429185D01*
X123706Y429370D01*
X123740Y429549D01*
X123750Y429720D01*
X126720Y426750D01*
D02*
G37*
G36*
X721750Y333340D02*
X720250D01*
X719500Y334841D01*
X722500D01*
X721750Y333340D01*
D02*
G37*
G36*
X721797Y326852D02*
X721936Y326334D01*
X722169Y325770D01*
X722495Y325159D01*
X722914Y324501D01*
X723427Y323797D01*
X724731Y322250D01*
X725523Y321407D01*
X726407Y320517D01*
X715592D01*
X716477Y321407D01*
X718573Y323797D01*
X719086Y324501D01*
X719505Y325159D01*
X719831Y325770D01*
X720064Y326334D01*
X720203Y326852D01*
X720250Y327323D01*
X721750D01*
X721797Y326852D01*
D02*
G37*
G36*
X326750Y334385D02*
X325250D01*
X324500Y335886D01*
X327500D01*
X326750Y334385D01*
D02*
G37*
G36*
X326797Y326852D02*
X326936Y326334D01*
X327169Y325770D01*
X327495Y325159D01*
X327914Y324501D01*
X328427Y323797D01*
X329731Y322250D01*
X330523Y321407D01*
X331408Y320517D01*
X320592D01*
X321477Y321407D01*
X323573Y323797D01*
X324086Y324501D01*
X324505Y325159D01*
X324831Y325770D01*
X325064Y326334D01*
X325203Y326852D01*
X325250Y327323D01*
X326750D01*
X326797Y326852D01*
D02*
G37*
G36*
X229750Y334385D02*
X228250D01*
X227500Y335886D01*
X230500D01*
X229750Y334385D01*
D02*
G37*
G36*
X229797Y326852D02*
X229936Y326334D01*
X230169Y325770D01*
X230495Y325159D01*
X230914Y324501D01*
X231427Y323797D01*
X232731Y322250D01*
X233523Y321407D01*
X234408Y320517D01*
X223592D01*
X224477Y321407D01*
X226573Y323797D01*
X227086Y324501D01*
X227505Y325159D01*
X227831Y325770D01*
X228064Y326334D01*
X228203Y326852D01*
X228250Y327323D01*
X229750D01*
X229797Y326852D01*
D02*
G37*
G36*
X732561Y261700D02*
X732530Y261938D01*
X732450Y262150D01*
X732320Y262337D01*
X732141Y262500D01*
X731913Y262638D01*
X731635Y262750D01*
X731308Y262838D01*
X730932Y262900D01*
X730506Y262938D01*
X730031Y262950D01*
Y265450D01*
X730506Y265462D01*
X730932Y265500D01*
X731308Y265562D01*
X731635Y265650D01*
X731913Y265763D01*
X732141Y265900D01*
X732320Y266063D01*
X732450Y266250D01*
X732530Y266462D01*
X732561Y266700D01*
Y261700D01*
D02*
G37*
G36*
X716699Y268537D02*
X718099Y267317D01*
X718764Y266822D01*
X719405Y266403D01*
X720023Y266060D01*
X720617Y265793D01*
X721188Y265602D01*
X721735Y265488D01*
X722259Y265450D01*
Y262950D01*
X721735Y262912D01*
X721188Y262798D01*
X720617Y262607D01*
X720023Y262340D01*
X719405Y261997D01*
X718764Y261578D01*
X718099Y261083D01*
X717411Y260511D01*
X715963Y259139D01*
Y269261D01*
X716699Y268537D01*
D02*
G37*
G36*
X532561Y261700D02*
X532530Y261938D01*
X532450Y262150D01*
X532320Y262337D01*
X532141Y262500D01*
X531913Y262638D01*
X531635Y262750D01*
X531308Y262838D01*
X530932Y262900D01*
X530506Y262938D01*
X530031Y262950D01*
Y265450D01*
X530506Y265462D01*
X530932Y265500D01*
X531308Y265562D01*
X531635Y265650D01*
X531913Y265763D01*
X532141Y265900D01*
X532320Y266063D01*
X532450Y266250D01*
X532530Y266462D01*
X532561Y266700D01*
Y261700D01*
D02*
G37*
G36*
X519199Y268537D02*
X520599Y267317D01*
X521264Y266822D01*
X521905Y266403D01*
X522523Y266060D01*
X523117Y265793D01*
X523688Y265602D01*
X524235Y265488D01*
X524759Y265450D01*
Y262950D01*
X524235Y262912D01*
X523688Y262798D01*
X523117Y262607D01*
X522523Y262340D01*
X521905Y261997D01*
X521264Y261578D01*
X520599Y261083D01*
X519911Y260511D01*
X518463Y259139D01*
Y269261D01*
X519199Y268537D01*
D02*
G37*
G36*
X337561Y261700D02*
X337530Y261938D01*
X337450Y262150D01*
X337320Y262337D01*
X337141Y262500D01*
X336913Y262638D01*
X336635Y262750D01*
X336308Y262838D01*
X335932Y262900D01*
X335506Y262938D01*
X335031Y262950D01*
Y265450D01*
X335506Y265462D01*
X335932Y265500D01*
X336308Y265562D01*
X336635Y265650D01*
X336913Y265763D01*
X337141Y265900D01*
X337320Y266063D01*
X337450Y266250D01*
X337530Y266462D01*
X337561Y266700D01*
Y261700D01*
D02*
G37*
G36*
X321699Y268537D02*
X323099Y267317D01*
X323764Y266822D01*
X324405Y266403D01*
X325023Y266060D01*
X325617Y265793D01*
X326188Y265602D01*
X326735Y265488D01*
X327259Y265450D01*
Y262950D01*
X326735Y262912D01*
X326188Y262798D01*
X325617Y262607D01*
X325023Y262340D01*
X324405Y261997D01*
X323764Y261578D01*
X323099Y261083D01*
X322411Y260511D01*
X320963Y259139D01*
Y269261D01*
X321699Y268537D01*
D02*
G37*
D10*
X520000Y424000D02*
Y459757D01*
X532500Y472257D01*
Y506000D01*
X536000Y471515D02*
Y523655D01*
X523000Y424000D02*
Y458515D01*
X528750Y472750D02*
Y495500D01*
X523000Y458515D02*
X536000Y471515D01*
X517000Y461000D02*
X528750Y472750D01*
X517000Y425243D02*
Y461000D01*
X523000Y501250D02*
X528750Y495500D01*
Y509750D02*
X532500Y506000D01*
X529155Y530500D02*
X536000Y523655D01*
X538000Y459575D02*
Y466000D01*
X535000Y456575D02*
X538000Y459575D01*
X481175Y389417D02*
X517000Y425243D01*
X268447Y389417D02*
X481175D01*
X360280Y386250D02*
X482250D01*
X520000Y424000D01*
X523000D02*
X525000Y422000D01*
Y350970D02*
Y422000D01*
X529000Y377000D02*
Y454000D01*
Y377000D02*
X545705Y360295D01*
X535000Y451000D02*
Y456575D01*
Y451000D02*
X537000Y449000D01*
X545705Y360295D02*
X556142D01*
X557724Y358713D02*
X581694D01*
X592707Y347700D01*
X556142Y360295D02*
X557724Y358713D01*
X592707Y347700D02*
X604000D01*
X541000Y392000D02*
X571287Y361713D01*
X607737D01*
X550000Y413000D02*
X577000Y386000D01*
X550000Y413000D02*
Y453000D01*
X541000Y392000D02*
Y454000D01*
X537000Y382095D02*
Y449000D01*
Y382095D02*
X553250Y365845D01*
X648000Y358879D02*
Y359000D01*
X577000Y386000D02*
X630000D01*
X723750Y393818D02*
Y408682D01*
X712750Y332150D02*
Y382818D01*
X675887Y456544D02*
X723750Y408682D01*
X690700Y358000D02*
X701000Y347700D01*
X638000Y369000D02*
Y378000D01*
X712750Y382818D02*
X723750Y393818D01*
X648879Y358000D02*
X690700D01*
X638000Y369000D02*
X648000Y359000D01*
Y358879D02*
X648879Y358000D01*
X630000Y386000D02*
X638000Y378000D01*
X607737Y361713D02*
X618000Y351451D01*
Y342970D02*
Y351451D01*
Y323107D02*
Y331030D01*
Y323107D02*
X624000Y317107D01*
Y315000D02*
Y317107D01*
X655270Y347700D02*
X675600D01*
X654970Y348000D02*
X655270Y347700D01*
X536437Y337000D02*
X632030D01*
X528982Y344455D02*
X536437Y337000D01*
X513563D02*
X521018Y344455D01*
X438970Y337000D02*
X513563D01*
X521018Y344455D02*
X528982D01*
X632030Y337000D02*
X643030Y348000D01*
X427425Y348545D02*
X438970Y337000D01*
X559330Y347700D02*
X578600D01*
X555675Y351355D02*
X559330Y347700D01*
X555550Y351355D02*
X555675D01*
X553250Y353655D02*
Y353780D01*
Y353655D02*
X555550Y351355D01*
X557557Y464993D02*
X690257D01*
X748000Y407250D01*
X448500Y470000D02*
X459030D01*
X459280Y470250D01*
X448250Y469750D02*
X448500Y470000D01*
X523500Y315000D02*
Y337530D01*
X525000Y339030D01*
X325000D02*
X326000Y338030D01*
Y315000D02*
Y338030D01*
X229000Y315000D02*
Y338030D01*
X230000Y339030D01*
X553250Y365720D02*
Y365845D01*
X427300Y348545D02*
X427425D01*
X425000Y350845D02*
X427300Y348545D01*
X425000Y350845D02*
Y350970D01*
X558581Y456544D02*
X675887D01*
X695600Y315000D02*
X712750Y332150D01*
X721000Y315000D02*
Y337980D01*
X721005Y337985D01*
X230000Y351095D02*
X232300Y353395D01*
X230000Y350970D02*
Y351095D01*
X232300Y353395D02*
X232425D01*
X268447Y389417D01*
X327300Y353395D02*
X327425D01*
X360280Y386250D01*
X325000Y351095D02*
X327300Y353395D01*
X325000Y350970D02*
Y351095D01*
X413815Y371185D02*
X425000Y360000D01*
Y350970D02*
Y360000D01*
X425750Y315750D02*
Y338280D01*
X425000Y339030D02*
X425750Y338280D01*
Y315750D02*
X426500Y315000D01*
D11*
X335461Y575326D02*
G03*
X335273Y575332I-152J-1994D01*
G01*
X394750Y432250D02*
X395000Y432000D01*
X328355Y469800D02*
X328830Y467600D01*
X324000Y470000D02*
X328355Y469800D01*
X458530Y506250D02*
X459780Y507500D01*
X452250Y506250D02*
X458530D01*
X748000Y391000D02*
Y407250D01*
X721005Y364005D02*
X748000Y391000D01*
X721005Y349925D02*
Y364005D01*
X432323Y526800D02*
X434346Y528822D01*
X432020Y526800D02*
X432323D01*
X434346Y528822D02*
X435428D01*
X429970Y535750D02*
X438750D01*
X439750Y514280D02*
Y521500D01*
X439220Y513750D02*
X439750Y514280D01*
X429970Y524750D02*
X432020Y526800D01*
X336200Y575270D02*
X338250Y573220D01*
X330750Y575250D02*
X335273Y575332D01*
X335461Y575326D02*
X336200Y575270D01*
X394750Y445913D02*
Y452030D01*
X374750Y445250D02*
Y451780D01*
D12*
X358000Y265000D02*
D03*
X342000D02*
D03*
X733000Y400000D02*
D03*
X717000D02*
D03*
X737000Y265000D02*
D03*
X753000D02*
D03*
X537000D02*
D03*
X553000D02*
D03*
D13*
X325000Y339030D02*
D03*
Y350970D02*
D03*
X525000Y339030D02*
D03*
Y350970D02*
D03*
X461000Y492470D02*
D03*
Y480530D02*
D03*
X362250Y451530D02*
D03*
Y463470D02*
D03*
X721005Y349925D02*
D03*
Y337985D02*
D03*
X230000Y350970D02*
D03*
Y339030D02*
D03*
X425000Y350970D02*
D03*
Y339030D02*
D03*
X553250Y365720D02*
D03*
Y353780D02*
D03*
X618000Y342970D02*
D03*
Y331030D02*
D03*
X426250Y445030D02*
D03*
Y456970D02*
D03*
X414750Y557280D02*
D03*
Y569220D02*
D03*
X414800Y461070D02*
D03*
Y449130D02*
D03*
X394750Y463970D02*
D03*
Y452030D02*
D03*
X374750Y463720D02*
D03*
Y451780D02*
D03*
X350250Y463720D02*
D03*
Y451780D02*
D03*
X338250Y561280D02*
D03*
Y573220D02*
D03*
X318050Y581130D02*
D03*
Y593070D02*
D03*
X403750Y557280D02*
D03*
Y569220D02*
D03*
X366250Y561780D02*
D03*
Y573720D02*
D03*
D14*
X459280Y470250D02*
D03*
X471220D02*
D03*
X304830Y439100D02*
D03*
X316770D02*
D03*
X327030Y614000D02*
D03*
X338970D02*
D03*
X330530Y515750D02*
D03*
X342470D02*
D03*
X330530Y537750D02*
D03*
X342470D02*
D03*
X643030Y348000D02*
D03*
X654970D02*
D03*
X459780Y507500D02*
D03*
X471720D02*
D03*
X418030Y535750D02*
D03*
X429970D02*
D03*
X426310Y491465D02*
D03*
X438250D02*
D03*
X448270Y480100D02*
D03*
X436330D02*
D03*
X418030Y524750D02*
D03*
X429970D02*
D03*
X427280Y513750D02*
D03*
X439220D02*
D03*
X432280Y502750D02*
D03*
X444220D02*
D03*
X433530Y560750D02*
D03*
X445470D02*
D03*
X433530Y549750D02*
D03*
X445470D02*
D03*
X465970Y459250D02*
D03*
X454030D02*
D03*
X342470Y487750D02*
D03*
X330530D02*
D03*
X342470Y467750D02*
D03*
X330530D02*
D03*
X342470Y504750D02*
D03*
X330530D02*
D03*
X342470Y526750D02*
D03*
X330530D02*
D03*
X335770Y550100D02*
D03*
X323830D02*
D03*
D15*
X304800Y498850D02*
D03*
Y466350D02*
D03*
D16*
X485050Y528100D02*
D03*
X452550D02*
D03*
X373800Y596350D02*
D03*
X406300D02*
D03*
D29*
X326715Y506550D02*
G03*
X326329Y506866I-1771J-1765D01*
G01*
X359250Y573763D02*
G03*
X359712Y573720I462J2457D01*
G01*
X403750Y569220D02*
G03*
X405765Y574086I-4866J4866D01*
G01*
X323500Y508750D02*
X323537Y516489D01*
X323500Y508750D02*
X326329Y506866D01*
X447395Y559049D02*
X452875Y558984D01*
X445470Y560750D02*
X447395Y559049D01*
X326715Y506550D02*
X328700D01*
X330500Y504750D01*
X395000Y432000D02*
X424785D01*
X426250Y433465D02*
Y445030D01*
X424785Y432000D02*
X426250Y433465D01*
X375000Y432000D02*
X375000Y432000D01*
X375000Y432000D02*
X395000D01*
X375000Y432000D02*
Y445000D01*
X344715Y432000D02*
X375000D01*
X394750Y432250D02*
Y445913D01*
X374750Y445250D02*
X375000Y445000D01*
X343250Y433465D02*
Y445750D01*
Y433465D02*
X344715Y432000D01*
X338985Y606015D02*
Y613985D01*
Y606015D02*
X339000Y606000D01*
X338970Y614000D02*
X338985Y613985D01*
X366250Y573720D02*
X376874D01*
X359712D02*
X366250D01*
X358000Y574000D02*
X359250Y573763D01*
X321383Y500250D02*
X321898Y499736D01*
X306200Y500250D02*
X321383D01*
X321898Y499240D02*
Y499736D01*
X304800Y498850D02*
X306200Y500250D01*
X414890Y569360D02*
X421610D01*
X421750Y569500D01*
X414750Y569220D02*
X414890Y569360D01*
X406300Y602479D02*
X409821Y606000D01*
X406300Y596350D02*
Y602479D01*
X409821Y606000D02*
X414500D01*
X690800Y398500D02*
X715500D01*
X717000Y400000D01*
X453456Y491856D02*
X460387D01*
X461000Y492470D01*
X452842Y491243D02*
X453456Y491856D01*
X439376Y492411D02*
Y492590D01*
X440175Y491612D02*
X444189D01*
X439376Y492411D02*
X440175Y491612D01*
X444189D02*
X444337Y491760D01*
X438250Y491465D02*
X439376Y492590D01*
X448603Y500950D02*
X450803Y498750D01*
X451750D01*
X444345Y502750D02*
X446145Y500950D01*
X448603D01*
X471220Y470250D02*
Y478030D01*
X468720Y480530D02*
X471220Y478030D01*
X461000Y480530D02*
X468720D01*
X341200Y264200D02*
X342000Y265000D01*
X315800Y264200D02*
X341200D01*
X536200D02*
X537000Y265000D01*
X513300Y264200D02*
X536200D01*
X710800D02*
X736200D01*
X737000Y265000D01*
X460785Y480315D02*
X461000Y480530D01*
X454850Y480100D02*
X455065Y480315D01*
X444220Y502750D02*
X444345D01*
X304705Y439100D02*
X304830D01*
X300800Y443005D02*
X304705Y439100D01*
X300800Y443005D02*
Y443100D01*
X434130Y444332D02*
X434800Y443662D01*
X426250Y445030D02*
X426948Y444332D01*
X434130D01*
X323500Y487750D02*
X330530D01*
X323915Y550185D02*
Y556665D01*
X324000Y556750D01*
X323830Y550100D02*
X323915Y550185D01*
X323840Y537320D02*
X324270Y537750D01*
X330530D01*
X323500Y526750D02*
X330530D01*
X405765Y574086D02*
Y575316D01*
X348075Y449605D02*
X348200D01*
X343250Y445750D02*
X344220D01*
X348075Y449605D01*
X348200D02*
X350250Y451655D01*
Y451780D01*
X362625Y445375D02*
Y451155D01*
Y445375D02*
X363000Y445000D01*
X362250Y451530D02*
X362625Y451155D01*
X454140Y452860D02*
Y459140D01*
Y452860D02*
X454250Y452750D01*
D30*
X449971Y551254D02*
G03*
X447852Y550382I-4J-3000D01*
G01*
X323537Y516489D02*
X328855D01*
X330530Y515750D01*
X447720Y550250D02*
X447852Y550382D01*
X318525Y593545D02*
Y599775D01*
X318050Y593070D02*
X318525Y593545D01*
Y599775D02*
X319000Y600250D01*
X406300Y587590D02*
Y596350D01*
Y587590D02*
X414750Y579140D01*
Y569220D02*
Y579140D01*
X449971Y551254D02*
X453000Y551250D01*
X48379Y347379D02*
X48580D01*
X48250Y351250D02*
X126750Y429750D01*
X48250Y347250D02*
Y351250D01*
Y347250D02*
X48379Y347379D01*
X39500Y536000D02*
X93000D01*
X142250Y585250D01*
D31*
X448270Y480100D02*
X454850D01*
X455065Y480315D02*
X460785D01*
D32*
X213800Y264200D02*
D03*
X234200D02*
D03*
X254600D02*
D03*
X275000D02*
D03*
X295400D02*
D03*
X315800D02*
D03*
X203600Y289600D02*
D03*
X224000D02*
D03*
X244400D02*
D03*
X285200D02*
D03*
X305600D02*
D03*
X326000D02*
D03*
X578600Y373100D02*
D03*
X599000D02*
D03*
X619400D02*
D03*
X660200D02*
D03*
X680600D02*
D03*
X701000D02*
D03*
X588800Y398500D02*
D03*
X609200D02*
D03*
X629600D02*
D03*
X650000D02*
D03*
X670400D02*
D03*
X690800D02*
D03*
X608800Y264200D02*
D03*
X629200D02*
D03*
X649600D02*
D03*
X670000D02*
D03*
X690400D02*
D03*
X710800D02*
D03*
X598600Y289600D02*
D03*
X619000D02*
D03*
X639400D02*
D03*
X680200D02*
D03*
X700600D02*
D03*
X721000D02*
D03*
X411300Y264200D02*
D03*
X431700D02*
D03*
X452100D02*
D03*
X472500D02*
D03*
X492900D02*
D03*
X513300D02*
D03*
X401100Y289600D02*
D03*
X421500D02*
D03*
X441900D02*
D03*
X482700D02*
D03*
X503100D02*
D03*
X523500D02*
D03*
D33*
X203600Y315000D02*
D03*
X229000D02*
D03*
X300600D02*
D03*
X326000D02*
D03*
X578600Y347700D02*
D03*
X604000D02*
D03*
X675600D02*
D03*
X701000D02*
D03*
X598600Y315000D02*
D03*
X624000D02*
D03*
X695600D02*
D03*
X721000D02*
D03*
X401100D02*
D03*
X426500D02*
D03*
X498100D02*
D03*
X523500D02*
D03*
D34*
X345450Y80000D02*
D03*
X184150D02*
D03*
X720450Y582700D02*
D03*
X559150D02*
D03*
X740450Y80000D02*
D03*
X579150D02*
D03*
X542950D02*
D03*
X381650D02*
D03*
D35*
X105000Y120000D02*
D03*
D36*
Y90000D02*
D03*
D37*
X356687Y519587D02*
D03*
X323537Y516489D02*
D03*
X323500Y508750D02*
D03*
X452875Y558984D02*
D03*
X453000Y551250D02*
D03*
X362750Y478100D02*
D03*
X316019Y641928D02*
D03*
X344500Y640500D02*
D03*
X504250Y506250D02*
D03*
X522750Y474750D02*
D03*
X518500Y479000D02*
D03*
X522500Y490000D02*
D03*
X339000Y606000D02*
D03*
X324000Y470000D02*
D03*
X407500Y445750D02*
D03*
X371000Y411000D02*
D03*
X793999Y606000D02*
D03*
X785999Y590000D02*
D03*
X793999Y574000D02*
D03*
X785999Y558000D02*
D03*
X793999Y510000D02*
D03*
X785999Y494000D02*
D03*
X793999Y478000D02*
D03*
X785999Y430000D02*
D03*
X793999Y414000D02*
D03*
X785999Y398000D02*
D03*
X793999Y382000D02*
D03*
X785999Y366000D02*
D03*
X793999Y350000D02*
D03*
X785999Y334000D02*
D03*
X793999Y318000D02*
D03*
X785999Y302000D02*
D03*
X793999Y286000D02*
D03*
X785999Y270000D02*
D03*
X793999Y254000D02*
D03*
X785999Y238000D02*
D03*
X793999Y222000D02*
D03*
X785999Y206000D02*
D03*
X793999Y190000D02*
D03*
X785999Y174000D02*
D03*
X793999Y126000D02*
D03*
X785999Y110000D02*
D03*
X793999Y94000D02*
D03*
X785999Y78000D02*
D03*
X793999Y62000D02*
D03*
X785999Y46000D02*
D03*
X793999Y30000D02*
D03*
X785999Y14000D02*
D03*
X777999Y606000D02*
D03*
X769999Y590000D02*
D03*
Y526000D02*
D03*
X777999Y510000D02*
D03*
X769999Y494000D02*
D03*
X777999Y478000D02*
D03*
X769999Y462000D02*
D03*
Y430000D02*
D03*
X777999Y414000D02*
D03*
X769999Y398000D02*
D03*
X777999Y382000D02*
D03*
X769999Y334000D02*
D03*
X777999Y318000D02*
D03*
X769999Y302000D02*
D03*
X777999Y286000D02*
D03*
X769999Y270000D02*
D03*
X777999Y254000D02*
D03*
X769999Y238000D02*
D03*
X777999Y222000D02*
D03*
X769999Y206000D02*
D03*
X777999Y190000D02*
D03*
X769999Y110000D02*
D03*
X777999Y94000D02*
D03*
X769999Y78000D02*
D03*
X777999Y62000D02*
D03*
X769999Y46000D02*
D03*
X777999Y30000D02*
D03*
X769999Y14000D02*
D03*
X761999Y606000D02*
D03*
X753999Y590000D02*
D03*
Y526000D02*
D03*
X761999Y510000D02*
D03*
X753999Y494000D02*
D03*
X761999Y478000D02*
D03*
X753999Y462000D02*
D03*
X761999Y446000D02*
D03*
X753999Y430000D02*
D03*
X761999Y414000D02*
D03*
X753999Y366000D02*
D03*
X633999Y350000D02*
D03*
X585999Y318000D02*
D03*
Y286000D02*
D03*
X569999Y382000D02*
D03*
Y318000D02*
D03*
X530000Y302000D02*
D03*
X513999Y654000D02*
D03*
X522000Y638000D02*
D03*
X513999Y622000D02*
D03*
X522000Y606000D02*
D03*
X513999Y590000D02*
D03*
X497999Y654000D02*
D03*
X505999Y638000D02*
D03*
X497999Y622000D02*
D03*
X505999Y606000D02*
D03*
X482000Y654000D02*
D03*
X490000Y638000D02*
D03*
X482000Y622000D02*
D03*
X490000Y606000D02*
D03*
X482000Y590000D02*
D03*
X490000Y350000D02*
D03*
X465999Y654000D02*
D03*
X473999Y638000D02*
D03*
Y606000D02*
D03*
X450000Y654000D02*
D03*
X457999Y638000D02*
D03*
Y606000D02*
D03*
X433999Y654000D02*
D03*
X442000Y638000D02*
D03*
X433999Y622000D02*
D03*
X417999Y654000D02*
D03*
X425999Y638000D02*
D03*
Y606000D02*
D03*
X402000Y302000D02*
D03*
X385999Y462000D02*
D03*
X362000Y606000D02*
D03*
X353999Y558000D02*
D03*
X338000Y622000D02*
D03*
X345999Y574000D02*
D03*
Y478000D02*
D03*
X338000Y398000D02*
D03*
X322000Y622000D02*
D03*
X330000Y606000D02*
D03*
Y478000D02*
D03*
X322000Y302000D02*
D03*
X306000Y622000D02*
D03*
Y590000D02*
D03*
Y334000D02*
D03*
X314000Y318000D02*
D03*
X290000Y622000D02*
D03*
X298000Y606000D02*
D03*
X290000Y590000D02*
D03*
Y558000D02*
D03*
X282000Y606000D02*
D03*
X274000Y590000D02*
D03*
X282000Y574000D02*
D03*
X274000Y558000D02*
D03*
X282000Y542000D02*
D03*
Y382000D02*
D03*
X274000Y366000D02*
D03*
X282000Y350000D02*
D03*
X274000Y334000D02*
D03*
X258000Y654000D02*
D03*
X266000Y606000D02*
D03*
X258000Y590000D02*
D03*
X266000Y574000D02*
D03*
X258000Y558000D02*
D03*
X266000Y542000D02*
D03*
X258000Y526000D02*
D03*
X242000Y654000D02*
D03*
X250000Y574000D02*
D03*
X242000Y558000D02*
D03*
X250000Y542000D02*
D03*
X242000Y526000D02*
D03*
X250000Y510000D02*
D03*
X242000Y398000D02*
D03*
Y334000D02*
D03*
X226000Y654000D02*
D03*
X234000Y638000D02*
D03*
X226000Y622000D02*
D03*
X234000Y574000D02*
D03*
X226000Y558000D02*
D03*
X234000Y542000D02*
D03*
X226000Y526000D02*
D03*
X234000Y510000D02*
D03*
X226000Y494000D02*
D03*
X234000Y478000D02*
D03*
X226000Y398000D02*
D03*
X234000Y382000D02*
D03*
X226000Y366000D02*
D03*
X210000Y558000D02*
D03*
X218000Y542000D02*
D03*
X210000Y526000D02*
D03*
X218000Y510000D02*
D03*
X210000Y494000D02*
D03*
X218000Y478000D02*
D03*
X210000Y462000D02*
D03*
X218000Y382000D02*
D03*
X210000Y366000D02*
D03*
X218000Y350000D02*
D03*
X210000Y334000D02*
D03*
Y302000D02*
D03*
X202000Y606000D02*
D03*
X194000Y558000D02*
D03*
X202000Y542000D02*
D03*
X194000Y526000D02*
D03*
X202000Y510000D02*
D03*
X194000Y494000D02*
D03*
X202000Y478000D02*
D03*
X194000Y462000D02*
D03*
X202000Y382000D02*
D03*
Y350000D02*
D03*
X186000Y542000D02*
D03*
Y510000D02*
D03*
X178000Y494000D02*
D03*
X186000Y478000D02*
D03*
X178000Y462000D02*
D03*
Y398000D02*
D03*
X170000Y606000D02*
D03*
Y510000D02*
D03*
X162000Y494000D02*
D03*
X170000Y478000D02*
D03*
X162000Y462000D02*
D03*
Y398000D02*
D03*
X170000Y350000D02*
D03*
X154000Y510000D02*
D03*
X146000Y494000D02*
D03*
X154000Y478000D02*
D03*
X146000Y462000D02*
D03*
X154000Y414000D02*
D03*
X146000Y366000D02*
D03*
X154000Y350000D02*
D03*
X146000Y334000D02*
D03*
X154000Y318000D02*
D03*
X146000Y302000D02*
D03*
X154000Y286000D02*
D03*
X146000Y270000D02*
D03*
X154000Y254000D02*
D03*
X146000Y238000D02*
D03*
X154000Y222000D02*
D03*
Y190000D02*
D03*
X146000Y174000D02*
D03*
X154000Y158000D02*
D03*
X146000Y142000D02*
D03*
X154000Y126000D02*
D03*
X146000Y110000D02*
D03*
X154000Y94000D02*
D03*
X146000Y78000D02*
D03*
X154000Y62000D02*
D03*
X146000Y46000D02*
D03*
X154000Y30000D02*
D03*
X146000Y14000D02*
D03*
X130000Y654000D02*
D03*
Y526000D02*
D03*
X138000Y510000D02*
D03*
X130000Y494000D02*
D03*
Y462000D02*
D03*
X138000Y382000D02*
D03*
X130000Y302000D02*
D03*
X138000Y286000D02*
D03*
X130000Y270000D02*
D03*
X138000Y254000D02*
D03*
X130000Y238000D02*
D03*
X138000Y222000D02*
D03*
X130000Y174000D02*
D03*
X138000Y158000D02*
D03*
X130000Y142000D02*
D03*
X138000Y126000D02*
D03*
X130000Y110000D02*
D03*
X138000Y94000D02*
D03*
X130000Y78000D02*
D03*
X138000Y62000D02*
D03*
X130000Y46000D02*
D03*
X138000Y30000D02*
D03*
X130000Y14000D02*
D03*
X114000Y654000D02*
D03*
X122000Y510000D02*
D03*
X114000Y494000D02*
D03*
X122000Y382000D02*
D03*
X114000Y302000D02*
D03*
X122000Y286000D02*
D03*
X114000Y270000D02*
D03*
X122000Y254000D02*
D03*
X114000Y238000D02*
D03*
X122000Y222000D02*
D03*
X114000Y174000D02*
D03*
X122000Y158000D02*
D03*
X114000Y142000D02*
D03*
X122000Y126000D02*
D03*
X114000Y110000D02*
D03*
X122000Y94000D02*
D03*
X114000Y78000D02*
D03*
X122000Y62000D02*
D03*
Y30000D02*
D03*
X114000Y14000D02*
D03*
X98000Y654000D02*
D03*
X106000Y638000D02*
D03*
X98000Y622000D02*
D03*
X106000Y606000D02*
D03*
X98000Y590000D02*
D03*
X106000Y574000D02*
D03*
X98000Y558000D02*
D03*
X106000Y478000D02*
D03*
X98000Y302000D02*
D03*
X106000Y286000D02*
D03*
Y254000D02*
D03*
Y222000D02*
D03*
X98000Y206000D02*
D03*
Y174000D02*
D03*
X106000Y158000D02*
D03*
X98000Y142000D02*
D03*
Y14000D02*
D03*
X82000Y654000D02*
D03*
Y558000D02*
D03*
X90000Y478000D02*
D03*
X82000Y462000D02*
D03*
X90000Y446000D02*
D03*
X82000Y430000D02*
D03*
X90000Y414000D02*
D03*
Y382000D02*
D03*
X82000Y334000D02*
D03*
Y302000D02*
D03*
X90000Y222000D02*
D03*
X82000Y206000D02*
D03*
X90000Y190000D02*
D03*
X82000Y174000D02*
D03*
X90000Y158000D02*
D03*
X82000Y142000D02*
D03*
X90000Y126000D02*
D03*
Y62000D02*
D03*
X82000Y46000D02*
D03*
X90000Y30000D02*
D03*
X82000Y14000D02*
D03*
X66000Y654000D02*
D03*
X74000Y638000D02*
D03*
X66000Y622000D02*
D03*
X74000Y606000D02*
D03*
Y510000D02*
D03*
Y478000D02*
D03*
X66000Y398000D02*
D03*
Y302000D02*
D03*
Y78000D02*
D03*
X74000Y62000D02*
D03*
X66000Y46000D02*
D03*
X74000Y30000D02*
D03*
X66000Y14000D02*
D03*
X50000Y654000D02*
D03*
X58000Y638000D02*
D03*
X50000Y622000D02*
D03*
X58000Y606000D02*
D03*
X50000Y590000D02*
D03*
X58000Y478000D02*
D03*
X50000Y462000D02*
D03*
X58000Y446000D02*
D03*
X50000Y430000D02*
D03*
X58000Y414000D02*
D03*
X50000Y238000D02*
D03*
X58000Y62000D02*
D03*
X50000Y46000D02*
D03*
X58000Y30000D02*
D03*
X50000Y14000D02*
D03*
X34000Y654000D02*
D03*
X42000Y638000D02*
D03*
X34000Y622000D02*
D03*
X42000Y606000D02*
D03*
X34000Y494000D02*
D03*
X42000Y478000D02*
D03*
X34000Y462000D02*
D03*
X42000Y446000D02*
D03*
X34000Y430000D02*
D03*
Y238000D02*
D03*
X42000Y94000D02*
D03*
Y62000D02*
D03*
X34000Y46000D02*
D03*
X42000Y30000D02*
D03*
X34000Y14000D02*
D03*
X18000Y654000D02*
D03*
X26000Y638000D02*
D03*
X18000Y622000D02*
D03*
X26000Y606000D02*
D03*
X18000Y590000D02*
D03*
X26000Y478000D02*
D03*
Y446000D02*
D03*
Y254000D02*
D03*
X18000Y238000D02*
D03*
X26000Y222000D02*
D03*
X18000Y174000D02*
D03*
X26000Y158000D02*
D03*
X18000Y142000D02*
D03*
X26000Y126000D02*
D03*
X18000Y110000D02*
D03*
X26000Y94000D02*
D03*
X18000Y78000D02*
D03*
X26000Y62000D02*
D03*
X18000Y46000D02*
D03*
X26000Y30000D02*
D03*
X18000Y14000D02*
D03*
X512500Y535000D02*
D03*
X388800Y527500D02*
D03*
X372500Y492500D02*
D03*
X388800D02*
D03*
X405000D02*
D03*
Y510000D02*
D03*
X388800Y510100D02*
D03*
X372500Y510000D02*
D03*
Y527500D02*
D03*
X405000D02*
D03*
X323000Y500250D02*
D03*
X294300Y508500D02*
D03*
X483237Y490100D02*
D03*
X421494Y545340D02*
D03*
X538000Y466000D02*
D03*
X529000Y454000D02*
D03*
X541000D02*
D03*
X550000Y453000D02*
D03*
X421750Y569500D02*
D03*
X414500Y606000D02*
D03*
X759000Y538500D02*
D03*
X452842Y491243D02*
D03*
X444337Y491760D02*
D03*
X451750Y498750D02*
D03*
X452250Y506250D02*
D03*
X448250Y469750D02*
D03*
X487750Y502750D02*
D03*
X484250Y510000D02*
D03*
X557557Y464993D02*
D03*
X558581Y456544D02*
D03*
X540500Y551500D02*
D03*
X529155Y530500D02*
D03*
X512411Y527169D02*
D03*
X520500Y530750D02*
D03*
X483500Y556750D02*
D03*
X523000Y501250D02*
D03*
X528750Y509750D02*
D03*
X413815Y371185D02*
D03*
X438750Y535750D02*
D03*
X454850Y480100D02*
D03*
X421250Y480500D02*
D03*
X439750Y521500D02*
D03*
X435428Y528822D02*
D03*
X300800Y443100D02*
D03*
X434800Y443662D02*
D03*
X356800Y488000D02*
D03*
X323500Y487750D02*
D03*
X324000Y556750D02*
D03*
X356800Y537192D02*
D03*
X356675Y509125D02*
D03*
X323840Y537320D02*
D03*
X323500Y526750D02*
D03*
X318261Y601204D02*
D03*
X438250Y575250D02*
D03*
X405765Y575316D02*
D03*
X343250Y445750D02*
D03*
X363000Y445000D02*
D03*
X358000Y574000D02*
D03*
X330750Y575250D02*
D03*
X454250Y452750D02*
D03*
X126750Y429750D02*
D03*
X39500Y536000D02*
D03*
X142250Y585250D02*
D03*
X48580Y347379D02*
D03*
X394750Y445913D02*
D03*
X374750Y445250D02*
D03*
D38*
X169000Y421000D02*
D03*
Y431000D02*
D03*
Y441000D02*
D03*
X179000D02*
D03*
Y431000D02*
D03*
Y421000D02*
D03*
X189000D02*
D03*
Y431000D02*
D03*
Y441000D02*
D03*
X205000Y570000D02*
D03*
X195000D02*
D03*
X185000D02*
D03*
Y580000D02*
D03*
X195000D02*
D03*
X205000D02*
D03*
Y590000D02*
D03*
X195000D02*
D03*
X185000D02*
D03*
M02*
