G04*
G04 #@! TF.GenerationSoftware,Altium Limited,Altium Designer,25.3.3 (18)*
G04*
G04 Layer_Physical_Order=2*
G04 Layer_Color=36540*
%FSLAX44Y44*%
%MOMM*%
G71*
G04*
G04 #@! TF.SameCoordinates,45B9CB35-E31E-4E84-A485-BBC3545AB0C6*
G04*
G04*
G04 #@! TF.FilePolarity,Positive*
G04*
G01*
G75*
%ADD10C,0.1500*%
%ADD29C,0.2500*%
%ADD30C,0.3000*%
%ADD32C,1.4460*%
%ADD33C,1.5450*%
%ADD35C,1.5000*%
%ADD37C,0.6000*%
G36*
X800000Y0D02*
X0D01*
Y665000D01*
X800000D01*
Y0D01*
D02*
G37*
%LPC*%
G36*
X770000Y661582D02*
X765842Y661255D01*
X761786Y660281D01*
X757932Y658685D01*
X754376Y656505D01*
X751204Y653796D01*
X748495Y650624D01*
X746315Y647068D01*
X744719Y643214D01*
X743745Y639158D01*
X743418Y635000D01*
X743745Y630842D01*
X744719Y626786D01*
X746315Y622932D01*
X748495Y619375D01*
X751204Y616204D01*
X754376Y613495D01*
X757932Y611315D01*
X761786Y609719D01*
X765842Y608745D01*
X770000Y608418D01*
X774158Y608745D01*
X778214Y609719D01*
X782068Y611315D01*
X785624Y613495D01*
X788796Y616204D01*
X791505Y619375D01*
X793685Y622932D01*
X795281Y626786D01*
X796255Y630842D01*
X796582Y635000D01*
X796255Y639158D01*
X795281Y643214D01*
X793685Y647068D01*
X791505Y650624D01*
X788796Y653796D01*
X785624Y656505D01*
X782068Y658685D01*
X778214Y660281D01*
X774158Y661255D01*
X770000Y661582D01*
D02*
G37*
G36*
X190000D02*
X185842Y661255D01*
X181786Y660281D01*
X177932Y658685D01*
X174375Y656505D01*
X171204Y653796D01*
X168495Y650624D01*
X166315Y647068D01*
X164719Y643214D01*
X163745Y639158D01*
X163418Y635000D01*
X163745Y630842D01*
X164719Y626786D01*
X166315Y622932D01*
X168495Y619375D01*
X171204Y616204D01*
X174375Y613495D01*
X177932Y611315D01*
X181786Y609719D01*
X185842Y608745D01*
X190000Y608418D01*
X194158Y608745D01*
X198214Y609719D01*
X202068Y611315D01*
X205625Y613495D01*
X208796Y616204D01*
X211505Y619375D01*
X213685Y622932D01*
X215281Y626786D01*
X216255Y630842D01*
X216582Y635000D01*
X216255Y639158D01*
X215281Y643214D01*
X213685Y647068D01*
X211505Y650624D01*
X208796Y653796D01*
X205625Y656505D01*
X202068Y658685D01*
X198214Y660281D01*
X194158Y661255D01*
X190000Y661582D01*
D02*
G37*
G36*
X415395Y610500D02*
X413605D01*
X411951Y609815D01*
X410685Y608549D01*
X410000Y606895D01*
Y605105D01*
X410685Y603451D01*
X411951Y602185D01*
X413605Y601500D01*
X415395D01*
X417049Y602185D01*
X418315Y603451D01*
X419000Y605105D01*
Y606895D01*
X418315Y608549D01*
X417049Y609815D01*
X415395Y610500D01*
D02*
G37*
G36*
X345395Y645000D02*
X343605D01*
X341951Y644315D01*
X340685Y643049D01*
X340000Y641395D01*
Y639605D01*
X340685Y637951D01*
X341696Y636940D01*
Y621530D01*
X337017Y616851D01*
X336410Y615941D01*
X336196Y614868D01*
Y609560D01*
X335185Y608549D01*
X334500Y606895D01*
Y605105D01*
X335185Y603451D01*
X336451Y602185D01*
X338105Y601500D01*
X339895D01*
X341549Y602185D01*
X342815Y603451D01*
X343500Y605105D01*
Y606895D01*
X342815Y608549D01*
X341804Y609560D01*
Y613707D01*
X346483Y618386D01*
X347090Y619295D01*
X347304Y620368D01*
Y636940D01*
X348315Y637951D01*
X349000Y639605D01*
Y641395D01*
X348315Y643049D01*
X347049Y644315D01*
X345395Y645000D01*
D02*
G37*
G36*
X316914Y646428D02*
X315124D01*
X313470Y645743D01*
X312204Y644477D01*
X311519Y642823D01*
Y641033D01*
X312204Y639379D01*
X312941Y638642D01*
Y619515D01*
X312941Y619514D01*
X313174Y618344D01*
X313837Y617351D01*
X315202Y615986D01*
Y604509D01*
X314446Y603753D01*
X313761Y602099D01*
Y600309D01*
X314446Y598655D01*
X315712Y597389D01*
X317366Y596704D01*
X319156D01*
X320810Y597389D01*
X322076Y598655D01*
X322761Y600309D01*
Y602099D01*
X322076Y603753D01*
X321320Y604509D01*
Y617253D01*
X321087Y618424D01*
X320424Y619416D01*
X320424Y619416D01*
X319058Y620781D01*
Y638604D01*
X319834Y639379D01*
X320519Y641033D01*
Y642823D01*
X319834Y644477D01*
X318568Y645743D01*
X316914Y646428D01*
D02*
G37*
G36*
X206094Y595500D02*
X203906D01*
X201884Y594663D01*
X200980Y593758D01*
X200000Y593280D01*
X199020Y593758D01*
X198116Y594663D01*
X196094Y595500D01*
X193906D01*
X191884Y594663D01*
X190980Y593758D01*
X190000Y593280D01*
X189020Y593758D01*
X188116Y594663D01*
X186094Y595500D01*
X183906D01*
X181884Y594663D01*
X180337Y593116D01*
X179500Y591094D01*
Y588906D01*
X180337Y586884D01*
X181242Y585980D01*
X181720Y585000D01*
X181242Y584020D01*
X180337Y583116D01*
X179500Y581094D01*
Y578906D01*
X180337Y576884D01*
X181242Y575980D01*
X181720Y575000D01*
X181242Y574020D01*
X180337Y573116D01*
X179500Y571094D01*
Y568906D01*
X180337Y566884D01*
X181884Y565337D01*
X183906Y564500D01*
X186094D01*
X188116Y565337D01*
X189020Y566242D01*
X190000Y566720D01*
X190980Y566242D01*
X191884Y565337D01*
X193906Y564500D01*
X196094D01*
X198116Y565337D01*
X199020Y566242D01*
X200000Y566720D01*
X200980Y566242D01*
X201884Y565337D01*
X203906Y564500D01*
X206094D01*
X208116Y565337D01*
X209663Y566884D01*
X210500Y568906D01*
Y571094D01*
X209663Y573116D01*
X208758Y574020D01*
X208280Y575000D01*
X208758Y575980D01*
X209663Y576884D01*
X210500Y578906D01*
Y581094D01*
X209663Y583116D01*
X208758Y584020D01*
X208280Y585000D01*
X208758Y585980D01*
X209663Y586884D01*
X210500Y588906D01*
Y591094D01*
X209663Y593116D01*
X208116Y594663D01*
X206094Y595500D01*
D02*
G37*
G36*
X143145Y589750D02*
X141355D01*
X139701Y589065D01*
X138435Y587799D01*
X137750Y586145D01*
Y584355D01*
X138435Y582701D01*
X139701Y581435D01*
X141355Y580750D01*
X143145D01*
X144799Y581435D01*
X146065Y582701D01*
X146750Y584355D01*
Y586145D01*
X146065Y587799D01*
X144799Y589065D01*
X143145Y589750D01*
D02*
G37*
G36*
X406660Y579816D02*
X404870D01*
X403216Y579131D01*
X401950Y577865D01*
X401265Y576211D01*
Y574421D01*
X401950Y572767D01*
X403216Y571501D01*
X404870Y570816D01*
X406660D01*
X408315Y571501D01*
X408680Y571866D01*
X408942Y571957D01*
X409063Y572066D01*
X409136Y572119D01*
X409217Y572168D01*
X409310Y572214D01*
X409419Y572257D01*
X409546Y572296D01*
X409693Y572328D01*
X409861Y572354D01*
X410051Y572370D01*
X410306Y572377D01*
X410461Y572446D01*
X416476D01*
X417478Y570946D01*
X417250Y570395D01*
Y568605D01*
X417935Y566951D01*
X419201Y565685D01*
X420855Y565000D01*
X421924D01*
X424917Y562008D01*
X424917Y562007D01*
X430103Y556821D01*
X430103Y556821D01*
X431095Y556158D01*
X432266Y555925D01*
X449190D01*
X449935Y554675D01*
X449461Y554075D01*
X449185Y553799D01*
X448500Y552145D01*
Y550355D01*
X449185Y548701D01*
X450451Y547435D01*
X452105Y546750D01*
X453895D01*
X455549Y547435D01*
X456305Y548191D01*
X479259Y548191D01*
X479285Y548142D01*
X479356Y548113D01*
X479837Y547927D01*
X479844Y547924D01*
X480018Y547890D01*
X480444Y547746D01*
X480449Y547744D01*
X480735Y547747D01*
X481015Y547691D01*
X485985D01*
X485985Y547691D01*
X487156Y547924D01*
X487556Y548191D01*
X536088D01*
X536237Y548127D01*
X536516Y548122D01*
X537000Y548088D01*
X537161Y548065D01*
X537304Y548037D01*
X537412Y548008D01*
X537482Y547984D01*
X537512Y547971D01*
X537563Y547932D01*
X537592Y547924D01*
X537594Y547923D01*
X537600Y547922D01*
X537753Y547883D01*
X537951Y547685D01*
X539605Y547000D01*
X541395D01*
X543049Y547685D01*
X544315Y548951D01*
X545000Y550605D01*
Y552395D01*
X544315Y554049D01*
X543049Y555315D01*
X541395Y556000D01*
X539605D01*
X537951Y555315D01*
X537296Y554660D01*
X537097Y554573D01*
X537065Y554564D01*
X537051Y554553D01*
X537019Y554539D01*
X536990Y554509D01*
X536965Y554497D01*
X536892Y554472D01*
X536780Y554443D01*
X536652Y554420D01*
X536204Y554379D01*
X535939Y554373D01*
X535879Y554347D01*
X535816Y554366D01*
X535709Y554309D01*
X488709D01*
X487876Y555556D01*
X488000Y555855D01*
Y557645D01*
X487315Y559299D01*
X486049Y560565D01*
X484395Y561250D01*
X482605D01*
X480951Y560565D01*
X479685Y559299D01*
X479000Y557645D01*
Y555855D01*
X479019Y555809D01*
X478017Y554309D01*
X456685Y554309D01*
X455940Y555559D01*
X456414Y556159D01*
X456690Y556435D01*
X457375Y558089D01*
Y559879D01*
X456690Y561533D01*
X455424Y562799D01*
X453770Y563484D01*
X451980D01*
X450326Y562799D01*
X449570Y562043D01*
X433533D01*
X429243Y566333D01*
X429243Y566333D01*
X426250Y569326D01*
Y570395D01*
X426022Y570946D01*
X427024Y572446D01*
X433523D01*
X433677Y572377D01*
X433932Y572370D01*
X434119Y572353D01*
X434283Y572328D01*
X434426Y572295D01*
X434548Y572257D01*
X434652Y572215D01*
X434740Y572170D01*
X434817Y572122D01*
X434884Y572070D01*
X435003Y571960D01*
X435278Y571858D01*
X435701Y571435D01*
X437355Y570750D01*
X439145D01*
X440799Y571435D01*
X442065Y572701D01*
X442750Y574355D01*
Y576145D01*
X442065Y577799D01*
X440799Y579065D01*
X439145Y579750D01*
X437355D01*
X435701Y579065D01*
X435278Y578642D01*
X435003Y578540D01*
X434884Y578430D01*
X434817Y578378D01*
X434740Y578330D01*
X434652Y578285D01*
X434548Y578243D01*
X434426Y578205D01*
X434283Y578172D01*
X434119Y578147D01*
X433932Y578130D01*
X433677Y578123D01*
X433523Y578054D01*
X410522D01*
X410368Y578123D01*
X410115Y578130D01*
X409930Y578147D01*
X409769Y578172D01*
X409630Y578205D01*
X409513Y578242D01*
X409415Y578284D01*
X409331Y578327D01*
X409260Y578373D01*
X409197Y578424D01*
X409083Y578534D01*
X408798Y578647D01*
X408315Y579131D01*
X406660Y579816D01*
D02*
G37*
G36*
X331645Y579750D02*
X329855D01*
X328201Y579065D01*
X326935Y577799D01*
X326250Y576145D01*
Y574355D01*
X326935Y572701D01*
X328201Y571435D01*
X329855Y570750D01*
X331645D01*
X333299Y571435D01*
X334565Y572701D01*
X335250Y574355D01*
Y576145D01*
X334565Y577799D01*
X333299Y579065D01*
X331645Y579750D01*
D02*
G37*
G36*
X358895Y578500D02*
X357105D01*
X355451Y577815D01*
X354185Y576549D01*
X353500Y574895D01*
Y573105D01*
X354185Y571451D01*
X355451Y570185D01*
X357105Y569500D01*
X358895D01*
X360549Y570185D01*
X361815Y571451D01*
X362500Y573105D01*
Y574895D01*
X361815Y576549D01*
X360549Y577815D01*
X358895Y578500D01*
D02*
G37*
G36*
X722198Y595975D02*
X718702D01*
X715326Y595070D01*
X712299Y593323D01*
X709827Y590851D01*
X708080Y587824D01*
X707175Y584448D01*
Y580952D01*
X708080Y577576D01*
X709827Y574549D01*
X712299Y572077D01*
X715326Y570330D01*
X718702Y569425D01*
X722198D01*
X725574Y570330D01*
X728601Y572077D01*
X731073Y574549D01*
X732820Y577576D01*
X733725Y580952D01*
Y584448D01*
X732820Y587824D01*
X731073Y590851D01*
X728601Y593323D01*
X725574Y595070D01*
X722198Y595975D01*
D02*
G37*
G36*
X560898D02*
X557402D01*
X554026Y595070D01*
X550999Y593323D01*
X548527Y590851D01*
X546780Y587824D01*
X545875Y584448D01*
Y580952D01*
X546780Y577576D01*
X548527Y574549D01*
X550999Y572077D01*
X554026Y570330D01*
X557402Y569425D01*
X560898D01*
X564274Y570330D01*
X567301Y572077D01*
X569773Y574549D01*
X571520Y577576D01*
X572425Y580952D01*
Y584448D01*
X571520Y587824D01*
X569773Y590851D01*
X567301Y593323D01*
X564274Y595070D01*
X560898Y595975D01*
D02*
G37*
G36*
X324895Y561250D02*
X323105D01*
X321451Y560565D01*
X320185Y559299D01*
X319500Y557645D01*
Y555855D01*
X320185Y554201D01*
X321451Y552935D01*
X323105Y552250D01*
X324895D01*
X326549Y552935D01*
X327815Y554201D01*
X328500Y555855D01*
Y557645D01*
X327815Y559299D01*
X326549Y560565D01*
X324895Y561250D01*
D02*
G37*
G36*
X422389Y549840D02*
X420599D01*
X418945Y549155D01*
X417679Y547889D01*
X417573Y547634D01*
X412840D01*
X411962Y547460D01*
X411218Y546963D01*
X392428Y528172D01*
X391931Y527428D01*
X391756Y526550D01*
Y526276D01*
X390024Y524544D01*
X389750D01*
X388872Y524369D01*
X388128Y523872D01*
X378878Y514622D01*
X378381Y513878D01*
X378206Y513000D01*
Y450118D01*
X376706Y449311D01*
X375645Y449750D01*
X373855D01*
X372201Y449065D01*
X370935Y447799D01*
X370250Y446145D01*
Y444355D01*
X370935Y442701D01*
X372201Y441435D01*
X373855Y440750D01*
X375645D01*
X376706Y441189D01*
X378206Y440382D01*
Y395850D01*
X307899Y325544D01*
X307754Y325500D01*
X307492Y325284D01*
X307233Y325136D01*
X306839Y324972D01*
X306314Y324812D01*
X305662Y324668D01*
X304925Y324552D01*
X301877Y324352D01*
X300673Y324348D01*
X300378Y324225D01*
X299386D01*
X297039Y323596D01*
X294936Y322382D01*
X293218Y320664D01*
X292004Y318561D01*
X291375Y316215D01*
Y313785D01*
X292004Y311439D01*
X293218Y309336D01*
X294936Y307618D01*
X297039Y306404D01*
X299386Y305775D01*
X301814D01*
X304161Y306404D01*
X306264Y307618D01*
X307982Y309336D01*
X309196Y311439D01*
X309825Y313785D01*
Y314778D01*
X309948Y315073D01*
X309952Y316305D01*
X309986Y317394D01*
X310149Y319309D01*
X310268Y320062D01*
X310412Y320714D01*
X310572Y321239D01*
X310736Y321633D01*
X310884Y321892D01*
X311100Y322154D01*
X311144Y322299D01*
X382122Y393278D01*
X382619Y394022D01*
X382794Y394900D01*
X382794Y394900D01*
Y512050D01*
X390700Y519956D01*
X390975D01*
X391852Y520131D01*
X392597Y520628D01*
X395672Y523703D01*
X396169Y524448D01*
X396344Y525325D01*
Y525600D01*
X413791Y543046D01*
X417573D01*
X417679Y542791D01*
X418945Y541525D01*
X420599Y540840D01*
X422389D01*
X424043Y541525D01*
X425309Y542791D01*
X425994Y544445D01*
Y546235D01*
X425309Y547889D01*
X424043Y549155D01*
X422389Y549840D01*
D02*
G37*
G36*
X705024Y568400D02*
X701576D01*
X698195Y567728D01*
X695011Y566408D01*
X692144Y564493D01*
X689707Y562056D01*
X687792Y559189D01*
X686472Y556005D01*
X685800Y552624D01*
Y549176D01*
X686472Y545795D01*
X687792Y542611D01*
X689707Y539744D01*
X692144Y537307D01*
X695011Y535392D01*
X698195Y534072D01*
X701576Y533400D01*
X705024D01*
X708405Y534072D01*
X711589Y535392D01*
X714456Y537307D01*
X716893Y539744D01*
X718808Y542611D01*
X720127Y545795D01*
X720800Y549176D01*
Y552624D01*
X720127Y556005D01*
X718808Y559189D01*
X716893Y562056D01*
X714456Y564493D01*
X711589Y566408D01*
X708405Y567728D01*
X705024Y568400D01*
D02*
G37*
G36*
X578024D02*
X574576D01*
X571195Y567728D01*
X568011Y566408D01*
X565144Y564493D01*
X562707Y562056D01*
X560792Y559189D01*
X559473Y556005D01*
X558800Y552624D01*
Y549176D01*
X559473Y545795D01*
X560792Y542611D01*
X562707Y539744D01*
X565144Y537307D01*
X568011Y535392D01*
X571195Y534072D01*
X574576Y533400D01*
X578024D01*
X581405Y534072D01*
X584589Y535392D01*
X587456Y537307D01*
X589893Y539744D01*
X591808Y542611D01*
X593128Y545795D01*
X593800Y549176D01*
Y552624D01*
X593128Y556005D01*
X591808Y559189D01*
X589893Y562056D01*
X587456Y564493D01*
X584589Y566408D01*
X581405Y567728D01*
X578024Y568400D01*
D02*
G37*
G36*
X324735Y541820D02*
X322945D01*
X321291Y541135D01*
X320025Y539869D01*
X319340Y538215D01*
Y536425D01*
X320025Y534771D01*
X321291Y533505D01*
X322945Y532820D01*
X324735D01*
X326389Y533505D01*
X326755Y533872D01*
X327018Y533964D01*
X327139Y534072D01*
X327212Y534125D01*
X327293Y534175D01*
X327386Y534221D01*
X327495Y534263D01*
X327621Y534302D01*
X327769Y534334D01*
X327936Y534360D01*
X328126Y534376D01*
X328381Y534383D01*
X328536Y534452D01*
X352044D01*
X352198Y534383D01*
X352452Y534376D01*
X352636Y534359D01*
X352797Y534334D01*
X352936Y534301D01*
X353054Y534264D01*
X353152Y534223D01*
X353235Y534179D01*
X353307Y534132D01*
X353370Y534082D01*
X353484Y533972D01*
X353769Y533859D01*
X354251Y533377D01*
X355905Y532692D01*
X357695D01*
X359349Y533377D01*
X360615Y534643D01*
X361300Y536297D01*
Y538087D01*
X360615Y539741D01*
X359349Y541007D01*
X357695Y541692D01*
X355905D01*
X354251Y541007D01*
X353884Y540640D01*
X353622Y540549D01*
X353501Y540441D01*
X353428Y540387D01*
X353347Y540338D01*
X353254Y540292D01*
X353145Y540249D01*
X353018Y540211D01*
X352871Y540178D01*
X352704Y540153D01*
X352514Y540136D01*
X352259Y540129D01*
X352104Y540060D01*
X328596D01*
X328442Y540129D01*
X328188Y540136D01*
X328004Y540153D01*
X327842Y540179D01*
X327704Y540211D01*
X327586Y540249D01*
X327488Y540290D01*
X327405Y540333D01*
X327333Y540380D01*
X327270Y540430D01*
X327156Y540541D01*
X326871Y540653D01*
X326389Y541135D01*
X324735Y541820D01*
D02*
G37*
G36*
X40395Y540500D02*
X38605D01*
X36951Y539815D01*
X35685Y538549D01*
X35000Y536895D01*
Y535105D01*
X35685Y533451D01*
X36951Y532185D01*
X38605Y531500D01*
X40395D01*
X42049Y532185D01*
X43315Y533451D01*
X44000Y535105D01*
Y536895D01*
X43315Y538549D01*
X42049Y539815D01*
X40395Y540500D01*
D02*
G37*
G36*
X759895Y543000D02*
X758105D01*
X756451Y542315D01*
X755185Y541049D01*
X754500Y539395D01*
Y538779D01*
X754377Y538493D01*
X754372Y538167D01*
X754355Y537909D01*
X754326Y537681D01*
X754289Y537483D01*
X754244Y537316D01*
X754194Y537177D01*
X754144Y537066D01*
X754093Y536978D01*
X754043Y536909D01*
X753934Y536788D01*
X753875Y536619D01*
X663518Y446262D01*
X549468D01*
X548974Y446829D01*
X548836Y447113D01*
X548708Y447762D01*
X549157Y448322D01*
X549690Y448372D01*
X549993Y448377D01*
X550279Y448500D01*
X550895D01*
X552549Y449185D01*
X553815Y450451D01*
X554500Y452105D01*
Y452140D01*
X556000Y452761D01*
X556032Y452730D01*
X557686Y452044D01*
X559476D01*
X561130Y452730D01*
X562396Y453996D01*
X563081Y455649D01*
Y457440D01*
X562396Y459094D01*
X561130Y460359D01*
X560975Y462047D01*
X561372Y462444D01*
X562057Y464098D01*
Y465888D01*
X561372Y467542D01*
X560106Y468808D01*
X558452Y469493D01*
X556662D01*
X555008Y468808D01*
X553742Y467542D01*
X553636Y467287D01*
X551624D01*
X531711Y487200D01*
Y490583D01*
X531537Y491461D01*
X531039Y492205D01*
X526659Y496585D01*
X526372Y496872D01*
X526623Y498509D01*
X526815Y498701D01*
X527500Y500355D01*
Y502145D01*
X526815Y503799D01*
X526374Y504240D01*
X527224Y505511D01*
X527855Y505250D01*
X529645D01*
X531299Y505935D01*
X532565Y507201D01*
X533250Y508855D01*
Y510645D01*
X532565Y512299D01*
X532129Y512735D01*
X532014Y513024D01*
X531787Y513258D01*
X531617Y513452D01*
X531475Y513634D01*
X531363Y513800D01*
X531276Y513951D01*
X531213Y514084D01*
X531170Y514198D01*
X531144Y514296D01*
X531130Y514380D01*
X531121Y514543D01*
X531044Y514704D01*
Y522500D01*
X530869Y523378D01*
X530372Y524122D01*
X530372Y524122D01*
X529880Y524614D01*
X530450Y526166D01*
X531704Y526685D01*
X532970Y527951D01*
X533655Y529605D01*
Y531395D01*
X532970Y533049D01*
X531704Y534315D01*
X530050Y535000D01*
X528260D01*
X526606Y534315D01*
X525836Y533545D01*
X524641Y533352D01*
X523973Y533641D01*
X523049Y534565D01*
X521395Y535250D01*
X519605D01*
X517951Y534565D01*
X516685Y533299D01*
X516123Y531942D01*
X515616Y531525D01*
X514500Y531174D01*
X513306Y531669D01*
X511515D01*
X509861Y530984D01*
X508596Y529718D01*
X507910Y528064D01*
Y526274D01*
X508596Y524620D01*
X509031Y524184D01*
X509146Y523895D01*
X509373Y523661D01*
X509544Y523467D01*
X509685Y523285D01*
X509798Y523119D01*
X509885Y522968D01*
X509948Y522835D01*
X509991Y522721D01*
X510017Y522622D01*
X510031Y522539D01*
X510039Y522376D01*
X510116Y522215D01*
Y511839D01*
X510291Y510962D01*
X510788Y510217D01*
X517875Y503131D01*
X517934Y502962D01*
X518043Y502841D01*
X518093Y502772D01*
X518144Y502684D01*
X518194Y502573D01*
X518244Y502434D01*
X518289Y502266D01*
X518322Y502093D01*
X518372Y501560D01*
X518377Y501257D01*
X518500Y500971D01*
Y500355D01*
X519043Y499044D01*
X518382Y497544D01*
X508776D01*
X489448Y516872D01*
X488703Y517369D01*
X487825Y517544D01*
X446950D01*
X444875Y519619D01*
X444816Y519788D01*
X444707Y519909D01*
X444657Y519978D01*
X444606Y520066D01*
X444556Y520177D01*
X444506Y520316D01*
X444461Y520484D01*
X444428Y520657D01*
X444378Y521190D01*
X444373Y521493D01*
X444250Y521779D01*
Y522395D01*
X443565Y524049D01*
X442299Y525315D01*
X440645Y526000D01*
X439751Y527500D01*
X439928Y527927D01*
Y529717D01*
X439428Y530925D01*
X439645Y531250D01*
X441299Y531935D01*
X442565Y533201D01*
X443250Y534855D01*
Y536645D01*
X442565Y538299D01*
X441299Y539565D01*
X439645Y540250D01*
X437855D01*
X436201Y539565D01*
X434935Y538299D01*
X434829Y538044D01*
X423250D01*
X422372Y537869D01*
X421628Y537372D01*
X398128Y513872D01*
X397631Y513128D01*
X397456Y512250D01*
Y482750D01*
X397631Y481872D01*
X398128Y481128D01*
X398806Y480450D01*
Y450342D01*
X397306Y449721D01*
X397299Y449728D01*
X395645Y450413D01*
X393855D01*
X392201Y449728D01*
X390935Y448462D01*
X390250Y446808D01*
Y445018D01*
X390935Y443364D01*
X392201Y442098D01*
X393855Y441413D01*
X395645D01*
X397299Y442098D01*
X397306Y442105D01*
X398806Y441484D01*
Y323936D01*
X397539Y323596D01*
X395436Y322382D01*
X393718Y320664D01*
X392504Y318561D01*
X391875Y316215D01*
Y313785D01*
X392504Y311439D01*
X393718Y309336D01*
X395436Y307618D01*
X397539Y306404D01*
X399885Y305775D01*
X402314D01*
X404661Y306404D01*
X406764Y307618D01*
X408482Y309336D01*
X409696Y311439D01*
X410325Y313785D01*
Y316215D01*
X409696Y318561D01*
X408482Y320664D01*
X406764Y322382D01*
X404661Y323596D01*
X403394Y323936D01*
Y441371D01*
X404894Y441992D01*
X404951Y441935D01*
X406605Y441250D01*
X408395D01*
X410016Y441921D01*
X410021Y441922D01*
X410145Y441921D01*
X410351Y441899D01*
X411282Y441415D01*
X411336Y441357D01*
X411401Y441268D01*
X411450Y441183D01*
X411521Y441013D01*
Y375105D01*
X411266Y375000D01*
X410000Y373734D01*
X409315Y372080D01*
Y370290D01*
X410000Y368636D01*
X411266Y367370D01*
X412920Y366685D01*
X414710D01*
X416364Y367370D01*
X417630Y368636D01*
X418315Y370290D01*
Y372080D01*
X417630Y373734D01*
X416364Y375000D01*
X416109Y375105D01*
Y442967D01*
X415935Y443845D01*
X415437Y444589D01*
X413515Y446511D01*
X412771Y447008D01*
X412314Y447099D01*
X411973Y447261D01*
X411872Y447266D01*
X411829Y447370D01*
X411766Y447434D01*
X411756Y447524D01*
X411575Y447672D01*
X411315Y448299D01*
X410049Y449565D01*
X408395Y450250D01*
X406605D01*
X404951Y449565D01*
X404894Y449508D01*
X403394Y450129D01*
Y481400D01*
X403219Y482278D01*
X402722Y483022D01*
X402722Y483022D01*
X402044Y483700D01*
Y511300D01*
X424200Y533456D01*
X431576D01*
X432198Y531956D01*
X431613Y531371D01*
X430928Y529717D01*
Y529101D01*
X430805Y528815D01*
X430800Y528489D01*
X430783Y528231D01*
X430754Y528003D01*
X430717Y527806D01*
X430672Y527638D01*
X430622Y527499D01*
X430571Y527388D01*
X430521Y527300D01*
X430471Y527231D01*
X430362Y527110D01*
X430303Y526941D01*
X414128Y510766D01*
X413631Y510022D01*
X413456Y509144D01*
Y455250D01*
X413631Y454372D01*
X414128Y453628D01*
X419706Y448050D01*
Y391100D01*
X419881Y390222D01*
X420378Y389478D01*
X487556Y322299D01*
X487600Y322154D01*
X487816Y321892D01*
X487965Y321633D01*
X488128Y321239D01*
X488288Y320714D01*
X488432Y320062D01*
X488548Y319325D01*
X488749Y316277D01*
X488752Y315073D01*
X488875Y314778D01*
Y313785D01*
X489504Y311439D01*
X490718Y309336D01*
X492436Y307618D01*
X494539Y306404D01*
X496885Y305775D01*
X499314D01*
X501661Y306404D01*
X503764Y307618D01*
X505482Y309336D01*
X506696Y311439D01*
X507325Y313785D01*
Y316215D01*
X506696Y318561D01*
X505482Y320664D01*
X503764Y322382D01*
X501661Y323596D01*
X499314Y324225D01*
X498322D01*
X498027Y324348D01*
X496795Y324352D01*
X495706Y324386D01*
X493791Y324549D01*
X493038Y324668D01*
X492386Y324812D01*
X491861Y324972D01*
X491467Y325136D01*
X491208Y325284D01*
X490946Y325500D01*
X490801Y325544D01*
X424294Y392050D01*
Y449000D01*
X424119Y449878D01*
X423622Y450622D01*
X418044Y456200D01*
Y475382D01*
X419544Y476336D01*
X420355Y476000D01*
X422145D01*
X423799Y476685D01*
X424051Y476937D01*
X424275Y477005D01*
X424404Y477110D01*
X424485Y477165D01*
X424576Y477216D01*
X424680Y477264D01*
X424799Y477308D01*
X424935Y477347D01*
X425090Y477379D01*
X425266Y477404D01*
X425461Y477420D01*
X425719Y477427D01*
X425874Y477496D01*
X449991D01*
X450121Y477431D01*
X450157Y477443D01*
X450191Y477427D01*
X450443Y477420D01*
X450623Y477403D01*
X450778Y477377D01*
X450907Y477345D01*
X451015Y477309D01*
X451103Y477270D01*
X451175Y477230D01*
X451235Y477188D01*
X451288Y477142D01*
X451297Y477133D01*
X451310Y477116D01*
X451366Y477026D01*
X451418Y476924D01*
X451466Y476810D01*
X451510Y476680D01*
X451549Y476534D01*
X451576Y476392D01*
X451621Y475961D01*
X451627Y475723D01*
X451696Y475566D01*
Y474628D01*
X450196Y473815D01*
X449145Y474250D01*
X447355D01*
X445701Y473565D01*
X444435Y472299D01*
X443750Y470645D01*
Y468855D01*
X444435Y467201D01*
X444871Y466765D01*
X444986Y466476D01*
X445213Y466242D01*
X445383Y466048D01*
X445524Y465866D01*
X445637Y465700D01*
X445724Y465550D01*
X445787Y465416D01*
X445830Y465302D01*
X445856Y465204D01*
X445870Y465120D01*
X445879Y464957D01*
X445956Y464796D01*
Y450750D01*
X446131Y449872D01*
X446628Y449128D01*
X453410Y442346D01*
X453410Y442346D01*
X454154Y441848D01*
X455032Y441674D01*
X664468D01*
X665346Y441848D01*
X666090Y442346D01*
X757119Y533375D01*
X757288Y533434D01*
X757409Y533543D01*
X757478Y533593D01*
X757566Y533644D01*
X757677Y533694D01*
X757816Y533744D01*
X757984Y533789D01*
X758157Y533822D01*
X758690Y533872D01*
X758993Y533877D01*
X759279Y534000D01*
X759895D01*
X761549Y534685D01*
X762815Y535951D01*
X763500Y537605D01*
Y539395D01*
X762815Y541049D01*
X761549Y542315D01*
X759895Y543000D01*
D02*
G37*
G36*
X324395Y531250D02*
X322605D01*
X320951Y530565D01*
X319685Y529299D01*
X319000Y527645D01*
Y525855D01*
X319685Y524201D01*
X320951Y522935D01*
X322304Y522375D01*
X322340Y520889D01*
X322335Y520862D01*
X320988Y520304D01*
X319722Y519038D01*
X319037Y517384D01*
Y515594D01*
X319722Y513940D01*
X320044Y513618D01*
X320920Y512601D01*
X320044Y511658D01*
X319685Y511299D01*
X319000Y509645D01*
Y507855D01*
X319685Y506201D01*
X320272Y505614D01*
X320437Y504182D01*
X320156Y503770D01*
X319185Y502799D01*
X318500Y501145D01*
Y499355D01*
X319185Y497701D01*
X320451Y496435D01*
X322105Y495750D01*
X323895D01*
X325549Y496435D01*
X326815Y497701D01*
X327500Y499355D01*
Y501145D01*
X326815Y502799D01*
X326228Y503386D01*
X326063Y504818D01*
X326344Y505230D01*
X327233Y506119D01*
X330014Y506251D01*
X331500Y506217D01*
X331519Y506225D01*
X333005Y506321D01*
X353115D01*
X354126Y505310D01*
X355780Y504625D01*
X357570D01*
X359224Y505310D01*
X360490Y506576D01*
X361175Y508230D01*
Y510020D01*
X360490Y511674D01*
X359224Y512940D01*
X357570Y513625D01*
X357582Y515087D01*
X359236Y515772D01*
X360502Y517038D01*
X361187Y518692D01*
Y520482D01*
X360502Y522136D01*
X359236Y523402D01*
X357582Y524087D01*
X355792D01*
X354138Y523402D01*
X353382Y522646D01*
X350785D01*
X349615Y522413D01*
X348622Y521750D01*
X348622Y521750D01*
X346420Y519548D01*
X326842D01*
X326086Y520304D01*
X324733Y520864D01*
X324697Y522350D01*
X324702Y522377D01*
X326049Y522935D01*
X327315Y524201D01*
X328000Y525855D01*
Y527645D01*
X327315Y529299D01*
X326049Y530565D01*
X324395Y531250D01*
D02*
G37*
G36*
X295195Y513000D02*
X293405D01*
X291751Y512315D01*
X290485Y511049D01*
X289800Y509395D01*
Y507605D01*
X290485Y505951D01*
X291751Y504685D01*
X293405Y504000D01*
X295195D01*
X296849Y504685D01*
X298115Y505951D01*
X298800Y507605D01*
Y509395D01*
X298115Y511049D01*
X296849Y512315D01*
X295195Y513000D01*
D02*
G37*
G36*
X357695Y492500D02*
X355905D01*
X354251Y491815D01*
X353711Y491275D01*
X353421Y491154D01*
X353310Y491043D01*
X353251Y490994D01*
X353185Y490949D01*
X353106Y490907D01*
X353013Y490867D01*
X352900Y490830D01*
X352765Y490798D01*
X352607Y490772D01*
X352424Y490755D01*
X352172Y490748D01*
X352158Y490742D01*
X352145Y490747D01*
X352000Y490679D01*
X328165D01*
X328010Y490748D01*
X327754Y490755D01*
X327561Y490771D01*
X327390Y490796D01*
X327240Y490829D01*
X327108Y490868D01*
X326995Y490911D01*
X326897Y490958D01*
X326811Y491008D01*
X326735Y491063D01*
X326610Y491170D01*
X326363Y491250D01*
X326049Y491565D01*
X324395Y492250D01*
X322605D01*
X320951Y491565D01*
X319685Y490299D01*
X319000Y488645D01*
Y486855D01*
X319685Y485201D01*
X320951Y483935D01*
X322605Y483250D01*
X324395D01*
X326049Y483935D01*
X326589Y484475D01*
X326879Y484596D01*
X326990Y484707D01*
X327049Y484756D01*
X327115Y484801D01*
X327194Y484843D01*
X327287Y484883D01*
X327400Y484920D01*
X327535Y484952D01*
X327693Y484978D01*
X327876Y484995D01*
X328128Y485002D01*
X328142Y485008D01*
X328156Y485003D01*
X328301Y485071D01*
X352135D01*
X352290Y485002D01*
X352546Y484995D01*
X352739Y484979D01*
X352910Y484954D01*
X353060Y484921D01*
X353191Y484882D01*
X353305Y484839D01*
X353403Y484792D01*
X353489Y484742D01*
X353565Y484687D01*
X353690Y484580D01*
X353937Y484500D01*
X354251Y484185D01*
X355905Y483500D01*
X357695D01*
X359349Y484185D01*
X360615Y485451D01*
X361300Y487105D01*
Y488895D01*
X360615Y490549D01*
X359349Y491815D01*
X357695Y492500D01*
D02*
G37*
G36*
X190094Y446500D02*
X187906D01*
X185884Y445663D01*
X184980Y444758D01*
X184000Y444280D01*
X183020Y444758D01*
X182115Y445663D01*
X180094Y446500D01*
X177906D01*
X175884Y445663D01*
X174980Y444758D01*
X174000Y444280D01*
X173020Y444758D01*
X172115Y445663D01*
X170094Y446500D01*
X167906D01*
X165884Y445663D01*
X164337Y444115D01*
X163500Y442094D01*
Y439906D01*
X164337Y437884D01*
X165242Y436980D01*
X165720Y436000D01*
X165242Y435020D01*
X164337Y434115D01*
X163500Y432094D01*
Y429906D01*
X164337Y427884D01*
X165242Y426980D01*
X165720Y426000D01*
X165242Y425020D01*
X164337Y424115D01*
X163500Y422094D01*
Y419906D01*
X164337Y417884D01*
X165884Y416337D01*
X167906Y415500D01*
X170094D01*
X172115Y416337D01*
X173020Y417242D01*
X174000Y417720D01*
X174980Y417242D01*
X175884Y416337D01*
X177906Y415500D01*
X180094D01*
X182115Y416337D01*
X183020Y417242D01*
X184000Y417720D01*
X184980Y417242D01*
X185884Y416337D01*
X187906Y415500D01*
X190094D01*
X192115Y416337D01*
X193663Y417884D01*
X194500Y419906D01*
Y422094D01*
X193663Y424115D01*
X192758Y425020D01*
X192280Y426000D01*
X192758Y426980D01*
X193663Y427884D01*
X194500Y429906D01*
Y432094D01*
X193663Y434115D01*
X192758Y435020D01*
X192280Y436000D01*
X192758Y436980D01*
X193663Y437884D01*
X194500Y439906D01*
Y442094D01*
X193663Y444115D01*
X192115Y445663D01*
X190094Y446500D01*
D02*
G37*
G36*
X324895Y474500D02*
X323105D01*
X321451Y473815D01*
X320185Y472549D01*
X319500Y470895D01*
Y469105D01*
X320185Y467451D01*
X321196Y466440D01*
Y465000D01*
X321410Y463927D01*
X322017Y463017D01*
X338750Y446285D01*
Y444855D01*
X339435Y443201D01*
X340701Y441935D01*
X342355Y441250D01*
X344145D01*
X345799Y441935D01*
X347065Y443201D01*
X347750Y444855D01*
Y446645D01*
X347065Y448299D01*
X345799Y449565D01*
X344145Y450250D01*
X342715D01*
X326804Y466161D01*
Y466440D01*
X327815Y467451D01*
X328500Y469105D01*
Y470895D01*
X327815Y472549D01*
X326549Y473815D01*
X324895Y474500D01*
D02*
G37*
G36*
X363645Y482600D02*
X361855D01*
X360201Y481915D01*
X358935Y480649D01*
X358250Y478995D01*
Y477205D01*
X358935Y475551D01*
X360071Y474415D01*
Y448435D01*
X359185Y447549D01*
X358500Y445895D01*
Y444105D01*
X359185Y442451D01*
X360451Y441185D01*
X362105Y440500D01*
X363895D01*
X365549Y441185D01*
X366815Y442451D01*
X367500Y444105D01*
Y445895D01*
X366815Y447549D01*
X365679Y448685D01*
Y474665D01*
X366565Y475551D01*
X367250Y477205D01*
Y478995D01*
X366565Y480649D01*
X365299Y481915D01*
X363645Y482600D01*
D02*
G37*
G36*
X435695Y448162D02*
X433905D01*
X432251Y447477D01*
X430985Y446211D01*
X430300Y444557D01*
Y442767D01*
X430985Y441113D01*
X432251Y439847D01*
X433905Y439162D01*
X435695D01*
X437349Y439847D01*
X438615Y441113D01*
X439300Y442767D01*
Y444557D01*
X438615Y446211D01*
X437349Y447477D01*
X435695Y448162D01*
D02*
G37*
G36*
X301695Y447600D02*
X299905D01*
X298251Y446915D01*
X296985Y445649D01*
X296300Y443995D01*
Y442205D01*
X296985Y440551D01*
X298251Y439285D01*
X299905Y438600D01*
X301695D01*
X303349Y439285D01*
X304615Y440551D01*
X305300Y442205D01*
Y443995D01*
X304615Y445649D01*
X303349Y446915D01*
X301695Y447600D01*
D02*
G37*
G36*
X127645Y434250D02*
X125855D01*
X124201Y433565D01*
X122935Y432299D01*
X122250Y430645D01*
Y428855D01*
X122935Y427201D01*
X124201Y425935D01*
X125855Y425250D01*
X127645D01*
X129299Y425935D01*
X130565Y427201D01*
X131250Y428855D01*
Y430645D01*
X130565Y432299D01*
X129299Y433565D01*
X127645Y434250D01*
D02*
G37*
G36*
X671549Y407230D02*
X669251D01*
X667030Y406635D01*
X665040Y405486D01*
X663414Y403860D01*
X662265Y401870D01*
X661670Y399649D01*
Y397351D01*
X662265Y395130D01*
X663414Y393140D01*
X665040Y391514D01*
X667030Y390365D01*
X669251Y389770D01*
X671549D01*
X673770Y390365D01*
X675760Y391514D01*
X677386Y393140D01*
X678535Y395130D01*
X679130Y397351D01*
Y399649D01*
X678535Y401870D01*
X677386Y403860D01*
X675760Y405486D01*
X673770Y406635D01*
X671549Y407230D01*
D02*
G37*
G36*
X651149D02*
X648851D01*
X646630Y406635D01*
X644640Y405486D01*
X643014Y403860D01*
X641865Y401870D01*
X641270Y399649D01*
Y397351D01*
X641865Y395130D01*
X643014Y393140D01*
X644640Y391514D01*
X646630Y390365D01*
X648851Y389770D01*
X651149D01*
X653370Y390365D01*
X655360Y391514D01*
X656986Y393140D01*
X658135Y395130D01*
X658730Y397351D01*
Y399649D01*
X658135Y401870D01*
X656986Y403860D01*
X655360Y405486D01*
X653370Y406635D01*
X651149Y407230D01*
D02*
G37*
G36*
X630749D02*
X628451D01*
X626230Y406635D01*
X624240Y405486D01*
X622614Y403860D01*
X621465Y401870D01*
X620870Y399649D01*
Y397351D01*
X621465Y395130D01*
X622614Y393140D01*
X624240Y391514D01*
X626230Y390365D01*
X628451Y389770D01*
X630749D01*
X632970Y390365D01*
X634960Y391514D01*
X636586Y393140D01*
X637735Y395130D01*
X638330Y397351D01*
Y399649D01*
X637735Y401870D01*
X636586Y403860D01*
X634960Y405486D01*
X632970Y406635D01*
X630749Y407230D01*
D02*
G37*
G36*
X610349D02*
X608051D01*
X605830Y406635D01*
X603840Y405486D01*
X602214Y403860D01*
X601065Y401870D01*
X600470Y399649D01*
Y397351D01*
X601065Y395130D01*
X602214Y393140D01*
X603840Y391514D01*
X605830Y390365D01*
X608051Y389770D01*
X610349D01*
X612570Y390365D01*
X614560Y391514D01*
X616186Y393140D01*
X617335Y395130D01*
X617930Y397351D01*
Y399649D01*
X617335Y401870D01*
X616186Y403860D01*
X614560Y405486D01*
X612570Y406635D01*
X610349Y407230D01*
D02*
G37*
G36*
X676050Y416054D02*
X603550D01*
X602477Y415840D01*
X601567Y415233D01*
X595096Y408761D01*
X594957Y408715D01*
X594642Y408442D01*
X594344Y408247D01*
X593962Y408057D01*
X593494Y407879D01*
X592937Y407719D01*
X592293Y407584D01*
X591583Y407481D01*
X589842Y407361D01*
X588860Y407353D01*
X588569Y407230D01*
X587651D01*
X585430Y406635D01*
X583440Y405486D01*
X581814Y403860D01*
X580665Y401870D01*
X580070Y399649D01*
Y398746D01*
X579947Y398471D01*
X579896Y396531D01*
X579822Y395735D01*
X579715Y395007D01*
X579581Y394363D01*
X579421Y393806D01*
X579243Y393338D01*
X579053Y392956D01*
X578858Y392658D01*
X578585Y392343D01*
X578539Y392204D01*
X576617Y390283D01*
X576010Y389373D01*
X575796Y388300D01*
Y384807D01*
X575731Y384677D01*
X575700Y384261D01*
X575628Y383912D01*
X575493Y383508D01*
X575287Y383050D01*
X575006Y382544D01*
X574646Y381994D01*
X574218Y381419D01*
X573071Y380102D01*
X572382Y379402D01*
X572263Y379109D01*
X571614Y378460D01*
X570465Y376470D01*
X569870Y374249D01*
Y371951D01*
X570465Y369730D01*
X571614Y367740D01*
X573240Y366114D01*
X575230Y364965D01*
X577451Y364370D01*
X579749D01*
X581970Y364965D01*
X583960Y366114D01*
X585586Y367740D01*
X586735Y369730D01*
X587330Y371951D01*
Y374249D01*
X586735Y376470D01*
X585586Y378460D01*
X584947Y379099D01*
X584839Y379380D01*
X583504Y380789D01*
X582994Y381403D01*
X582554Y381993D01*
X582194Y382544D01*
X581913Y383050D01*
X581707Y383508D01*
X581572Y383912D01*
X581499Y384261D01*
X581469Y384677D01*
X581404Y384807D01*
Y387139D01*
X582504Y388239D01*
X582643Y388285D01*
X582958Y388558D01*
X583256Y388753D01*
X583638Y388943D01*
X584106Y389121D01*
X584663Y389281D01*
X585307Y389416D01*
X586017Y389519D01*
X587758Y389639D01*
X588740Y389647D01*
X589031Y389770D01*
X589949D01*
X592170Y390365D01*
X594160Y391514D01*
X595786Y393140D01*
X596935Y395130D01*
X597530Y397351D01*
Y398254D01*
X597653Y398529D01*
X597704Y400469D01*
X597778Y401265D01*
X597884Y401993D01*
X598019Y402637D01*
X598179Y403194D01*
X598357Y403662D01*
X598547Y404044D01*
X598742Y404342D01*
X599015Y404657D01*
X599061Y404796D01*
X604711Y410446D01*
X674889D01*
X680539Y404796D01*
X680585Y404657D01*
X680858Y404342D01*
X681053Y404044D01*
X681243Y403662D01*
X681421Y403194D01*
X681581Y402637D01*
X681715Y401993D01*
X681819Y401283D01*
X681939Y399542D01*
X681947Y398560D01*
X682070Y398269D01*
Y397351D01*
X682665Y395130D01*
X683814Y393140D01*
X685440Y391514D01*
X687430Y390365D01*
X689651Y389770D01*
X690554D01*
X690829Y389647D01*
X692769Y389596D01*
X693565Y389522D01*
X694293Y389416D01*
X694937Y389281D01*
X695494Y389121D01*
X695962Y388943D01*
X696344Y388753D01*
X696642Y388558D01*
X696957Y388285D01*
X697096Y388239D01*
X698196Y387139D01*
Y384807D01*
X698131Y384677D01*
X698101Y384261D01*
X698028Y383912D01*
X697893Y383508D01*
X697687Y383050D01*
X697406Y382544D01*
X697046Y381994D01*
X696618Y381419D01*
X695471Y380102D01*
X694782Y379402D01*
X694663Y379109D01*
X694014Y378460D01*
X692865Y376470D01*
X692270Y374249D01*
Y371951D01*
X692865Y369730D01*
X694014Y367740D01*
X695640Y366114D01*
X697630Y364965D01*
X699851Y364370D01*
X702149D01*
X704370Y364965D01*
X706360Y366114D01*
X707986Y367740D01*
X709135Y369730D01*
X709730Y371951D01*
Y374249D01*
X709135Y376470D01*
X707986Y378460D01*
X707347Y379099D01*
X707239Y379380D01*
X705904Y380789D01*
X705394Y381403D01*
X704954Y381993D01*
X704594Y382544D01*
X704313Y383050D01*
X704107Y383508D01*
X703972Y383912D01*
X703900Y384261D01*
X703869Y384677D01*
X703804Y384807D01*
Y388300D01*
X703590Y389373D01*
X702983Y390283D01*
X701061Y392204D01*
X701015Y392343D01*
X700742Y392658D01*
X700547Y392956D01*
X700357Y393338D01*
X700179Y393806D01*
X700019Y394363D01*
X699884Y395007D01*
X699781Y395717D01*
X699661Y397458D01*
X699653Y398440D01*
X699530Y398731D01*
Y399649D01*
X698935Y401870D01*
X697786Y403860D01*
X696160Y405486D01*
X694170Y406635D01*
X691949Y407230D01*
X691046D01*
X690771Y407353D01*
X688831Y407404D01*
X688035Y407478D01*
X687307Y407584D01*
X686663Y407719D01*
X686106Y407879D01*
X685638Y408057D01*
X685256Y408247D01*
X684958Y408442D01*
X684643Y408715D01*
X684504Y408761D01*
X678033Y415233D01*
X677123Y415840D01*
X676050Y416054D01*
D02*
G37*
G36*
X681749Y381830D02*
X679451D01*
X677230Y381235D01*
X675240Y380086D01*
X673614Y378460D01*
X672465Y376470D01*
X671870Y374249D01*
Y371951D01*
X672465Y369730D01*
X673614Y367740D01*
X675240Y366114D01*
X677230Y364965D01*
X679451Y364370D01*
X681749D01*
X683970Y364965D01*
X685960Y366114D01*
X687586Y367740D01*
X688735Y369730D01*
X689330Y371951D01*
Y374249D01*
X688735Y376470D01*
X687586Y378460D01*
X685960Y380086D01*
X683970Y381235D01*
X681749Y381830D01*
D02*
G37*
G36*
X661349D02*
X659051D01*
X656830Y381235D01*
X654840Y380086D01*
X653214Y378460D01*
X652065Y376470D01*
X651470Y374249D01*
Y371951D01*
X652065Y369730D01*
X653214Y367740D01*
X654840Y366114D01*
X656830Y364965D01*
X659051Y364370D01*
X661349D01*
X663570Y364965D01*
X665560Y366114D01*
X667186Y367740D01*
X668335Y369730D01*
X668930Y371951D01*
Y374249D01*
X668335Y376470D01*
X667186Y378460D01*
X665560Y380086D01*
X663570Y381235D01*
X661349Y381830D01*
D02*
G37*
G36*
X620549D02*
X618251D01*
X616030Y381235D01*
X614040Y380086D01*
X612414Y378460D01*
X611265Y376470D01*
X610670Y374249D01*
Y371951D01*
X611265Y369730D01*
X612414Y367740D01*
X614040Y366114D01*
X616030Y364965D01*
X618251Y364370D01*
X620549D01*
X622770Y364965D01*
X624760Y366114D01*
X626386Y367740D01*
X627535Y369730D01*
X628130Y371951D01*
Y374249D01*
X627535Y376470D01*
X626386Y378460D01*
X624760Y380086D01*
X622770Y381235D01*
X620549Y381830D01*
D02*
G37*
G36*
X600149D02*
X597851D01*
X595630Y381235D01*
X593640Y380086D01*
X592014Y378460D01*
X590865Y376470D01*
X590270Y374249D01*
Y371951D01*
X590865Y369730D01*
X592014Y367740D01*
X593640Y366114D01*
X595630Y364965D01*
X597851Y364370D01*
X600149D01*
X602370Y364965D01*
X604360Y366114D01*
X605986Y367740D01*
X607135Y369730D01*
X607730Y371951D01*
Y374249D01*
X607135Y376470D01*
X605986Y378460D01*
X604360Y380086D01*
X602370Y381235D01*
X600149Y381830D01*
D02*
G37*
G36*
X49475Y351879D02*
X47685D01*
X46031Y351194D01*
X44765Y349928D01*
X44080Y348274D01*
Y346484D01*
X44765Y344830D01*
X46031Y343564D01*
X47685Y342879D01*
X49475D01*
X51129Y343564D01*
X52395Y344830D01*
X53080Y346484D01*
Y348274D01*
X52395Y349928D01*
X51129Y351194D01*
X49475Y351879D01*
D02*
G37*
G36*
X702215Y356925D02*
X699786D01*
X697439Y356296D01*
X695336Y355082D01*
X693618Y353364D01*
X692404Y351261D01*
X691775Y348914D01*
Y346485D01*
X692404Y344139D01*
X693618Y342036D01*
X695336Y340318D01*
X697439Y339104D01*
X699786Y338475D01*
X702215D01*
X704561Y339104D01*
X706664Y340318D01*
X708382Y342036D01*
X709596Y344139D01*
X710225Y346485D01*
Y348914D01*
X709596Y351261D01*
X708382Y353364D01*
X706664Y355082D01*
X704561Y356296D01*
X702215Y356925D01*
D02*
G37*
G36*
X676814D02*
X674386D01*
X672039Y356296D01*
X669936Y355082D01*
X668218Y353364D01*
X667004Y351261D01*
X666375Y348914D01*
Y346485D01*
X667004Y344139D01*
X668218Y342036D01*
X669936Y340318D01*
X672039Y339104D01*
X674386Y338475D01*
X676814D01*
X679161Y339104D01*
X681264Y340318D01*
X682982Y342036D01*
X684196Y344139D01*
X684825Y346485D01*
Y348914D01*
X684196Y351261D01*
X682982Y353364D01*
X681264Y355082D01*
X679161Y356296D01*
X676814Y356925D01*
D02*
G37*
G36*
X605215D02*
X602785D01*
X600439Y356296D01*
X598336Y355082D01*
X596618Y353364D01*
X595404Y351261D01*
X594775Y348914D01*
Y346485D01*
X595404Y344139D01*
X596618Y342036D01*
X598336Y340318D01*
X600439Y339104D01*
X602785Y338475D01*
X605215D01*
X607561Y339104D01*
X609664Y340318D01*
X611382Y342036D01*
X612596Y344139D01*
X613225Y346485D01*
Y348914D01*
X612596Y351261D01*
X611382Y353364D01*
X609664Y355082D01*
X607561Y356296D01*
X605215Y356925D01*
D02*
G37*
G36*
X579814D02*
X577385D01*
X575039Y356296D01*
X572936Y355082D01*
X571218Y353364D01*
X570004Y351261D01*
X569375Y348914D01*
Y346485D01*
X570004Y344139D01*
X571218Y342036D01*
X572936Y340318D01*
X575039Y339104D01*
X577385Y338475D01*
X579814D01*
X582161Y339104D01*
X584264Y340318D01*
X585982Y342036D01*
X587196Y344139D01*
X587825Y346485D01*
Y348914D01*
X587196Y351261D01*
X585982Y353364D01*
X584264Y355082D01*
X582161Y356296D01*
X579814Y356925D01*
D02*
G37*
G36*
X599814Y324225D02*
X597385D01*
X595039Y323596D01*
X594537Y323306D01*
X595881Y321962D01*
X591638Y317719D01*
X590294Y319063D01*
X590004Y318561D01*
X589375Y316215D01*
Y313785D01*
X590004Y311439D01*
X590294Y310937D01*
X591638Y312281D01*
X595881Y308039D01*
X594537Y306694D01*
X595039Y306404D01*
X597385Y305775D01*
X599814D01*
X602161Y306404D01*
X602663Y306694D01*
X601319Y308039D01*
X605561Y312281D01*
X606906Y310937D01*
X607196Y311439D01*
X607825Y313785D01*
Y316215D01*
X607196Y318561D01*
X606906Y319063D01*
X605561Y317719D01*
X601319Y321962D01*
X602663Y323306D01*
X602161Y323596D01*
X599814Y324225D01*
D02*
G37*
G36*
X204814D02*
X202386D01*
X200039Y323596D01*
X199537Y323306D01*
X200881Y321962D01*
X196639Y317719D01*
X195294Y319063D01*
X195004Y318561D01*
X194375Y316215D01*
Y313785D01*
X195004Y311439D01*
X195294Y310937D01*
X196639Y312281D01*
X200881Y308039D01*
X199537Y306694D01*
X200039Y306404D01*
X202386Y305775D01*
X204814D01*
X207161Y306404D01*
X207663Y306694D01*
X206319Y308039D01*
X210562Y312281D01*
X211906Y310937D01*
X212196Y311439D01*
X212825Y313785D01*
Y316215D01*
X212196Y318561D01*
X211906Y319063D01*
X210562Y317719D01*
X206319Y321962D01*
X207663Y323306D01*
X207161Y323596D01*
X204814Y324225D01*
D02*
G37*
G36*
X722215D02*
X719786D01*
X717439Y323596D01*
X715336Y322382D01*
X713618Y320664D01*
X712404Y318561D01*
X711775Y316215D01*
Y313785D01*
X712404Y311439D01*
X713618Y309336D01*
X715336Y307618D01*
X717439Y306404D01*
X719786Y305775D01*
X722215D01*
X724561Y306404D01*
X726664Y307618D01*
X728382Y309336D01*
X729596Y311439D01*
X730225Y313785D01*
Y316215D01*
X729596Y318561D01*
X728382Y320664D01*
X726664Y322382D01*
X724561Y323596D01*
X722215Y324225D01*
D02*
G37*
G36*
X696814D02*
X694386D01*
X692039Y323596D01*
X689936Y322382D01*
X688218Y320664D01*
X687004Y318561D01*
X686375Y316215D01*
Y313785D01*
X687004Y311439D01*
X688218Y309336D01*
X689936Y307618D01*
X692039Y306404D01*
X694386Y305775D01*
X696814D01*
X699161Y306404D01*
X701264Y307618D01*
X702982Y309336D01*
X704196Y311439D01*
X704825Y313785D01*
Y316215D01*
X704196Y318561D01*
X702982Y320664D01*
X701264Y322382D01*
X699161Y323596D01*
X696814Y324225D01*
D02*
G37*
G36*
X625215D02*
X622785D01*
X620439Y323596D01*
X618336Y322382D01*
X616618Y320664D01*
X615404Y318561D01*
X614775Y316215D01*
Y313785D01*
X615404Y311439D01*
X616618Y309336D01*
X618336Y307618D01*
X620439Y306404D01*
X622785Y305775D01*
X625215D01*
X627561Y306404D01*
X629664Y307618D01*
X631382Y309336D01*
X632596Y311439D01*
X633225Y313785D01*
Y316215D01*
X632596Y318561D01*
X631382Y320664D01*
X629664Y322382D01*
X627561Y323596D01*
X625215Y324225D01*
D02*
G37*
G36*
X524715D02*
X522285D01*
X519939Y323596D01*
X517836Y322382D01*
X516118Y320664D01*
X514904Y318561D01*
X514275Y316215D01*
Y313785D01*
X514904Y311439D01*
X516118Y309336D01*
X517836Y307618D01*
X519939Y306404D01*
X522285Y305775D01*
X524715D01*
X527061Y306404D01*
X529164Y307618D01*
X530882Y309336D01*
X532096Y311439D01*
X532725Y313785D01*
Y316215D01*
X532096Y318561D01*
X530882Y320664D01*
X529164Y322382D01*
X527061Y323596D01*
X524715Y324225D01*
D02*
G37*
G36*
X427715D02*
X425285D01*
X422939Y323596D01*
X420836Y322382D01*
X419118Y320664D01*
X417904Y318561D01*
X417275Y316215D01*
Y313785D01*
X417904Y311439D01*
X419118Y309336D01*
X420836Y307618D01*
X422939Y306404D01*
X425285Y305775D01*
X427715D01*
X430061Y306404D01*
X432164Y307618D01*
X433882Y309336D01*
X435096Y311439D01*
X435725Y313785D01*
Y316215D01*
X435096Y318561D01*
X433882Y320664D01*
X432164Y322382D01*
X430061Y323596D01*
X427715Y324225D01*
D02*
G37*
G36*
X327215D02*
X324785D01*
X322439Y323596D01*
X320336Y322382D01*
X318618Y320664D01*
X317404Y318561D01*
X316775Y316215D01*
Y313785D01*
X317404Y311439D01*
X318618Y309336D01*
X320336Y307618D01*
X322439Y306404D01*
X324785Y305775D01*
X327215D01*
X329561Y306404D01*
X331664Y307618D01*
X333382Y309336D01*
X334596Y311439D01*
X335225Y313785D01*
Y316215D01*
X334596Y318561D01*
X333382Y320664D01*
X331664Y322382D01*
X329561Y323596D01*
X327215Y324225D01*
D02*
G37*
G36*
X230215D02*
X227785D01*
X225439Y323596D01*
X223336Y322382D01*
X221618Y320664D01*
X220404Y318561D01*
X219775Y316215D01*
Y313785D01*
X220404Y311439D01*
X221618Y309336D01*
X223336Y307618D01*
X225439Y306404D01*
X227785Y305775D01*
X230215D01*
X232561Y306404D01*
X234664Y307618D01*
X236382Y309336D01*
X237596Y311439D01*
X238225Y313785D01*
Y316215D01*
X237596Y318561D01*
X236382Y320664D01*
X234664Y322382D01*
X232561Y323596D01*
X230215Y324225D01*
D02*
G37*
G36*
X701749Y298330D02*
X699451D01*
X697230Y297735D01*
X695240Y296586D01*
X693614Y294960D01*
X692465Y292970D01*
X691870Y290749D01*
Y288451D01*
X692465Y286230D01*
X693614Y284240D01*
X695240Y282614D01*
X697230Y281465D01*
X699451Y280870D01*
X701749D01*
X703970Y281465D01*
X705960Y282614D01*
X707586Y284240D01*
X708735Y286230D01*
X709330Y288451D01*
Y290749D01*
X708735Y292970D01*
X707586Y294960D01*
X705960Y296586D01*
X703970Y297735D01*
X701749Y298330D01*
D02*
G37*
G36*
X681349D02*
X679051D01*
X676830Y297735D01*
X674840Y296586D01*
X673214Y294960D01*
X672065Y292970D01*
X671470Y290749D01*
Y288451D01*
X672065Y286230D01*
X673214Y284240D01*
X674840Y282614D01*
X676830Y281465D01*
X679051Y280870D01*
X681349D01*
X683570Y281465D01*
X685560Y282614D01*
X687186Y284240D01*
X688335Y286230D01*
X688930Y288451D01*
Y290749D01*
X688335Y292970D01*
X687186Y294960D01*
X685560Y296586D01*
X683570Y297735D01*
X681349Y298330D01*
D02*
G37*
G36*
X640549D02*
X638251D01*
X636030Y297735D01*
X634040Y296586D01*
X632414Y294960D01*
X631265Y292970D01*
X630670Y290749D01*
Y288451D01*
X631265Y286230D01*
X632414Y284240D01*
X634040Y282614D01*
X636030Y281465D01*
X638251Y280870D01*
X640549D01*
X642770Y281465D01*
X644760Y282614D01*
X646386Y284240D01*
X647535Y286230D01*
X648130Y288451D01*
Y290749D01*
X647535Y292970D01*
X646386Y294960D01*
X644760Y296586D01*
X642770Y297735D01*
X640549Y298330D01*
D02*
G37*
G36*
X620149D02*
X617851D01*
X615630Y297735D01*
X613640Y296586D01*
X612014Y294960D01*
X610865Y292970D01*
X610270Y290749D01*
Y288451D01*
X610865Y286230D01*
X612014Y284240D01*
X613640Y282614D01*
X615630Y281465D01*
X617851Y280870D01*
X620149D01*
X622370Y281465D01*
X624360Y282614D01*
X625986Y284240D01*
X627135Y286230D01*
X627730Y288451D01*
Y290749D01*
X627135Y292970D01*
X625986Y294960D01*
X624360Y296586D01*
X622370Y297735D01*
X620149Y298330D01*
D02*
G37*
G36*
X504249D02*
X501951D01*
X499730Y297735D01*
X497740Y296586D01*
X496114Y294960D01*
X494965Y292970D01*
X494370Y290749D01*
Y288451D01*
X494965Y286230D01*
X496114Y284240D01*
X497740Y282614D01*
X499730Y281465D01*
X501951Y280870D01*
X504249D01*
X506470Y281465D01*
X508460Y282614D01*
X510086Y284240D01*
X511235Y286230D01*
X511830Y288451D01*
Y290749D01*
X511235Y292970D01*
X510086Y294960D01*
X508460Y296586D01*
X506470Y297735D01*
X504249Y298330D01*
D02*
G37*
G36*
X483849D02*
X481551D01*
X479330Y297735D01*
X477340Y296586D01*
X475714Y294960D01*
X474565Y292970D01*
X473970Y290749D01*
Y288451D01*
X474565Y286230D01*
X475714Y284240D01*
X477340Y282614D01*
X479330Y281465D01*
X481551Y280870D01*
X483849D01*
X486070Y281465D01*
X488060Y282614D01*
X489686Y284240D01*
X490835Y286230D01*
X491430Y288451D01*
Y290749D01*
X490835Y292970D01*
X489686Y294960D01*
X488060Y296586D01*
X486070Y297735D01*
X483849Y298330D01*
D02*
G37*
G36*
X443049D02*
X440751D01*
X438530Y297735D01*
X436540Y296586D01*
X434914Y294960D01*
X433765Y292970D01*
X433170Y290749D01*
Y288451D01*
X433765Y286230D01*
X434914Y284240D01*
X436540Y282614D01*
X438530Y281465D01*
X440751Y280870D01*
X443049D01*
X445270Y281465D01*
X447260Y282614D01*
X448886Y284240D01*
X450035Y286230D01*
X450630Y288451D01*
Y290749D01*
X450035Y292970D01*
X448886Y294960D01*
X447260Y296586D01*
X445270Y297735D01*
X443049Y298330D01*
D02*
G37*
G36*
X422649D02*
X420351D01*
X418130Y297735D01*
X416140Y296586D01*
X414514Y294960D01*
X413365Y292970D01*
X412770Y290749D01*
Y288451D01*
X413365Y286230D01*
X414514Y284240D01*
X416140Y282614D01*
X418130Y281465D01*
X420351Y280870D01*
X422649D01*
X424870Y281465D01*
X426860Y282614D01*
X428486Y284240D01*
X429635Y286230D01*
X430230Y288451D01*
Y290749D01*
X429635Y292970D01*
X428486Y294960D01*
X426860Y296586D01*
X424870Y297735D01*
X422649Y298330D01*
D02*
G37*
G36*
X306749D02*
X304451D01*
X302230Y297735D01*
X300240Y296586D01*
X298614Y294960D01*
X297465Y292970D01*
X296870Y290749D01*
Y288451D01*
X297465Y286230D01*
X298614Y284240D01*
X300240Y282614D01*
X302230Y281465D01*
X304451Y280870D01*
X306749D01*
X308970Y281465D01*
X310960Y282614D01*
X312586Y284240D01*
X313735Y286230D01*
X314330Y288451D01*
Y290749D01*
X313735Y292970D01*
X312586Y294960D01*
X310960Y296586D01*
X308970Y297735D01*
X306749Y298330D01*
D02*
G37*
G36*
X286349D02*
X284051D01*
X281830Y297735D01*
X279840Y296586D01*
X278214Y294960D01*
X277065Y292970D01*
X276470Y290749D01*
Y288451D01*
X277065Y286230D01*
X278214Y284240D01*
X279840Y282614D01*
X281830Y281465D01*
X284051Y280870D01*
X286349D01*
X288570Y281465D01*
X290560Y282614D01*
X292186Y284240D01*
X293335Y286230D01*
X293930Y288451D01*
Y290749D01*
X293335Y292970D01*
X292186Y294960D01*
X290560Y296586D01*
X288570Y297735D01*
X286349Y298330D01*
D02*
G37*
G36*
X245549D02*
X243251D01*
X241030Y297735D01*
X239040Y296586D01*
X237414Y294960D01*
X236265Y292970D01*
X235670Y290749D01*
Y288451D01*
X236265Y286230D01*
X237414Y284240D01*
X239040Y282614D01*
X241030Y281465D01*
X243251Y280870D01*
X245549D01*
X247770Y281465D01*
X249760Y282614D01*
X251386Y284240D01*
X252535Y286230D01*
X253130Y288451D01*
Y290749D01*
X252535Y292970D01*
X251386Y294960D01*
X249760Y296586D01*
X247770Y297735D01*
X245549Y298330D01*
D02*
G37*
G36*
X225149D02*
X222851D01*
X220630Y297735D01*
X218640Y296586D01*
X217014Y294960D01*
X215865Y292970D01*
X215270Y290749D01*
Y288451D01*
X215865Y286230D01*
X217014Y284240D01*
X218640Y282614D01*
X220630Y281465D01*
X222851Y280870D01*
X225149D01*
X227370Y281465D01*
X229360Y282614D01*
X230986Y284240D01*
X232135Y286230D01*
X232730Y288451D01*
Y290749D01*
X232135Y292970D01*
X230986Y294960D01*
X229360Y296586D01*
X227370Y297735D01*
X225149Y298330D01*
D02*
G37*
G36*
X691549Y272930D02*
X689251D01*
X687030Y272335D01*
X685040Y271186D01*
X683414Y269560D01*
X682265Y267570D01*
X681670Y265349D01*
Y263051D01*
X682265Y260830D01*
X683414Y258840D01*
X685040Y257214D01*
X687030Y256065D01*
X689251Y255470D01*
X691549D01*
X693770Y256065D01*
X695760Y257214D01*
X697386Y258840D01*
X698535Y260830D01*
X699130Y263051D01*
Y265349D01*
X698535Y267570D01*
X697386Y269560D01*
X695760Y271186D01*
X693770Y272335D01*
X691549Y272930D01*
D02*
G37*
G36*
X671149D02*
X668851D01*
X666630Y272335D01*
X664640Y271186D01*
X663014Y269560D01*
X661865Y267570D01*
X661270Y265349D01*
Y263051D01*
X661865Y260830D01*
X663014Y258840D01*
X664640Y257214D01*
X666630Y256065D01*
X668851Y255470D01*
X671149D01*
X673370Y256065D01*
X675360Y257214D01*
X676986Y258840D01*
X678135Y260830D01*
X678730Y263051D01*
Y265349D01*
X678135Y267570D01*
X676986Y269560D01*
X675360Y271186D01*
X673370Y272335D01*
X671149Y272930D01*
D02*
G37*
G36*
X650749D02*
X648451D01*
X646230Y272335D01*
X644240Y271186D01*
X642614Y269560D01*
X641465Y267570D01*
X640870Y265349D01*
Y263051D01*
X641465Y260830D01*
X642614Y258840D01*
X644240Y257214D01*
X646230Y256065D01*
X648451Y255470D01*
X650749D01*
X652970Y256065D01*
X654960Y257214D01*
X656586Y258840D01*
X657735Y260830D01*
X658330Y263051D01*
Y265349D01*
X657735Y267570D01*
X656586Y269560D01*
X654960Y271186D01*
X652970Y272335D01*
X650749Y272930D01*
D02*
G37*
G36*
X630349D02*
X628051D01*
X625830Y272335D01*
X623840Y271186D01*
X622214Y269560D01*
X621065Y267570D01*
X620470Y265349D01*
Y263051D01*
X621065Y260830D01*
X622214Y258840D01*
X623840Y257214D01*
X625830Y256065D01*
X628051Y255470D01*
X630349D01*
X632570Y256065D01*
X634560Y257214D01*
X636186Y258840D01*
X637335Y260830D01*
X637930Y263051D01*
Y265349D01*
X637335Y267570D01*
X636186Y269560D01*
X634560Y271186D01*
X632570Y272335D01*
X630349Y272930D01*
D02*
G37*
G36*
X494049D02*
X491751D01*
X489530Y272335D01*
X487540Y271186D01*
X485914Y269560D01*
X484765Y267570D01*
X484170Y265349D01*
Y263051D01*
X484765Y260830D01*
X485914Y258840D01*
X487540Y257214D01*
X489530Y256065D01*
X491751Y255470D01*
X494049D01*
X496270Y256065D01*
X498260Y257214D01*
X499886Y258840D01*
X501035Y260830D01*
X501630Y263051D01*
Y265349D01*
X501035Y267570D01*
X499886Y269560D01*
X498260Y271186D01*
X496270Y272335D01*
X494049Y272930D01*
D02*
G37*
G36*
X473649D02*
X471351D01*
X469130Y272335D01*
X467140Y271186D01*
X465514Y269560D01*
X464365Y267570D01*
X463770Y265349D01*
Y263051D01*
X464365Y260830D01*
X465514Y258840D01*
X467140Y257214D01*
X469130Y256065D01*
X471351Y255470D01*
X473649D01*
X475870Y256065D01*
X477860Y257214D01*
X479486Y258840D01*
X480635Y260830D01*
X481230Y263051D01*
Y265349D01*
X480635Y267570D01*
X479486Y269560D01*
X477860Y271186D01*
X475870Y272335D01*
X473649Y272930D01*
D02*
G37*
G36*
X453249D02*
X450951D01*
X448730Y272335D01*
X446740Y271186D01*
X445114Y269560D01*
X443965Y267570D01*
X443370Y265349D01*
Y263051D01*
X443965Y260830D01*
X445114Y258840D01*
X446740Y257214D01*
X448730Y256065D01*
X450951Y255470D01*
X453249D01*
X455470Y256065D01*
X457460Y257214D01*
X459086Y258840D01*
X460235Y260830D01*
X460830Y263051D01*
Y265349D01*
X460235Y267570D01*
X459086Y269560D01*
X457460Y271186D01*
X455470Y272335D01*
X453249Y272930D01*
D02*
G37*
G36*
X432849D02*
X430551D01*
X428330Y272335D01*
X426340Y271186D01*
X424714Y269560D01*
X423565Y267570D01*
X422970Y265349D01*
Y263051D01*
X423565Y260830D01*
X424714Y258840D01*
X426340Y257214D01*
X428330Y256065D01*
X430551Y255470D01*
X432849D01*
X435070Y256065D01*
X437060Y257214D01*
X438686Y258840D01*
X439835Y260830D01*
X440430Y263051D01*
Y265349D01*
X439835Y267570D01*
X438686Y269560D01*
X437060Y271186D01*
X435070Y272335D01*
X432849Y272930D01*
D02*
G37*
G36*
X296549D02*
X294251D01*
X292030Y272335D01*
X290040Y271186D01*
X288414Y269560D01*
X287265Y267570D01*
X286670Y265349D01*
Y263051D01*
X287265Y260830D01*
X288414Y258840D01*
X290040Y257214D01*
X292030Y256065D01*
X294251Y255470D01*
X296549D01*
X298770Y256065D01*
X300760Y257214D01*
X302386Y258840D01*
X303535Y260830D01*
X304130Y263051D01*
Y265349D01*
X303535Y267570D01*
X302386Y269560D01*
X300760Y271186D01*
X298770Y272335D01*
X296549Y272930D01*
D02*
G37*
G36*
X276149D02*
X273851D01*
X271630Y272335D01*
X269640Y271186D01*
X268014Y269560D01*
X266865Y267570D01*
X266270Y265349D01*
Y263051D01*
X266865Y260830D01*
X268014Y258840D01*
X269640Y257214D01*
X271630Y256065D01*
X273851Y255470D01*
X276149D01*
X278370Y256065D01*
X280360Y257214D01*
X281986Y258840D01*
X283135Y260830D01*
X283730Y263051D01*
Y265349D01*
X283135Y267570D01*
X281986Y269560D01*
X280360Y271186D01*
X278370Y272335D01*
X276149Y272930D01*
D02*
G37*
G36*
X255749D02*
X253451D01*
X251230Y272335D01*
X249240Y271186D01*
X247614Y269560D01*
X246465Y267570D01*
X245870Y265349D01*
Y263051D01*
X246465Y260830D01*
X247614Y258840D01*
X249240Y257214D01*
X251230Y256065D01*
X253451Y255470D01*
X255749D01*
X257970Y256065D01*
X259960Y257214D01*
X261586Y258840D01*
X262735Y260830D01*
X263330Y263051D01*
Y265349D01*
X262735Y267570D01*
X261586Y269560D01*
X259960Y271186D01*
X257970Y272335D01*
X255749Y272930D01*
D02*
G37*
G36*
X235349D02*
X233051D01*
X230830Y272335D01*
X228840Y271186D01*
X227214Y269560D01*
X226065Y267570D01*
X225470Y265349D01*
Y263051D01*
X226065Y260830D01*
X227214Y258840D01*
X228840Y257214D01*
X230830Y256065D01*
X233051Y255470D01*
X235349D01*
X237570Y256065D01*
X239560Y257214D01*
X241186Y258840D01*
X242335Y260830D01*
X242930Y263051D01*
Y265349D01*
X242335Y267570D01*
X241186Y269560D01*
X239560Y271186D01*
X237570Y272335D01*
X235349Y272930D01*
D02*
G37*
G36*
X722149Y298330D02*
X719851D01*
X717630Y297735D01*
X715640Y296586D01*
X714014Y294960D01*
X712865Y292970D01*
X712270Y290749D01*
Y288451D01*
X712865Y286230D01*
X714014Y284240D01*
X714653Y283601D01*
X714761Y283320D01*
X716096Y281911D01*
X716606Y281297D01*
X717046Y280707D01*
X717406Y280156D01*
X717687Y279650D01*
X717893Y279192D01*
X718028Y278788D01*
X718101Y278439D01*
X718131Y278023D01*
X718196Y277893D01*
Y275561D01*
X717096Y274461D01*
X716957Y274415D01*
X716642Y274142D01*
X716344Y273947D01*
X715962Y273757D01*
X715494Y273579D01*
X714937Y273419D01*
X714293Y273284D01*
X713583Y273181D01*
X711842Y273061D01*
X710860Y273053D01*
X710569Y272930D01*
X709651D01*
X707430Y272335D01*
X705440Y271186D01*
X703814Y269560D01*
X702665Y267570D01*
X702070Y265349D01*
Y264446D01*
X701947Y264171D01*
X701896Y262231D01*
X701822Y261435D01*
X701715Y260707D01*
X701581Y260063D01*
X701421Y259506D01*
X701243Y259038D01*
X701053Y258656D01*
X700858Y258358D01*
X700585Y258043D01*
X700539Y257904D01*
X694189Y251554D01*
X625411D01*
X619061Y257904D01*
X619015Y258043D01*
X618742Y258358D01*
X618547Y258656D01*
X618357Y259038D01*
X618179Y259506D01*
X618019Y260063D01*
X617884Y260707D01*
X617781Y261417D01*
X617661Y263158D01*
X617653Y264140D01*
X617530Y264431D01*
Y265349D01*
X616935Y267570D01*
X615786Y269560D01*
X614160Y271186D01*
X612170Y272335D01*
X609949Y272930D01*
X609046D01*
X608771Y273053D01*
X606831Y273104D01*
X606035Y273178D01*
X605307Y273284D01*
X604663Y273419D01*
X604106Y273579D01*
X603638Y273757D01*
X603256Y273947D01*
X602958Y274142D01*
X602643Y274415D01*
X602504Y274461D01*
X601404Y275561D01*
Y277893D01*
X601469Y278023D01*
X601499Y278439D01*
X601572Y278788D01*
X601707Y279192D01*
X601913Y279650D01*
X602194Y280156D01*
X602554Y280706D01*
X602982Y281281D01*
X604129Y282598D01*
X604818Y283298D01*
X604936Y283591D01*
X605586Y284240D01*
X606735Y286230D01*
X607330Y288451D01*
Y290749D01*
X606735Y292970D01*
X605586Y294960D01*
X603960Y296586D01*
X601970Y297735D01*
X599749Y298330D01*
X597451D01*
X595230Y297735D01*
X593240Y296586D01*
X591614Y294960D01*
X590465Y292970D01*
X589870Y290749D01*
Y288451D01*
X590465Y286230D01*
X591614Y284240D01*
X592253Y283601D01*
X592361Y283320D01*
X593696Y281911D01*
X594206Y281297D01*
X594646Y280707D01*
X595006Y280156D01*
X595287Y279650D01*
X595493Y279192D01*
X595628Y278788D01*
X595700Y278439D01*
X595731Y278023D01*
X595796Y277893D01*
Y274400D01*
X596010Y273327D01*
X596617Y272417D01*
X598539Y270496D01*
X598585Y270357D01*
X598858Y270042D01*
X599053Y269744D01*
X599243Y269362D01*
X599421Y268894D01*
X599581Y268337D01*
X599715Y267693D01*
X599819Y266983D01*
X599939Y265242D01*
X599947Y264260D01*
X600070Y263969D01*
Y263051D01*
X600665Y260830D01*
X601814Y258840D01*
X603440Y257214D01*
X605430Y256065D01*
X607651Y255470D01*
X608554D01*
X608829Y255347D01*
X610769Y255296D01*
X611565Y255222D01*
X612293Y255116D01*
X612937Y254981D01*
X613494Y254821D01*
X613962Y254643D01*
X614344Y254453D01*
X614642Y254258D01*
X614957Y253985D01*
X615096Y253939D01*
X622267Y246767D01*
X623177Y246160D01*
X624250Y245946D01*
X695350D01*
X696423Y246160D01*
X697333Y246767D01*
X704504Y253939D01*
X704643Y253985D01*
X704958Y254258D01*
X705256Y254453D01*
X705638Y254643D01*
X706106Y254821D01*
X706663Y254981D01*
X707307Y255116D01*
X708017Y255219D01*
X709758Y255339D01*
X710740Y255347D01*
X711031Y255470D01*
X711949D01*
X714170Y256065D01*
X716160Y257214D01*
X717786Y258840D01*
X718935Y260830D01*
X719530Y263051D01*
Y263954D01*
X719653Y264229D01*
X719704Y266169D01*
X719778Y266965D01*
X719884Y267693D01*
X720019Y268337D01*
X720179Y268894D01*
X720357Y269362D01*
X720547Y269744D01*
X720742Y270042D01*
X721015Y270357D01*
X721061Y270496D01*
X722983Y272417D01*
X723590Y273327D01*
X723804Y274400D01*
Y277893D01*
X723869Y278023D01*
X723900Y278439D01*
X723972Y278788D01*
X724107Y279192D01*
X724313Y279650D01*
X724594Y280156D01*
X724954Y280706D01*
X725382Y281281D01*
X726529Y282598D01*
X727218Y283298D01*
X727337Y283591D01*
X727986Y284240D01*
X729135Y286230D01*
X729730Y288451D01*
Y290749D01*
X729135Y292970D01*
X727986Y294960D01*
X726360Y296586D01*
X724370Y297735D01*
X722149Y298330D01*
D02*
G37*
G36*
X524649D02*
X522351D01*
X520130Y297735D01*
X518140Y296586D01*
X516514Y294960D01*
X515365Y292970D01*
X514770Y290749D01*
Y288451D01*
X515365Y286230D01*
X516514Y284240D01*
X517153Y283601D01*
X517261Y283320D01*
X518596Y281911D01*
X519106Y281297D01*
X519546Y280707D01*
X519906Y280156D01*
X520187Y279650D01*
X520393Y279192D01*
X520528Y278788D01*
X520601Y278439D01*
X520631Y278023D01*
X520696Y277893D01*
Y275561D01*
X519596Y274461D01*
X519457Y274415D01*
X519142Y274142D01*
X518844Y273947D01*
X518462Y273757D01*
X517994Y273579D01*
X517437Y273419D01*
X516793Y273284D01*
X516083Y273181D01*
X514342Y273061D01*
X513360Y273053D01*
X513069Y272930D01*
X512151D01*
X509930Y272335D01*
X507940Y271186D01*
X506314Y269560D01*
X505165Y267570D01*
X504570Y265349D01*
Y264446D01*
X504447Y264171D01*
X504396Y262231D01*
X504322Y261435D01*
X504216Y260707D01*
X504081Y260063D01*
X503921Y259506D01*
X503743Y259038D01*
X503553Y258656D01*
X503358Y258358D01*
X503085Y258043D01*
X503039Y257904D01*
X496189Y251054D01*
X428411D01*
X421561Y257904D01*
X421515Y258043D01*
X421242Y258358D01*
X421047Y258656D01*
X420857Y259038D01*
X420679Y259506D01*
X420519Y260063D01*
X420384Y260707D01*
X420281Y261417D01*
X420161Y263158D01*
X420153Y264140D01*
X420030Y264431D01*
Y265349D01*
X419435Y267570D01*
X418286Y269560D01*
X416660Y271186D01*
X414670Y272335D01*
X412449Y272930D01*
X411546D01*
X411271Y273053D01*
X409331Y273104D01*
X408535Y273178D01*
X407807Y273284D01*
X407163Y273419D01*
X406606Y273579D01*
X406138Y273757D01*
X405756Y273947D01*
X405458Y274142D01*
X405143Y274415D01*
X405004Y274461D01*
X403904Y275561D01*
Y277893D01*
X403969Y278023D01*
X403999Y278439D01*
X404072Y278788D01*
X404207Y279192D01*
X404413Y279650D01*
X404694Y280156D01*
X405054Y280706D01*
X405482Y281281D01*
X406629Y282598D01*
X407318Y283298D01*
X407436Y283591D01*
X408086Y284240D01*
X409235Y286230D01*
X409830Y288451D01*
Y290749D01*
X409235Y292970D01*
X408086Y294960D01*
X406460Y296586D01*
X404470Y297735D01*
X402249Y298330D01*
X399951D01*
X397730Y297735D01*
X395740Y296586D01*
X394114Y294960D01*
X392965Y292970D01*
X392370Y290749D01*
Y288451D01*
X392965Y286230D01*
X394114Y284240D01*
X394753Y283601D01*
X394861Y283320D01*
X396196Y281911D01*
X396706Y281297D01*
X397146Y280707D01*
X397506Y280156D01*
X397787Y279650D01*
X397993Y279192D01*
X398128Y278788D01*
X398200Y278439D01*
X398231Y278023D01*
X398296Y277893D01*
Y274400D01*
X398510Y273327D01*
X399117Y272417D01*
X401039Y270496D01*
X401085Y270357D01*
X401358Y270042D01*
X401553Y269744D01*
X401743Y269362D01*
X401921Y268894D01*
X402081Y268337D01*
X402215Y267693D01*
X402319Y266983D01*
X402439Y265242D01*
X402447Y264260D01*
X402570Y263969D01*
Y263051D01*
X403165Y260830D01*
X404314Y258840D01*
X405940Y257214D01*
X407930Y256065D01*
X410151Y255470D01*
X411054D01*
X411329Y255347D01*
X413269Y255296D01*
X414065Y255222D01*
X414793Y255116D01*
X415437Y254981D01*
X415994Y254821D01*
X416462Y254643D01*
X416844Y254453D01*
X417142Y254258D01*
X417457Y253985D01*
X417596Y253939D01*
X425267Y246267D01*
X426177Y245660D01*
X427250Y245446D01*
X497350D01*
X498423Y245660D01*
X499333Y246267D01*
X507004Y253939D01*
X507143Y253985D01*
X507458Y254258D01*
X507756Y254453D01*
X508138Y254643D01*
X508606Y254821D01*
X509163Y254981D01*
X509807Y255116D01*
X510517Y255219D01*
X512258Y255339D01*
X513240Y255347D01*
X513531Y255470D01*
X514449D01*
X516670Y256065D01*
X518660Y257214D01*
X520286Y258840D01*
X521435Y260830D01*
X522030Y263051D01*
Y263954D01*
X522153Y264229D01*
X522204Y266169D01*
X522278Y266965D01*
X522384Y267693D01*
X522519Y268337D01*
X522679Y268894D01*
X522857Y269362D01*
X523047Y269744D01*
X523242Y270042D01*
X523515Y270357D01*
X523561Y270496D01*
X525483Y272417D01*
X526090Y273327D01*
X526304Y274400D01*
Y277893D01*
X526369Y278023D01*
X526400Y278439D01*
X526473Y278788D01*
X526607Y279192D01*
X526813Y279650D01*
X527094Y280156D01*
X527454Y280706D01*
X527882Y281281D01*
X529029Y282598D01*
X529718Y283298D01*
X529837Y283591D01*
X530486Y284240D01*
X531635Y286230D01*
X532230Y288451D01*
Y290749D01*
X531635Y292970D01*
X530486Y294960D01*
X528860Y296586D01*
X526870Y297735D01*
X524649Y298330D01*
D02*
G37*
G36*
X327149D02*
X324851D01*
X322630Y297735D01*
X320640Y296586D01*
X319014Y294960D01*
X317865Y292970D01*
X317270Y290749D01*
Y288451D01*
X317865Y286230D01*
X319014Y284240D01*
X319653Y283601D01*
X319761Y283320D01*
X321096Y281911D01*
X321606Y281297D01*
X322046Y280707D01*
X322406Y280156D01*
X322687Y279650D01*
X322893Y279192D01*
X323028Y278788D01*
X323100Y278439D01*
X323131Y278023D01*
X323196Y277893D01*
Y275561D01*
X322096Y274461D01*
X321957Y274415D01*
X321642Y274142D01*
X321344Y273947D01*
X320962Y273757D01*
X320494Y273579D01*
X319937Y273419D01*
X319293Y273284D01*
X318583Y273181D01*
X316842Y273061D01*
X315860Y273053D01*
X315569Y272930D01*
X314651D01*
X312430Y272335D01*
X310440Y271186D01*
X308814Y269560D01*
X307665Y267570D01*
X307070Y265349D01*
Y264446D01*
X306947Y264171D01*
X306896Y262231D01*
X306822Y261435D01*
X306716Y260707D01*
X306581Y260063D01*
X306421Y259506D01*
X306243Y259038D01*
X306053Y258656D01*
X305858Y258358D01*
X305585Y258043D01*
X305539Y257904D01*
X298689Y251054D01*
X230911D01*
X224061Y257904D01*
X224015Y258043D01*
X223742Y258358D01*
X223547Y258656D01*
X223357Y259038D01*
X223179Y259506D01*
X223019Y260063D01*
X222885Y260707D01*
X222781Y261417D01*
X222661Y263158D01*
X222653Y264140D01*
X222530Y264431D01*
Y265349D01*
X221935Y267570D01*
X220786Y269560D01*
X219160Y271186D01*
X217170Y272335D01*
X214949Y272930D01*
X214046D01*
X213771Y273053D01*
X211831Y273104D01*
X211035Y273178D01*
X210307Y273284D01*
X209663Y273419D01*
X209106Y273579D01*
X208638Y273757D01*
X208256Y273947D01*
X207958Y274142D01*
X207643Y274415D01*
X207504Y274461D01*
X206404Y275561D01*
Y277893D01*
X206469Y278023D01*
X206500Y278439D01*
X206572Y278788D01*
X206707Y279192D01*
X206913Y279650D01*
X207194Y280156D01*
X207554Y280706D01*
X207982Y281281D01*
X209129Y282598D01*
X209818Y283298D01*
X209937Y283591D01*
X210586Y284240D01*
X211735Y286230D01*
X212330Y288451D01*
Y290749D01*
X211735Y292970D01*
X210586Y294960D01*
X208960Y296586D01*
X206970Y297735D01*
X204749Y298330D01*
X202451D01*
X200230Y297735D01*
X198240Y296586D01*
X196614Y294960D01*
X195465Y292970D01*
X194870Y290749D01*
Y288451D01*
X195465Y286230D01*
X196614Y284240D01*
X197253Y283601D01*
X197361Y283320D01*
X198696Y281911D01*
X199206Y281297D01*
X199646Y280707D01*
X200006Y280156D01*
X200287Y279650D01*
X200493Y279192D01*
X200628Y278788D01*
X200700Y278439D01*
X200731Y278023D01*
X200796Y277893D01*
Y274400D01*
X201010Y273327D01*
X201617Y272417D01*
X203539Y270496D01*
X203585Y270357D01*
X203858Y270042D01*
X204053Y269744D01*
X204243Y269362D01*
X204421Y268894D01*
X204581Y268337D01*
X204715Y267693D01*
X204819Y266983D01*
X204939Y265242D01*
X204947Y264260D01*
X205070Y263969D01*
Y263051D01*
X205665Y260830D01*
X206814Y258840D01*
X208440Y257214D01*
X210430Y256065D01*
X212651Y255470D01*
X213554D01*
X213829Y255347D01*
X215769Y255296D01*
X216565Y255222D01*
X217293Y255116D01*
X217937Y254981D01*
X218494Y254821D01*
X218962Y254643D01*
X219344Y254453D01*
X219642Y254258D01*
X219957Y253985D01*
X220096Y253939D01*
X227767Y246267D01*
X228677Y245660D01*
X229750Y245446D01*
X299850D01*
X300923Y245660D01*
X301833Y246267D01*
X309504Y253939D01*
X309643Y253985D01*
X309958Y254258D01*
X310256Y254453D01*
X310638Y254643D01*
X311106Y254821D01*
X311663Y254981D01*
X312307Y255116D01*
X313017Y255219D01*
X314758Y255339D01*
X315740Y255347D01*
X316031Y255470D01*
X316949D01*
X319170Y256065D01*
X321160Y257214D01*
X322786Y258840D01*
X323935Y260830D01*
X324530Y263051D01*
Y263954D01*
X324653Y264229D01*
X324704Y266169D01*
X324778Y266965D01*
X324884Y267693D01*
X325019Y268337D01*
X325179Y268894D01*
X325357Y269362D01*
X325547Y269744D01*
X325742Y270042D01*
X326015Y270357D01*
X326061Y270496D01*
X327983Y272417D01*
X328590Y273327D01*
X328804Y274400D01*
Y277893D01*
X328869Y278023D01*
X328900Y278439D01*
X328972Y278788D01*
X329107Y279192D01*
X329313Y279650D01*
X329594Y280156D01*
X329954Y280706D01*
X330382Y281281D01*
X331529Y282598D01*
X332218Y283298D01*
X332337Y283591D01*
X332986Y284240D01*
X334135Y286230D01*
X334730Y288451D01*
Y290749D01*
X334135Y292970D01*
X332986Y294960D01*
X331360Y296586D01*
X329370Y297735D01*
X327149Y298330D01*
D02*
G37*
G36*
X106185Y129000D02*
X103815D01*
X101526Y128387D01*
X101101Y128141D01*
X102454Y126789D01*
X98211Y122546D01*
X96859Y123899D01*
X96613Y123474D01*
X96000Y121185D01*
Y118815D01*
X96613Y116526D01*
X96859Y116101D01*
X98211Y117454D01*
X102454Y113212D01*
X101101Y111859D01*
X101526Y111613D01*
X103815Y111000D01*
X106185D01*
X108474Y111613D01*
X108899Y111859D01*
X107546Y113212D01*
X111788Y117454D01*
X113141Y116101D01*
X113387Y116526D01*
X114000Y118815D01*
Y121185D01*
X113387Y123474D01*
X113141Y123899D01*
X111788Y122546D01*
X107546Y126789D01*
X108899Y128141D01*
X108474Y128387D01*
X106185Y129000D01*
D02*
G37*
G36*
X770000Y171582D02*
X765842Y171255D01*
X761786Y170281D01*
X757932Y168685D01*
X754376Y166505D01*
X751204Y163796D01*
X748495Y160625D01*
X746315Y157068D01*
X744719Y153214D01*
X743745Y149158D01*
X743418Y145000D01*
X743745Y140842D01*
X744719Y136786D01*
X746315Y132932D01*
X748495Y129375D01*
X751204Y126204D01*
X754376Y123495D01*
X757932Y121315D01*
X761786Y119719D01*
X765842Y118745D01*
X770000Y118418D01*
X774158Y118745D01*
X778214Y119719D01*
X782068Y121315D01*
X785624Y123495D01*
X788796Y126204D01*
X791505Y129375D01*
X793685Y132932D01*
X795281Y136786D01*
X796255Y140842D01*
X796582Y145000D01*
X796255Y149158D01*
X795281Y153214D01*
X793685Y157068D01*
X791505Y160625D01*
X788796Y163796D01*
X785624Y166505D01*
X782068Y168685D01*
X778214Y170281D01*
X774158Y171255D01*
X770000Y171582D01*
D02*
G37*
G36*
X725024Y129300D02*
X721576D01*
X718195Y128628D01*
X715011Y127308D01*
X712144Y125393D01*
X709707Y122956D01*
X707792Y120089D01*
X706472Y116905D01*
X705800Y113524D01*
Y110076D01*
X706472Y106695D01*
X707792Y103511D01*
X709707Y100644D01*
X712144Y98207D01*
X715011Y96292D01*
X718195Y94972D01*
X721576Y94300D01*
X725024D01*
X728405Y94972D01*
X731589Y96292D01*
X734456Y98207D01*
X736893Y100644D01*
X738808Y103511D01*
X740127Y106695D01*
X740800Y110076D01*
Y113524D01*
X740127Y116905D01*
X738808Y120089D01*
X736893Y122956D01*
X734456Y125393D01*
X731589Y127308D01*
X728405Y128628D01*
X725024Y129300D01*
D02*
G37*
G36*
X598024D02*
X594576D01*
X591195Y128628D01*
X588011Y127308D01*
X585144Y125393D01*
X582707Y122956D01*
X580792Y120089D01*
X579473Y116905D01*
X578800Y113524D01*
Y110076D01*
X579473Y106695D01*
X580792Y103511D01*
X582707Y100644D01*
X585144Y98207D01*
X588011Y96292D01*
X591195Y94972D01*
X594576Y94300D01*
X598024D01*
X601405Y94972D01*
X604589Y96292D01*
X607456Y98207D01*
X609893Y100644D01*
X611808Y103511D01*
X613128Y106695D01*
X613800Y110076D01*
Y113524D01*
X613128Y116905D01*
X611808Y120089D01*
X609893Y122956D01*
X607456Y125393D01*
X604589Y127308D01*
X601405Y128628D01*
X598024Y129300D01*
D02*
G37*
G36*
X527524D02*
X524076D01*
X520695Y128628D01*
X517511Y127308D01*
X514644Y125393D01*
X512207Y122956D01*
X510292Y120089D01*
X508973Y116905D01*
X508300Y113524D01*
Y110076D01*
X508973Y106695D01*
X510292Y103511D01*
X512207Y100644D01*
X514644Y98207D01*
X517511Y96292D01*
X520695Y94972D01*
X524076Y94300D01*
X527524D01*
X530905Y94972D01*
X534089Y96292D01*
X536956Y98207D01*
X539393Y100644D01*
X541308Y103511D01*
X542627Y106695D01*
X543300Y110076D01*
Y113524D01*
X542627Y116905D01*
X541308Y120089D01*
X539393Y122956D01*
X536956Y125393D01*
X534089Y127308D01*
X530905Y128628D01*
X527524Y129300D01*
D02*
G37*
G36*
X400524D02*
X397076D01*
X393695Y128628D01*
X390511Y127308D01*
X387644Y125393D01*
X385207Y122956D01*
X383292Y120089D01*
X381973Y116905D01*
X381300Y113524D01*
Y110076D01*
X381973Y106695D01*
X383292Y103511D01*
X385207Y100644D01*
X387644Y98207D01*
X390511Y96292D01*
X393695Y94972D01*
X397076Y94300D01*
X400524D01*
X403905Y94972D01*
X407089Y96292D01*
X409956Y98207D01*
X412393Y100644D01*
X414308Y103511D01*
X415628Y106695D01*
X416300Y110076D01*
Y113524D01*
X415628Y116905D01*
X414308Y120089D01*
X412393Y122956D01*
X409956Y125393D01*
X407089Y127308D01*
X403905Y128628D01*
X400524Y129300D01*
D02*
G37*
G36*
X330024D02*
X326576D01*
X323195Y128628D01*
X320011Y127308D01*
X317144Y125393D01*
X314707Y122956D01*
X312792Y120089D01*
X311472Y116905D01*
X310800Y113524D01*
Y110076D01*
X311472Y106695D01*
X312792Y103511D01*
X314707Y100644D01*
X317144Y98207D01*
X320011Y96292D01*
X323195Y94972D01*
X326576Y94300D01*
X330024D01*
X333405Y94972D01*
X336589Y96292D01*
X339456Y98207D01*
X341893Y100644D01*
X343808Y103511D01*
X345127Y106695D01*
X345800Y110076D01*
Y113524D01*
X345127Y116905D01*
X343808Y120089D01*
X341893Y122956D01*
X339456Y125393D01*
X336589Y127308D01*
X333405Y128628D01*
X330024Y129300D01*
D02*
G37*
G36*
X203024D02*
X199576D01*
X196195Y128628D01*
X193011Y127308D01*
X190144Y125393D01*
X187707Y122956D01*
X185792Y120089D01*
X184473Y116905D01*
X183800Y113524D01*
Y110076D01*
X184473Y106695D01*
X185792Y103511D01*
X187707Y100644D01*
X190144Y98207D01*
X193011Y96292D01*
X196195Y94972D01*
X199576Y94300D01*
X203024D01*
X206405Y94972D01*
X209589Y96292D01*
X212456Y98207D01*
X214893Y100644D01*
X216808Y103511D01*
X218127Y106695D01*
X218800Y110076D01*
Y113524D01*
X218127Y116905D01*
X216808Y120089D01*
X214893Y122956D01*
X212456Y125393D01*
X209589Y127308D01*
X206405Y128628D01*
X203024Y129300D01*
D02*
G37*
G36*
X114000Y99000D02*
X96000D01*
Y81000D01*
X114000D01*
Y99000D01*
D02*
G37*
G36*
X742198Y93275D02*
X738702D01*
X735326Y92370D01*
X732299Y90623D01*
X729827Y88151D01*
X728080Y85124D01*
X727175Y81748D01*
Y78252D01*
X728080Y74876D01*
X729827Y71849D01*
X732299Y69377D01*
X735326Y67630D01*
X738702Y66725D01*
X742198D01*
X745574Y67630D01*
X748601Y69377D01*
X751073Y71849D01*
X752820Y74876D01*
X753725Y78252D01*
Y81748D01*
X752820Y85124D01*
X751073Y88151D01*
X748601Y90623D01*
X745574Y92370D01*
X742198Y93275D01*
D02*
G37*
G36*
X580898D02*
X577402D01*
X574026Y92370D01*
X570999Y90623D01*
X568527Y88151D01*
X566780Y85124D01*
X565875Y81748D01*
Y78252D01*
X566780Y74876D01*
X568527Y71849D01*
X570999Y69377D01*
X574026Y67630D01*
X577402Y66725D01*
X580898D01*
X584274Y67630D01*
X587301Y69377D01*
X589773Y71849D01*
X591520Y74876D01*
X592425Y78252D01*
Y81748D01*
X591520Y85124D01*
X589773Y88151D01*
X587301Y90623D01*
X584274Y92370D01*
X580898Y93275D01*
D02*
G37*
G36*
X544698D02*
X541202D01*
X537826Y92370D01*
X534799Y90623D01*
X532327Y88151D01*
X530580Y85124D01*
X529675Y81748D01*
Y78252D01*
X530580Y74876D01*
X532327Y71849D01*
X534799Y69377D01*
X537826Y67630D01*
X541202Y66725D01*
X544698D01*
X548074Y67630D01*
X551101Y69377D01*
X553573Y71849D01*
X555320Y74876D01*
X556225Y78252D01*
Y81748D01*
X555320Y85124D01*
X553573Y88151D01*
X551101Y90623D01*
X548074Y92370D01*
X544698Y93275D01*
D02*
G37*
G36*
X383398D02*
X379902D01*
X376526Y92370D01*
X373499Y90623D01*
X371027Y88151D01*
X369280Y85124D01*
X368375Y81748D01*
Y78252D01*
X369280Y74876D01*
X371027Y71849D01*
X373499Y69377D01*
X376526Y67630D01*
X379902Y66725D01*
X383398D01*
X386774Y67630D01*
X389801Y69377D01*
X392273Y71849D01*
X394020Y74876D01*
X394925Y78252D01*
Y81748D01*
X394020Y85124D01*
X392273Y88151D01*
X389801Y90623D01*
X386774Y92370D01*
X383398Y93275D01*
D02*
G37*
G36*
X347198D02*
X343702D01*
X340326Y92370D01*
X337299Y90623D01*
X334827Y88151D01*
X333080Y85124D01*
X332175Y81748D01*
Y78252D01*
X333080Y74876D01*
X334827Y71849D01*
X337299Y69377D01*
X340326Y67630D01*
X343702Y66725D01*
X347198D01*
X350574Y67630D01*
X353601Y69377D01*
X356073Y71849D01*
X357820Y74876D01*
X358725Y78252D01*
Y81748D01*
X357820Y85124D01*
X356073Y88151D01*
X353601Y90623D01*
X350574Y92370D01*
X347198Y93275D01*
D02*
G37*
G36*
X185898D02*
X182402D01*
X179026Y92370D01*
X175999Y90623D01*
X173527Y88151D01*
X171780Y85124D01*
X170875Y81748D01*
Y78252D01*
X171780Y74876D01*
X173527Y71849D01*
X175999Y69377D01*
X179026Y67630D01*
X182402Y66725D01*
X185898D01*
X189274Y67630D01*
X192301Y69377D01*
X194773Y71849D01*
X196520Y74876D01*
X197425Y78252D01*
Y81748D01*
X196520Y85124D01*
X194773Y88151D01*
X192301Y90623D01*
X189274Y92370D01*
X185898Y93275D01*
D02*
G37*
G36*
X106625Y63300D02*
X103375D01*
X100187Y62666D01*
X97184Y61422D01*
X94482Y59616D01*
X92184Y57318D01*
X90378Y54616D01*
X89134Y51613D01*
X88500Y48425D01*
Y45175D01*
X89134Y41987D01*
X90378Y38984D01*
X92184Y36282D01*
X94482Y33984D01*
X97184Y32178D01*
X100187Y30934D01*
X103375Y30300D01*
X106625D01*
X109813Y30934D01*
X112816Y32178D01*
X115518Y33984D01*
X117816Y36282D01*
X119622Y38984D01*
X120866Y41987D01*
X121500Y45175D01*
Y48425D01*
X120866Y51613D01*
X119622Y54616D01*
X117816Y57318D01*
X115518Y59616D01*
X112816Y61422D01*
X109813Y62666D01*
X106625Y63300D01*
D02*
G37*
%LPD*%
G36*
X408124Y577203D02*
X408309Y577056D01*
X408509Y576925D01*
X408723Y576813D01*
X408953Y576717D01*
X409197Y576639D01*
X409456Y576578D01*
X409730Y576535D01*
X410018Y576509D01*
X410322Y576500D01*
X410261Y574000D01*
X409959Y573992D01*
X409670Y573967D01*
X409395Y573925D01*
X409134Y573867D01*
X408887Y573792D01*
X408654Y573701D01*
X408435Y573593D01*
X408230Y573468D01*
X408038Y573327D01*
X407861Y573169D01*
X407953Y577368D01*
X408124Y577203D01*
D02*
G37*
G36*
X436108Y573150D02*
X435934Y573312D01*
X435746Y573456D01*
X435543Y573583D01*
X435326Y573694D01*
X435095Y573787D01*
X434849Y573864D01*
X434589Y573923D01*
X434315Y573966D01*
X434026Y573992D01*
X433723Y574000D01*
Y576500D01*
X434026Y576508D01*
X434315Y576534D01*
X434589Y576576D01*
X434849Y576636D01*
X435095Y576712D01*
X435326Y576806D01*
X435543Y576917D01*
X435746Y577044D01*
X435934Y577188D01*
X436108Y577350D01*
Y573150D01*
D02*
G37*
G36*
X538540Y549229D02*
X538409Y549328D01*
X538256Y549416D01*
X538081Y549495D01*
X537886Y549562D01*
X537669Y549620D01*
X537430Y549667D01*
X537171Y549703D01*
X536587Y549745D01*
X536263Y549750D01*
X535973Y552750D01*
X536295Y552757D01*
X536872Y552810D01*
X537128Y552856D01*
X537361Y552916D01*
X537571Y552989D01*
X537759Y553075D01*
X537925Y553175D01*
X538069Y553288D01*
X538190Y553414D01*
X538540Y549229D01*
D02*
G37*
G36*
X309844Y323184D02*
X309544Y322817D01*
X309276Y322352D01*
X309042Y321788D01*
X308840Y321126D01*
X308672Y320365D01*
X308536Y319505D01*
X308365Y317488D01*
X308328Y316332D01*
X308325Y315077D01*
X300677Y322725D01*
X301932Y322728D01*
X305105Y322937D01*
X305965Y323072D01*
X306726Y323240D01*
X307388Y323442D01*
X307952Y323676D01*
X308417Y323944D01*
X308784Y324244D01*
X309844Y323184D01*
D02*
G37*
G36*
X326197Y539209D02*
X326382Y539062D01*
X326582Y538932D01*
X326797Y538819D01*
X327026Y538723D01*
X327271Y538645D01*
X327530Y538584D01*
X327803Y538541D01*
X328092Y538515D01*
X328396Y538506D01*
X328337Y536006D01*
X328034Y535998D01*
X327745Y535973D01*
X327470Y535931D01*
X327209Y535873D01*
X326962Y535798D01*
X326729Y535707D01*
X326510Y535599D01*
X326305Y535474D01*
X326114Y535333D01*
X325937Y535175D01*
X326027Y539374D01*
X326197Y539209D01*
D02*
G37*
G36*
X354613Y535138D02*
X354443Y535303D01*
X354258Y535451D01*
X354058Y535581D01*
X353843Y535694D01*
X353614Y535789D01*
X353369Y535867D01*
X353110Y535928D01*
X352836Y535971D01*
X352548Y535998D01*
X352244Y536006D01*
X352303Y538506D01*
X352606Y538515D01*
X352895Y538540D01*
X353170Y538581D01*
X353431Y538639D01*
X353678Y538714D01*
X353911Y538806D01*
X354130Y538913D01*
X354335Y539038D01*
X354526Y539179D01*
X354703Y539338D01*
X354613Y535138D01*
D02*
G37*
G36*
X758970Y535500D02*
X758602Y535495D01*
X757927Y535431D01*
X757620Y535372D01*
X757333Y535295D01*
X757067Y535201D01*
X756821Y535088D01*
X756595Y534958D01*
X756389Y534809D01*
X756204Y534643D01*
X755143Y535704D01*
X755309Y535889D01*
X755458Y536095D01*
X755588Y536320D01*
X755701Y536567D01*
X755795Y536833D01*
X755872Y537120D01*
X755931Y537427D01*
X755972Y537754D01*
X755995Y538102D01*
X756000Y538470D01*
X758970Y535500D01*
D02*
G37*
G36*
X523505Y530352D02*
X523569Y529677D01*
X523628Y529370D01*
X523705Y529083D01*
X523799Y528817D01*
X523912Y528571D01*
X524042Y528345D01*
X524191Y528139D01*
X524357Y527954D01*
X523296Y526893D01*
X523111Y527059D01*
X522905Y527208D01*
X522679Y527338D01*
X522433Y527451D01*
X522167Y527545D01*
X521880Y527622D01*
X521573Y527681D01*
X521246Y527722D01*
X520898Y527745D01*
X520530Y527750D01*
X523500Y530720D01*
X523505Y530352D01*
D02*
G37*
G36*
X435398Y525822D02*
X435030Y525817D01*
X434355Y525753D01*
X434048Y525694D01*
X433761Y525617D01*
X433495Y525523D01*
X433248Y525410D01*
X433022Y525280D01*
X432817Y525131D01*
X432631Y524965D01*
X431571Y526026D01*
X431737Y526211D01*
X431885Y526417D01*
X432016Y526643D01*
X432128Y526889D01*
X432223Y527155D01*
X432300Y527442D01*
X432359Y527749D01*
X432400Y528077D01*
X432423Y528424D01*
X432428Y528792D01*
X435398Y525822D01*
D02*
G37*
G36*
X514254Y524763D02*
X513822Y524240D01*
X513647Y523981D01*
X513498Y523724D01*
X513377Y523469D01*
X513282Y523215D01*
X513214Y522963D01*
X513174Y522713D01*
X513161Y522464D01*
X511660D01*
X511647Y522713D01*
X511606Y522963D01*
X511539Y523215D01*
X511445Y523469D01*
X511323Y523724D01*
X511175Y523981D01*
X510999Y524240D01*
X510797Y524500D01*
X510567Y524763D01*
X510311Y525026D01*
X514510D01*
X514254Y524763D01*
D02*
G37*
G36*
X442755Y521102D02*
X442819Y520427D01*
X442878Y520120D01*
X442955Y519833D01*
X443049Y519567D01*
X443162Y519320D01*
X443292Y519095D01*
X443441Y518889D01*
X443607Y518704D01*
X442546Y517643D01*
X442361Y517809D01*
X442155Y517958D01*
X441930Y518088D01*
X441683Y518201D01*
X441417Y518295D01*
X441130Y518372D01*
X440823Y518431D01*
X440495Y518472D01*
X440148Y518495D01*
X439780Y518500D01*
X442750Y521470D01*
X442755Y521102D01*
D02*
G37*
G36*
X529514Y514206D02*
X529554Y513956D01*
X529622Y513704D01*
X529716Y513450D01*
X529837Y513195D01*
X529986Y512938D01*
X530162Y512679D01*
X530364Y512418D01*
X530593Y512156D01*
X530850Y511892D01*
X526650D01*
X526907Y512156D01*
X527338Y512679D01*
X527514Y512938D01*
X527663Y513195D01*
X527784Y513450D01*
X527878Y513704D01*
X527946Y513956D01*
X527986Y514206D01*
X528000Y514455D01*
X529500D01*
X529514Y514206D01*
D02*
G37*
G36*
X486791Y511638D02*
X486977Y511452D01*
X487174Y511287D01*
X487380Y511145D01*
X487597Y511024D01*
X487824Y510925D01*
X488061Y510849D01*
X488308Y510794D01*
X488565Y510761D01*
X488833Y510750D01*
Y509250D01*
X488565Y509239D01*
X488308Y509206D01*
X488061Y509151D01*
X487824Y509075D01*
X487597Y508976D01*
X487380Y508855D01*
X487174Y508713D01*
X486977Y508548D01*
X486791Y508362D01*
X486614Y508153D01*
Y511847D01*
X486791Y511638D01*
D02*
G37*
G36*
X455255Y505852D02*
X455319Y505177D01*
X455378Y504870D01*
X455455Y504583D01*
X455549Y504317D01*
X455662Y504071D01*
X455792Y503845D01*
X455941Y503639D01*
X456107Y503454D01*
X455046Y502393D01*
X454861Y502559D01*
X454655Y502708D01*
X454430Y502838D01*
X454183Y502951D01*
X453917Y503045D01*
X453630Y503122D01*
X453323Y503181D01*
X452995Y503222D01*
X452648Y503245D01*
X452280Y503250D01*
X455250Y506220D01*
X455255Y505852D01*
D02*
G37*
G36*
X520389Y504941D02*
X520595Y504792D01*
X520821Y504662D01*
X521067Y504549D01*
X521333Y504455D01*
X521620Y504378D01*
X521927Y504319D01*
X522254Y504278D01*
X522602Y504255D01*
X522970Y504250D01*
X520000Y501280D01*
X519995Y501648D01*
X519931Y502323D01*
X519872Y502630D01*
X519795Y502917D01*
X519701Y503183D01*
X519588Y503429D01*
X519458Y503655D01*
X519309Y503861D01*
X519143Y504046D01*
X520204Y505107D01*
X520389Y504941D01*
D02*
G37*
G36*
X455384Y492894D02*
X455622Y492654D01*
X455863Y492442D01*
X456105Y492258D01*
X456349Y492103D01*
X456595Y491976D01*
X456843Y491877D01*
X457093Y491806D01*
X457345Y491764D01*
X457599Y491750D01*
X457473Y490250D01*
X457231Y490237D01*
X456984Y490199D01*
X456731Y490135D01*
X456472Y490046D01*
X456209Y489932D01*
X455939Y489791D01*
X455665Y489626D01*
X455384Y489435D01*
X454808Y488976D01*
X455148Y493163D01*
X455384Y492894D01*
D02*
G37*
G36*
X447342Y491362D02*
X447406Y490687D01*
X447465Y490380D01*
X447542Y490093D01*
X447637Y489827D01*
X447749Y489581D01*
X447880Y489355D01*
X448028Y489149D01*
X448194Y488964D01*
X447134Y487903D01*
X446948Y488069D01*
X446743Y488218D01*
X446517Y488348D01*
X446270Y488461D01*
X446004Y488555D01*
X445717Y488632D01*
X445410Y488691D01*
X445083Y488732D01*
X444735Y488755D01*
X444367Y488760D01*
X447337Y491730D01*
X447342Y491362D01*
D02*
G37*
G36*
X423690Y482281D02*
X423868Y482128D01*
X424062Y481992D01*
X424272Y481875D01*
X424498Y481776D01*
X424739Y481694D01*
X424996Y481631D01*
X425268Y481586D01*
X425556Y481559D01*
X425860Y481550D01*
X425676Y479050D01*
X425374Y479042D01*
X425085Y479019D01*
X424809Y478979D01*
X424546Y478924D01*
X424296Y478853D01*
X424060Y478766D01*
X423837Y478664D01*
X423627Y478546D01*
X423431Y478412D01*
X423248Y478262D01*
X423528Y482453D01*
X423690Y482281D01*
D02*
G37*
G36*
X452576Y478210D02*
X456686Y477727D01*
X456508Y477574D01*
X456349Y477404D01*
X456208Y477217D01*
X456087Y477014D01*
X455984Y476793D01*
X455900Y476556D01*
X455834Y476301D01*
X455787Y476031D01*
X455759Y475743D01*
X455750Y475438D01*
X453250Y475762D01*
X453243Y476064D01*
X453184Y476631D01*
X453132Y476895D01*
X453066Y477147D01*
X452985Y477386D01*
X452890Y477613D01*
X452779Y477827D01*
X452654Y478028D01*
X452543Y478178D01*
X452410Y478319D01*
X452231Y478472D01*
X452038Y478608D01*
X451828Y478725D01*
X451602Y478824D01*
X451361Y478906D01*
X451104Y478969D01*
X450832Y479014D01*
X450544Y479041D01*
X450240Y479050D01*
X450424Y481550D01*
X450726Y481558D01*
X451015Y481581D01*
X451291Y481621D01*
X451554Y481676D01*
X451804Y481747D01*
X452040Y481834D01*
X452263Y481936D01*
X452473Y482054D01*
X452669Y482188D01*
X452852Y482338D01*
X452576Y478210D01*
D02*
G37*
G36*
X512711Y482878D02*
X513455Y482381D01*
X514333Y482206D01*
X525974D01*
X536364Y471817D01*
X536012Y470047D01*
X535451Y469815D01*
X534185Y468549D01*
X534080Y468294D01*
X525026D01*
X493132Y500188D01*
X493159Y500308D01*
X494806Y500782D01*
X512711Y482878D01*
D02*
G37*
G36*
X450093Y467344D02*
X449661Y466821D01*
X449486Y466562D01*
X449338Y466305D01*
X449216Y466050D01*
X449122Y465796D01*
X449054Y465544D01*
X449013Y465294D01*
X449000Y465045D01*
X447500D01*
X447486Y465294D01*
X447446Y465544D01*
X447379Y465796D01*
X447284Y466050D01*
X447163Y466305D01*
X447014Y466562D01*
X446838Y466821D01*
X446636Y467082D01*
X446407Y467344D01*
X446150Y467608D01*
X450350D01*
X450093Y467344D01*
D02*
G37*
G36*
X434265Y523548D02*
X435250Y522395D01*
Y520605D01*
X435935Y518951D01*
X437201Y517685D01*
X438855Y517000D01*
X439471D01*
X439757Y516877D01*
X440083Y516872D01*
X440341Y516855D01*
X440569Y516826D01*
X440766Y516789D01*
X440934Y516744D01*
X441073Y516694D01*
X441184Y516643D01*
X441272Y516593D01*
X441341Y516543D01*
X441462Y516434D01*
X441631Y516375D01*
X444378Y513628D01*
X445122Y513131D01*
X446000Y512956D01*
X446000Y512956D01*
X478980D01*
X479982Y511456D01*
X479750Y510895D01*
Y509105D01*
X480435Y507451D01*
X481701Y506185D01*
X483355Y505500D01*
X483397Y504000D01*
X483250Y503645D01*
Y501855D01*
X483935Y500201D01*
X485201Y498935D01*
X486855Y498250D01*
X488581D01*
X522453Y464378D01*
X522453Y464378D01*
X523198Y463881D01*
X523633Y463794D01*
X523485Y462294D01*
X499450D01*
X457375Y504369D01*
X457316Y504538D01*
X457207Y504659D01*
X457157Y504728D01*
X457106Y504816D01*
X457056Y504927D01*
X457006Y505066D01*
X456961Y505234D01*
X456928Y505407D01*
X456878Y505940D01*
X456873Y506243D01*
X456750Y506529D01*
Y507145D01*
X456065Y508799D01*
X454799Y510065D01*
X453145Y510750D01*
X451355D01*
X449701Y510065D01*
X448435Y508799D01*
X447750Y507145D01*
Y505355D01*
X448435Y503701D01*
X449262Y502874D01*
X449201Y502565D01*
X447935Y501299D01*
X447250Y499645D01*
Y497855D01*
X447715Y496731D01*
X447621Y496600D01*
X446506Y495733D01*
X445232Y496260D01*
X443442D01*
X441788Y495575D01*
X440522Y494309D01*
X439837Y492655D01*
Y490865D01*
X440522Y489211D01*
X441788Y487945D01*
X443442Y487260D01*
X444058D01*
X444344Y487137D01*
X444670Y487132D01*
X444928Y487115D01*
X445156Y487086D01*
X445354Y487049D01*
X445522Y487004D01*
X445660Y486954D01*
X445772Y486903D01*
X445859Y486853D01*
X445928Y486803D01*
X446050Y486694D01*
X446218Y486635D01*
X448249Y484604D01*
X447628Y483104D01*
X426109D01*
X425979Y483169D01*
X425943Y483157D01*
X425909Y483173D01*
X425657Y483180D01*
X425477Y483197D01*
X425322Y483223D01*
X425193Y483255D01*
X425085Y483291D01*
X424997Y483330D01*
X424925Y483370D01*
X424865Y483412D01*
X424812Y483458D01*
X424706Y483570D01*
X424414Y483699D01*
X423799Y484315D01*
X422145Y485000D01*
X420355D01*
X419544Y484664D01*
X418044Y485618D01*
Y508194D01*
X433443Y523593D01*
X434265Y523548D01*
D02*
G37*
G36*
X555310Y459685D02*
X555521Y459538D01*
X555746Y459420D01*
X555984Y459332D01*
X556235Y459272D01*
X556500Y459241D01*
X556779Y459240D01*
X557071Y459268D01*
X557376Y459325D01*
X557695Y459411D01*
X555697Y455716D01*
X555580Y456107D01*
X555208Y457126D01*
X555078Y457415D01*
X554809Y457915D01*
X554669Y458126D01*
X554526Y458312D01*
X554380Y458472D01*
X555112Y459862D01*
X555310Y459685D01*
D02*
G37*
G36*
X455750Y457148D02*
X455758Y456846D01*
X455781Y456556D01*
X455819Y456280D01*
X455873Y456017D01*
X455943Y455766D01*
X456028Y455529D01*
X456128Y455305D01*
X456244Y455093D01*
X456375Y454895D01*
X456521Y454710D01*
X452336Y455060D01*
X452509Y455219D01*
X452665Y455395D01*
X452802Y455587D01*
X452921Y455794D01*
X453021Y456018D01*
X453104Y456258D01*
X453168Y456514D01*
X453213Y456786D01*
X453241Y457074D01*
X453250Y457378D01*
X455750Y457148D01*
D02*
G37*
G36*
X538389Y457691D02*
X538595Y457542D01*
X538820Y457412D01*
X539067Y457299D01*
X539333Y457205D01*
X539620Y457128D01*
X539927Y457069D01*
X540255Y457028D01*
X540602Y457005D01*
X540970Y457000D01*
X538000Y454030D01*
X537995Y454398D01*
X537931Y455073D01*
X537872Y455380D01*
X537795Y455667D01*
X537701Y455933D01*
X537588Y456180D01*
X537458Y456405D01*
X537309Y456611D01*
X537143Y456796D01*
X538204Y457857D01*
X538389Y457691D01*
D02*
G37*
G36*
X526858Y451900D02*
X526594Y452156D01*
X526071Y452589D01*
X525812Y452764D01*
X525555Y452912D01*
X525300Y453034D01*
X525046Y453129D01*
X524794Y453196D01*
X524544Y453237D01*
X524295Y453250D01*
Y454750D01*
X524544Y454763D01*
X524794Y454804D01*
X525046Y454871D01*
X525300Y454966D01*
X525555Y455088D01*
X525812Y455236D01*
X526071Y455411D01*
X526332Y455614D01*
X526594Y455844D01*
X526858Y456100D01*
Y451900D01*
D02*
G37*
G36*
X549970Y450000D02*
X549602Y449995D01*
X548927Y449931D01*
X548620Y449872D01*
X548333Y449795D01*
X548067Y449701D01*
X547821Y449588D01*
X547595Y449458D01*
X547389Y449309D01*
X547204Y449143D01*
X546143Y450204D01*
X546309Y450389D01*
X546458Y450595D01*
X546588Y450821D01*
X546701Y451067D01*
X546795Y451333D01*
X546872Y451620D01*
X546931Y451927D01*
X546972Y452254D01*
X546995Y452602D01*
X547000Y452970D01*
X549970Y450000D01*
D02*
G37*
G36*
X410414Y446542D02*
X410516Y446352D01*
X410634Y446185D01*
X410768Y446040D01*
X410916Y445918D01*
X411081Y445817D01*
X411261Y445739D01*
X411456Y445684D01*
X411667Y445650D01*
X411893Y445639D01*
X411831Y444139D01*
X411538Y444131D01*
X411254Y444108D01*
X410979Y444069D01*
X410713Y444014D01*
X410457Y443944D01*
X410209Y443858D01*
X409971Y443756D01*
X409741Y443639D01*
X409521Y443506D01*
X409310Y443357D01*
X410327Y446754D01*
X410414Y446542D01*
D02*
G37*
G36*
X490283Y323944D02*
X490748Y323676D01*
X491312Y323442D01*
X491974Y323240D01*
X492735Y323072D01*
X493595Y322937D01*
X495612Y322765D01*
X496768Y322728D01*
X498023Y322725D01*
X490375Y315077D01*
X490372Y316332D01*
X490164Y319505D01*
X490028Y320365D01*
X489860Y321126D01*
X489658Y321788D01*
X489424Y322352D01*
X489156Y322817D01*
X488856Y323184D01*
X489916Y324244D01*
X490283Y323944D01*
D02*
G37*
G36*
X354747Y485812D02*
X354567Y485967D01*
X354373Y486105D01*
X354166Y486227D01*
X353945Y486333D01*
X353711Y486422D01*
X353463Y486495D01*
X353201Y486552D01*
X352925Y486592D01*
X352636Y486617D01*
X352334Y486625D01*
X352219Y489125D01*
X352523Y489134D01*
X352811Y489160D01*
X353084Y489204D01*
X353342Y489266D01*
X353585Y489346D01*
X353813Y489443D01*
X354025Y489558D01*
X354223Y489691D01*
X354405Y489841D01*
X354572Y490009D01*
X354747Y485812D01*
D02*
G37*
G36*
X325733Y489783D02*
X325927Y489645D01*
X326134Y489523D01*
X326355Y489417D01*
X326589Y489328D01*
X326837Y489255D01*
X327099Y489198D01*
X327375Y489157D01*
X327664Y489133D01*
X327966Y489125D01*
X328081Y486625D01*
X327777Y486616D01*
X327489Y486590D01*
X327216Y486545D01*
X326958Y486484D01*
X326715Y486404D01*
X326487Y486307D01*
X326274Y486192D01*
X326077Y486059D01*
X325895Y485909D01*
X325728Y485741D01*
X325553Y489938D01*
X325733Y489783D01*
D02*
G37*
G36*
X683978Y407143D02*
X684446Y406837D01*
X684985Y406568D01*
X685593Y406337D01*
X686273Y406142D01*
X687023Y405985D01*
X687843Y405865D01*
X688734Y405783D01*
X690728Y405730D01*
X683570Y398572D01*
X683562Y399604D01*
X683435Y401457D01*
X683315Y402277D01*
X683158Y403027D01*
X682963Y403707D01*
X682732Y404315D01*
X682463Y404854D01*
X682157Y405322D01*
X681813Y405719D01*
X683581Y407487D01*
X683978Y407143D01*
D02*
G37*
G36*
X597787Y405719D02*
X597443Y405322D01*
X597137Y404854D01*
X596868Y404315D01*
X596637Y403707D01*
X596442Y403027D01*
X596285Y402277D01*
X596165Y401457D01*
X596083Y400566D01*
X596030Y398572D01*
X588872Y405730D01*
X589904Y405738D01*
X591757Y405865D01*
X592577Y405985D01*
X593327Y406142D01*
X594007Y406337D01*
X594615Y406568D01*
X595154Y406837D01*
X595622Y407143D01*
X596019Y407487D01*
X597787Y405719D01*
D02*
G37*
G36*
X698038Y397396D02*
X698165Y395543D01*
X698285Y394723D01*
X698442Y393973D01*
X698637Y393293D01*
X698868Y392685D01*
X699137Y392146D01*
X699443Y391678D01*
X699787Y391281D01*
X698019Y389513D01*
X697622Y389857D01*
X697154Y390163D01*
X696615Y390432D01*
X696006Y390663D01*
X695327Y390858D01*
X694577Y391015D01*
X693757Y391135D01*
X692866Y391217D01*
X690872Y391270D01*
X698030Y398428D01*
X698038Y397396D01*
D02*
G37*
G36*
X588728Y391270D02*
X587696Y391262D01*
X585843Y391135D01*
X585023Y391015D01*
X584273Y390858D01*
X583593Y390663D01*
X582985Y390432D01*
X582446Y390163D01*
X581978Y389857D01*
X581581Y389513D01*
X579813Y391281D01*
X580157Y391678D01*
X580463Y392146D01*
X580732Y392685D01*
X580963Y393293D01*
X581158Y393973D01*
X581315Y394723D01*
X581435Y395543D01*
X581517Y396434D01*
X581570Y398428D01*
X588728Y391270D01*
D02*
G37*
G36*
X702288Y384035D02*
X702402Y383488D01*
X702593Y382917D01*
X702860Y382323D01*
X703203Y381705D01*
X703622Y381064D01*
X704117Y380399D01*
X704689Y379710D01*
X706061Y378263D01*
X695939D01*
X696663Y378999D01*
X697883Y380399D01*
X698378Y381064D01*
X698797Y381705D01*
X699140Y382323D01*
X699407Y382917D01*
X699598Y383488D01*
X699712Y384035D01*
X699750Y384559D01*
X702250D01*
X702288Y384035D01*
D02*
G37*
G36*
X579888D02*
X580002Y383488D01*
X580193Y382917D01*
X580460Y382323D01*
X580803Y381705D01*
X581222Y381064D01*
X581717Y380399D01*
X582289Y379710D01*
X583661Y378263D01*
X573539D01*
X574263Y378999D01*
X575483Y380399D01*
X575978Y381064D01*
X576397Y381705D01*
X576740Y382323D01*
X577007Y382917D01*
X577198Y383488D01*
X577312Y384035D01*
X577350Y384559D01*
X579850D01*
X579888Y384035D01*
D02*
G37*
G36*
X725337Y283701D02*
X724117Y282301D01*
X723622Y281636D01*
X723203Y280995D01*
X722860Y280377D01*
X722593Y279783D01*
X722402Y279212D01*
X722288Y278665D01*
X722250Y278141D01*
X719750D01*
X719712Y278665D01*
X719598Y279212D01*
X719407Y279783D01*
X719140Y280377D01*
X718797Y280995D01*
X718378Y281636D01*
X717883Y282301D01*
X717311Y282990D01*
X715939Y284437D01*
X726061D01*
X725337Y283701D01*
D02*
G37*
G36*
X602937D02*
X601717Y282301D01*
X601222Y281636D01*
X600803Y280995D01*
X600460Y280377D01*
X600193Y279783D01*
X600002Y279212D01*
X599888Y278665D01*
X599850Y278141D01*
X597350D01*
X597312Y278665D01*
X597198Y279212D01*
X597007Y279783D01*
X596740Y280377D01*
X596397Y280995D01*
X595978Y281636D01*
X595483Y282301D01*
X594911Y282990D01*
X593539Y284437D01*
X603661D01*
X602937Y283701D01*
D02*
G37*
G36*
X719787Y271419D02*
X719443Y271022D01*
X719137Y270554D01*
X718868Y270015D01*
X718637Y269407D01*
X718442Y268727D01*
X718285Y267977D01*
X718165Y267157D01*
X718083Y266266D01*
X718030Y264272D01*
X710872Y271430D01*
X711904Y271438D01*
X713757Y271565D01*
X714577Y271685D01*
X715327Y271842D01*
X716006Y272037D01*
X716615Y272268D01*
X717154Y272537D01*
X717622Y272843D01*
X718019Y273187D01*
X719787Y271419D01*
D02*
G37*
G36*
X601978Y272843D02*
X602446Y272537D01*
X602985Y272268D01*
X603593Y272037D01*
X604273Y271842D01*
X605023Y271685D01*
X605843Y271565D01*
X606734Y271483D01*
X608728Y271430D01*
X601570Y264272D01*
X601562Y265304D01*
X601435Y267157D01*
X601315Y267977D01*
X601158Y268727D01*
X600963Y269407D01*
X600732Y270015D01*
X600463Y270554D01*
X600157Y271022D01*
X599813Y271419D01*
X601581Y273187D01*
X601978Y272843D01*
D02*
G37*
G36*
X710728Y256970D02*
X709696Y256962D01*
X707843Y256835D01*
X707023Y256715D01*
X706273Y256558D01*
X705593Y256363D01*
X704985Y256132D01*
X704446Y255863D01*
X703978Y255557D01*
X703581Y255213D01*
X701813Y256981D01*
X702157Y257378D01*
X702463Y257846D01*
X702732Y258385D01*
X702963Y258993D01*
X703158Y259673D01*
X703315Y260423D01*
X703435Y261243D01*
X703517Y262134D01*
X703570Y264128D01*
X710728Y256970D01*
D02*
G37*
G36*
X616038Y263096D02*
X616165Y261243D01*
X616285Y260423D01*
X616442Y259673D01*
X616637Y258993D01*
X616868Y258385D01*
X617137Y257846D01*
X617443Y257378D01*
X617787Y256981D01*
X616019Y255213D01*
X615622Y255557D01*
X615154Y255863D01*
X614615Y256132D01*
X614007Y256363D01*
X613327Y256558D01*
X612577Y256715D01*
X611757Y256835D01*
X610866Y256917D01*
X608872Y256970D01*
X616030Y264128D01*
X616038Y263096D01*
D02*
G37*
G36*
X527837Y283701D02*
X526617Y282301D01*
X526122Y281636D01*
X525703Y280995D01*
X525360Y280377D01*
X525093Y279783D01*
X524902Y279212D01*
X524788Y278665D01*
X524750Y278141D01*
X522250D01*
X522212Y278665D01*
X522098Y279212D01*
X521907Y279783D01*
X521640Y280377D01*
X521297Y280995D01*
X520878Y281636D01*
X520383Y282301D01*
X519811Y282990D01*
X518439Y284437D01*
X528561D01*
X527837Y283701D01*
D02*
G37*
G36*
X405437D02*
X404217Y282301D01*
X403722Y281636D01*
X403303Y280995D01*
X402960Y280377D01*
X402693Y279783D01*
X402502Y279212D01*
X402388Y278665D01*
X402350Y278141D01*
X399850D01*
X399812Y278665D01*
X399698Y279212D01*
X399507Y279783D01*
X399240Y280377D01*
X398897Y280995D01*
X398478Y281636D01*
X397983Y282301D01*
X397411Y282990D01*
X396039Y284437D01*
X406161D01*
X405437Y283701D01*
D02*
G37*
G36*
X522287Y271419D02*
X521943Y271022D01*
X521637Y270554D01*
X521368Y270015D01*
X521137Y269407D01*
X520942Y268727D01*
X520785Y267977D01*
X520665Y267157D01*
X520583Y266266D01*
X520530Y264272D01*
X513372Y271430D01*
X514404Y271438D01*
X516257Y271565D01*
X517077Y271685D01*
X517827Y271842D01*
X518507Y272037D01*
X519115Y272268D01*
X519654Y272537D01*
X520122Y272843D01*
X520519Y273187D01*
X522287Y271419D01*
D02*
G37*
G36*
X404478Y272843D02*
X404946Y272537D01*
X405485Y272268D01*
X406093Y272037D01*
X406773Y271842D01*
X407523Y271685D01*
X408343Y271565D01*
X409234Y271483D01*
X411228Y271430D01*
X404070Y264272D01*
X404062Y265304D01*
X403935Y267157D01*
X403815Y267977D01*
X403658Y268727D01*
X403464Y269407D01*
X403232Y270015D01*
X402963Y270554D01*
X402657Y271022D01*
X402313Y271419D01*
X404081Y273187D01*
X404478Y272843D01*
D02*
G37*
G36*
X513228Y256970D02*
X512196Y256962D01*
X510343Y256835D01*
X509523Y256715D01*
X508773Y256558D01*
X508093Y256363D01*
X507485Y256132D01*
X506946Y255863D01*
X506478Y255557D01*
X506081Y255213D01*
X504313Y256981D01*
X504657Y257378D01*
X504963Y257846D01*
X505232Y258385D01*
X505463Y258993D01*
X505658Y259673D01*
X505815Y260423D01*
X505935Y261243D01*
X506017Y262134D01*
X506070Y264128D01*
X513228Y256970D01*
D02*
G37*
G36*
X418538Y263096D02*
X418665Y261243D01*
X418785Y260423D01*
X418942Y259673D01*
X419137Y258993D01*
X419368Y258385D01*
X419637Y257846D01*
X419943Y257378D01*
X420287Y256981D01*
X418519Y255213D01*
X418122Y255557D01*
X417654Y255863D01*
X417115Y256132D01*
X416507Y256363D01*
X415827Y256558D01*
X415077Y256715D01*
X414257Y256835D01*
X413366Y256917D01*
X411372Y256970D01*
X418530Y264128D01*
X418538Y263096D01*
D02*
G37*
G36*
X330337Y283701D02*
X329117Y282301D01*
X328622Y281636D01*
X328203Y280995D01*
X327860Y280377D01*
X327593Y279783D01*
X327402Y279212D01*
X327288Y278665D01*
X327250Y278141D01*
X324750D01*
X324712Y278665D01*
X324598Y279212D01*
X324407Y279783D01*
X324140Y280377D01*
X323797Y280995D01*
X323378Y281636D01*
X322883Y282301D01*
X322311Y282990D01*
X320939Y284437D01*
X331061D01*
X330337Y283701D01*
D02*
G37*
G36*
X207937D02*
X206717Y282301D01*
X206222Y281636D01*
X205803Y280995D01*
X205460Y280377D01*
X205193Y279783D01*
X205002Y279212D01*
X204888Y278665D01*
X204850Y278141D01*
X202350D01*
X202312Y278665D01*
X202198Y279212D01*
X202007Y279783D01*
X201740Y280377D01*
X201397Y280995D01*
X200978Y281636D01*
X200483Y282301D01*
X199911Y282990D01*
X198539Y284437D01*
X208661D01*
X207937Y283701D01*
D02*
G37*
G36*
X324787Y271419D02*
X324443Y271022D01*
X324137Y270554D01*
X323868Y270015D01*
X323637Y269407D01*
X323442Y268727D01*
X323285Y267977D01*
X323165Y267157D01*
X323083Y266266D01*
X323030Y264272D01*
X315872Y271430D01*
X316904Y271438D01*
X318757Y271565D01*
X319577Y271685D01*
X320327Y271842D01*
X321007Y272037D01*
X321615Y272268D01*
X322154Y272537D01*
X322622Y272843D01*
X323019Y273187D01*
X324787Y271419D01*
D02*
G37*
G36*
X206978Y272843D02*
X207446Y272537D01*
X207985Y272268D01*
X208594Y272037D01*
X209273Y271842D01*
X210023Y271685D01*
X210843Y271565D01*
X211734Y271483D01*
X213728Y271430D01*
X206570Y264272D01*
X206562Y265304D01*
X206435Y267157D01*
X206315Y267977D01*
X206158Y268727D01*
X205963Y269407D01*
X205732Y270015D01*
X205463Y270554D01*
X205157Y271022D01*
X204813Y271419D01*
X206581Y273187D01*
X206978Y272843D01*
D02*
G37*
G36*
X315728Y256970D02*
X314696Y256962D01*
X312843Y256835D01*
X312023Y256715D01*
X311273Y256558D01*
X310593Y256363D01*
X309985Y256132D01*
X309446Y255863D01*
X308978Y255557D01*
X308581Y255213D01*
X306813Y256981D01*
X307157Y257378D01*
X307463Y257846D01*
X307732Y258385D01*
X307963Y258993D01*
X308158Y259673D01*
X308315Y260423D01*
X308435Y261243D01*
X308517Y262134D01*
X308570Y264128D01*
X315728Y256970D01*
D02*
G37*
G36*
X221038Y263096D02*
X221165Y261243D01*
X221285Y260423D01*
X221442Y259673D01*
X221637Y258993D01*
X221868Y258385D01*
X222137Y257846D01*
X222443Y257378D01*
X222787Y256981D01*
X221019Y255213D01*
X220622Y255557D01*
X220154Y255863D01*
X219615Y256132D01*
X219007Y256363D01*
X218327Y256558D01*
X217577Y256715D01*
X216757Y256835D01*
X215866Y256917D01*
X213872Y256970D01*
X221030Y264128D01*
X221038Y263096D01*
D02*
G37*
D10*
X487825Y515250D02*
X507825Y495250D01*
X524750D01*
X446000Y515250D02*
X487825D01*
X488833Y510000D02*
X514333Y484500D01*
X484250Y510000D02*
X488833D01*
X487750Y502325D02*
Y502750D01*
Y502325D02*
X524075Y466000D01*
X514333Y484500D02*
X526925D01*
X524750Y495250D02*
X529417Y490583D01*
Y486250D02*
Y490583D01*
X526925Y484500D02*
X549431Y461993D01*
X524075Y466000D02*
X538000D01*
X549431Y461993D02*
X551920D01*
X557369Y456544D01*
X558581D01*
X529417Y486250D02*
X550674Y464993D01*
X557557D01*
X411893Y444889D02*
X413815Y442967D01*
X407500Y445750D02*
X408361Y444889D01*
X411893D01*
X413815Y371185D02*
Y442967D01*
X399750Y482750D02*
Y512250D01*
Y482750D02*
X401100Y481400D01*
Y315000D02*
Y481400D01*
X399750Y512250D02*
X423250Y535750D01*
X438750D01*
X412840Y545340D02*
X421494D01*
X380500Y513000D02*
X389750Y522250D01*
X390975D01*
X394050Y525325D02*
Y526550D01*
X380500Y394900D02*
Y513000D01*
X394050Y526550D02*
X412840Y545340D01*
X390975Y522250D02*
X394050Y525325D01*
X300600Y315000D02*
X380500Y394900D01*
X455032Y443968D02*
X664468D01*
X448250Y450750D02*
X455032Y443968D01*
X664468D02*
X759000Y538500D01*
X422000Y391100D02*
Y449000D01*
Y391100D02*
X498100Y315000D01*
X415750Y455250D02*
Y509144D01*
X435428Y528822D01*
X415750Y455250D02*
X422000Y449000D01*
X448250Y450750D02*
Y469750D01*
X497000Y454000D02*
X529000D01*
X535000Y460000D02*
X541000Y454000D01*
X452250Y506250D02*
X498500Y460000D01*
X535000D01*
X452842Y491243D02*
X453086Y491000D01*
X460000D01*
X497000Y454000D01*
X457025Y485350D02*
X495407Y446968D01*
X450747Y485350D02*
X457025D01*
X543968Y446968D02*
X550000Y453000D01*
X495407Y446968D02*
X543968D01*
X444337Y491760D02*
X450747Y485350D01*
X439750Y521500D02*
X446000Y515250D01*
X512411Y511839D02*
X523000Y501250D01*
X512411Y511839D02*
Y527169D01*
X520500Y530750D02*
X520500D01*
X528750Y522500D01*
Y509750D02*
Y522500D01*
D29*
X331500Y509125D02*
G03*
X331382Y509122I0J-2500D01*
G01*
X323500Y508750D02*
X331382Y509122D01*
X331500Y509125D02*
X356675D01*
X362875Y445125D02*
X363000Y445000D01*
X362875Y445125D02*
Y477975D01*
X362750Y478100D02*
X362875Y477975D01*
X344500Y620368D02*
Y640500D01*
X339000Y606000D02*
Y614868D01*
X344500Y620368D01*
X324000Y465000D02*
Y470000D01*
Y465000D02*
X343250Y445750D01*
X421350Y480100D02*
X421550Y480300D01*
X405831Y575250D02*
X438250D01*
X513300Y264200D02*
X523500Y274400D01*
Y289600D01*
X405765Y575316D02*
X405831Y575250D01*
X454250Y452750D02*
X454500Y453000D01*
Y479750D01*
X454850Y480100D01*
X315800Y264200D02*
X326000Y274400D01*
Y289600D01*
X229750Y248250D02*
X299850D01*
X315800Y264200D01*
X213800D02*
X229750Y248250D01*
X203600Y274400D02*
Y289600D01*
Y274400D02*
X213800Y264200D01*
X608800D02*
X624250Y248750D01*
X695350D02*
X710800Y264200D01*
X624250Y248750D02*
X695350D01*
X497350Y248250D02*
X513300Y264200D01*
X427250Y248250D02*
X497350D01*
X411300Y264200D02*
X427250Y248250D01*
X401100Y274400D02*
X411300Y264200D01*
X401100Y274400D02*
Y289600D01*
X598600Y274400D02*
Y289600D01*
Y274400D02*
X608800Y264200D01*
X710800D02*
X721000Y274400D01*
Y289600D01*
X701000Y373100D02*
Y388300D01*
X690800Y398500D02*
X701000Y388300D01*
X676050Y413250D02*
X690800Y398500D01*
X603550Y413250D02*
X676050D01*
X588800Y398500D02*
X603550Y413250D01*
X578600Y388300D02*
X588800Y398500D01*
X578600Y373100D02*
Y388300D01*
X454650Y480300D02*
X454850Y480100D01*
X421550Y480300D02*
X454650D01*
X323500Y487750D02*
X323625Y487875D01*
X356675D02*
X356800Y488000D01*
X323625Y487875D02*
X356675D01*
X323840Y537320D02*
X323904Y537256D01*
X356736D01*
X356800Y537192D01*
D30*
X481010Y550753D02*
G03*
X479370Y551250I-1653J-2503D01*
G01*
X347687Y516489D02*
X350785Y519587D01*
X356687D01*
X323537Y516489D02*
X347687D01*
X427080Y564170D02*
X432266Y558984D01*
X452875D01*
X421750Y569500D02*
X427080Y564170D01*
Y564170D02*
Y564170D01*
X453000Y551250D02*
X479370Y551250D01*
X481010Y550753D02*
X481015Y550750D01*
X316000Y619514D02*
X318261Y617253D01*
Y601204D02*
Y617253D01*
X316000Y619514D02*
Y641909D01*
X316019Y641928D01*
X481015Y550750D02*
X485985D01*
X486485Y551250D02*
X540250D01*
X540500Y551500D01*
X485985Y550750D02*
X486485Y551250D01*
D32*
X213800Y264200D02*
D03*
X315800D02*
D03*
X203600Y289600D02*
D03*
X326000D02*
D03*
X578600Y373100D02*
D03*
X701000D02*
D03*
X588800Y398500D02*
D03*
X690800D02*
D03*
X608800Y264200D02*
D03*
X710800D02*
D03*
X598600Y289600D02*
D03*
X721000D02*
D03*
X411300Y264200D02*
D03*
X513300D02*
D03*
X401100Y289600D02*
D03*
X523500D02*
D03*
D33*
X203600Y315000D02*
D03*
X300600D02*
D03*
X598600D02*
D03*
X401100D02*
D03*
X498100D02*
D03*
D35*
X105000Y120000D02*
D03*
D37*
X356687Y519587D02*
D03*
X323537Y516489D02*
D03*
X323500Y508750D02*
D03*
X452875Y558984D02*
D03*
X453000Y551250D02*
D03*
X362750Y478100D02*
D03*
X316019Y641928D02*
D03*
X344500Y640500D02*
D03*
X504250Y506250D02*
D03*
X522750Y474750D02*
D03*
X518500Y479000D02*
D03*
X339000Y606000D02*
D03*
X324000Y470000D02*
D03*
X407500Y445750D02*
D03*
X371000Y411000D02*
D03*
X793999Y606000D02*
D03*
X785999Y590000D02*
D03*
X793999Y574000D02*
D03*
X785999Y558000D02*
D03*
X793999Y510000D02*
D03*
X785999Y494000D02*
D03*
X793999Y478000D02*
D03*
X785999Y430000D02*
D03*
X793999Y414000D02*
D03*
X785999Y398000D02*
D03*
X793999Y382000D02*
D03*
X785999Y366000D02*
D03*
X793999Y350000D02*
D03*
X785999Y334000D02*
D03*
X793999Y318000D02*
D03*
X785999Y302000D02*
D03*
X793999Y286000D02*
D03*
X785999Y270000D02*
D03*
X793999Y254000D02*
D03*
X785999Y238000D02*
D03*
X793999Y222000D02*
D03*
X785999Y206000D02*
D03*
X793999Y190000D02*
D03*
X785999Y174000D02*
D03*
X793999Y126000D02*
D03*
X785999Y110000D02*
D03*
X793999Y94000D02*
D03*
X785999Y78000D02*
D03*
X793999Y62000D02*
D03*
X785999Y46000D02*
D03*
X793999Y30000D02*
D03*
X785999Y14000D02*
D03*
X777999Y606000D02*
D03*
X769999Y590000D02*
D03*
Y526000D02*
D03*
X777999Y510000D02*
D03*
X769999Y494000D02*
D03*
X777999Y478000D02*
D03*
X769999Y462000D02*
D03*
Y430000D02*
D03*
X777999Y414000D02*
D03*
X769999Y398000D02*
D03*
X777999Y382000D02*
D03*
X769999Y334000D02*
D03*
X777999Y318000D02*
D03*
X769999Y302000D02*
D03*
X777999Y286000D02*
D03*
X769999Y270000D02*
D03*
X777999Y254000D02*
D03*
X769999Y238000D02*
D03*
X777999Y222000D02*
D03*
X769999Y206000D02*
D03*
X777999Y190000D02*
D03*
X769999Y110000D02*
D03*
X777999Y94000D02*
D03*
X769999Y78000D02*
D03*
X777999Y62000D02*
D03*
X769999Y46000D02*
D03*
X777999Y30000D02*
D03*
X769999Y14000D02*
D03*
X761999Y606000D02*
D03*
X753999Y590000D02*
D03*
Y526000D02*
D03*
X761999Y510000D02*
D03*
X753999Y494000D02*
D03*
X761999Y478000D02*
D03*
X753999Y462000D02*
D03*
X761999Y446000D02*
D03*
X753999Y430000D02*
D03*
X761999Y414000D02*
D03*
X753999Y366000D02*
D03*
X633999Y350000D02*
D03*
X585999Y318000D02*
D03*
Y286000D02*
D03*
X569999Y382000D02*
D03*
Y318000D02*
D03*
X530000Y302000D02*
D03*
X513999Y654000D02*
D03*
X522000Y638000D02*
D03*
X513999Y622000D02*
D03*
X522000Y606000D02*
D03*
X513999Y590000D02*
D03*
X497999Y654000D02*
D03*
X505999Y638000D02*
D03*
X497999Y622000D02*
D03*
X505999Y606000D02*
D03*
X482000Y654000D02*
D03*
X490000Y638000D02*
D03*
X482000Y622000D02*
D03*
X490000Y606000D02*
D03*
X482000Y590000D02*
D03*
X490000Y350000D02*
D03*
X465999Y654000D02*
D03*
X473999Y638000D02*
D03*
Y606000D02*
D03*
X450000Y654000D02*
D03*
X457999Y638000D02*
D03*
Y606000D02*
D03*
X433999Y654000D02*
D03*
X442000Y638000D02*
D03*
X433999Y622000D02*
D03*
X417999Y654000D02*
D03*
X425999Y638000D02*
D03*
Y606000D02*
D03*
X402000Y302000D02*
D03*
X385999Y462000D02*
D03*
X362000Y606000D02*
D03*
X353999Y558000D02*
D03*
X338000Y622000D02*
D03*
X345999Y574000D02*
D03*
Y478000D02*
D03*
X338000Y398000D02*
D03*
X322000Y622000D02*
D03*
X330000Y606000D02*
D03*
Y478000D02*
D03*
X322000Y302000D02*
D03*
X306000Y622000D02*
D03*
Y590000D02*
D03*
Y334000D02*
D03*
X314000Y318000D02*
D03*
X290000Y622000D02*
D03*
X298000Y606000D02*
D03*
X290000Y590000D02*
D03*
Y558000D02*
D03*
X282000Y606000D02*
D03*
X274000Y590000D02*
D03*
X282000Y574000D02*
D03*
X274000Y558000D02*
D03*
X282000Y542000D02*
D03*
Y382000D02*
D03*
X274000Y366000D02*
D03*
X282000Y350000D02*
D03*
X274000Y334000D02*
D03*
X258000Y654000D02*
D03*
X266000Y606000D02*
D03*
X258000Y590000D02*
D03*
X266000Y574000D02*
D03*
X258000Y558000D02*
D03*
X266000Y542000D02*
D03*
X258000Y526000D02*
D03*
X242000Y654000D02*
D03*
X250000Y574000D02*
D03*
X242000Y558000D02*
D03*
X250000Y542000D02*
D03*
X242000Y526000D02*
D03*
X250000Y510000D02*
D03*
X242000Y398000D02*
D03*
Y334000D02*
D03*
X226000Y654000D02*
D03*
X234000Y638000D02*
D03*
X226000Y622000D02*
D03*
X234000Y574000D02*
D03*
X226000Y558000D02*
D03*
X234000Y542000D02*
D03*
X226000Y526000D02*
D03*
X234000Y510000D02*
D03*
X226000Y494000D02*
D03*
X234000Y478000D02*
D03*
X226000Y398000D02*
D03*
X234000Y382000D02*
D03*
X226000Y366000D02*
D03*
X210000Y558000D02*
D03*
X218000Y542000D02*
D03*
X210000Y526000D02*
D03*
X218000Y510000D02*
D03*
X210000Y494000D02*
D03*
X218000Y478000D02*
D03*
X210000Y462000D02*
D03*
X218000Y382000D02*
D03*
X210000Y366000D02*
D03*
X218000Y350000D02*
D03*
X210000Y334000D02*
D03*
Y302000D02*
D03*
X202000Y606000D02*
D03*
X194000Y558000D02*
D03*
X202000Y542000D02*
D03*
X194000Y526000D02*
D03*
X202000Y510000D02*
D03*
X194000Y494000D02*
D03*
X202000Y478000D02*
D03*
X194000Y462000D02*
D03*
X202000Y382000D02*
D03*
Y350000D02*
D03*
X186000Y542000D02*
D03*
Y510000D02*
D03*
X178000Y494000D02*
D03*
X186000Y478000D02*
D03*
X178000Y462000D02*
D03*
Y398000D02*
D03*
X170000Y606000D02*
D03*
Y510000D02*
D03*
X162000Y494000D02*
D03*
X170000Y478000D02*
D03*
X162000Y462000D02*
D03*
Y398000D02*
D03*
X170000Y350000D02*
D03*
X154000Y510000D02*
D03*
X146000Y494000D02*
D03*
X154000Y478000D02*
D03*
X146000Y462000D02*
D03*
X154000Y414000D02*
D03*
X146000Y366000D02*
D03*
X154000Y350000D02*
D03*
X146000Y334000D02*
D03*
X154000Y318000D02*
D03*
X146000Y302000D02*
D03*
X154000Y286000D02*
D03*
X146000Y270000D02*
D03*
X154000Y254000D02*
D03*
X146000Y238000D02*
D03*
X154000Y222000D02*
D03*
Y190000D02*
D03*
X146000Y174000D02*
D03*
X154000Y158000D02*
D03*
X146000Y142000D02*
D03*
X154000Y126000D02*
D03*
X146000Y110000D02*
D03*
X154000Y94000D02*
D03*
X146000Y78000D02*
D03*
X154000Y62000D02*
D03*
X146000Y46000D02*
D03*
X154000Y30000D02*
D03*
X146000Y14000D02*
D03*
X130000Y654000D02*
D03*
Y526000D02*
D03*
X138000Y510000D02*
D03*
X130000Y494000D02*
D03*
Y462000D02*
D03*
X138000Y382000D02*
D03*
X130000Y302000D02*
D03*
X138000Y286000D02*
D03*
X130000Y270000D02*
D03*
X138000Y254000D02*
D03*
X130000Y238000D02*
D03*
X138000Y222000D02*
D03*
X130000Y174000D02*
D03*
X138000Y158000D02*
D03*
X130000Y142000D02*
D03*
X138000Y126000D02*
D03*
X130000Y110000D02*
D03*
X138000Y94000D02*
D03*
X130000Y78000D02*
D03*
X138000Y62000D02*
D03*
X130000Y46000D02*
D03*
X138000Y30000D02*
D03*
X130000Y14000D02*
D03*
X114000Y654000D02*
D03*
X122000Y510000D02*
D03*
X114000Y494000D02*
D03*
X122000Y382000D02*
D03*
X114000Y302000D02*
D03*
X122000Y286000D02*
D03*
X114000Y270000D02*
D03*
X122000Y254000D02*
D03*
X114000Y238000D02*
D03*
X122000Y222000D02*
D03*
X114000Y174000D02*
D03*
X122000Y158000D02*
D03*
X114000Y142000D02*
D03*
X122000Y126000D02*
D03*
X114000Y110000D02*
D03*
X122000Y94000D02*
D03*
X114000Y78000D02*
D03*
X122000Y62000D02*
D03*
Y30000D02*
D03*
X114000Y14000D02*
D03*
X98000Y654000D02*
D03*
X106000Y638000D02*
D03*
X98000Y622000D02*
D03*
X106000Y606000D02*
D03*
X98000Y590000D02*
D03*
X106000Y574000D02*
D03*
X98000Y558000D02*
D03*
X106000Y478000D02*
D03*
X98000Y302000D02*
D03*
X106000Y286000D02*
D03*
Y254000D02*
D03*
Y222000D02*
D03*
X98000Y206000D02*
D03*
Y174000D02*
D03*
X106000Y158000D02*
D03*
X98000Y142000D02*
D03*
Y14000D02*
D03*
X82000Y654000D02*
D03*
Y558000D02*
D03*
X90000Y478000D02*
D03*
X82000Y462000D02*
D03*
X90000Y446000D02*
D03*
X82000Y430000D02*
D03*
X90000Y414000D02*
D03*
Y382000D02*
D03*
X82000Y334000D02*
D03*
Y302000D02*
D03*
X90000Y222000D02*
D03*
X82000Y206000D02*
D03*
X90000Y190000D02*
D03*
X82000Y174000D02*
D03*
X90000Y158000D02*
D03*
X82000Y142000D02*
D03*
X90000Y126000D02*
D03*
Y62000D02*
D03*
X82000Y46000D02*
D03*
X90000Y30000D02*
D03*
X82000Y14000D02*
D03*
X66000Y654000D02*
D03*
X74000Y638000D02*
D03*
X66000Y622000D02*
D03*
X74000Y606000D02*
D03*
Y510000D02*
D03*
Y478000D02*
D03*
X66000Y398000D02*
D03*
Y302000D02*
D03*
Y78000D02*
D03*
X74000Y62000D02*
D03*
X66000Y46000D02*
D03*
X74000Y30000D02*
D03*
X66000Y14000D02*
D03*
X50000Y654000D02*
D03*
X58000Y638000D02*
D03*
X50000Y622000D02*
D03*
X58000Y606000D02*
D03*
X50000Y590000D02*
D03*
X58000Y478000D02*
D03*
X50000Y462000D02*
D03*
X58000Y446000D02*
D03*
X50000Y430000D02*
D03*
X58000Y414000D02*
D03*
X50000Y238000D02*
D03*
X58000Y62000D02*
D03*
X50000Y46000D02*
D03*
X58000Y30000D02*
D03*
X50000Y14000D02*
D03*
X34000Y654000D02*
D03*
X42000Y638000D02*
D03*
X34000Y622000D02*
D03*
X42000Y606000D02*
D03*
X34000Y494000D02*
D03*
X42000Y478000D02*
D03*
X34000Y462000D02*
D03*
X42000Y446000D02*
D03*
X34000Y430000D02*
D03*
Y238000D02*
D03*
X42000Y94000D02*
D03*
Y62000D02*
D03*
X34000Y46000D02*
D03*
X42000Y30000D02*
D03*
X34000Y14000D02*
D03*
X18000Y654000D02*
D03*
X26000Y638000D02*
D03*
X18000Y622000D02*
D03*
X26000Y606000D02*
D03*
X18000Y590000D02*
D03*
X26000Y478000D02*
D03*
Y446000D02*
D03*
Y254000D02*
D03*
X18000Y238000D02*
D03*
X26000Y222000D02*
D03*
X18000Y174000D02*
D03*
X26000Y158000D02*
D03*
X18000Y142000D02*
D03*
X26000Y126000D02*
D03*
X18000Y110000D02*
D03*
X26000Y94000D02*
D03*
X18000Y78000D02*
D03*
X26000Y62000D02*
D03*
X18000Y46000D02*
D03*
X26000Y30000D02*
D03*
X18000Y14000D02*
D03*
X512500Y535000D02*
D03*
X388800Y527500D02*
D03*
X372500Y492500D02*
D03*
X388800D02*
D03*
X405000D02*
D03*
Y510000D02*
D03*
X388800Y510100D02*
D03*
X372500Y510000D02*
D03*
Y527500D02*
D03*
X405000D02*
D03*
X483237Y490100D02*
D03*
X421494Y545340D02*
D03*
X538000Y466000D02*
D03*
X529000Y454000D02*
D03*
X541000D02*
D03*
X550000Y453000D02*
D03*
X421750Y569500D02*
D03*
X759000Y538500D02*
D03*
X452842Y491243D02*
D03*
X444337Y491760D02*
D03*
X452250Y506250D02*
D03*
X448250Y469750D02*
D03*
X487750Y502750D02*
D03*
X484250Y510000D02*
D03*
X557557Y464993D02*
D03*
X558581Y456544D02*
D03*
X540500Y551500D02*
D03*
X512411Y527169D02*
D03*
X520500Y530750D02*
D03*
X523000Y501250D02*
D03*
X528750Y509750D02*
D03*
X413815Y371185D02*
D03*
X438750Y535750D02*
D03*
X454850Y480100D02*
D03*
X421250Y480500D02*
D03*
X439750Y521500D02*
D03*
X435428Y528822D02*
D03*
X356800Y488000D02*
D03*
X323500Y487750D02*
D03*
X356800Y537192D02*
D03*
X356675Y509125D02*
D03*
X323840Y537320D02*
D03*
X318261Y601204D02*
D03*
X438250Y575250D02*
D03*
X405765Y575316D02*
D03*
X343250Y445750D02*
D03*
X363000Y445000D02*
D03*
X454250Y452750D02*
D03*
M02*
