G04*
G04 #@! TF.GenerationSoftware,Altium Limited,Altium Designer,25.3.3 (18)*
G04*
G04 Layer_Color=8388736*
%FSLAX44Y44*%
%MOMM*%
G71*
G04*
G04 #@! TF.SameCoordinates,F0D16187-FE8D-459B-8C95-B18988ECFBA9*
G04*
G04*
G04 #@! TF.FilePolarity,Negative*
G04*
G01*
G75*
%ADD17R,1.1032X1.2532*%
%ADD18R,0.8132X0.8382*%
%ADD19R,0.8382X0.8132*%
%ADD20R,2.9094X1.1574*%
%ADD21R,1.1574X2.9094*%
%ADD22C,3.4000*%
%ADD23C,2.5582*%
%ADD24C,1.7482*%
%ADD25C,1.6492*%
%ADD26C,1.7032*%
%ADD27C,3.2000*%
%ADD28R,1.7032X1.7032*%
D17*
X358000Y265000D02*
D03*
X342000D02*
D03*
X733000Y400000D02*
D03*
X717000D02*
D03*
X737000Y265000D02*
D03*
X753000D02*
D03*
X537000D02*
D03*
X553000D02*
D03*
D18*
X325000Y339030D02*
D03*
Y350970D02*
D03*
X525000Y339030D02*
D03*
Y350970D02*
D03*
X461000Y492470D02*
D03*
Y480530D02*
D03*
X362250Y451530D02*
D03*
Y463470D02*
D03*
X721005Y349925D02*
D03*
Y337985D02*
D03*
X230000Y350970D02*
D03*
Y339030D02*
D03*
X425000Y350970D02*
D03*
Y339030D02*
D03*
X553250Y365720D02*
D03*
Y353780D02*
D03*
X618000Y342970D02*
D03*
Y331030D02*
D03*
X426250Y445030D02*
D03*
Y456970D02*
D03*
X414750Y557280D02*
D03*
Y569220D02*
D03*
X414800Y461070D02*
D03*
Y449130D02*
D03*
X394750Y463970D02*
D03*
Y452030D02*
D03*
X374750Y463720D02*
D03*
Y451780D02*
D03*
X350250Y463720D02*
D03*
Y451780D02*
D03*
X338250Y561280D02*
D03*
Y573220D02*
D03*
X318050Y581130D02*
D03*
Y593070D02*
D03*
X403750Y557280D02*
D03*
Y569220D02*
D03*
X366250Y561780D02*
D03*
Y573720D02*
D03*
D19*
X459280Y470250D02*
D03*
X471220D02*
D03*
X304830Y439100D02*
D03*
X316770D02*
D03*
X327030Y614000D02*
D03*
X338970D02*
D03*
X330530Y515750D02*
D03*
X342470D02*
D03*
X330530Y537750D02*
D03*
X342470D02*
D03*
X643030Y348000D02*
D03*
X654970D02*
D03*
X459780Y507500D02*
D03*
X471720D02*
D03*
X418030Y535750D02*
D03*
X429970D02*
D03*
X426310Y491465D02*
D03*
X438250D02*
D03*
X448270Y480100D02*
D03*
X436330D02*
D03*
X418030Y524750D02*
D03*
X429970D02*
D03*
X427280Y513750D02*
D03*
X439220D02*
D03*
X432280Y502750D02*
D03*
X444220D02*
D03*
X433530Y560750D02*
D03*
X445470D02*
D03*
X433530Y549750D02*
D03*
X445470D02*
D03*
X465970Y459250D02*
D03*
X454030D02*
D03*
X342470Y487750D02*
D03*
X330530D02*
D03*
X342470Y467750D02*
D03*
X330530D02*
D03*
X342470Y504750D02*
D03*
X330530D02*
D03*
X342470Y526750D02*
D03*
X330530D02*
D03*
X335770Y550100D02*
D03*
X323830D02*
D03*
D20*
X304800Y498850D02*
D03*
Y466350D02*
D03*
D21*
X485050Y528100D02*
D03*
X452550D02*
D03*
X373800Y596350D02*
D03*
X406300D02*
D03*
D22*
X201300Y111800D02*
D03*
X328300D02*
D03*
X398800D02*
D03*
X525800D02*
D03*
X703300Y550900D02*
D03*
X576300D02*
D03*
X723300Y111800D02*
D03*
X596300D02*
D03*
D23*
X184150Y80000D02*
D03*
X345450D02*
D03*
X381650D02*
D03*
X542950D02*
D03*
X720450Y582700D02*
D03*
X559150D02*
D03*
X740450Y80000D02*
D03*
X579150D02*
D03*
D24*
X326000Y315000D02*
D03*
X300600D02*
D03*
X229000D02*
D03*
X203600D02*
D03*
X523500D02*
D03*
X498100D02*
D03*
X426500D02*
D03*
X401100D02*
D03*
X578600Y347700D02*
D03*
X604000D02*
D03*
X675600D02*
D03*
X701000D02*
D03*
X598600Y315000D02*
D03*
X624000D02*
D03*
X695600D02*
D03*
X721000D02*
D03*
D25*
X326000Y289600D02*
D03*
X305600D02*
D03*
X285200D02*
D03*
X244400D02*
D03*
X224000D02*
D03*
X203600D02*
D03*
X315800Y264200D02*
D03*
X295400D02*
D03*
X275000D02*
D03*
X254600D02*
D03*
X234200D02*
D03*
X213800D02*
D03*
X523500Y289600D02*
D03*
X503100D02*
D03*
X482700D02*
D03*
X441900D02*
D03*
X421500D02*
D03*
X401100D02*
D03*
X513300Y264200D02*
D03*
X492900D02*
D03*
X472500D02*
D03*
X452100D02*
D03*
X431700D02*
D03*
X411300D02*
D03*
X578600Y373100D02*
D03*
X599000D02*
D03*
X619400D02*
D03*
X660200D02*
D03*
X680600D02*
D03*
X701000D02*
D03*
X588800Y398500D02*
D03*
X609200D02*
D03*
X629600D02*
D03*
X650000D02*
D03*
X670400D02*
D03*
X690800D02*
D03*
X608800Y264200D02*
D03*
X629200D02*
D03*
X649600D02*
D03*
X670000D02*
D03*
X690400D02*
D03*
X710800D02*
D03*
X598600Y289600D02*
D03*
X619000D02*
D03*
X639400D02*
D03*
X680200D02*
D03*
X700600D02*
D03*
X721000D02*
D03*
D26*
X105000Y120000D02*
D03*
D27*
Y46800D02*
D03*
X770000Y635000D02*
D03*
Y145000D02*
D03*
X190000Y635000D02*
D03*
D28*
X105000Y90000D02*
D03*
M02*
