G04*
G04 #@! TF.GenerationSoftware,Altium Limited,Altium Designer,25.1.2 (22)*
G04*
G04 Layer_Color=16776960*
%FSLAX44Y44*%
%MOMM*%
G71*
G04*
G04 #@! TF.SameCoordinates,D9A04D4C-9399-4711-9A5C-C25994485AB8*
G04*
G04*
G04 #@! TF.FilePolarity,Positive*
G04*
G01*
G75*
%ADD10C,0.1500*%
%ADD11C,0.2000*%
%ADD77C,0.1000*%
%ADD78C,0.2540*%
D10*
X62500Y330750D02*
G03*
X62500Y330750I-500J0D01*
G01*
X55000Y518250D02*
G03*
X55000Y518250I-500J0D01*
G01*
X312520Y441801D02*
G03*
X312520Y441801I-750J0D01*
G01*
X348750Y2500D02*
Y62500D01*
X180850Y329600D02*
X348750D01*
Y97500D02*
Y329600D01*
X180850Y97500D02*
Y329600D01*
Y2500D02*
X348750D01*
X180850D02*
Y62500D01*
X546250Y2500D02*
Y62500D01*
X378350Y2500D02*
X546250D01*
Y97500D02*
Y329600D01*
X378350D02*
X546250D01*
X378350Y2500D02*
Y62500D01*
Y97500D02*
Y329600D01*
X107000Y546200D02*
Y562500D01*
Y499500D02*
Y515800D01*
X170000Y546200D02*
Y562500D01*
Y499500D02*
Y515800D01*
X107000Y562500D02*
X170000D01*
X107000Y499500D02*
X170000D01*
X37499Y276699D02*
Y293299D01*
X22499Y276699D02*
Y293299D01*
X76000Y361500D02*
X86000D01*
X76000Y330000D02*
X86000D01*
X68500Y549000D02*
X78500D01*
X68500Y517500D02*
X78500D01*
X140000Y14300D02*
Y101800D01*
X100000Y1800D02*
Y19300D01*
X70000Y14300D02*
Y101800D01*
X60750Y302531D02*
X71530D01*
X70000Y14300D02*
X82500Y1800D01*
X127500D02*
X140000Y14300D01*
X70000Y101800D02*
X140000D01*
X82500Y1800D02*
X127500D01*
X100000Y19300D02*
X110000D01*
Y1800D02*
Y19300D01*
X29700Y121650D02*
X31800D01*
X53200D02*
X55300D01*
X53200Y78350D02*
X55300D01*
X29700D02*
X31800D01*
X71530Y295250D02*
Y302531D01*
X61250Y272466D02*
X71530D01*
Y279750D01*
X58750Y285500D02*
Y289500D01*
X397500Y617250D02*
Y624750D01*
X374500Y617250D02*
Y624750D01*
X386500Y617250D02*
Y624750D01*
X398500Y617250D02*
Y624750D01*
X409500Y617250D02*
Y624750D01*
X359500Y617250D02*
Y624750D01*
X348500Y617250D02*
Y624750D01*
X362500Y617250D02*
Y624750D01*
X385500Y617250D02*
Y624750D01*
X373500Y617250D02*
Y624750D01*
X410500Y617250D02*
Y624750D01*
X421500Y617250D02*
Y624750D01*
X760500Y574250D02*
X770500D01*
X765500Y562000D02*
Y571000D01*
X760500Y558750D02*
X770500D01*
X140250Y629500D02*
X149500D01*
X136750Y622000D02*
Y637000D01*
X149500Y629500D02*
X158750D01*
X121000Y458250D02*
Y473250D01*
X162250Y622000D02*
Y637000D01*
X96750Y598500D02*
X111750D01*
X104250Y585750D02*
Y595000D01*
X76250Y443000D02*
X91250D01*
X83750Y455750D02*
Y465000D01*
Y446500D02*
Y455750D01*
X133750Y465750D02*
X143000D01*
X124500D02*
X133750D01*
X146500Y458250D02*
Y473250D01*
X104250Y576500D02*
Y585750D01*
X96750Y573000D02*
X111750D01*
X53750Y508000D02*
X63750D01*
X53750Y493500D02*
X63750D01*
X35000Y516000D02*
Y526000D01*
X49500Y516000D02*
Y526000D01*
X29700Y78350D02*
Y121650D01*
X55300Y78350D02*
Y121650D01*
X750000Y392250D02*
X760000D01*
X50000Y250250D02*
X60000D01*
X750000Y377750D02*
X760000D01*
X71250Y308500D02*
X81250D01*
X71250Y323000D02*
X81250D01*
X60000Y327000D02*
Y337000D01*
X50000Y264750D02*
X60000D01*
X45500Y327000D02*
Y337000D01*
X505250Y500500D02*
Y509500D01*
X575850Y329600D02*
X743750D01*
X575850Y97500D02*
Y329600D01*
X743750Y97500D02*
Y329600D01*
X755000Y357500D02*
Y366750D01*
Y348250D02*
Y357500D01*
X747500Y370250D02*
X762500D01*
X522750Y516500D02*
X530250D01*
X522750Y527500D02*
X530250D01*
X495500Y526750D02*
X503000D01*
X747500Y344750D02*
X762500D01*
X495500Y537750D02*
X503000D01*
X575850Y2500D02*
Y62500D01*
X723750Y333100D02*
Y565200D01*
X555850Y333100D02*
X723750D01*
Y600200D02*
Y660200D01*
X555850Y600200D02*
Y660200D01*
X723750D01*
X268000Y499750D02*
X278000D01*
X268000Y514250D02*
X278000D01*
X277418Y529823D02*
X284918D01*
X555850Y333100D02*
Y565200D01*
X277418Y518824D02*
X284918D01*
X318800Y575899D02*
Y580100D01*
X454599D02*
X458800D01*
X318800D02*
X323001D01*
X575850Y2500D02*
X743750D01*
Y62500D01*
X318800Y440100D02*
X323001D01*
X318800D02*
Y444301D01*
X458800Y440100D02*
Y444301D01*
Y575899D02*
Y580100D01*
X454599Y440100D02*
X458800D01*
X247500Y637500D02*
X367500D01*
X365000Y640000D02*
X367500Y637500D01*
X342500Y610000D02*
X345000Y612500D01*
X342500Y615000D02*
X345000Y612500D01*
X342500Y615000D02*
X345000Y612500D01*
X495500Y577750D02*
X503000D01*
X495500Y573250D02*
X503000D01*
X495500Y588750D02*
X503000D01*
X365000Y640000D02*
X367500Y637500D01*
X365000Y635000D02*
X367500Y637500D01*
X392500Y638250D02*
Y645750D01*
X393500Y638250D02*
Y645750D01*
X381500Y638250D02*
Y645750D01*
X369500Y638250D02*
Y645750D01*
X380500Y638250D02*
Y645750D01*
X207500Y612500D02*
X332500D01*
X345000D01*
X495500Y561250D02*
X503000D01*
X404500Y638250D02*
Y645750D01*
X495500Y550250D02*
X503000D01*
X495500Y562250D02*
X503000D01*
X463000Y598500D02*
X470500D01*
X495250Y445500D02*
X505250D01*
X495500Y521750D02*
X503000D01*
X500250Y448750D02*
Y457750D01*
X445250Y634750D02*
X452750D01*
X445250Y623750D02*
X452750D01*
X453500Y609750D02*
X461000D01*
X463000Y587500D02*
X470500D01*
X453500Y620750D02*
X461000D01*
X522750Y557250D02*
X530250D01*
X522750Y533750D02*
X530250D01*
X522750Y546250D02*
X530250D01*
X522750Y569250D02*
X530250D01*
X522750Y558250D02*
X530250D01*
X495500Y539250D02*
X503000D01*
X495500Y550250D02*
X503000D01*
X522750Y570250D02*
X530250D01*
X522750Y544750D02*
X530250D01*
X522750Y581250D02*
X530250D01*
X76250Y468500D02*
X91250D01*
X56250Y370500D02*
X71250D01*
X63750Y374000D02*
Y383250D01*
X33500Y228500D02*
X51500Y246500D01*
Y143500D02*
X136500D01*
X51500Y246500D02*
X136500D01*
X49250Y566500D02*
Y575750D01*
Y585000D01*
X41750Y563000D02*
X56750D01*
X63750Y383250D02*
Y392500D01*
X56250Y396000D02*
X71250D01*
X33500Y161500D02*
Y181800D01*
Y161500D02*
X51500Y143500D01*
X33500Y208200D02*
Y228500D01*
X136500Y208200D02*
Y246500D01*
Y143500D02*
Y181800D01*
X41750Y588500D02*
X56750D01*
X83750Y418250D02*
Y427500D01*
Y409000D02*
Y418250D01*
X76250Y431000D02*
X91250D01*
X45500Y327000D02*
Y337000D01*
X33250Y332000D02*
X42250D01*
X104250Y611500D02*
Y620750D01*
X96750Y608000D02*
X111750D01*
X104250Y620750D02*
Y630000D01*
X76250Y405500D02*
X91250D01*
X96750Y633500D02*
X111750D01*
X86250Y508500D02*
X96250D01*
X86250Y493000D02*
X96250D01*
X106250Y311250D02*
Y320250D01*
X101250Y323500D02*
X111250D01*
X101250Y308000D02*
X111250D01*
X22750Y521000D02*
X31750D01*
X30000Y327000D02*
Y337000D01*
X35000Y516000D02*
Y526000D01*
X91250Y496250D02*
Y505250D01*
X19500Y516000D02*
Y526000D01*
D11*
X30999Y314999D02*
G03*
X30999Y314999I-1000J0D01*
G01*
X133750Y336250D02*
G03*
X133750Y334250I0J-1000D01*
G01*
X56000Y130000D02*
G03*
X56000Y130000I-1000J0D01*
G01*
X133750Y334250D02*
G03*
X133750Y336250I0J1000D01*
G01*
X187414Y557749D02*
Y549751D01*
X182083D01*
X174086D02*
X179417D01*
X174086Y555083D01*
Y556416D01*
X175418Y557749D01*
X178084D01*
X179417Y556416D01*
X24663Y319749D02*
Y314417D01*
X21997Y311751D01*
X19332Y314417D01*
Y319749D01*
X16666D02*
Y311751D01*
X12667D01*
X11334Y313084D01*
Y318416D01*
X12667Y319749D01*
X16666D01*
X3337Y311751D02*
X8668D01*
X3337Y317083D01*
Y318416D01*
X4670Y319749D01*
X7336D01*
X8668Y318416D01*
X100163Y562249D02*
Y554251D01*
X96165D01*
X94832Y555584D01*
Y560916D01*
X96165Y562249D01*
X100163D01*
X92166Y554251D02*
Y559583D01*
X89500Y562249D01*
X86834Y559583D01*
Y554251D01*
Y558250D01*
X92166D01*
X78837Y554251D02*
X84168D01*
X78837Y559583D01*
Y560916D01*
X80170Y562249D01*
X82836D01*
X84168Y560916D01*
X120830Y336249D02*
Y328251D01*
X116832D01*
X115499Y329584D01*
Y334916D01*
X116832Y336249D01*
X120830D01*
X112833Y328251D02*
Y333583D01*
X110167Y336249D01*
X107501Y333583D01*
Y328251D01*
Y332250D01*
X112833D01*
X104836Y328251D02*
X102170D01*
X103503D01*
Y336249D01*
X104836Y334916D01*
X761999Y448666D02*
X763332Y449998D01*
X765998D01*
X767331Y448666D01*
Y447333D01*
X765998Y446000D01*
X763332D01*
X761999Y444667D01*
Y443334D01*
X763332Y442001D01*
X765998D01*
X767331Y443334D01*
X759334Y442001D02*
X756668D01*
X758001D01*
Y449998D01*
X759334Y448666D01*
X32082Y385416D02*
X33414Y386749D01*
X36080D01*
X37413Y385416D01*
Y380084D01*
X36080Y378751D01*
X33414D01*
X32082Y380084D01*
X29416Y385416D02*
X28083Y386749D01*
X25417D01*
X24084Y385416D01*
Y384083D01*
X25417Y382750D01*
X26750D01*
X25417D01*
X24084Y381417D01*
Y380084D01*
X25417Y378751D01*
X28083D01*
X29416Y380084D01*
X21418Y386749D02*
X16087D01*
Y385416D01*
X21418Y380084D01*
Y378751D01*
X66358Y606417D02*
X67691Y607749D01*
X70357D01*
X71690Y606417D01*
Y601085D01*
X70357Y599752D01*
X67691D01*
X66358Y601085D01*
X63693Y606417D02*
X62360Y607749D01*
X59694D01*
X58361Y606417D01*
Y605084D01*
X59694Y603751D01*
X61027D01*
X59694D01*
X58361Y602418D01*
Y601085D01*
X59694Y599752D01*
X62360D01*
X63693Y601085D01*
X55695Y606417D02*
X54362Y607749D01*
X51696D01*
X50364Y606417D01*
Y605084D01*
X51696Y603751D01*
X50364Y602418D01*
Y601085D01*
X51696Y599752D01*
X54362D01*
X55695Y601085D01*
Y602418D01*
X54362Y603751D01*
X55695Y605084D01*
Y606417D01*
X54362Y603751D02*
X51696D01*
X118082Y302916D02*
X119415Y304249D01*
X122080D01*
X123413Y302916D01*
Y297584D01*
X122080Y296251D01*
X119415D01*
X118082Y297584D01*
X115416Y302916D02*
X114083Y304249D01*
X111417D01*
X110084Y302916D01*
Y301583D01*
X111417Y300250D01*
X112750D01*
X111417D01*
X110084Y298917D01*
Y297584D01*
X111417Y296251D01*
X114083D01*
X115416Y297584D01*
X107418D02*
X106086Y296251D01*
X103420D01*
X102087Y297584D01*
Y302916D01*
X103420Y304249D01*
X106086D01*
X107418Y302916D01*
Y301583D01*
X106086Y300250D01*
X102087D01*
X96332Y487666D02*
X97664Y488999D01*
X100330D01*
X101663Y487666D01*
Y482334D01*
X100330Y481001D01*
X97664D01*
X96332Y482334D01*
X89667Y481001D02*
Y488999D01*
X93666Y485000D01*
X88334D01*
X85668Y487666D02*
X84335Y488999D01*
X81670D01*
X80337Y487666D01*
Y482334D01*
X81670Y481001D01*
X84335D01*
X85668Y482334D01*
Y487666D01*
X18249Y546416D02*
X19582Y547749D01*
X22247D01*
X23580Y546416D01*
Y541084D01*
X22247Y539751D01*
X19582D01*
X18249Y541084D01*
X11584Y539751D02*
Y547749D01*
X15583Y543750D01*
X10251D01*
X7585Y539751D02*
X4920D01*
X6253D01*
Y547749D01*
X7585Y546416D01*
X22332Y336166D02*
X23665Y337499D01*
X26330D01*
X27663Y336166D01*
Y330834D01*
X26330Y329501D01*
X23665D01*
X22332Y330834D01*
X15667Y329501D02*
Y337499D01*
X19666Y333500D01*
X14334D01*
X6337Y329501D02*
X11668D01*
X6337Y334833D01*
Y336166D01*
X7670Y337499D01*
X10336D01*
X11668Y336166D01*
X50332Y421416D02*
X51665Y422749D01*
X54330D01*
X55663Y421416D01*
Y416084D01*
X54330Y414751D01*
X51665D01*
X50332Y416084D01*
X43667Y414751D02*
Y422749D01*
X47666Y418750D01*
X42334D01*
X39668Y421416D02*
X38335Y422749D01*
X35670D01*
X34337Y421416D01*
Y420083D01*
X35670Y418750D01*
X37003D01*
X35670D01*
X34337Y417417D01*
Y416084D01*
X35670Y414751D01*
X38335D01*
X39668Y416084D01*
X91832Y646166D02*
X93165Y647499D01*
X95830D01*
X97163Y646166D01*
Y640834D01*
X95830Y639501D01*
X93165D01*
X91832Y640834D01*
X85167Y639501D02*
Y647499D01*
X89166Y643500D01*
X83834D01*
X77170Y639501D02*
Y647499D01*
X81168Y643500D01*
X75837D01*
X51082Y458666D02*
X52414Y459999D01*
X55080D01*
X56413Y458666D01*
Y453334D01*
X55080Y452001D01*
X52414D01*
X51082Y453334D01*
X44417Y452001D02*
Y459999D01*
X48416Y456000D01*
X43084D01*
X35087Y459999D02*
X40418D01*
Y456000D01*
X37753Y457333D01*
X36420D01*
X35087Y456000D01*
Y453334D01*
X36420Y452001D01*
X39086D01*
X40418Y453334D01*
X146582Y578916D02*
X147914Y580249D01*
X150580D01*
X151913Y578916D01*
Y573584D01*
X150580Y572251D01*
X147914D01*
X146582Y573584D01*
X139917Y572251D02*
Y580249D01*
X143916Y576250D01*
X138584D01*
X130587Y580249D02*
X133253Y578916D01*
X135918Y576250D01*
Y573584D01*
X134586Y572251D01*
X131920D01*
X130587Y573584D01*
Y574917D01*
X131920Y576250D01*
X135918D01*
X169332Y472666D02*
X170665Y473999D01*
X173330D01*
X174663Y472666D01*
Y467334D01*
X173330Y466001D01*
X170665D01*
X169332Y467334D01*
X162667Y466001D02*
Y473999D01*
X166666Y470000D01*
X161334D01*
X158668Y473999D02*
X153337D01*
Y472666D01*
X158668Y467334D01*
Y466001D01*
X124582Y656666D02*
X125914Y657999D01*
X128580D01*
X129913Y656666D01*
Y651334D01*
X128580Y650001D01*
X125914D01*
X124582Y651334D01*
X117917Y650001D02*
Y657999D01*
X121916Y654000D01*
X116584D01*
X113918Y656666D02*
X112585Y657999D01*
X109920D01*
X108587Y656666D01*
Y655333D01*
X109920Y654000D01*
X108587Y652667D01*
Y651334D01*
X109920Y650001D01*
X112585D01*
X113918Y651334D01*
Y652667D01*
X112585Y654000D01*
X113918Y655333D01*
Y656666D01*
X112585Y654000D02*
X109920D01*
X168332Y407999D02*
Y400001D01*
X163000D01*
X160334D02*
X157668D01*
X159001D01*
Y407999D01*
X160334Y406666D01*
X60163Y351251D02*
Y359249D01*
X56164D01*
X54832Y357916D01*
Y355250D01*
X56164Y353917D01*
X60163D01*
X57497D02*
X54832Y351251D01*
X48167D02*
Y359249D01*
X52166Y355250D01*
X46834D01*
X40170Y351251D02*
Y359249D01*
X44168Y355250D01*
X38837D01*
X95413Y296001D02*
Y303999D01*
X91414D01*
X90082Y302666D01*
Y300000D01*
X91414Y298667D01*
X95413D01*
X92747D02*
X90082Y296001D01*
X83417D02*
Y303999D01*
X87416Y300000D01*
X82084D01*
X74087Y303999D02*
X79418D01*
Y300000D01*
X76753Y301333D01*
X75420D01*
X74087Y300000D01*
Y297334D01*
X75420Y296001D01*
X78085D01*
X79418Y297334D01*
X52663Y539751D02*
Y547749D01*
X48664D01*
X47332Y546416D01*
Y543750D01*
X48664Y542417D01*
X52663D01*
X49997D02*
X47332Y539751D01*
X40667D02*
Y547749D01*
X44666Y543750D01*
X39334D01*
X31337Y547749D02*
X34003Y546416D01*
X36668Y543750D01*
Y541084D01*
X35336Y539751D01*
X32670D01*
X31337Y541084D01*
Y542417D01*
X32670Y543750D01*
X36668D01*
X68663Y481251D02*
Y489249D01*
X64665D01*
X63332Y487916D01*
Y485250D01*
X64665Y483917D01*
X68663D01*
X65997D02*
X63332Y481251D01*
X56667D02*
Y489249D01*
X60666Y485250D01*
X55334D01*
X52668Y489249D02*
X47337D01*
Y487916D01*
X52668Y482584D01*
Y481251D01*
X166999Y457666D02*
X168332Y458999D01*
X170997D01*
X172330Y457666D01*
Y456333D01*
X170997Y455000D01*
X168332D01*
X166999Y453667D01*
Y452334D01*
X168332Y451001D01*
X170997D01*
X172330Y452334D01*
X164333Y458999D02*
Y451001D01*
X160334D01*
X159001Y452334D01*
Y453667D01*
X160334Y455000D01*
X164333D01*
X160334D01*
X159001Y456333D01*
Y457666D01*
X160334Y458999D01*
X164333D01*
X156335Y451001D02*
X153670D01*
X155003D01*
Y458999D01*
X156335Y457666D01*
X170332Y598666D02*
X171665Y599999D01*
X174330D01*
X175663Y598666D01*
Y597333D01*
X174330Y596000D01*
X171665D01*
X170332Y594667D01*
Y593334D01*
X171665Y592001D01*
X174330D01*
X175663Y593334D01*
X167666Y599999D02*
Y592001D01*
X163667D01*
X162334Y593334D01*
Y594667D01*
X163667Y596000D01*
X167666D01*
X163667D01*
X162334Y597333D01*
Y598666D01*
X163667Y599999D01*
X167666D01*
X154337Y592001D02*
X159668D01*
X154337Y597333D01*
Y598666D01*
X155670Y599999D01*
X158336D01*
X159668Y598666D01*
X537330Y482999D02*
X531999D01*
Y481666D01*
X537330Y476334D01*
Y475001D01*
X531999D01*
X524001Y476334D02*
Y481666D01*
X525334Y482999D01*
X528000D01*
X529333Y481666D01*
Y476334D01*
X528000Y475001D01*
X525334D01*
X526667Y477667D02*
X524001Y475001D01*
X525334D02*
X524001Y476334D01*
X521335Y475001D02*
X518670D01*
X520003D01*
Y482999D01*
X521335Y481666D01*
X204663Y344999D02*
X199332Y337001D01*
Y344999D02*
X204663Y337001D01*
X191334Y343666D02*
X192667Y344999D01*
X195333D01*
X196666Y343666D01*
Y342333D01*
X195333Y341000D01*
X192667D01*
X191334Y339667D01*
Y338334D01*
X192667Y337001D01*
X195333D01*
X196666Y338334D01*
X184670Y337001D02*
Y344999D01*
X188668Y341000D01*
X183337D01*
X401913Y345249D02*
X396582Y337251D01*
Y345249D02*
X401913Y337251D01*
X388584Y343916D02*
X389917Y345249D01*
X392583D01*
X393916Y343916D01*
Y342583D01*
X392583Y341250D01*
X389917D01*
X388584Y339917D01*
Y338584D01*
X389917Y337251D01*
X392583D01*
X393916Y338584D01*
X385918Y343916D02*
X384585Y345249D01*
X381920D01*
X380587Y343916D01*
Y342583D01*
X381920Y341250D01*
X383253D01*
X381920D01*
X380587Y339917D01*
Y338584D01*
X381920Y337251D01*
X384585D01*
X385918Y338584D01*
X769663Y260249D02*
X764332Y252251D01*
Y260249D02*
X769663Y252251D01*
X756334Y258916D02*
X757667Y260249D01*
X760333D01*
X761666Y258916D01*
Y257583D01*
X760333Y256250D01*
X757667D01*
X756334Y254917D01*
Y253584D01*
X757667Y252251D01*
X760333D01*
X761666Y253584D01*
X748337Y252251D02*
X753668D01*
X748337Y257583D01*
Y258916D01*
X749670Y260249D01*
X752336D01*
X753668Y258916D01*
X549830Y413499D02*
X544499Y405501D01*
Y413499D02*
X549830Y405501D01*
X536501Y412166D02*
X537834Y413499D01*
X540500D01*
X541833Y412166D01*
Y410833D01*
X540500Y409500D01*
X537834D01*
X536501Y408167D01*
Y406834D01*
X537834Y405501D01*
X540500D01*
X541833Y406834D01*
X533835Y405501D02*
X531170D01*
X532503D01*
Y413499D01*
X533835Y412166D01*
X140330Y114749D02*
X134999Y106751D01*
Y114749D02*
X140330Y106751D01*
X132333D02*
Y114749D01*
X128334D01*
X127001Y113416D01*
Y110750D01*
X128334Y109417D01*
X132333D01*
X124335Y106751D02*
X121670D01*
X123003D01*
Y114749D01*
X124335Y113416D01*
X96330Y277999D02*
Y272667D01*
X93665Y270001D01*
X90999Y272667D01*
Y277999D01*
X88333D02*
X83001D01*
X85667D01*
Y270001D01*
X80336D02*
X77670D01*
X79003D01*
Y277999D01*
X80336Y276666D01*
X24330Y104499D02*
Y99167D01*
X21665Y96501D01*
X18999Y99167D01*
Y104499D01*
X16333D02*
Y96501D01*
X12334D01*
X11001Y97834D01*
Y103166D01*
X12334Y104499D01*
X16333D01*
X8335Y96501D02*
X5670D01*
X7003D01*
Y104499D01*
X8335Y103166D01*
X92413Y253751D02*
Y261749D01*
X88414D01*
X87082Y260416D01*
Y257750D01*
X88414Y256417D01*
X92413D01*
X89747D02*
X87082Y253751D01*
X80417D02*
Y261749D01*
X84416Y257750D01*
X79084D01*
X76418Y260416D02*
X75086Y261749D01*
X72420D01*
X71087Y260416D01*
Y259083D01*
X72420Y257750D01*
X73753D01*
X72420D01*
X71087Y256417D01*
Y255084D01*
X72420Y253751D01*
X75086D01*
X76418Y255084D01*
X510663Y630001D02*
Y637999D01*
X506665D01*
X505332Y636666D01*
Y634000D01*
X506665Y632667D01*
X510663D01*
X507997D02*
X505332Y630001D01*
X502666Y636666D02*
X501333Y637999D01*
X498667D01*
X497334Y636666D01*
Y635333D01*
X498667Y634000D01*
X500000D01*
X498667D01*
X497334Y632667D01*
Y631334D01*
X498667Y630001D01*
X501333D01*
X502666Y631334D01*
X490670Y630001D02*
Y637999D01*
X494668Y634000D01*
X489337D01*
X541663Y611001D02*
Y618999D01*
X537664D01*
X536332Y617666D01*
Y615000D01*
X537664Y613667D01*
X541663D01*
X538997D02*
X536332Y611001D01*
X533666Y617666D02*
X532333Y618999D01*
X529667D01*
X528334Y617666D01*
Y616333D01*
X529667Y615000D01*
X531000D01*
X529667D01*
X528334Y613667D01*
Y612334D01*
X529667Y611001D01*
X532333D01*
X533666Y612334D01*
X525668Y617666D02*
X524336Y618999D01*
X521670D01*
X520337Y617666D01*
Y616333D01*
X521670Y615000D01*
X523003D01*
X521670D01*
X520337Y613667D01*
Y612334D01*
X521670Y611001D01*
X524336D01*
X525668Y612334D01*
X510663Y618001D02*
Y625999D01*
X506665D01*
X505332Y624666D01*
Y622000D01*
X506665Y620667D01*
X510663D01*
X507997D02*
X505332Y618001D01*
X502666Y624666D02*
X501333Y625999D01*
X498667D01*
X497334Y624666D01*
Y623333D01*
X498667Y622000D01*
X500000D01*
X498667D01*
X497334Y620667D01*
Y619334D01*
X498667Y618001D01*
X501333D01*
X502666Y619334D01*
X489337Y618001D02*
X494668D01*
X489337Y623333D01*
Y624666D01*
X490670Y625999D01*
X493335D01*
X494668Y624666D01*
X541663Y599001D02*
Y606999D01*
X537664D01*
X536332Y605666D01*
Y603000D01*
X537664Y601667D01*
X541663D01*
X538997D02*
X536332Y599001D01*
X533666Y605666D02*
X532333Y606999D01*
X529667D01*
X528334Y605666D01*
Y604333D01*
X529667Y603000D01*
X531000D01*
X529667D01*
X528334Y601667D01*
Y600334D01*
X529667Y599001D01*
X532333D01*
X533666Y600334D01*
X525668Y605666D02*
X524336Y606999D01*
X521670D01*
X520337Y605666D01*
Y600334D01*
X521670Y599001D01*
X524336D01*
X525668Y600334D01*
Y605666D01*
X764602Y400108D02*
Y408105D01*
X760603D01*
X759270Y406772D01*
Y404107D01*
X760603Y402774D01*
X764602D01*
X761936D02*
X759270Y400108D01*
X756605Y406772D02*
X755272Y408105D01*
X752606D01*
X751273Y406772D01*
Y405440D01*
X752606Y404107D01*
X753939D01*
X752606D01*
X751273Y402774D01*
Y401441D01*
X752606Y400108D01*
X755272D01*
X756605Y401441D01*
X748607Y400108D02*
X745941D01*
X747274D01*
Y408105D01*
X748607Y406772D01*
X510663Y606001D02*
Y613999D01*
X506665D01*
X505332Y612666D01*
Y610000D01*
X506665Y608667D01*
X510663D01*
X507997D02*
X505332Y606001D01*
X497334D02*
X502666D01*
X497334Y611333D01*
Y612666D01*
X498667Y613999D01*
X501333D01*
X502666Y612666D01*
X494668Y607334D02*
X493335Y606001D01*
X490670D01*
X489337Y607334D01*
Y612666D01*
X490670Y613999D01*
X493335D01*
X494668Y612666D01*
Y611333D01*
X493335Y610000D01*
X489337D01*
X541663Y587001D02*
Y594999D01*
X537664D01*
X536332Y593666D01*
Y591000D01*
X537664Y589667D01*
X541663D01*
X538997D02*
X536332Y587001D01*
X528334D02*
X533666D01*
X528334Y592333D01*
Y593666D01*
X529667Y594999D01*
X532333D01*
X533666Y593666D01*
X525668D02*
X524336Y594999D01*
X521670D01*
X520337Y593666D01*
Y592333D01*
X521670Y591000D01*
X520337Y589667D01*
Y588334D01*
X521670Y587001D01*
X524336D01*
X525668Y588334D01*
Y589667D01*
X524336Y591000D01*
X525668Y592333D01*
Y593666D01*
X524336Y591000D02*
X521670D01*
X510663Y594001D02*
Y601999D01*
X506665D01*
X505332Y600666D01*
Y598000D01*
X506665Y596667D01*
X510663D01*
X507997D02*
X505332Y594001D01*
X497334D02*
X502666D01*
X497334Y599333D01*
Y600666D01*
X498667Y601999D01*
X501333D01*
X502666Y600666D01*
X494668D02*
X493335Y601999D01*
X490670D01*
X489337Y600666D01*
Y599333D01*
X490670Y598000D01*
X492003D01*
X490670D01*
X489337Y596667D01*
Y595334D01*
X490670Y594001D01*
X493335D01*
X494668Y595334D01*
X541997Y623001D02*
Y630999D01*
X537998D01*
X536665Y629666D01*
Y627000D01*
X537998Y625667D01*
X541997D01*
X539331D02*
X536665Y623001D01*
X533999D02*
X531334D01*
X532666D01*
Y630999D01*
X533999Y629666D01*
X527335D02*
X526002Y630999D01*
X523336D01*
X522003Y629666D01*
Y628333D01*
X523336Y627000D01*
X522003Y625667D01*
Y624334D01*
X523336Y623001D01*
X526002D01*
X527335Y624334D01*
Y625667D01*
X526002Y627000D01*
X527335Y628333D01*
Y629666D01*
X526002Y627000D02*
X523336D01*
X510997Y642001D02*
Y649999D01*
X506998D01*
X505665Y648666D01*
Y646000D01*
X506998Y644667D01*
X510997D01*
X508331D02*
X505665Y642001D01*
X502999D02*
X500334D01*
X501666D01*
Y649999D01*
X502999Y648666D01*
X496335Y649999D02*
X491003D01*
Y648666D01*
X496335Y643334D01*
Y642001D01*
X541997Y635001D02*
Y642999D01*
X537998D01*
X536665Y641666D01*
Y639000D01*
X537998Y637667D01*
X541997D01*
X539331D02*
X536665Y635001D01*
X533999D02*
X531334D01*
X532666D01*
Y642999D01*
X533999Y641666D01*
X522003Y642999D02*
X524669Y641666D01*
X527335Y639000D01*
Y636334D01*
X526002Y635001D01*
X523336D01*
X522003Y636334D01*
Y637667D01*
X523336Y639000D01*
X527335D01*
X510997Y654001D02*
Y661999D01*
X506998D01*
X505665Y660666D01*
Y658000D01*
X506998Y656667D01*
X510997D01*
X508331D02*
X505665Y654001D01*
X502999D02*
X500334D01*
X501666D01*
Y661999D01*
X502999Y660666D01*
X491003Y661999D02*
X496335D01*
Y658000D01*
X493669Y659333D01*
X492336D01*
X491003Y658000D01*
Y655334D01*
X492336Y654001D01*
X495002D01*
X496335Y655334D01*
X264747Y643751D02*
Y651749D01*
X260748D01*
X259415Y650416D01*
Y647750D01*
X260748Y646417D01*
X264747D01*
X262081D02*
X259415Y643751D01*
X256749D02*
X254084D01*
X255417D01*
Y651749D01*
X256749Y650416D01*
X246086Y643751D02*
Y651749D01*
X250085Y647750D01*
X244753D01*
X267497Y620001D02*
Y627999D01*
X263498D01*
X262165Y626666D01*
Y624000D01*
X263498Y622667D01*
X267497D01*
X264831D02*
X262165Y620001D01*
X259499D02*
X256833D01*
X258166D01*
Y627999D01*
X259499Y626666D01*
X252835D02*
X251502Y627999D01*
X248836D01*
X247503Y626666D01*
Y625333D01*
X248836Y624000D01*
X250169D01*
X248836D01*
X247503Y622667D01*
Y621334D01*
X248836Y620001D01*
X251502D01*
X252835Y621334D01*
X291997Y643001D02*
Y650999D01*
X287998D01*
X286665Y649666D01*
Y647000D01*
X287998Y645667D01*
X291997D01*
X289331D02*
X286665Y643001D01*
X283999D02*
X281334D01*
X282666D01*
Y650999D01*
X283999Y649666D01*
X272003Y643001D02*
X277335D01*
X272003Y648333D01*
Y649666D01*
X273336Y650999D01*
X276002D01*
X277335Y649666D01*
X291164Y620001D02*
Y627999D01*
X287165D01*
X285832Y626666D01*
Y624000D01*
X287165Y622667D01*
X291164D01*
X288498D02*
X285832Y620001D01*
X283166D02*
X280501D01*
X281833D01*
Y627999D01*
X283166Y626666D01*
X276502Y620001D02*
X273836D01*
X275169D01*
Y627999D01*
X276502Y626666D01*
X321997Y643251D02*
Y651249D01*
X317998D01*
X316665Y649916D01*
Y647250D01*
X317998Y645917D01*
X321997D01*
X319331D02*
X316665Y643251D01*
X313999D02*
X311334D01*
X312666D01*
Y651249D01*
X313999Y649916D01*
X307335D02*
X306002Y651249D01*
X303336D01*
X302003Y649916D01*
Y644584D01*
X303336Y643251D01*
X306002D01*
X307335Y644584D01*
Y649916D01*
X311665Y620001D02*
Y627999D01*
X307666D01*
X306333Y626666D01*
Y624000D01*
X307666Y622667D01*
X311665D01*
X308999D02*
X306333Y620001D01*
X303667Y621334D02*
X302334Y620001D01*
X299668D01*
X298335Y621334D01*
Y626666D01*
X299668Y627999D01*
X302334D01*
X303667Y626666D01*
Y625333D01*
X302334Y624000D01*
X298335D01*
X331665Y620001D02*
Y627999D01*
X327666D01*
X326333Y626666D01*
Y624000D01*
X327666Y622667D01*
X331665D01*
X328999D02*
X326333Y620001D01*
X323667Y626666D02*
X322334Y627999D01*
X319668D01*
X318335Y626666D01*
Y625333D01*
X319668Y624000D01*
X318335Y622667D01*
Y621334D01*
X319668Y620001D01*
X322334D01*
X323667Y621334D01*
Y622667D01*
X322334Y624000D01*
X323667Y625333D01*
Y626666D01*
X322334Y624000D02*
X319668D01*
X454664Y639001D02*
Y646999D01*
X450666D01*
X449333Y645666D01*
Y643000D01*
X450666Y641667D01*
X454664D01*
X451999D02*
X449333Y639001D01*
X446667Y646999D02*
X441335D01*
Y645666D01*
X446667Y640334D01*
Y639001D01*
X479664Y622001D02*
Y629999D01*
X475666D01*
X474333Y628666D01*
Y626000D01*
X475666Y624667D01*
X479664D01*
X476999D02*
X474333Y622001D01*
X466335Y629999D02*
X469001Y628666D01*
X471667Y626000D01*
Y623334D01*
X470334Y622001D01*
X467668D01*
X466335Y623334D01*
Y624667D01*
X467668Y626000D01*
X471667D01*
X483665Y602001D02*
Y609999D01*
X479666D01*
X478333Y608666D01*
Y606000D01*
X479666Y604667D01*
X483665D01*
X480999D02*
X478333Y602001D01*
X470336Y609999D02*
X475667D01*
Y606000D01*
X473001Y607333D01*
X471668D01*
X470336Y606000D01*
Y603334D01*
X471668Y602001D01*
X474334D01*
X475667Y603334D01*
X241665Y620001D02*
Y627999D01*
X237666D01*
X236333Y626666D01*
Y624000D01*
X237666Y622667D01*
X241665D01*
X238999D02*
X236333Y620001D01*
X229668D02*
Y627999D01*
X233667Y624000D01*
X228335D01*
X221665Y620001D02*
Y627999D01*
X217666D01*
X216333Y626666D01*
Y624000D01*
X217666Y622667D01*
X221665D01*
X218999D02*
X216333Y620001D01*
X213667Y626666D02*
X212334Y627999D01*
X209668D01*
X208335Y626666D01*
Y625333D01*
X209668Y624000D01*
X211001D01*
X209668D01*
X208335Y622667D01*
Y621334D01*
X209668Y620001D01*
X212334D01*
X213667Y621334D01*
X267164Y521501D02*
Y529499D01*
X263166D01*
X261833Y528166D01*
Y525500D01*
X263166Y524167D01*
X267164D01*
X264499D02*
X261833Y521501D01*
X253836D02*
X259167D01*
X253836Y526833D01*
Y528166D01*
X255168Y529499D01*
X257834D01*
X259167Y528166D01*
X256582Y499501D02*
Y507499D01*
X252583D01*
X251250Y506166D01*
Y503500D01*
X252583Y502167D01*
X256582D01*
X253916D02*
X251250Y499501D01*
X248584D02*
X245918D01*
X247251D01*
Y507499D01*
X248584Y506166D01*
X440330Y611999D02*
Y604001D01*
X436332D01*
X434999Y605334D01*
Y610666D01*
X436332Y611999D01*
X440330D01*
X432333D02*
Y604001D01*
X428334D01*
X427001Y605334D01*
Y610666D01*
X428334Y611999D01*
X432333D01*
X424336Y604001D02*
X421670D01*
X423003D01*
Y611999D01*
X424336Y610666D01*
X21332Y224416D02*
X22664Y225749D01*
X25330D01*
X26663Y224416D01*
Y219084D01*
X25330Y217751D01*
X22664D01*
X21332Y219084D01*
X18666Y224416D02*
X17333Y225749D01*
X14667D01*
X13334Y224416D01*
Y223083D01*
X14667Y221750D01*
X16000D01*
X14667D01*
X13334Y220417D01*
Y219084D01*
X14667Y217751D01*
X17333D01*
X18666Y219084D01*
X5337Y225749D02*
X8003Y224416D01*
X10668Y221750D01*
Y219084D01*
X9336Y217751D01*
X6670D01*
X5337Y219084D01*
Y220417D01*
X6670Y221750D01*
X10668D01*
X765999Y337666D02*
X767332Y338999D01*
X769997D01*
X771330Y337666D01*
Y332334D01*
X769997Y331001D01*
X767332D01*
X765999Y332334D01*
X763333Y337666D02*
X762000Y338999D01*
X759334D01*
X758001Y337666D01*
Y336333D01*
X759334Y335000D01*
X760667D01*
X759334D01*
X758001Y333667D01*
Y332334D01*
X759334Y331001D01*
X762000D01*
X763333Y332334D01*
X755335Y331001D02*
X752670D01*
X754003D01*
Y338999D01*
X755335Y337666D01*
X532332Y455666D02*
X533665Y456999D01*
X536330D01*
X537663Y455666D01*
Y450334D01*
X536330Y449001D01*
X533665D01*
X532332Y450334D01*
X524334Y449001D02*
X529666D01*
X524334Y454333D01*
Y455666D01*
X525667Y456999D01*
X528333D01*
X529666Y455666D01*
X521668D02*
X520336Y456999D01*
X517670D01*
X516337Y455666D01*
Y454333D01*
X517670Y453000D01*
X519003D01*
X517670D01*
X516337Y451667D01*
Y450334D01*
X517670Y449001D01*
X520336D01*
X521668Y450334D01*
X771716Y588637D02*
X773049Y589969D01*
X775715D01*
X777048Y588637D01*
Y583305D01*
X775715Y581972D01*
X773049D01*
X771716Y583305D01*
X763719Y581972D02*
X769051D01*
X763719Y587304D01*
Y588637D01*
X765052Y589969D01*
X767718D01*
X769051Y588637D01*
X755722Y589969D02*
X761053D01*
Y585971D01*
X758387Y587304D01*
X757054D01*
X755722Y585971D01*
Y583305D01*
X757054Y581972D01*
X759720D01*
X761053Y583305D01*
X537082Y507416D02*
X538414Y508749D01*
X541080D01*
X542413Y507416D01*
Y502084D01*
X541080Y500751D01*
X538414D01*
X537082Y502084D01*
X529084Y500751D02*
X534416D01*
X529084Y506083D01*
Y507416D01*
X530417Y508749D01*
X533083D01*
X534416Y507416D01*
X526418D02*
X525085Y508749D01*
X522420D01*
X521087Y507416D01*
Y502084D01*
X522420Y500751D01*
X525085D01*
X526418Y502084D01*
Y507416D01*
D77*
X518500Y495250D02*
G03*
X518500Y496250I0J500D01*
G01*
D02*
G03*
X518500Y495250I0J-500D01*
G01*
D78*
X732000Y523500D02*
X792000D01*
Y463500D02*
Y523500D01*
X732000Y463500D02*
Y523500D01*
Y463500D02*
X792000D01*
M02*
