M48
;Layer_Color=9474304
;FILE_FORMAT=4:4
METRIC,LZ
;TYPE=PLATED
T01F00S00C0.3000
T02F00S00C0.4000
T03F00S00C0.8900
T04F00S00C1.0000
T05F00S00C1.0300
T06F00S00C1.5700
;TYPE=NON_PLATED
T07F00S00C3.0000
T08F00S00C3.2000
%
T01
X00018Y00014
X00034
X00042Y0003
X00026
X00018Y00046
X00034
X00042Y00062
X00026
X00018Y00078
X00026Y00094
X00042
X00018Y0011
X00026Y00126
X00018Y00142
X00026Y00158
X00018Y00174
X00082
X00098
X00114
X0013
X00146
X00154Y00158
X00138
X00122
X00106
X0009
X00082Y00142
X00098
X00114
X0013
X00146
X00154Y00126
X00138
X00122
X00114Y0011
X0013
X00146
X00154Y00094
X00138
X00122
X00114Y00078
X0013
X00146
X00154Y00062
X00138
X00122
X0013Y00046
X00146
X00154Y0003
X00138
X00122
X00114Y00014
X0013
X00146
X00098
X00082
X00066
X0005
X00058Y0003
X00074
X0009
X00082Y00046
X00066
X0005
X00058Y00062
X00074
X0009
X00066Y00078
X0009Y00126
X00769999Y0011
X00785999
X00793999Y00126
Y00094
X00777999
X00769999Y00078
X00785999
X00793999Y00062
X00777999
X00769999Y00046
X00785999
X00793999Y0003
X00777999
X00769999Y00014
X00785999
Y00174
X00793999Y0019
X00777999
X00769999Y00206
X00785999
X00793999Y00222
X00777999
X00769999Y00238
X00785999
X00793999Y00254
X00777999
X00769999Y0027
X00785999
X00793999Y00286
X00777999
X00769999Y00302
X00785999
X00793999Y00318
X00777999
X00769999Y00334
X00785999
X00793999Y0035
X00785999Y00366
X00793999Y00382
X00777999
X00769999Y00398
X00785999
X00793999Y00414
X00777999
X00761999
X00753999Y0043
X00769999
X00785999
X00761999Y00446
X00753999Y00462
X00769999
X00777999Y00478
X00793999
X00785999Y00494
X00769999
X00753999
X00761999Y0051
X00777999
X00793999
X00769999Y00526
X00753999
X00759Y005385
X00785999Y00558
X00793999Y00574
X00761999Y00478
X00753999Y00366
X00633999Y0035
X00585999Y00318
X00569999
X00585999Y00286
X0053Y00302
X0049Y0035
X00569999Y00382
X00558581Y00456544
X00557557Y00464993
X0055Y00453
X00541Y00454
X00529
X00538Y00466
X0052275Y0047475
X005185Y00479
X005225Y0049
X00523Y0050125
X0052875Y0050975
X00529155Y005305
X005205Y0053075
X00512411Y00527169
X005125Y00535
X0050425Y0050625
X0048775Y0050275
X0048425Y0051
X00483237Y004901
X00452842Y00491243
X0045175Y0049875
X0045225Y0050625
X00444337Y0049176
X0045485Y004801
X0044825Y0046975
X0045425Y0045275
X00453Y0055125
X00452875Y00558984
X004835Y0055675
X005405Y005515
X0043875Y0053575
X00435428Y00528822
X0043975Y005215
X00405Y005275
X003888
X003725
Y0051
X003888Y005101
X00405Y0051
Y004925
X003888
X003725
X003568Y00488
X0036275Y004781
X00345999Y00478
X0033
X00324Y0047
X003235Y0048775
X00323Y0050025
X003235Y0050875
X00323537Y00516489
X003235Y0052675
X0032384Y0053732
X00324Y0055675
X0033075Y0057525
X00345999Y00574
X00358Y00574
X00353999Y00558
X003568Y00537192
X00356687Y00519587
X00356675Y00509125
X002943Y005085
X00282Y00542
X00266
X0025
X00234
X00218
X00202
X00186
X00194Y00558
X0021
X00226
X00242
X00258
X00274
X0029
X00282Y00574
X00266
X0025
X00234
X00226Y00526
X00242
X00258
X0025Y0051
X00234
X00218
X00202
X00186
X0017
X00154
X00138
X00122
X00114Y00494
X0013
X00146
X00162
X00178
X00194
X0021
X00226
X00234Y00478
X00218
X00202
X00186
X0017
X00154
X00146Y00462
X00162
X00178
X00194
X0021
Y00526
X00194
X0013
Y00462
X0012675Y0042975
X00154Y00414
X00162Y00398
X00178
X00202Y00382
X00218
X00234
X00226Y00398
X00242
X00226Y00366
X0021
X00218Y0035
X00202
X0021Y00334
X00242
X00274
X00282Y0035
X00274Y00366
X00282Y00382
X00338Y00398
X00371Y00411
X0037475Y0044525
X00363Y00445
X0034325Y0044575
X003008Y004431
X0039475Y00445913
X004075Y0044575
X004348Y00443662
X0042125Y004805
X00385999Y00462
X00413815Y00371185
X00402Y00302
X00322
X00314Y00318
X00306Y00334
X0021Y00302
X00146
X0013
X00114
X00098
X00082
X00066
X00082Y00334
X0004858Y00347379
X00066Y00398
X00058Y00414
X0005Y0043
X00058Y00446
X0005Y00462
X00058Y00478
X00074
X0009
X00106
X00082Y00462
X0009Y00446
X00082Y0043
X0009Y00414
Y00382
X00122
X00138
X00146Y00366
X00154Y0035
X0017
X00146Y00334
X00154Y00318
Y00286
X00138
X00122
X00106
X00114Y0027
X0013
X00146
X00154Y00254
X00138
X00122
X00106
X00114Y00238
X0013
X00146
X00154Y00222
X00138
X00122
X00106
X0009
X00082Y00206
X00098
X0009Y0019
X00154
X0005Y00238
X00074Y0051
X00082Y00558
X00098
X00106Y00574
X00405765Y00575316
X0042175Y005695
X0043825Y0057525
X00421494Y0054534
X000395Y00536
X00034Y00494
X00042Y00478
X00026
X00034Y00462
X00042Y00446
X00026
X00034Y0043
X00026Y00254
X00018Y00238
X00034
X00026Y00222
X00018Y0059
X00026Y00606
X00042
X00034Y00622
X00018
X00026Y00638
X00042
X00034Y00654
X00018
X0005
X00066
X00082
X00098
X00114
X0013
X00106Y00638
X00098Y00622
X00106Y00606
X00098Y0059
X00074Y00606
X00058
X0005Y00622
X00066
X00074Y00638
X00058
X0005Y0059
X0014225Y0058525
X0017Y00606
X00202
X00226Y00622
X00234Y00638
X00226Y00654
X00242
X00258
X00266Y00606
X00282
X00298
X0029Y00622
X00306
X00322
X00338
X00339Y00606
X0033Y00606
X00318261Y00601204
X00306Y0059
X0029
X00274
X00258
X00316019Y00641928
X003445Y006405
X00362Y00606
X004145Y00606
X00425999Y00606
X00433999Y00622
X00425999Y00638
X00417999Y00654
X00433999
X0045
X00465999
X00482
X00497999
X00513999
X00522Y00638
X00505999
X0049
X00473999
X00457999
X00442
X00457999Y00606
X00473999
X0049
X00505999
X00522
X00513999Y00622
X00497999
X00482
Y0059
X00513999
X00753999
X00769999
X00785999
X00793999Y00606
X00777999
X00761999
T02
X00169Y00421
X00179
Y00431
X00169
Y00441
X00179
X00189
Y00431
Y00421
X00185Y0057
X00195
X00205
Y0058
X00195
X00185
Y0059
X00195
X00205
T03
X004521Y002642
X004725
X004929
X005133
X005031Y002896
X004827
X005235
X005986
X00619
X006394
X006292Y002642
X006496
X0067
X006904
X007108
X007006Y002896
X006802
X00721
X00701Y003731
X006806
X006602
X006704Y003985
X0065
X006296
X006092
X005888
X005786Y003731
X00599
X006194
X006908Y003985
X006088Y002642
X004419Y002896
X004215
X004011
X004113Y002642
X004317
X003158
X002954
X00275
X002546
X002342
X002138
X002036Y002896
X00224
X002444
X002852
X003056
X00326
T04
X00105Y0009
Y0012
T05
X004981Y00315
X005235
X005986
X00624
X00604Y003477
X005786
X006756
X00701
X006956Y00315
X00721
X004265
X004011
X00326
X003006
X00229
X002036
T06
X0018415Y0008
X0034545
X0038165
X0054295
X0057915
X0074045
X0072045Y005827
X0055915
T07
X00105Y000468
X0077Y00145
X0019Y00635
X0077
T08
X002013Y001118
X003283
X003988
X005258
X005963
X007233
X007033Y005509
X005763
M30
